<?xml version="1.0" encoding="UTF-8"?>
<svg id="Livello_2" data-name="Livello 2" xmlns="http://www.w3.org/2000/svg" xmlns:xlink="http://www.w3.org/1999/xlink" viewBox="0 0 1920 7052">
  <defs>
    <style>
      .cls-1 {
        fill: none;
      }

      .cls-2 {
        clip-path: url(#clippath);
      }

      .cls-3 {
        opacity: .2;
      }
    </style>
    <clipPath id="clippath">
      <rect class="cls-1" width="1920" height="7052"/>
    </clipPath>
  </defs>
  <g id="Livello_18" data-name="Livello 18" class="cls-3">
    <g class="cls-2">
      <g>
        <path d="m1004.48,2275.87c-19.34,0-38.31-3.27-54.24-11.17-18.41-9.12-30.36-23.23-35.53-41.93-7.83-28.35,2.6-55.52,31.03-80.75,20.58-18.27,50.61-35.54,89.23-51.31,151.99-62.06,315.38-191.22,318.16-367.6,1.29-82.13-33.28-159.23-66.72-233.78-22.12-49.33-45-100.33-57.77-152.94-14.71-60.6-16.63-126.06-5.7-194.56,9.87-61.88,29.94-125.05,59.64-187.75,56.41-119.08,139.31-223.88,219.49-325.23,36.13-45.67,74.2-91.88,111.02-136.56,110.67-134.32,225.11-273.21,309.75-424.4,45.65-81.55,116.61-147.01,199.82-184.33,42.58-19.1,86.88-30.2,131.68-32.99,47.25-2.94,94.04,3.47,139.06,19.05,71.41,24.72,137.04,72.21,189.81,137.35,49.24,60.78,86.05,134.79,106.45,214.03,18.62,72.31,25.81,149.65,21.98,236.42-3.13,71.04-13.84,148.71-32.73,237.44-51.11,240.01-138.49,469.88-259.71,683.24-55.52,97.72-111.49,174.32-171.09,234.16-35.45,35.59-72.59,65.42-110.41,88.65-41.45,25.47-85.03,43.84-129.53,54.59-44.85,10.84-91.75,14.11-137.1,17.27-45.84,3.19-93.24,6.5-138.44,17.63-63.3,15.59-125.25,46.71-189.39,95.11-57.29,43.24-111.2,96.14-163.34,147.3-91.18,89.47-185.46,181.99-303.15,229.1-20.68,8.28-46.8,13.95-72.27,13.95Zm498.37-1646.41l.78.62c-80.1,101.26-162.93,205.97-219.25,324.84-29.62,62.54-49.64,125.52-59.48,187.21-10.88,68.24-8.98,133.44,5.67,193.78,12.73,52.44,35.57,103.36,57.65,152.6,33.53,74.76,68.19,152.06,66.89,234.63-2.79,177.35-166.82,307.12-319.4,369.42-38.41,15.69-68.24,32.83-88.66,50.95-27.81,24.68-38.04,51.17-30.43,78.72,5.01,18.13,16.62,31.81,34.49,40.67,36.35,18.01,88.91,11.55,124.87-2.85,117.31-46.97,211.45-139.34,302.49-228.67,52.18-51.2,106.14-104.15,163.53-147.47,64.36-48.58,126.55-79.8,190.11-95.46,45.37-11.18,92.86-14.48,138.78-17.68,45.27-3.15,92.08-6.41,136.77-17.22,44.29-10.71,87.68-29,128.95-54.35,37.68-23.15,74.71-52.88,110.04-88.36,59.47-59.71,115.33-136.17,170.77-233.74,121.12-213.18,208.43-442.86,259.49-682.67,18.87-88.63,29.57-166.19,32.69-237.12,3.81-86.58-3.36-163.72-21.92-235.83-20.33-78.96-57-152.71-106.06-213.27-52.53-64.85-117.85-112.12-188.91-136.72-44.77-15.5-91.3-21.87-138.28-18.95-44.56,2.78-88.63,13.82-130.98,32.81-82.81,37.15-153.45,102.31-198.89,183.49-84.72,151.35-199.22,290.31-309.95,424.69-36.81,44.68-74.88,90.88-111,136.53l-.78-.62Z"/>
        <path d="m1195.5,7614.02c-30.74,0-62.41-1.19-95.1-3.57-138.98-10.1-276.83-39.38-417.58-71.06-232.49-52.34-459.09-105.19-675.34-176.07-247.1-81-451.81-176.62-625.81-292.33-69.39-46.15-134.11-97.62-192.36-153-55.53-52.79-107.02-110.88-153.03-172.65-84.94-114.02-153.8-242.61-210.53-393.09-47.28-125.41-86.74-268.75-120.65-438.2-30.23-151.1-53.38-308.67-75.76-461.05-20.7-140.89-42.1-286.57-69.07-427.07-210.97-1098.71-422.03-2215.97-645.25-3415.63l-.06-.3.12-.28L-1054.65-805.03l.69.03,2709.95,112.09,1.06.04-.11,1.06-62,599.44-.47.25c-80.88,43.37-156.86,95.48-225.82,154.88-138.62,119.39-260.59,277.02-343.43,443.85-46.35,93.34-79.91,188.29-99.74,282.2-21.65,102.53-26.86,203.83-15.48,301.08,19.35,165.43,80.15,272,129,357.63,48.43,84.9,83.42,146.24,46.9,217.94-47.08,92.43-160.72,98.63-304.59,106.49-152.72,8.34-342.79,18.72-527.76,135.9-138.48,87.73-267.75,230.38-345.79,381.61-86.96,168.51-99.7,324.79-35.87,440.06,62.35,112.59,192.57,196.81,357.27,231.05,51.1,10.63,102.96,15.83,153.74,15.84,106.08,0,207.48-22.72,287.64-66.28,117.23-63.7,197.15-174.74,267.66-272.7,70.19-97.52,102.58-170.17,128.6-228.55,31-69.53,51.47-115.47,113.67-155.71,64.93-42.01,151.13-61.21,242.74-54.05,90.76,7.09,176.86,39.09,242.42,90.1,193.57,150.6,162.77,433.6,142.38,620.87-20.55,188.82-96.07,303.79-176.03,425.51-47.56,72.4-96.74,147.27-138.43,242.57-53.9,123.21-82.77,259.75-83.48,394.87-.36,68.38,6.42,136.21,20.16,201.61,14.1,67.14,35.58,131.86,63.83,192.34,73.31,156.98,188.83,291.18,300.55,420.96,52.77,61.3,107.34,124.69,156.88,189.78,94.08,123.62,167.51,278.6,212.33,448.21,43.22,163.54,58.74,335.12,44.88,496.21-5.7,66.22-16.9,131.01-27.73,193.67-13.11,75.82-26.66,154.23-30.71,236.26-7.88,159.78-25.25,368.98-90.06,570.1-46.4,143.98-117.79,277.1-206.44,384.98-47.4,57.68-99.71,108.17-155.47,150.06-58.98,44.31-122.35,79.37-188.34,104.21-93.55,35.21-197.1,52.59-314.42,52.59ZM-2082.96,1610.22c223.21,1199.58,434.25,2316.69,645.2,3415.33,26.99,140.55,48.39,286.25,69.09,427.16,22.38,152.36,45.52,309.9,75.75,460.95,33.88,169.34,73.32,312.58,120.56,437.89,56.66,150.31,125.44,278.73,210.26,392.6,45.95,61.68,97.36,119.69,152.81,172.4,58.16,55.29,122.79,106.7,192.09,152.78,173.85,115.61,378.39,211.15,625.32,292.09,216.16,70.86,442.71,123.69,675.15,176.02,140.67,31.67,278.44,60.93,417.28,71.02,157.22,11.42,290.9-4.57,408.68-48.9,65.82-24.77,129.02-59.74,187.85-103.94,55.64-41.8,107.83-92.18,155.13-149.73,88.49-107.69,159.76-240.58,206.08-384.33,64.75-200.9,82.09-409.93,89.97-569.59,4.05-82.16,17.62-160.62,30.73-236.51,10.83-62.62,22.02-127.37,27.71-193.5,13.84-160.86-1.66-332.21-44.82-495.52-44.76-169.35-118.06-324.1-211.99-447.5-49.5-65.04-104.05-128.4-156.8-189.68-111.81-129.88-227.42-264.19-300.85-421.42-28.31-60.62-49.83-125.48-63.97-192.78-13.77-65.54-20.56-133.51-20.2-202.03.71-135.39,29.64-272.21,83.65-395.66,41.76-95.46,90.99-170.4,138.59-242.87,79.82-121.51,155.21-236.28,175.71-424.63,20.34-186.83,51.07-469.16-141.62-619.08-65.26-50.77-150.97-82.62-241.35-89.68-91.16-7.12-176.93,11.96-241.49,53.73-61.7,39.92-82.08,85.64-112.93,154.85-26.06,58.46-58.49,131.22-128.8,228.9-70.64,98.14-150.71,209.38-268.33,273.29-80.44,43.71-182.2,66.52-288.61,66.52-50.92,0-102.9-5.22-154.13-15.87-165.27-34.36-295.98-118.94-358.61-232.04-64.17-115.87-51.44-272.83,35.84-441.95,78.2-151.53,207.73-294.47,346.5-382.38,185.42-117.46,375.77-127.85,528.72-136.21,143.23-7.82,256.36-14,302.92-105.4,36.03-70.74,1.27-131.68-46.85-216.04-48.94-85.79-109.85-192.56-129.25-358.39-11.4-97.47-6.18-198.98,15.51-301.73,19.86-94.07,53.48-189.18,99.91-282.67,82.96-167.06,205.1-324.91,343.92-444.47,68.94-59.37,144.88-111.48,225.71-154.87l61.78-597.32-2708.19-112.02-1029.61,2413.19Z"/>
        <path d="m265.14,7178.08c-83.47,0-172.23-14-268.23-42.14-133.62-39.16-266.55-101.37-391.25-161.73l-1262.6-611.12c-128.93-62.4-262.24-126.93-373.29-221.96-42.88-36.7-76.68-73.24-103.34-111.71-24.8-35.79-43.49-73.46-57.14-115.15-25.47-77.78-31.18-161.25-36.46-270.69-7.58-157.02-32.3-318.11-56.2-473.89-14.21-92.65-28.91-188.45-39.73-281.79-65.42-564.72-106.33-1060.2-125.06-1514.74-10.63-258.01-14.28-510.61-10.85-750.79,3.68-257.14,15.6-509.54,35.44-750.19,21.03-255.06,51.66-505.64,91.05-744.79,41.44-251.62,93.91-498.77,155.96-734.6,23.06-87.66,47.88-175.53,73.77-261.17,32.32-106.93,73.04-232.34,129.96-351.7,59.49-124.76,127.9-224.22,209.13-304.06,193.11-189.81,463.28-272.94,723.46-341.83,468.91-124.15,949.92-223.4,1429.68-294.99,126.84-18.93,263.4-37.47,402.6-44.91,149.19-7.98,280.7-1.79,402.07,18.89,137.69,23.47,269.74,69.82,381.88,134.05,124.17,71.12,222.54,161.97,292.36,270.03,36.26,56.12,63.84,118.47,81.97,185.33,17.96,66.23,25.87,133.97,23.51,201.32-2.42,69-15.55,134.72-39.03,195.32-24.73,63.82-60.28,120.11-105.69,167.31-35.83,37.25-78.39,68.3-126.5,92.29-47.01,23.44-97.04,39.05-148.71,46.39-22.01,3.13-43.83,4.67-65.29,4.67-83.98,0-162.5-23.66-225.97-68.88-87.82-62.56-210.09-85.01-304.25-55.87-70.16,21.72-120.71,69.9-146.18,139.35-31.38,85.56-50.03,179.78-57.04,288.06-6.27,96.83-2.89,196.63.38,293.13.97,28.56,1.97,58.1,2.71,87.28,2.54,99.25-3.61,182.88-18.79,255.68-19.18,91.99-52.28,166.69-101.21,228.38-44.55,56.16-103.99,103.42-181.72,144.46-69.36,36.62-146.89,65.2-221.86,92.83-88.32,32.56-179.66,66.22-260.07,113.65-63.04,37.18-120.58,84.77-171.01,141.43-49.14,55.21-90.34,117.67-122.47,185.62-32.12,67.95-54.23,139.43-65.71,212.45-11.78,74.94-12.03,149.6-.75,221.92,11.28,72.32,34.26,143.36,68.31,211.14,33.17,66.05,76,127.4,127.29,182.34,51.29,54.94,109.56,101.87,173.18,139.5,65.3,38.61,134.59,66.41,205.96,82.63,71.37,16.21,145.88,21.08,221.45,14.47,73.63-6.44,146.46-23.6,216.46-50.98,70-27.38,135.13-64.21,193.58-109.45,59.99-46.43,111.41-100.56,152.83-160.91,23.89-34.8,45.63-72.7,66.65-109.35,50.38-87.83,102.49-178.65,188.01-233.32,72.82-46.55,164.72-58.99,258.77-35.02,109.64,27.94,206.09,100.98,258.01,195.38,46.03,83.69,65.15,184.06,55.29,290.25-9.18,98.94-42.45,198.17-96.22,286.95-48.57,80.2-112.49,154.84-195.41,228.16-66.44,58.75-144.12,115.96-244.47,180.05-35.35,22.58-71.26,44.41-105.98,65.52-151.36,92.04-294.33,178.98-400.6,327.5-61.13,85.43-108.19,179.96-139.86,280.94-31.99,101.99-46.97,206.46-44.53,310.51,3.2,136.38,37.36,275.25,98.8,401.6,61.44,126.35,149.57,238.98,254.86,325.71,80.23,66.08,171.64,122.37,271.74,167.36,91.26,41.02,192.83,74.01,301.89,98.05,98.38,21.69,202.28,36.42,317.63,45.02,97.88,7.3,202.19,9.99,318.87,8.21,40.03-.61,84.93-5.07,132.46-9.8,56.65-5.63,115.22-11.45,172.37-11.5h.68c112.04,0,188.85,23.17,241.73,72.91,35.21,33.12,64.19,78.01,86.14,133.44,19.71,49.79,33.48,107.18,40.91,170.58,13.2,112.53,5.16,237.04-21.5,333.09-21.11,76.04-53.87,147.44-97.39,212.23-44.72,66.57-98.84,123.16-160.87,168.19-104.53,75.89-237.15,117.41-374.43,117.41-3.31,0-6.61-.02-9.93-.07-140.81-2.05-276.03-47.69-380.77-128.49-47.27-36.47-89.7-79.92-130.73-121.95-32.55-33.34-66.2-67.81-102.08-98.6-44.7-38.36-90.46-67.43-136.03-86.42-53.34-22.23-105.26-29.97-154.32-22.99-57.24,8.13-111.04,36.03-159.91,82.92-41.66,39.97-78.81,93.34-107.44,154.34-23.44,49.96-41.98,103.08-59.91,154.46-22.52,64.53-45.8,131.25-79.01,192.23-43.43,79.77-106.12,151.41-181.29,207.17-75.17,55.76-161.91,94.97-250.85,113.39-45.11,9.34-91.62,14.03-139.9,14.03ZM913.67-1207.22c-39.23,0-79.67,1.12-121.52,3.36-139.11,7.44-275.62,25.97-402.41,44.89-479.68,71.58-960.62,170.81-1429.46,294.94-259.92,68.82-529.81,151.86-722.57,341.32-81.06,79.67-149.33,178.95-208.73,303.5-56.86,119.24-97.55,244.56-129.85,351.42-25.88,85.62-50.69,173.46-73.75,261.1-62.03,235.76-114.49,482.85-155.92,734.41-39.38,239.1-70,489.63-91.03,744.63-19.84,240.61-31.76,492.96-35.44,750.05-3.43,240.15.21,492.71,10.85,750.68,18.73,454.49,59.63,949.92,125.05,1514.59,10.81,93.31,25.51,189.09,39.72,281.72,23.91,155.84,48.64,316.98,56.22,474.1,5.28,109.28,10.97,192.62,36.36,270.16,13.59,41.51,32.2,79.01,56.88,114.63,26.56,38.33,60.25,74.75,103,111.33,110.85,94.86,244.04,159.33,372.86,221.68l1262.6,611.12c124.62,60.32,257.46,122.49,390.94,161.61,151.21,44.32,284.39,53.5,407.16,28.07,88.66-18.36,175.13-57.45,250.06-113.04,74.94-55.59,137.43-127,180.72-206.52,33.12-60.84,56.38-127.48,78.87-191.93,17.95-51.42,36.5-104.6,59.99-154.65,28.73-61.22,66.03-114.8,107.86-154.93,49.18-47.19,103.36-75.27,161.02-83.46,49.42-7.02,101.69.76,155.37,23.13,45.76,19.07,91.71,48.25,136.57,86.75,35.95,30.85,69.63,65.35,102.21,98.72,40.98,41.98,83.36,85.38,130.52,121.76,104.4,80.54,239.2,126.03,379.58,128.08,140.38,2.08,276.45-39.49,383.15-116.96,61.84-44.89,115.8-101.31,160.38-167.69,43.4-64.61,76.07-135.81,97.12-211.64,26.59-95.81,34.61-220.04,21.44-332.32-7.42-63.23-21.14-120.46-40.78-170.08-21.83-55.15-50.65-99.8-85.65-132.72-52.48-49.36-128.88-72.37-240.36-72.37h-.68v-1s0,1,0,1c-57.04.05-115.57,5.87-172.17,11.49-47.58,4.73-92.52,9.2-132.63,9.81-116.74,1.78-221.1-.91-319.05-8.21-115.45-8.61-219.44-23.35-317.91-45.06-109.19-24.08-210.9-57.11-302.28-98.18-100.27-45.06-191.82-101.45-272.12-167.58-105.58-86.97-193.89-199.84-255.46-326.44-61.56-126.61-95.79-265.76-99-402.43-2.44-104.27,12.57-208.96,44.62-311.16,31.74-101.19,78.89-195.9,140.14-281.51,106.51-148.85,249.65-235.89,401.19-328.04,34.71-21.11,70.6-42.93,105.94-65.5,100.26-64.03,177.86-121.19,244.22-179.86,82.77-73.19,146.56-147.67,195.02-227.7,53.61-88.53,86.78-187.46,95.94-286.1,9.82-105.8-9.22-205.77-55.06-289.1-51.66-93.92-147.64-166.59-256.75-194.4-93.51-23.83-184.85-11.49-257.2,34.76-85.11,54.41-137.08,145.01-187.35,232.63-21.04,36.68-42.8,74.61-66.74,109.48-41.54,60.52-93.1,114.8-153.25,161.36-58.61,45.36-123.9,82.27-194.08,109.73-70.17,27.46-143.19,44.65-217.01,51.11-75.78,6.63-150.49,1.75-222.06-14.51-71.58-16.26-141.06-44.14-206.54-82.86-63.79-37.72-122.2-84.78-173.63-139.86-51.42-55.08-94.36-116.59-127.62-182.81-34.14-67.97-57.18-139.21-68.5-211.73-11.31-72.52-11.06-147.39.75-222.54,11.51-73.21,33.67-144.87,65.87-213,32.2-68.13,73.51-130.74,122.78-186.09,50.57-56.82,108.27-104.54,171.49-141.83,80.57-47.52,171.99-81.22,260.4-113.8,74.91-27.61,152.38-56.17,221.62-92.73,77.49-40.91,136.72-88,181.09-143.94,114.53-144.41,123.09-344.68,119.56-482.76-.74-29.17-1.75-58.7-2.71-87.26-3.27-96.55-6.65-196.4-.38-293.33,7.02-108.47,25.72-202.88,57.16-288.61,25.69-70.05,76.68-118.66,147.46-140.57,94.73-29.32,217.7-6.76,306,56.15,79.27,56.46,182.19,79.14,289.82,63.85,51.46-7.31,101.29-22.85,148.1-46.2,47.91-23.89,90.28-54.81,125.96-91.89,45.22-47.01,80.64-103.07,105.27-166.64,23.4-60.4,36.49-125.89,38.9-194.67,2.35-67.15-5.54-134.69-23.44-200.73-18.08-66.66-45.57-128.82-81.72-184.77-69.64-107.79-167.78-198.42-291.67-269.38-111.94-64.11-243.76-110.38-381.22-133.81-87.17-14.86-179.63-22.22-280.1-22.22Z"/>
        <path d="m149.93,6998.67c-27.83,0-55.49-2.32-82.75-6.94-49.26-8.36-95.78-24.06-138.28-46.65-73.67-39.16-139.77-98.4-202.08-181.1-55.52-73.69-102.98-158.79-148.88-241.09-45.71-81.97-92.98-166.73-148.2-240.18-61.89-82.31-127.45-141.38-200.43-180.59-100.98-54.25-217.57-70.17-330.32-85.58-46.61-6.37-94.82-12.95-141.32-22.16-43.39-8.59-84.09-21.95-120.97-39.71-35.01-16.86-67.68-38.22-97.12-63.49-54-46.36-98.42-106.09-135.79-182.59-68.95-141.13-100.42-312.34-130.86-477.91-10.4-56.56-20.22-109.98-31.41-161.69-45.86-211.95-78.85-435.44-98.05-664.27-18.08-215.49-24.41-441.38-18.8-671.38,10-410.44,54.78-821.36,133.1-1221.35,80-408.57,195-805.53,341.81-1179.87,102.46-261.24,273.94-698.49,543.26-1096.68,70.8-104.68,145.18-201.8,221.08-288.67,83.62-95.72,171.52-181.77,261.24-255.78,97.51-80.43,199.94-148.91,304.45-203.54,112.43-58.77,230.41-103.16,350.67-131.93,226.88-54.28,503.91-63.31,780.06-25.43,121.14,16.62,237.89,42.05,337.62,73.56,98.73,31.19,179.29,67.82,232.96,105.94,47.46,33.7,73.22,67.62,76.58,100.81,2.9,28.67-10.67,61.64-39.24,95.35-30.7,36.22-76.67,70.72-129.43,97.13-56.46,28.26-115.68,45.08-171.26,48.62l-.06-1,.06,1c-116.25,7.41-189.75-45.45-260.83-96.57-65.72-47.26-127.79-91.9-219.19-87.43-57.41,2.81-116.94,24.34-176.91,63.99-55.87,36.93-110.31,89.05-157.42,150.73-57.33,75.06-101.51,160.37-127.76,246.72-27.96,92-33.84,180.99-16.99,257.35,16.07,72.83,47.23,112.53,80.22,154.57,35.6,45.35,72.4,92.25,89.78,184.46,8.55,45.38,11.04,93.66,7.39,143.5-3.66,50.06-13.34,99.2-28.75,146.05-16.02,48.69-37.61,92.86-64.17,131.29-28.29,40.94-61.57,74.3-98.9,99.17-90.7,60.43-171.77,47.6-265.64,32.74-79.46-12.58-169.52-26.84-284.69-.59-64.43,14.68-128.6,40.14-190.72,75.67-59.69,34.13-116.19,76.78-167.94,126.76-102.85,99.32-180.85,222.52-219.6,346.9-32.99,105.86-39.74,218.39-20.06,334.48,18.17,107.23,58.29,214.97,119.22,320.23,57.58,99.47,130.86,192.02,217.79,275.09,84.12,80.38,179.41,149.2,275.56,199.02,157.97,81.85,351.76,131.63,531.67,136.59,97.99,2.7,189.06-7.71,270.71-30.95,88.9-25.3,165.1-65.51,226.5-119.51,44.77-39.38,82.52-86.89,115.4-145.26,29.02-51.52,50.63-104.59,71.53-155.92,25.01-61.42,48.63-119.43,82.14-167.69,37.6-54.15,82.49-88.58,141.27-108.34,56.75-19.08,120.12-21.95,183.24-8.31,59.38,12.84,115.04,40,156.74,76.5,80.33,70.32,121.69,186.87,116.47,328.18-2.33,63.06-14.23,129.8-34.43,193.01-20.08,62.85-48.39,122.37-81.88,172.12-79.16,117.62-165.18,150.39-274.07,191.88-90.15,34.34-192.32,73.27-319.16,169.36-87.71,66.45-167.48,145.76-237.09,235.73-56.6,73.15-106.85,153.74-149.34,239.52-71.64,144.63-100.16,260.96-107.19,293.16-10.32,47.24-41.71,191.02-35.21,364.43,3.68,98.05,18.87,190.83,45.15,275.75,31.92,103.15,80.66,196,144.86,275.98,56.19,70,125.12,131.1,204.9,181.6,68.54,43.4,147.29,80.32,234.04,109.75,159.1,53.96,318.79,74.38,435.4,89.28,98.74,12.62,203.48,4.14,304.77-4.06,114.39-9.26,232.68-18.84,341.27,2.41,42.27,8.27,79.9,27.06,111.83,55.83,29.39,26.49,53.38,60.81,71.29,102.01,25.48,58.61,37.33,129.7,33.38,200.17-3.95,70.45-23.53,137.16-55.12,187.84-42.34,67.92-109.15,122.71-188.12,154.29-78.97,31.57-165.14,37.95-242.63,17.94-134.69-34.77-238.52-136.1-338.94-234.08-5.63-5.49-11.24-10.97-16.85-16.42-117.43-114.23-247.62-229.44-403.73-298.38-79.42-35.07-164.2-55.54-245.18-59.19-89.11-4.02-170.93,11.7-243.18,46.72-37.36,18.11-72.01,42.56-102.98,72.69-30.6,29.76-56.16,63.63-75.97,100.67-41.8,78.14-53.64,163.39-33.32,240.05,12.34,46.57,35.63,89.89,58.16,131.79,14.64,27.24,29.79,55.41,41.86,84.32,18.55,44.41,29.87,92.19,33.62,142.01,3.65,48.47.08,97.54-10.62,145.84s-28.19,94.29-51.98,136.68c-24.45,43.57-54.89,82.1-90.46,114.52-35.58,32.42-76.76,59.15-122.41,79.45-44.41,19.75-91.82,32.9-140.91,39.08-21.17,2.66-42.35,3.99-63.45,3.99ZM726.41-690.96c-159.12,0-311.21,16.26-445.68,48.43-120.1,28.73-237.93,73.06-350.21,131.76-104.39,54.57-206.7,122.97-304.1,203.31-89.64,73.94-177.46,159.92-261.01,255.56-75.84,86.81-150.17,183.87-220.93,288.47-269.2,398.01-440.63,835.12-543.05,1096.29-146.77,374.23-261.74,771.08-341.71,1179.53-78.3,399.87-123.07,810.68-133.06,1221.01-5.6,229.93.72,455.75,18.8,671.17,19.19,228.74,52.17,452.15,98.01,664.01,11.19,51.74,21.02,105.17,31.42,161.75,30.42,165.44,61.87,336.51,130.69,477.4,37.25,76.25,81.51,135.76,135.3,181.95,29.3,25.16,61.83,46.42,96.68,63.21,36.73,17.69,77.27,30.99,120.5,39.55,46.45,9.19,94.62,15.77,141.21,22.14,112.93,15.43,229.7,31.38,331,85.8,73.25,39.35,139.02,98.6,201.09,181.15,55.3,73.55,102.6,158.37,148.35,240.4,45.86,82.24,93.29,167.28,148.73,240.86,62.13,82.46,128.02,141.51,201.42,180.54,83.4,44.33,184.01,61.87,283.29,49.38,99.28-12.49,192.41-54.41,262.23-118.03,69.82-63.62,120.19-152.45,141.84-250.15s13.52-199.5-22.89-286.65c-12.04-28.82-27.16-56.95-41.78-84.15-22.58-42-45.92-85.43-58.33-132.22-20.45-77.15-8.55-162.92,33.49-241.51,19.92-37.22,45.6-71.26,76.34-101.16,31.12-30.27,65.94-54.85,103.5-73.05,72.55-35.17,154.69-50.95,244.15-46.92,81.23,3.66,166.26,24.18,245.9,59.36,156.4,69.07,286.75,184.42,404.32,298.78,5.61,5.45,11.22,10.93,16.85,16.43,100.23,97.81,203.87,198.94,338.04,233.58,77.08,19.9,162.81,13.56,241.39-17.86s145.05-85.93,187.17-153.49c31.42-50.4,50.88-116.77,54.82-186.89,3.94-70.17-7.86-140.93-33.21-199.26-17.8-40.94-41.62-75.03-70.8-101.32-31.66-28.53-68.96-47.15-110.88-55.35-108.33-21.2-226.47-11.63-340.73-2.38-101.39,8.21-206.24,16.7-305.19,4.05-116.69-14.92-276.49-35.34-435.79-89.37-86.91-29.47-165.79-66.47-234.47-109.95-79.96-50.62-149.06-111.87-205.39-182.04-64.36-80.18-113.21-173.25-145.21-276.64-26.33-85.09-41.55-178.04-45.24-276.26-6.51-173.67,24.92-317.63,35.25-364.94,7.04-32.26,35.61-148.79,107.35-293.62,42.55-85.9,92.87-166.6,149.56-239.86,69.72-90.11,149.62-169.54,237.47-236.1,127.06-96.27,229.38-135.25,319.65-169.64,108.56-41.36,194.31-74.03,273.12-191.12,33.38-49.6,61.61-108.94,81.63-171.61,20.14-63.04,32.01-129.6,34.33-192.48,5.19-140.7-35.93-256.69-115.79-326.6-41.44-36.28-96.79-63.29-155.84-76.05-62.77-13.57-125.77-10.72-182.18,8.25-58.35,19.62-102.92,53.8-140.26,107.58-33.38,48.08-56.96,105.99-81.93,167.3-20.92,51.38-42.56,104.51-71.64,156.14-32.99,58.56-70.88,106.25-115.82,145.78-61.62,54.2-138.09,94.55-227.27,119.93-81.84,23.29-173.13,33.74-271.31,31.03-180.21-4.97-374.31-54.83-532.54-136.82-96.31-49.9-191.76-118.83-276.02-199.35-87.07-83.2-160.46-175.9-218.14-275.53-61.05-105.46-101.24-213.43-119.46-320.9-19.73-116.4-12.96-229.25,20.13-335.41,38.86-124.69,117.03-248.19,220.12-347.74,51.87-50.09,108.51-92.84,168.34-127.05,62.29-35.62,126.64-61.16,191.27-75.88,115.55-26.33,205.81-12.04,285.45.57,93.45,14.79,174.16,27.57,264.22-32.43,37.12-24.73,70.22-57.92,98.36-98.65,26.45-38.27,47.95-82.27,63.91-130.78,15.36-46.69,25-95.67,28.66-145.57,3.64-49.67,1.16-97.78-7.36-142.99-17.29-91.73-53.94-138.43-89.39-183.6-33.14-42.22-64.44-82.1-80.6-155.37-16.92-76.7-11.04-166.04,17.03-258.36,26.31-86.58,70.6-172.11,128.08-247.36,47.25-61.85,101.85-114.13,157.91-151.18,60.28-39.84,120.14-61.48,177.91-64.31,92.07-4.52,154.44,40.33,220.45,87.8,66.3,47.68,134.73,96.88,238.05,96.89,7,0,14.15-.23,21.48-.69,55.31-3.52,114.26-20.27,170.49-48.41,52.53-26.29,98.27-60.61,128.8-96.63,28.22-33.29,41.62-65.74,38.78-93.86-3.3-32.59-28.79-66.02-75.75-99.38-53.5-38-133.87-74.54-232.4-105.66-99.62-31.47-216.26-56.88-337.29-73.48-112.21-15.39-224.59-23.03-333.65-23.03Z"/>
        <path d="m1700.09,1546.34c-12.34,0-24.55-.89-36.4-2.68-42.42-6.43-79.29-24.01-106.65-50.84-33.98-33.33-53.75-78.52-60.44-138.13-5.97-53.21-.46-111.12,5.72-160.74,14.06-112.96,26.41-206.95,46.4-302.41,23.41-111.79,54.05-206.22,93.69-288.67l.9.43-.9-.43c58.01-120.67,145.32-204.89,229.75-286.33,20.33-19.6,39.81-43.18,60.43-68.15,41.34-50.03,84.08-101.77,137.83-125.69,67.16-29.88,126.72-26.46,177.04,10.17,34,24.75,80.97,77.85,111.69,190.27,19.67,71.98,27.81,154.86,21.25,216.31-16.93,158.54-60.4,313.47-129.2,460.49-68.8,147.01-159.9,279.65-270.77,394.23-33.18,34.29-61.87,60.12-90.29,81.29-35.57,26.5-70.15,45.18-105.72,57.13-27.04,9.08-56.04,13.75-84.32,13.75ZM2156.1,104.6c-26.66,0-55,6.64-84.87,19.93-53.32,23.73-95.91,75.28-137.1,125.13-20.66,25.01-40.18,48.63-60.58,68.31-84.31,81.32-171.48,165.41-229.34,285.76-39.56,82.3-70.16,176.58-93.53,288.21-19.97,95.38-32.31,189.33-46.37,302.25-6.16,49.5-11.66,107.26-5.72,160.27,6.63,59.14,26.21,103.93,59.85,136.93,27.05,26.54,63.55,43.93,105.55,50.29,38.7,5.87,81.24,1.96,119.78-10.98,81.1-27.24,146.92-88.01,195.21-137.91,110.72-114.42,201.7-246.88,270.4-393.69,68.7-146.81,112.11-301.53,129.02-459.85,6.54-61.22-1.58-143.82-21.19-215.57-30.57-111.86-77.2-164.62-110.94-189.18-27.36-19.92-57.51-29.89-90.18-29.89Z"/>
        <path d="m1789.15,1311.98c-12.23,0-24.18-1.63-35.63-4.91-55-15.74-93.48-52.14-114.4-108.2-14.26-38.22-20.31-85.53-17.98-140.59,2.04-48.18,10.38-101.42,24.8-158.23,29.57-116.49,74.4-210.48,103.81-255.58,28.93-44.35,95.39-120.64,166.46-180.62,110.48-93.25,174.86-102.34,209.41-93.54,43.99,11.2,69.52,57.55,75.89,137.75,5.37,67.66-20.36,134.24-43.06,192.99l-147.41,381.48c-21.34,55.24-45.54,117.84-88.4,164.88-21.65,23.77-49.24,42.86-77.67,53.77-18.74,7.19-37.59,10.81-55.81,10.81Zm-35.08-6.83c28.08,8.04,59.26,6.01,90.18-5.85,28.15-10.8,55.46-29.71,76.91-53.25,42.61-46.76,66.73-109.18,88.01-164.25l147.41-381.48c22.62-58.54,48.26-124.9,42.93-192.11-6.29-79.25-31.32-125-74.38-135.97-26.15-6.66-59-.51-97.65,18.27-33.29,16.18-70.29,41.37-109.98,74.86-70.92,59.86-137.23,135.95-166.07,180.19-70.28,107.76-170.15,392.53-110.44,552.61,20.68,55.43,58.72,91.42,113.07,106.98Z"/>
        <path d="m1177.88,3195.97c-7.31,0-13.44-.6-18.6-1.33-17.58-2.5-34.87-9.62-48.67-20.07-14.94-11.31-25.13-25.83-29.47-41.98-6.14-22.87-.12-49.51,18.41-81.43,16.09-27.72,39.56-55.9,60.27-80.75,16.92-20.31,32.91-39.5,42.69-55.7,52.61-87.09,98.24-167.8,139.51-246.77,14.22-27.21,28.93-55.35,51.44-77.29,25.1-24.47,56.83-36.07,84.88-31.04,25.47,4.57,46.88,21.71,61.89,49.57,12.37,22.95,20.29,52.88,22.31,84.28,6.29,97.73-20.52,200.08-75.49,288.21-54.97,88.13-135.09,157.23-225.62,194.58-38.25,15.78-64.82,19.72-83.57,19.72Zm-94.81-63.9c6.91,25.74,33.24,54.45,76.49,60.59,37.92,5.38,75.88-7.84,101.12-18.26,90.14-37.19,169.94-106.01,224.68-193.79,54.75-87.78,81.45-189.71,75.19-287.02-2-31.12-9.84-60.76-22.07-83.46-14.92-27.7-35.27-44.03-60.48-48.55-27.41-4.92-58.49,6.48-83.13,30.5-22.29,21.72-36.92,49.71-51.07,76.78-41.29,79-86.95,159.76-139.57,246.88-9.87,16.33-25.9,35.58-42.87,55.95-20.66,24.8-44.07,52.9-60.08,80.48-18.25,31.44-24.2,57.58-18.21,79.91Z"/>
        <path d="m596.47,3657.36c-10.02,0-20.36-1.06-31.07-3.32-48.25-10.2-87.1-54.99-90.39-104.19-2.46-36.87,18.15-80.08,63.02-132.08,37.76-43.77,84.55-84.39,122.15-117.03,11.26-9.78,21.9-19.01,30.62-26.92,128.92-116.87,229.36-217.67,316.09-317.24,102.78-117.99,188.15-236.64,261-362.75,23.45-40.59,50.03-86.6,93.28-113.02,29.87-18.24,65.93-25.26,104.29-20.29,36.34,4.7,71.65,20.11,99.42,43.39,32.97,27.64,56.75,63.23,70.68,105.79,12.54,38.33,16.95,81.63,13.11,128.7-6.84,83.75-40.16,174.72-89.15,243.37-31.03,43.49-69.54,84.79-117.73,126.25-37.91,32.62-80.83,64.73-139.15,104.09-130.4,88.01-269.99,167.36-401.42,240.01-8.33,4.6-16.65,9.2-24.98,13.79-34.15,18.81-65.03,49.62-97.73,82.25-53.93,53.8-109.48,109.21-182.04,109.21Zm845.34-1196.39c-29.1,0-56.27,7.31-79.59,21.55-42.82,26.15-69.26,71.92-92.59,112.31-72.92,126.22-158.36,244.97-261.23,363.06-86.78,99.63-187.28,200.48-316.26,317.41-8.74,7.92-19.39,17.16-30.66,26.95-37.55,32.6-84.28,73.17-121.94,116.83-44.5,51.59-64.96,94.33-62.53,130.65,3.22,48.34,41.4,92.35,88.8,102.36,87.21,18.43,150.29-44.5,211.29-105.35,32.8-32.72,63.79-63.63,98.18-82.58,8.33-4.59,16.66-9.18,24.98-13.78h0c131.39-72.62,270.94-151.95,401.27-239.92,92.53-62.45,187.63-133.52,256.37-229.85,48.78-68.36,81.97-158.96,88.78-242.37,3.82-46.79-.56-89.83-13.02-127.91-13.81-42.2-37.38-77.49-70.06-104.88-27.48-23.03-62.42-38.28-98.39-42.94-7.91-1.02-15.72-1.53-23.4-1.53Z"/>
        <path d="m42.76,4264.78c-12.05,0-23.85-1.04-35.42-3.11-71.21-12.74-136-68.46-169.08-145.43-26.88-62.53-34.87-137.1-24.42-227.97,8.91-77.52,29.62-156.68,59.87-228.93,32.91-78.59,75.25-145.88,125.86-200.01,59.6-63.74,150.6-85.61,238.61-106.75,47.26-11.35,96.13-23.09,139.52-41.18,282.67-117.79,524.72-323.28,681.56-578.63,9.35-15.23,18.87-31.17,28.07-46.58,35.34-59.2,71.89-120.42,115.94-170.82,49.88-57.07,102.63-91.81,161.27-106.19,67.24-16.49,140.15-1.91,205.31,41.06,62.2,41.02,109.83,103.72,130.67,172.04,20.12,65.92,20.68,140.08,1.64,214.46-17.63,68.84-51.37,136.62-97.59,196-41.38,53.17-92.79,102.33-157.17,150.27-50.69,37.75-107.86,73.9-185.37,117.21-27.6,15.42-55.91,30.76-83.29,45.59-98.87,53.56-201.1,108.95-290.69,179.5-113.23,89.17-207.22,203.26-298.13,313.59-107.95,131.02-219.57,266.5-363.57,359.98-68,44.14-128.45,65.89-183.61,65.89Zm1017.37-1531.48l.85.52c-157.06,255.7-399.44,461.48-682.5,579.43-43.54,18.15-92.49,29.9-139.83,41.28-87.72,21.08-178.44,42.87-237.62,106.17-50.44,53.95-92.66,121.05-125.48,199.42-30.18,72.08-50.83,151.05-59.73,228.38-10.41,90.51-2.47,164.75,24.27,226.95,32.82,76.35,97.04,131.63,167.6,144.25,11.44,2.05,23.13,3.07,35.06,3.08,54.77,0,114.85-21.64,182.53-65.57,143.74-93.31,255.27-228.67,363.12-359.57,90.97-110.41,185.04-224.58,298.43-313.89,89.73-70.66,192.03-126.09,290.98-179.69,27.37-14.83,55.68-30.17,83.27-45.58,77.43-43.26,134.54-79.37,185.16-117.06,64.23-47.83,115.51-96.86,156.78-149.89,46.05-59.17,79.67-126.69,97.23-195.27,18.96-74.03,18.4-147.81-1.61-213.38-20.72-67.88-68.05-130.19-129.86-170.96-64.69-42.66-137.04-57.14-203.73-40.79-58.23,14.28-110.65,48.81-160.24,105.56-43.92,50.26-80.43,111.4-115.73,170.53-9.21,15.42-18.72,31.36-28.09,46.6l-.85-.52Z"/>
        <path d="m1783.96,1187.3c-4.42,0-8.91-.38-13.47-1.19-32.01-5.68-59.95-33.43-71.17-70.7-10.27-34.1-6.76-70.16-1.45-104.05h0c22.48-143.31,83.58-281.02,181.6-409.33,5.97-7.82,13.06-19.13,21.26-32.23,23.99-38.3,56.84-90.76,89.26-95.52,20.89-3.07,38.27,2.05,51.67,15.21,31.78,31.23,32.51,98.8,28.46,130.16-21.85,169.11-81.18,334.93-171.56,479.52-25.81,41.29-65.84,88.13-114.6,88.13Zm-85.1-175.79l.99.16c-5.28,33.65-8.76,69.44,1.39,103.16,11.01,36.55,38.33,63.76,69.6,69.31,4.43.79,8.8,1.16,13.11,1.16,47.87,0,87.39-46.35,112.92-87.19,90.23-144.35,149.46-309.89,171.27-478.72,4.01-31.03,3.34-97.81-27.88-128.48-12.93-12.7-29.74-17.64-49.98-14.66-31.5,4.63-64.07,56.64-87.86,94.61-8.23,13.14-15.34,24.5-21.37,32.39-97.82,128.03-158.79,265.45-181.21,408.42l-.99-.16Z"/>
        <path d="m-251.95,1497.31l-1.65-1.13c59.06-86.05,170.81-132.42,341.65-141.75,17.9-.98,36.3-1.74,54.09-2.49,110.14-4.59,224.04-9.34,317.47-66.24,33.55-20.43,63.46-47.22,88.89-79.63,23.72-30.23,43.67-65.47,59.3-104.75,28.83-72.46,42.42-156.58,39.31-243.27-3.62-100.76-25.67-201.11-46.99-298.15-13.27-60.41-27-122.88-36.19-184.96-13.35-90.23-14.25-173.51-2.65-247.52,13.79-88.02,45.32-162.34,93.71-220.9l1.54,1.27c-48.16,58.28-79.54,132.27-93.27,219.93-11.56,73.81-10.67,156.89,2.66,246.92,9.18,62.01,22.9,124.44,36.16,184.82,21.34,97.13,43.41,197.57,47.04,298.51,3.12,86.96-10.52,171.36-39.45,244.08-15.7,39.45-35.74,74.86-59.59,105.24-25.58,32.6-55.67,59.55-89.42,80.11-93.87,57.17-208.03,61.92-318.42,66.53-17.79.74-36.18,1.51-54.06,2.49-170.18,9.3-281.43,55.39-340.11,140.89Z"/>
        <path d="m-193.61,1627.57l-1.87-.71c10.64-27.88,30.32-51.93,58.49-71.48,24.66-17.11,55.02-29.98,87.78-37.21,39.82-8.79,81.28-10.33,121.38-11.83,21.96-.82,44.68-1.67,66.86-3.69,125.75-11.49,250.34-66.85,350.82-155.87,100.48-89.03,170.44-206.04,196.99-329.49,31.21-145.12,9.07-296.31-12.34-442.51-3.75-25.59-7.62-52.06-11.14-77.99-14.32-105.76-18.59-189.68-13.43-264.1,6.74-97.16,29.48-178.32,69.51-248.14l1.74,1c-39.88,69.55-62.54,150.44-69.25,247.29-5.15,74.29-.89,158.08,13.41,263.7,3.51,25.92,7.39,52.38,11.13,77.97,21.44,146.38,43.61,297.74,12.32,443.22-26.64,123.87-96.82,241.27-197.62,330.57-100.8,89.31-225.79,144.84-351.97,156.37-22.24,2.03-44.98,2.88-66.97,3.7-40.01,1.49-81.38,3.04-121.02,11.79-32.51,7.17-62.61,19.93-87.07,36.9-27.84,19.31-47.27,43.05-57.76,70.55Z"/>
        <path d="m827.29,1647.18c-19.5,0-39.19-1.04-58.53-2.05-29.36-1.54-59.72-3.14-88.78-1.1-48.1,3.37-97.85,4.08-131.17-26.87-15.58-14.46-25.42-34.78-28.45-58.74-2.77-21.84.37-45.63,8.84-66.98,16.81-42.38,50.48-76.58,80.19-106.76,22.6-22.96,45.97-46.7,74.51-63.16,31.69-18.28,66.16-23.96,94.57-15.58,40.79,12.04,73.59,53.8,102.53,90.65,11.79,15.01,22.92,29.18,34.05,40.86,22.49,23.6,39.74,52.66,47.35,79.73,9.47,33.72,4.53,64.66-14.31,89.48-15.19,20.01-40.49,33.35-71.25,37.55-16.13,2.2-32.76,2.97-49.53,2.97Zm-117.43-6.12c19.67,0,39.56,1.05,59.01,2.07,35.89,1.88,72.99,3.84,107.68-.9,30.23-4.13,55.07-17.19,69.93-36.78,18.44-24.3,23.28-54.64,13.98-87.73-7.52-26.76-24.6-55.51-46.87-78.89-11.19-11.75-22.36-25.96-34.17-41.01-28.75-36.62-61.35-78.12-101.52-89.97-27.88-8.22-61.78-2.62-93,15.39-28.3,16.32-51.57,39.97-74.08,62.83-29.58,30.04-63.1,64.1-79.75,106.09-8.34,21.04-11.44,44.48-8.72,65.99,2.97,23.49,12.6,43.39,27.83,57.53,32.74,30.4,82.01,29.68,129.67,26.33,9.89-.69,19.93-.97,30.02-.97Z"/>
        <path d="m715.49,1576.64c-17.34,0-33.3-5.67-44.28-15.84-10.04-9.3-16.16-22.42-17.7-37.93-1.4-14.15,1.18-29.34,7.27-42.75,8.24-18.16,20.56-34.46,35.62-47.15,16.04-13.51,34.46-22.14,53.25-24.97,36.92-5.55,77.56-7.93,92.43,34.26,7.97,22.61,2.95,50.69-13.08,73.27-13.11,18.47-32.74,33.76-60.02,46.74-18.86,8.98-34.58,13.51-49.44,14.27-1.36.07-2.71.1-4.05.1Zm67.94-169.76c-10.75,0-22.13,1.39-33.48,3.09-35.95,5.4-70.23,33.26-87.34,70.97h0c-15.18,33.45-5.47,64.08,9.97,78.39,11.43,10.59,28.51,16.13,46.87,15.21,14.6-.74,30.07-5.21,48.69-14.07,26.96-12.83,46.34-27.91,59.25-46.09,15.67-22.07,20.58-49.44,12.83-71.45-10.05-28.52-31.72-36.04-56.77-36.04Z"/>
        <path d="m825.72,6458.31c-24.09,0-45.92-6.63-64.04-19.59-32.17-23.01-48.42-62.94-61.47-95.02-27.58-67.78-56.1-137.86-60.58-212.57-2.87-47.87,5.59-101.43,23.82-150.83,19.24-52.14,48.07-97.38,83.37-130.85,50.24-47.62,111.08-68.88,175.96-61.5,47.51,5.41,92.2,23.94,135.42,41.87,69.04,28.63,117.27,43.98,189.23,48.38,27.06,1.66,56.91,11.28,79.86,25.75,19.26,12.15,43.26,33.55,48.17,66.52,7.52,50.42-30.03,90.53-111.58,119.21-44.93,15.8-89.48,39.97-128.81,69.9-42.19,32.1-76.01,69.29-97.81,107.57-4.2,7.37-8.42,14.95-12.51,22.27-25.64,45.98-52.16,93.52-92.54,127.85-24.06,20.46-53.88,34.38-83.96,39.19-7.69,1.23-15.22,1.84-22.53,1.84Zm72.09-669.79c-54.96,0-106.26,21.29-149.6,62.38-35.09,33.25-63.74,78.24-82.87,130.09-18.13,49.14-26.55,102.42-23.7,150.01,4.45,74.38,32.91,144.31,60.43,211.94,12.96,31.84,29.08,71.47,60.78,94.15,23.18,16.59,52.6,22.6,85.09,17.4,29.72-4.76,59.19-18.52,82.98-38.74,40.11-34.1,66.53-81.48,92.09-127.3,4.09-7.33,8.31-14.91,12.52-22.29,21.93-38.51,55.94-75.91,98.34-108.17,39.5-30.05,84.23-54.33,129.36-70.2,80.53-28.32,117.63-67.69,110.27-117.03-4.8-32.22-28.35-53.2-47.26-65.13-22.67-14.3-52.17-23.81-78.91-25.45-72.25-4.42-120.62-19.81-189.87-48.53-43.09-17.87-87.65-36.35-134.88-41.73-8.32-.95-16.58-1.42-24.76-1.42Z"/>
        <path d="m854.88,6238.08c-4.56,0-8.84-.93-12.85-2.8-32.56-15.19-37.62-88.68-38.29-119.57l-.14-6.25c-.83-36.82-1.97-87.25,9.44-128.79,6.23-22.71,15.74-40.87,28.25-53.97,14.57-15.26,33.72-24.26,56.92-26.75l.11.99-.11-.99c17.73-1.9,35.15,2.37,52,6.5l149.66,36.66c28.49,6.98,67.03,19.99,72.83,52.26,2,11.1-.6,22.79-7.51,33.79-6.18,9.84-15.52,18.61-26.3,24.68-15.14,8.53-32.3,12.85-48.89,17.02-6.1,1.53-12.41,3.12-18.52,4.89-53.91,15.65-102.12,49.03-135.74,93.98-3.21,4.3-6.37,8.79-9.42,13.14-9.32,13.28-18.96,27.02-31.8,37.33-14.83,11.9-28.11,17.88-39.65,17.88Zm52.26-336.6c-2.9,0-5.8.14-8.71.45-42.78,4.59-70.08,30.51-83.46,79.26-11.33,41.26-10.19,91.52-9.37,128.22l.14,6.25c.66,30.52,5.59,103.08,37.13,117.8,13.39,6.25,30.35,1.26,50.4-14.82,12.62-10.13,22.18-23.75,31.42-36.92,3.06-4.36,6.22-8.87,9.45-13.19,33.88-45.3,82.46-78.94,136.79-94.71,6.14-1.78,12.47-3.37,18.59-4.91,16.47-4.14,33.49-8.42,48.4-16.82,26.8-15.11,35.81-39.82,32.83-56.38-5.59-31.12-43.4-43.82-71.34-50.67l-149.66-36.66c-13.89-3.4-28.18-6.9-42.61-6.9Z"/>
        <path d="m818.94,6342.06c-5.26,0-10.57-.91-15.68-3.03-21.92-9.09-39.38-34.03-51.89-74.14-7.85-25.16-13.54-55.24-17.39-91.95-7.25-69.05-.94-140.37,18.25-206.26,6.47-22.23,16.21-50.88,34.23-75.28,43.54-58.94,118.93-47.72,179.75-31.36,76.77,20.65,151.6,49.44,222.41,85.58,42.1,21.48,62.29,44.84,61.71,71.39-.39,17.81-11.54,36.11-29.82,48.95-14.02,9.85-30.4,15.92-46.24,21.78-2.36.87-4.71,1.75-7.06,2.63-54.08,20.37-105.49,48.12-152.79,82.48-47.31,34.36-89.6,74.67-125.69,119.8-1.14,1.42-2.27,2.86-3.41,4.29-9.56,12.05-19.44,24.51-32.19,33.49-8.95,6.3-21.44,11.62-34.19,11.62Zm-14.92-4.87c16.74,6.94,35.74.22,47.95-8.38,12.51-8.81,22.3-21.16,31.77-33.09,1.14-1.44,2.28-2.87,3.42-4.3,36.2-45.27,78.62-85.7,126.07-120.17,47.45-34.47,99.02-62.3,153.27-82.73,2.35-.89,4.71-1.76,7.07-2.63,15.72-5.82,31.98-11.84,45.79-21.54,17.76-12.48,28.59-30.18,28.97-47.36.56-25.71-19.27-48.47-60.62-69.57-70.69-36.07-145.39-64.81-222.02-85.43-24.99-6.72-62.16-15.33-96.36-12.51-35.4,2.92-61.98,17.03-81.26,43.12-17.83,24.14-27.5,52.57-33.92,74.65-19.11,65.64-25.4,136.7-18.18,205.5,9.78,93.18,33.31,150.04,68.05,164.45Z"/>
        <path d="m817.13,6543.75c-9.43,0-19.64-1.05-30.79-3.28-44.17-8.84-79.49-35.6-107.98-81.82-24.39-39.57-39.98-87.72-52.69-129.74l-24.66-81.55c-16.48-54.51-33.15-112.52-40.09-169.82-7.83-64.66-2.06-119.41,17.64-167.37,31.97-77.82,105.51-140.98,196.74-168.96,77.44-23.75,166.42-24.03,264.49-.81,86.98,20.59,170.22,56.67,250.71,91.57,46.48,20.15,99.16,42.99,135.9,83.33,18.45,20.25,31.61,45.7,37.04,71.65,5.93,28.36,2.29,54.93-10.54,76.85-25.47,43.52-77.13,58.2-127.08,72.4-9.52,2.71-19.37,5.5-28.71,8.43-83.38,26.12-163.67,79.36-238.64,158.26-38.01,40-74.75,85.92-115.6,144.5l-4.17,5.99c-34.56,49.69-62.87,90.38-121.58,90.38Zm84.22-818.57c-44.56,0-86.48,5.98-125.46,17.93-90.66,27.81-163.74,90.54-195.48,167.81-19.57,47.64-25.29,102.06-17.5,166.37,6.92,57.14,23.56,115.05,40.02,169.48l24.66,81.55c12.67,41.9,28.21,89.9,52.48,129.27,28.18,45.72,63.07,72.19,106.67,80.91,79.29,15.86,110.64-29.21,150.33-86.28l4.17-5.99c40.91-58.66,77.7-104.65,115.79-144.73l.72.69-.72-.69c75.21-79.15,155.79-132.57,239.49-158.79,9.37-2.94,19.23-5.74,28.76-8.45,49.58-14.09,100.84-28.66,125.9-71.49,12.58-21.49,16.14-47.57,10.31-75.43-5.36-25.61-18.34-50.72-36.56-70.71-36.46-40.01-88.93-62.76-135.22-82.84-80.42-34.86-163.57-70.92-250.38-91.46-48.31-11.44-94.41-17.15-137.98-17.15Z"/>
        <path d="m180.58,6595.8c-43.96,0-89.08-14.94-130.87-43.89-53.51-37.06-96.36-93.57-117.56-155.02-19.05-55.2-26.79-117.58-23.68-190.71,2.67-62.84,12.64-125.22,24.42-194.4l1.97.34c-11.76,69.11-21.72,131.43-24.39,194.15-3.1,72.87,4.61,135.01,23.58,189.97,21.07,61.06,63.65,117.21,116.81,154.03,57.15,39.59,120.55,52.76,178.51,37.09,48.01-12.98,90.12-44.7,121.77-91.75,29.01-43.11,47.21-96.49,51.27-150.31,8.12-107.86-29.48-214.99-62.66-309.5-33.36-95.04-71.17-202.75-63.79-310.17,3.73-54.21,21.61-108.09,50.35-151.72,31.46-47.74,73.61-80.24,121.9-93.97,15.43-4.39,32.11-7.19,48.24-9.9,39.33-6.61,79.99-13.45,104.31-43.88,31.03-38.82,22.94-96.75-24.75-177.08-110.5-186.14-224.76-378.62-378.32-537.01-80.75-83.29-168.2-151.39-259.91-202.39-101.38-56.38-205.35-90.15-309.02-100.39l.2-1.99c103.94,10.27,208.17,44.12,309.79,100.63,91.89,51.1,179.49,119.31,260.38,202.75,153.72,158.56,268.04,351.14,378.6,537.38,48.16,81.13,56.2,139.79,24.59,179.34-24.79,31.02-65.84,37.92-105.54,44.6-16.07,2.7-32.7,5.5-48.02,9.86-47.82,13.6-89.59,45.81-120.77,93.15-28.56,43.34-46.32,96.88-50.02,150.75-7.36,107,30.38,214.52,63.68,309.37,33.24,94.7,70.92,202.04,62.77,310.31-4.08,54.16-22.4,107.89-51.6,151.28-31.93,47.45-74.43,79.46-122.91,92.56-16.1,4.35-32.62,6.5-49.3,6.5Z"/>
        <path d="m-214.29,5835.92l-.39-1.96c111.28-22.3,215.19-86.33,292.6-180.3,77.41-93.97,120.36-208.22,120.94-321.71.62-121.96-43.68-249.69-124.75-359.66-70.4-95.49-168.44-179.56-291.37-249.87-6.23,8.38-7.84,20.05-4.31,31.42,3.64,11.68,11.93,20.54,22.19,23.69l-.59,1.91c-10.89-3.35-19.68-12.7-23.51-25.01s-1.9-25,5.17-33.94l.53-.67.75.43c123.54,70.53,222.04,154.93,292.75,250.85,81.33,110.32,125.77,238.47,125.14,360.86-.58,113.95-43.7,228.65-121.4,322.97-77.7,94.32-182.02,158.6-293.75,180.99Z"/>
      </g>
    </g>
  </g>
</svg>