<?xml version="1.0" encoding="UTF-8"?>
<svg id="Livello_2" data-name="Livello 2" xmlns="http://www.w3.org/2000/svg" viewBox="0 0 956.64 358.81">
  <defs>
    <style>
      .cls-1 {
        font-family: Futura-Medium, Futura;
        font-size: 36px;
        font-weight: 500;
      }

      .cls-2 {
        letter-spacing: -.08em;
      }

      .cls-3 {
        letter-spacing: -.02em;
      }

      .cls-4 {
        letter-spacing: -.08em;
      }

      .cls-5 {
        letter-spacing: -.14em;
      }

      .cls-6 {
        letter-spacing: -.02em;
      }

      .cls-7 {
        letter-spacing: 0em;
      }

      .cls-8 {
        fill: #fbb03b;
      }

      .cls-8, .cls-9, .cls-10 {
        stroke: #000;
        stroke-miterlimit: 10;
        stroke-width: 2px;
      }

      .cls-11 {
        letter-spacing: 0em;
      }

      .cls-9 {
        fill: #ddad73;
      }

      .cls-10 {
        fill: #d0d2a3;
      }

      .cls-12 {
        letter-spacing: .01em;
      }

      .cls-13 {
        letter-spacing: 0em;
      }

      .cls-14 {
        letter-spacing: -.03em;
      }

      .cls-15 {
        letter-spacing: .02em;
      }

      .cls-16 {
        letter-spacing: -.02em;
      }

      .cls-17 {
        letter-spacing: -.02em;
      }

      .cls-18 {
        letter-spacing: .03em;
      }
    </style>
  </defs>
  <g id="Livello_3" data-name="Livello 3">
    <g>
      <g>
        <rect class="cls-9" x="196.92" y="223.34" width="116" height="52" rx="19.12" ry="19.12"/>
        <rect class="cls-10" x="98.92" y="93.34" width="116" height="52" rx="19.12" ry="19.12"/>
        <rect class="cls-8" x="39.92" y="7.34" width="116" height="52" rx="19.12" ry="19.12"/>
        <text class="cls-1" transform="translate(14.92 46.03)"><tspan x="0" y="0">Il </tspan><tspan class="cls-14" x="30.69" y="0">5</tspan><tspan class="cls-5" x="51.8" y="0">7</tspan><tspan x="68.94" y="0">.3% degli u</tspan><tspan class="cls-13" x="258.06" y="0">t</tspan><tspan x="268.22" y="0">enti vi</tspan><tspan class="cls-6" x="364.85" y="0">v</tspan><tspan x="382.32" y="0">e il paese </tspan><tspan x="338.34" y="43.2">ogni gio</tspan><tspan class="cls-15" x="473.5" y="43.2">r</tspan><tspan x="487.51" y="43.2">no, </tspan><tspan x="59.43" y="86.4">il 28.6% delle </tspan><tspan class="cls-15" x="300.78" y="86.4">r</tspan><tspan x="314.79" y="86.4">ispos</tspan><tspan class="cls-13" x="396.19" y="86.4">t</tspan><tspan x="406.35" y="86.4">e i</tspan><tspan class="cls-16" x="446.34" y="86.4">n</tspan><tspan class="cls-6" x="465.54" y="86.4">v</tspan><tspan x="483.01" y="86.4">ece </tspan><tspan x="81.44" y="129.6">p</tspan><tspan class="cls-7" x="103.03" y="129.6">r</tspan><tspan class="cls-3" x="116.17" y="129.6">o</tspan><tspan class="cls-6" x="137.09" y="129.6">v</tspan><tspan x="154.56" y="129.6">engono da cit</tspan><tspan class="cls-13" x="380.14" y="129.6">t</tspan><tspan x="390.3" y="129.6">adini </tspan><tspan class="cls-18" x="482.26" y="129.6">c</tspan><tspan x="500.34" y="129.6">he </tspan><tspan class="cls-13" x="-9.12" y="172.8">t</tspan><tspan x="1.04" y="172.8">e</tspan><tspan class="cls-12" x="20.95" y="172.8">m</tspan><tspan x="49.87" y="172.8">po</tspan><tspan class="cls-11" x="93.09" y="172.8">r</tspan><tspan x="106.31" y="172.8">aneamen</tspan><tspan class="cls-13" x="257.27" y="172.8">t</tspan><tspan x="267.43" y="172.8">e vi</tspan><tspan class="cls-17" x="325.51" y="172.8">v</tspan><tspan x="342.91" y="172.8">ono alt</tspan><tspan class="cls-7" x="457.44" y="172.8">r</tspan><tspan class="cls-3" x="470.58" y="172.8">o</tspan><tspan class="cls-6" x="491.5" y="172.8">v</tspan><tspan x="508.97" y="172.8">e, </tspan><tspan x="17.31" y="216">il </tspan><tspan class="cls-11" x="46.35" y="216">r</tspan><tspan x="59.57" y="216">es</tspan><tspan class="cls-13" x="94.1" y="216">t</tspan><tspan x="104.26" y="216">an</tspan><tspan class="cls-13" x="145.58" y="216">t</tspan><tspan x="155.74" y="216">e </tspan><tspan class="cls-2" x="186.77" y="216">1</tspan><tspan x="206.14" y="216">4</tspan><tspan class="cls-4" x="228.36" y="216">.</tspan><tspan x="236.58" y="216">1% </tspan><tspan class="cls-11" x="302.89" y="216">r</tspan><tspan x="316.11" y="216">app</tspan><tspan class="cls-11" x="380.87" y="216">r</tspan><tspan x="394.08" y="216">esen</tspan><tspan class="cls-13" x="468.26" y="216">t</tspan><tspan x="478.42" y="216">a le </tspan><tspan class="cls-15" x="53.1" y="259.2">r</tspan><tspan x="67.11" y="259.2">ispos</tspan><tspan class="cls-13" x="148.52" y="259.2">t</tspan><tspan x="158.68" y="259.2">e di concit</tspan><tspan class="cls-13" x="325.86" y="259.2">t</tspan><tspan x="336.02" y="259.2">adini </tspan><tspan class="cls-18" x="427.97" y="259.2">c</tspan><tspan x="446.06" y="259.2">he da </tspan><tspan x="33.24" y="302.4">anni vi</tspan><tspan class="cls-17" x="141.43" y="302.4">v</tspan><tspan x="158.84" y="302.4">ono s</tspan><tspan class="cls-13" x="247.57" y="302.4">t</tspan><tspan x="257.73" y="302.4">abilmen</tspan><tspan class="cls-13" x="386.96" y="302.4">t</tspan><tspan x="397.12" y="302.4">e alt</tspan><tspan class="cls-7" x="468.54" y="302.4">r</tspan><tspan class="cls-3" x="481.69" y="302.4">o</tspan><tspan class="cls-6" x="502.61" y="302.4">v</tspan><tspan x="520.08" y="302.4">e</tspan></text>
      </g>
      <g>
        <path class="cls-9" d="m772.92,168.62V17.01c0-9.56-8.33-17-17.83-15.9-38.82,4.5-73.2,20.9-101.13,48.23-6.83,6.69-6.29,17.85,1.14,23.86l117.82,95.41Z"/>
        <path class="cls-10" d="m608.92,236.07c13.02,37.82,37.77,69.48,70.72,91.01,8.08,5.28,18.96,2.32,23.19-6.35l68.98-141.43-122.32-99.05c-7.53-6.1-18.66-4.13-23.74,4.12-3.01,4.88-5.78,9.97-8.5,15.56-20.87,42.79-23.83,91.14-8.33,136.14Z"/>
        <path class="cls-8" d="m781.92,17.13v161.96l-71.07,145.72c-4.19,8.59.04,18.93,9.06,22.11,18.34,6.47,36.47,9.34,57.52,9.34,98.27,0,178.21-79.95,178.21-178.21,0-90.59-67.95-165.62-155.56-176.78-9.61-1.22-18.15,6.17-18.15,15.86Z"/>
      </g>
    </g>
  </g>
</svg>