<?xml version="1.0" encoding="UTF-8"?>
<svg id="Livello_2" data-name="Livello 2" xmlns="http://www.w3.org/2000/svg" viewBox="0 0 1328 849.64">
  <defs>
    <style>
      .cls-1 {
        letter-spacing: -.02em;
      }

      .cls-2 {
        letter-spacing: .01em;
      }

      .cls-3 {
        letter-spacing: -.03em;
      }

      .cls-4 {
        letter-spacing: -.02em;
      }

      .cls-5 {
        letter-spacing: 0em;
      }

      .cls-6 {
        letter-spacing: -.06em;
      }

      .cls-7 {
        letter-spacing: .04em;
      }

      .cls-8 {
        letter-spacing: 0em;
      }

      .cls-9 {
        letter-spacing: .04em;
      }

      .cls-10 {
        font-size: 65px;
      }

      .cls-10, .cls-11, .cls-12 {
        font-family: Futura-Medium, Futura;
        font-weight: 500;
      }

      .cls-13 {
        letter-spacing: 0em;
      }

      .cls-14 {
        letter-spacing: 0em;
      }

      .cls-11 {
        font-size: 39px;
      }

      .cls-15 {
        fill: none;
        stroke: #000;
        stroke-miterlimit: 10;
        stroke-width: 2px;
      }

      .cls-16 {
        letter-spacing: .02em;
      }

      .cls-17 {
        letter-spacing: -.02em;
      }

      .cls-18 {
        letter-spacing: -.04em;
      }

      .cls-19 {
        letter-spacing: 0em;
      }

      .cls-20 {
        letter-spacing: 0em;
      }

      .cls-21 {
        letter-spacing: -.02em;
      }

      .cls-22 {
        letter-spacing: -.03em;
      }

      .cls-12 {
        font-size: 58px;
      }
    </style>
  </defs>
  <g id="Livello_14" data-name="Livello 14">
    <g>
      <g>
        <text class="cls-11" transform="translate(606.17 301.3)"><tspan class="cls-2" x="0" y="0">A</tspan><tspan x="29.33" y="0">tti</tspan><tspan class="cls-4" x="60.37" y="0">v</tspan><tspan x="79.29" y="0">a</tspan><tspan x="-8.87" y="46.8">Coesa</tspan><tspan x="-425.53" y="93.6">Ricca di oppo</tspan><tspan class="cls-9" x="-180.97" y="93.6">r</tspan><tspan x="-164.97" y="93.6">tunità di l</tspan><tspan class="cls-14" x="-1.03" y="93.6">a</tspan><tspan class="cls-21" x="22.7" y="93.6">v</tspan><tspan x="41.55" y="93.6">o</tspan><tspan class="cls-5" x="64.99" y="93.6">r</tspan><tspan x="79.24" y="93.6">o</tspan><tspan class="cls-20" x="-339.44" y="140.4">A</tspan><tspan x="-310.74" y="140.4">ccoglien</tspan><tspan class="cls-14" x="-164.4" y="140.4">t</tspan><tspan x="-153.39" y="140.4">e per i gi</tspan><tspan class="cls-1" x="6.61" y="140.4">o</tspan><tspan class="cls-4" x="29.27" y="140.4">v</tspan><tspan x="48.2" y="140.4">ani</tspan><tspan x="-480.44" y="187.2">Cultu</tspan><tspan class="cls-8" x="-390.23" y="187.2">r</tspan><tspan x="-375.91" y="187.2">ale/</tspan><tspan class="cls-2" x="-301.03" y="187.2">A</tspan><tspan x="-271.71" y="187.2">tt</tspan><tspan class="cls-8" x="-250.38" y="187.2">r</tspan><tspan x="-236.06" y="187.2">atti</tspan><tspan class="cls-4" x="-181.63" y="187.2">v</tspan><tspan x="-162.7" y="187.2">a per il tu</tspan><tspan class="cls-16" x="7.67" y="187.2">r</tspan><tspan x="22.85" y="187.2">ismo</tspan><tspan class="cls-5" x="-191.95" y="234">F</tspan><tspan x="-172.47" y="234">o</tspan><tspan class="cls-16" x="-149.03" y="234">r</tspan><tspan x="-133.85" y="234">ni</tspan><tspan class="cls-14" x="-102.76" y="234">t</tspan><tspan x="-91.75" y="234">a di se</tspan><tspan class="cls-7" x="26.2" y="234">r</tspan><tspan x="42.47" y="234">vizi</tspan><tspan x="-62.65" y="280.8">Dinamica</tspan><tspan x="-91.12" y="327.6">P</tspan><tspan class="cls-5" x="-70.06" y="327.6">r</tspan><tspan x="-55.81" y="327.6">opositi</tspan><tspan class="cls-4" x="60.37" y="327.6">v</tspan><tspan x="79.29" y="327.6">a</tspan><tspan x="-297.03" y="374.4">D</tspan><tspan class="cls-19" x="-268.72" y="374.4">o</tspan><tspan class="cls-14" x="-245.04" y="374.4">t</tspan><tspan x="-234.04" y="374.4">a</tspan><tspan class="cls-14" x="-210.65" y="374.4">t</tspan><tspan x="-199.65" y="374.4">a di inf</tspan><tspan class="cls-8" x="-76.42" y="374.4">r</tspan><tspan x="-62.1" y="374.4">ast</tspan><tspan class="cls-16" x="-12.23" y="374.4">r</tspan><tspan x="2.95" y="374.4">uttu</tspan><tspan class="cls-8" x="66.78" y="374.4">r</tspan><tspan x="81.1" y="374.4">e</tspan><tspan x="-584.92" y="421.2">Riconosciu</tspan><tspan class="cls-14" x="-399.5" y="421.2">t</tspan><tspan x="-388.5" y="421.2">a come pun</tspan><tspan class="cls-13" x="-180.57" y="421.2">t</tspan><tspan x="-169.63" y="421.2">o di </tspan><tspan class="cls-16" x="-89.03" y="421.2">r</tspan><tspan x="-73.85" y="421.2">i</tspan><tspan class="cls-16" x="-64.14" y="421.2">f</tspan><tspan x="-51.97" y="421.2">e</tspan><tspan class="cls-16" x="-30.39" y="421.2">r</tspan><tspan x="-15.22" y="421.2">imen</tspan><tspan class="cls-13" x="68.31" y="421.2">t</tspan><tspan x="79.24" y="421.2">o</tspan><tspan class="cls-5" x="-295.03" y="468">F</tspan><tspan x="-275.55" y="468">o</tspan><tspan class="cls-16" x="-252.11" y="468">r</tspan><tspan x="-236.93" y="468">ni</tspan><tspan class="cls-14" x="-205.84" y="468">t</tspan><tspan x="-194.83" y="468">a di un ospedale</tspan><tspan x="-257.67" y="514.8">Libe</tspan><tspan class="cls-8" x="-185.71" y="514.8">r</tspan><tspan x="-171.39" y="514.8">a da </tspan><tspan class="cls-16" x="-77.16" y="514.8">f</tspan><tspan class="cls-14" x="-64.99" y="514.8">a</tspan><tspan class="cls-21" x="-41.27" y="514.8">v</tspan><tspan x="-22.41" y="514.8">o</tspan><tspan class="cls-16" x="1.03" y="514.8">r</tspan><tspan x="16.21" y="514.8">itismi</tspan></text>
        <text class="cls-11" transform="translate(788.76 301.3)"><tspan x="0" y="0">Dese</tspan><tspan class="cls-9" x="87.29" y="0">r</tspan><tspan class="cls-14" x="103.29" y="0">t</tspan><tspan x="114.3" y="0">a</tspan><tspan x="0" y="46.8">Spopola</tspan><tspan class="cls-14" x="149.49" y="46.8">t</tspan><tspan x="160.49" y="46.8">a</tspan><tspan x="0" y="93.6">Come Calciano</tspan><tspan x="0" y="140.4">Mo</tspan><tspan class="cls-9" x="60.94" y="140.4">r</tspan><tspan class="cls-14" x="76.93" y="140.4">t</tspan><tspan x="87.94" y="140.4">a</tspan><tspan class="cls-18" x="0" y="187.2">V</tspan><tspan x="24.62" y="187.2">u</tspan><tspan class="cls-19" x="45.87" y="187.2">o</tspan><tspan class="cls-14" x="69.54" y="187.2">t</tspan><tspan x="80.55" y="187.2">a</tspan><tspan class="cls-17" x="0" y="234">P</tspan><tspan x="20.09" y="234">eggio di oggi</tspan><tspan x="0" y="280.8">Più popola</tspan><tspan class="cls-14" x="190.81" y="280.8">t</tspan><tspan x="201.82" y="280.8">a</tspan><tspan x="0" y="327.6">Più atti</tspan><tspan class="cls-4" x="118.49" y="327.6">v</tspan><tspan x="137.41" y="327.6">a</tspan><tspan x="0" y="374.4">In declino</tspan><tspan x="0" y="421.2">Con meno se</tspan><tspan class="cls-7" x="230.88" y="421.2">r</tspan><tspan x="247.14" y="421.2">vizi</tspan><tspan x="0" y="468">Senza futu</tspan><tspan class="cls-5" x="187.06" y="468">r</tspan><tspan x="201.3" y="468">o</tspan><tspan x="0" y="514.8">Come e</tspan><tspan class="cls-8" x="136.8" y="514.8">r</tspan><tspan x="151.12" y="514.8">a 20 anni </tspan><tspan class="cls-16" x="334.62" y="514.8">f</tspan><tspan x="346.79" y="514.8">a</tspan></text>
        <text class="cls-12" transform="translate(329.96 214.79)"><tspan class="cls-22" x="0" y="0">V</tspan><tspan x="37.3" y="0">ORREBBE</tspan><tspan class="cls-4" x="293.14" y="0">R</tspan><tspan x="327.07" y="0">O</tspan></text>
        <text class="cls-12" transform="translate(788.76 214.79)"><tspan x="0" y="0">IMM</tspan><tspan class="cls-3" x="128.63" y="0">A</tspan><tspan x="169.61" y="0">GI</tspan><tspan class="cls-19" x="235.57" y="0">N</tspan><tspan x="284.87" y="0">A</tspan><tspan class="cls-13" x="327.84" y="0">N</tspan><tspan x="377.2" y="0">O</tspan></text>
      </g>
      <text class="cls-10" transform="translate(326.23 57.24)"><tspan class="cls-3" x="0" y="0">T</tspan><tspan class="cls-16" x="29.14" y="0">r</tspan><tspan x="54.43" y="0">ica</tspan><tspan class="cls-16" x="140.57" y="0">r</tspan><tspan x="165.86" y="0">ico f</tspan><tspan class="cls-8" x="291.45" y="0">r</tspan><tspan x="315.32" y="0">a </tspan><tspan class="cls-6" x="374.35" y="0">1</tspan><tspan x="410.57" y="0">0 anni. Come i </tspan><tspan x="245.07" y="78">t</tspan><tspan class="cls-16" x="262.84" y="78">r</tspan><tspan x="288.14" y="78">ica</tspan><tspan class="cls-16" x="374.27" y="78">r</tspan><tspan x="399.57" y="78">icesi la</tspan></text>
      <line class="cls-15" x1="749" y1="166.64" x2="749" y2="849.64"/>
    </g>
  </g>
</svg>