<?xml version="1.0" encoding="UTF-8"?>
<svg id="Livello_2" data-name="Livello 2" xmlns="http://www.w3.org/2000/svg" viewBox="0 0 711.12 796.08">
  <defs>
    <style>
      .cls-1 {
        letter-spacing: -.08em;
      }

      .cls-2 {
        letter-spacing: -.04em;
      }

      .cls-3 {
        letter-spacing: -.02em;
      }

      .cls-4 {
        letter-spacing: -.08em;
      }

      .cls-5 {
        letter-spacing: -.14em;
      }

      .cls-6 {
        letter-spacing: -.02em;
      }

      .cls-7 {
        letter-spacing: -.02em;
      }

      .cls-8 {
        letter-spacing: 0em;
      }

      .cls-9 {
        letter-spacing: 0em;
      }

      .cls-10 {
        fill: #fbb03b;
      }

      .cls-10, .cls-11, .cls-12 {
        stroke: #000;
        stroke-miterlimit: 10;
      }

      .cls-10, .cls-12 {
        stroke-width: 2px;
      }

      .cls-13 {
        letter-spacing: 0em;
      }

      .cls-14 {
        letter-spacing: 0em;
      }

      .cls-15 {
        letter-spacing: .04em;
      }

      .cls-16 {
        letter-spacing: 0em;
      }

      .cls-17 {
        letter-spacing: 0em;
      }

      .cls-18 {
        letter-spacing: -.08em;
      }

      .cls-19 {
        letter-spacing: 0em;
      }

      .cls-20 {
        letter-spacing: 0em;
      }

      .cls-11 {
        stroke-width: .5px;
      }

      .cls-12 {
        fill: none;
      }

      .cls-21 {
        letter-spacing: .02em;
      }

      .cls-22 {
        letter-spacing: .02em;
      }

      .cls-23 {
        font-size: 20px;
      }

      .cls-23, .cls-24 {
        font-family: Futura-Medium, Futura;
        font-weight: 500;
      }

      .cls-25 {
        letter-spacing: -.06em;
      }

      .cls-26 {
        letter-spacing: .02em;
      }

      .cls-27 {
        letter-spacing: -.02em;
      }

      .cls-24 {
        font-size: 72px;
      }
    </style>
  </defs>
  <g id="Livello_11" data-name="Livello 11">
    <g>
      <text class="cls-24" transform="translate(183.7 63.4)"><tspan x="0" y="0">In cosa </tspan><tspan x="0" y="86.4">i</tspan><tspan class="cls-27" x="17.93" y="86.4">n</tspan><tspan class="cls-7" x="56.32" y="86.4">v</tspan><tspan x="91.27" y="86.4">esti</tspan><tspan class="cls-16" x="197.93" y="86.4">r</tspan><tspan x="224.37" y="86.4">ebbe</tspan><tspan class="cls-9" x="390.38" y="86.4">r</tspan><tspan x="416.67" y="86.4">o </tspan><tspan x="0" y="172.8">i</tspan><tspan class="cls-3" x="17.93" y="172.8"> </tspan><tspan x="38.71" y="172.8">t</tspan><tspan class="cls-22" x="58.4" y="172.8">r</tspan><tspan x="86.42" y="172.8">ica</tspan><tspan class="cls-22" x="181.83" y="172.8">r</tspan><tspan x="209.85" y="172.8">icesi:</tspan></text>
      <g>
        <g>
          <circle class="cls-12" cx="397.06" cy="541.32" r="186.66"/>
          <line class="cls-12" x1="558.71" y1="447.98" x2="550.63" y2="452.65"/>
        </g>
        <polygon class="cls-10" points="267.41 616.17 397.06 595.07 466.24 581.26 558.71 447.98 397.06 364.36 365.05 522.84 267.41 616.17"/>
        <rect class="cls-11" x="393.06" y="360.36" width="8" height="8" rx="4" ry="4"/>
        <rect class="cls-11" x="554.71" y="443.98" width="8" height="8" rx="4" ry="4"/>
        <rect class="cls-11" x="462.24" y="577.26" width="8" height="8" rx="4" ry="4"/>
        <rect class="cls-11" x="393.05" y="591.07" width="8" height="8" rx="4" ry="4"/>
        <rect class="cls-11" x="263.41" y="612.17" width="8" height="8" rx="4" ry="4"/>
        <rect class="cls-11" x="361.05" y="518.84" width="8" height="8" rx="4" ry="4"/>
        <text class="cls-23" transform="translate(122.21 429.82)"><tspan x="0" y="0">Ag</tspan><tspan class="cls-26" x="26.79" y="0">r</tspan><tspan x="34.57" y="0">icoltu</tspan><tspan class="cls-17" x="82.45" y="0">r</tspan><tspan x="89.79" y="0">a </tspan><tspan x="29.79" y="24">9.9%</tspan></text>
        <text class="cls-23" transform="translate(0 657.81)"><tspan x="0" y="0">Sviluppo attività p</tspan><tspan class="cls-8" x="163.31" y="0">r</tspan><tspan x="170.61" y="0">odutti</tspan><tspan class="cls-6" x="221.44" y="0">v</tspan><tspan x="231.15" y="0">e </tspan><tspan x="94.23" y="24">40</tspan><tspan class="cls-4" x="118.92" y="24">.</tspan><tspan x="123.49" y="24">1%</tspan></text>
        <text class="cls-23" transform="translate(324.24 766.31)"><tspan x="0" y="0">Se</tspan><tspan class="cls-15" x="22.72" y="0">r</tspan><tspan x="31.06" y="0">vizi pubblici </tspan><tspan class="cls-1" x="42.85" y="24">1</tspan><tspan x="53.61" y="24">4.4%</tspan></text>
        <text class="cls-23" transform="translate(562.2 653.81)"><tspan x="0" y="0">Int</tspan><tspan class="cls-14" x="22.33" y="0">r</tspan><tspan x="29.68" y="0">at</tspan><tspan class="cls-20" x="47.14" y="0">t</tspan><tspan x="52.78" y="0">enimen</tspan><tspan class="cls-19" x="117.64" y="0">t</tspan><tspan x="123.25" y="0">o </tspan><tspan class="cls-18" x="41.79" y="24">2</tspan><tspan class="cls-25" x="52.46" y="24">1</tspan><tspan x="63.62" y="24">.4%</tspan></text>
        <text class="cls-23" transform="translate(566.72 436.82)"><tspan class="cls-2" x="0" y="0">T</tspan><tspan x="8.83" y="0">u</tspan><tspan class="cls-26" x="19.73" y="0">r</tspan><tspan x="27.51" y="0">ismo/Cultu</tspan><tspan class="cls-17" x="125.07" y="0">r</tspan><tspan class="cls-13" x="132.41" y="0">a</tspan><tspan x="50.7" y="24">50%</tspan></text>
        <text class="cls-23" transform="translate(336.65 312.32)"><tspan x="0" y="0">Inf</tspan><tspan class="cls-14" x="22.8" y="0">r</tspan><tspan x="30.15" y="0">ast</tspan><tspan class="cls-21" x="55.72" y="0">r</tspan><tspan x="63.5" y="0">uttu</tspan><tspan class="cls-17" x="96.24" y="0">r</tspan><tspan x="103.58" y="0">e </tspan><tspan x="31.06" y="24">4</tspan><tspan class="cls-5" x="43.4" y="24">7</tspan><tspan x="52.92" y="24">.4%</tspan></text>
        <line class="cls-12" x1="396.68" y1="727.96" x2="396.68" y2="354.96"/>
        <line class="cls-12" x1="235.68" y1="634.96" x2="558.68" y2="447.96"/>
        <line class="cls-12" x1="558.68" y1="633.96" x2="234.68" y2="448.96"/>
      </g>
    </g>
  </g>
</svg>