<?xml version="1.0" encoding="UTF-8"?>
<svg id="Livello_2" data-name="Livello 2" xmlns="http://www.w3.org/2000/svg" viewBox="0 0 1660.41 713.41">
  <defs>
    <style>
      .cls-1 {
        font-size: 36px;
      }

      .cls-1, .cls-2, .cls-3 {
        font-family: Futura-Medium, Futura;
        font-weight: 500;
      }

      .cls-4 {
        letter-spacing: -.02em;
      }

      .cls-5 {
        letter-spacing: .01em;
      }

      .cls-6 {
        letter-spacing: -.03em;
      }

      .cls-7 {
        letter-spacing: -.14em;
      }

      .cls-8 {
        letter-spacing: -.02em;
      }

      .cls-9 {
        letter-spacing: 0em;
      }

      .cls-10 {
        letter-spacing: .01em;
      }

      .cls-11 {
        fill: #fbb03b;
      }

      .cls-11, .cls-12, .cls-13 {
        stroke: #000;
        stroke-miterlimit: 10;
        stroke-width: 2px;
      }

      .cls-14 {
        letter-spacing: 0em;
      }

      .cls-12 {
        fill: #dfad73;
      }

      .cls-13 {
        fill: #d0d2a3;
      }

      .cls-15 {
        letter-spacing: .02em;
      }

      .cls-16 {
        letter-spacing: .04em;
      }

      .cls-17 {
        letter-spacing: .01em;
      }

      .cls-18 {
        letter-spacing: 0em;
      }

      .cls-19 {
        letter-spacing: .02em;
      }

      .cls-20 {
        letter-spacing: -.02em;
      }

      .cls-2 {
        font-size: 28px;
      }

      .cls-21 {
        letter-spacing: -.02em;
      }

      .cls-3 {
        font-size: 72px;
      }

      .cls-22 {
        letter-spacing: .03em;
      }

      .cls-23 {
        letter-spacing: -.06em;
      }
    </style>
  </defs>
  <g id="Livello_12" data-name="Livello 12">
    <g>
      <text class="cls-3" transform="translate(63.4 647.44) rotate(-90)"><tspan class="cls-20" x="0" y="0">P</tspan><tspan x="37.09" y="0">ensano sia pi</tspan><tspan class="cls-10" x="467.4" y="0">u</tspan><tspan x="507.66" y="0">’ </tspan><tspan x="0" y="86.4">i</tspan><tspan class="cls-17" x="17.93" y="86.4">m</tspan><tspan x="75.76" y="86.4">po</tspan><tspan class="cls-16" x="162.21" y="86.4">r</tspan><tspan class="cls-18" x="191.74" y="86.4">t</tspan><tspan x="212.06" y="86.4">an</tspan><tspan class="cls-18" x="294.71" y="86.4">t</tspan><tspan x="315.04" y="86.4">e:</tspan></text>
      <g>
        <rect class="cls-11" x="335.14" y="32.45" width="241" height="363.3" rx="54.94" ry="54.94" transform="translate(241.55 669.74) rotate(-90)"/>
        <rect class="cls-13" x="748.65" y="437.39" width="241" height="83.4" rx="17.85" ry="17.85" transform="translate(390.05 1348.24) rotate(-90)"/>
        <text class="cls-1" transform="translate(640.44 520.82) rotate(-90)"><tspan class="cls-7" x="0" y="0">7</tspan><tspan x="17.14" y="0">.8%</tspan></text>
        <rect class="cls-13" x="888.26" y="-138.19" width="241" height="704.58" rx="54.94" ry="54.94" transform="translate(794.67 1222.86) rotate(-90)"/>
        <rect class="cls-12" x="1371.32" y="102.5" width="241" height="223.18" rx="54.94" ry="54.94" transform="translate(1277.73 1705.92) rotate(-90)"/>
        <rect class="cls-12" x="1212.36" y="208.54" width="241" height="541.11" rx="54.94" ry="54.94" transform="translate(853.77 1811.96) rotate(-90)"/>
        <rect class="cls-11" x="354.49" y="278.1" width="241" height="402" rx="54.94" ry="54.94" transform="translate(-4.1 954.09) rotate(-90)"/>
        <text class="cls-2" transform="translate(303.23 654.93)"><tspan x="0" y="0">Evi</tspan><tspan class="cls-18" x="36.87" y="0">t</tspan><tspan x="44.78" y="0">a</tspan><tspan class="cls-14" x="61.56" y="0">r</tspan><tspan x="71.85" y="0">e </tspan><tspan class="cls-22" x="95.98" y="0">c</tspan><tspan x="110.04" y="0">he i t</tspan><tspan class="cls-19" x="172.8" y="0">r</tspan><tspan x="183.7" y="0">ica</tspan><tspan class="cls-19" x="220.8" y="0">r</tspan><tspan x="231.7" y="0">icesi </tspan><tspan x="40.49" y="33.6">lascino </tspan><tspan class="cls-6" x="136.75" y="33.6">T</tspan><tspan class="cls-19" x="149.3" y="33.6">r</tspan><tspan x="160.2" y="33.6">ica</tspan><tspan class="cls-19" x="197.31" y="33.6">r</tspan><tspan x="208.2" y="33.6">ico</tspan></text>
        <text class="cls-2" transform="translate(359.79 27.55)"><tspan class="cls-5" x="0" y="0">A</tspan><tspan x="21.05" y="0">tti</tspan><tspan class="cls-14" x="43.34" y="0">r</tspan><tspan x="53.62" y="0">a</tspan><tspan class="cls-14" x="70.41" y="0">r</tspan><tspan x="80.69" y="0">e alt</tspan><tspan class="cls-14" x="136.24" y="0">r</tspan><tspan x="146.52" y="0">a </tspan><tspan x="-25.18" y="33.6">gen</tspan><tspan class="cls-18" x="22.43" y="33.6">t</tspan><tspan x="30.33" y="33.6">e a </tspan><tspan class="cls-6" x="79.89" y="33.6">T</tspan><tspan class="cls-19" x="92.44" y="33.6">r</tspan><tspan x="103.34" y="33.6">ica</tspan><tspan class="cls-19" x="140.44" y="33.6">r</tspan><tspan x="151.34" y="33.6">ico</tspan></text>
        <text class="cls-2" transform="translate(832.36 27.55)"><tspan x="0" y="0">C</tspan><tspan class="cls-14" x="19.62" y="0">r</tspan><tspan x="29.9" y="0">ea</tspan><tspan class="cls-14" x="62.18" y="0">r</tspan><tspan x="72.46" y="0">e l</tspan><tspan class="cls-18" x="103.56" y="0">a</tspan><tspan class="cls-21" x="120.6" y="0">v</tspan><tspan x="134.13" y="0">o</tspan><tspan class="cls-9" x="150.96" y="0">r</tspan><tspan x="161.19" y="0">o e </tspan><tspan x="-25.53" y="33.6">att</tspan><tspan class="cls-14" x="6.58" y="33.6">r</tspan><tspan x="16.86" y="33.6">atti</tspan><tspan class="cls-8" x="55.93" y="33.6">v</tspan><tspan x="69.52" y="33.6">e a </tspan><tspan class="cls-6" x="119.08" y="33.6">T</tspan><tspan class="cls-19" x="131.63" y="33.6">r</tspan><tspan x="142.53" y="33.6">ica</tspan><tspan class="cls-19" x="179.63" y="33.6">r</tspan><tspan x="190.53" y="33.6">ico</tspan></text>
        <text class="cls-2" transform="translate(1314.83 24.66)"><tspan class="cls-23" x="0" y="0">V</tspan><tspan x="17.31" y="0">alo</tspan><tspan class="cls-19" x="57.9" y="0">r</tspan><tspan x="68.8" y="0">izza</tspan><tspan class="cls-14" x="122.99" y="0">r</tspan><tspan x="133.27" y="0">e il pat</tspan><tspan class="cls-19" x="221.22" y="0">r</tspan><tspan x="232.12" y="0">imonio </tspan><tspan x="12.75" y="33.6">cultu</tspan><tspan class="cls-14" x="71.24" y="33.6">r</tspan><tspan x="81.52" y="33.6">ale e le t</tspan><tspan class="cls-14" x="192.3" y="33.6">r</tspan><tspan x="202.58" y="33.6">adizioni</tspan></text>
        <text class="cls-2" transform="translate(695.12 638.13)"><tspan x="0" y="0">Ag</tspan><tspan class="cls-8" x="37.5" y="0">e</tspan><tspan class="cls-21" x="52.51" y="0">v</tspan><tspan x="66.05" y="0">ola</tspan><tspan class="cls-14" x="106.64" y="0">r</tspan><tspan x="116.92" y="0">e gli spos</tspan><tspan class="cls-18" x="236.74" y="0">t</tspan><tspan x="244.64" y="0">amenti </tspan><tspan class="cls-8" x="73.55" y="33.6">v</tspan><tspan x="87.14" y="33.6">erso l</tspan><tspan class="cls-18" x="156.91" y="33.6">a</tspan><tspan class="cls-21" x="173.95" y="33.6">v</tspan><tspan x="187.48" y="33.6">o</tspan><tspan class="cls-9" x="204.31" y="33.6">r</tspan><tspan x="214.54" y="33.6">o e</tspan><tspan x="-3.14" y="67.2">att</tspan><tspan class="cls-14" x="28.96" y="67.2">r</tspan><tspan x="39.25" y="67.2">atti</tspan><tspan class="cls-8" x="78.32" y="67.2">v</tspan><tspan x="91.91" y="67.2">e nei paesi limit</tspan><tspan class="cls-9" x="289.26" y="67.2">r</tspan><tspan x="299.49" y="67.2">o</tspan><tspan class="cls-15" x="316.32" y="67.2">f</tspan><tspan x="325.22" y="67.2">i</tspan></text>
        <text class="cls-2" transform="translate(1090.02 654.93)"><tspan x="0" y="0">Inn</tspan><tspan class="cls-4" x="38.96" y="0">o</tspan><tspan class="cls-8" x="55.23" y="0">v</tspan><tspan x="68.82" y="0">a</tspan><tspan class="cls-14" x="85.61" y="0">r</tspan><tspan x="95.89" y="0">e e spinge</tspan><tspan class="cls-14" x="226.88" y="0">r</tspan><tspan x="237.17" y="0">e per la c</tspan><tspan class="cls-14" x="358.44" y="0">r</tspan><tspan x="368.72" y="0">eazione di</tspan><tspan x="101.35" y="33.6">nu</tspan><tspan class="cls-4" x="131.96" y="33.6">o</tspan><tspan class="cls-8" x="148.23" y="33.6">v</tspan><tspan x="161.82" y="33.6">e attività e p</tspan><tspan class="cls-9" x="320.07" y="33.6">r</tspan><tspan x="330.3" y="33.6">og</tspan><tspan class="cls-18" x="363.89" y="33.6">e</tspan><tspan x="379.63" y="33.6">tti</tspan></text>
        <text class="cls-1" transform="translate(402.81 223.74)"><tspan x="0" y="0">4</tspan><tspan class="cls-7" x="22.22" y="0">7</tspan><tspan x="39.36" y="0">.4%</tspan></text>
        <text class="cls-1" transform="translate(953.39 223.75)"><tspan x="0" y="0">92.2%</tspan></text>
        <text class="cls-1" transform="translate(1436.45 223.75)"><tspan x="0" y="0">29.2%</tspan></text>
        <text class="cls-1" transform="translate(1277.49 488.74)"><tspan x="0" y="0">70.8%</tspan></text>
        <text class="cls-1" transform="translate(419.62 488.74)"><tspan x="0" y="0">52.6%</tspan></text>
        <text class="cls-1" transform="translate(843.91 467.14)"><tspan class="cls-7" x="0" y="0">7</tspan><tspan x="17.14" y="0">.8</tspan><tspan x="8.75" y="43.2">%</tspan></text>
      </g>
    </g>
  </g>
</svg>