<?xml version="1.0" encoding="UTF-8"?>
<svg id="Livello_2" data-name="Livello 2" xmlns="http://www.w3.org/2000/svg" viewBox="0 0 757.39 272.5">
  <defs>
    <style>
      .cls-1 {
        font-family: Futura-Medium, Futura;
        font-size: 36px;
        font-weight: 500;
      }

      .cls-2 {
        letter-spacing: -.08em;
      }

      .cls-3, .cls-4 {
        fill: #d0d2a3;
      }

      .cls-5 {
        fill: #dfad73;
      }

      .cls-6 {
        letter-spacing: -.13em;
      }

      .cls-7 {
        letter-spacing: 0em;
      }

      .cls-8 {
        fill: #ddad73;
      }

      .cls-8, .cls-4, .cls-9 {
        stroke: #000;
        stroke-miterlimit: 10;
        stroke-width: 2px;
      }

      .cls-10 {
        letter-spacing: .04em;
      }

      .cls-11 {
        letter-spacing: 0em;
      }

      .cls-12 {
        letter-spacing: 0em;
      }

      .cls-9 {
        fill: none;
      }

      .cls-13 {
        letter-spacing: -.03em;
      }

      .cls-14 {
        letter-spacing: .02em;
      }
    </style>
  </defs>
  <g id="Livello_1-2" data-name="Livello 1">
    <g>
      <g>
        <rect class="cls-8" x="360.86" y="213.8" width="116" height="52" rx="19.12" ry="19.12"/>
        <rect class="cls-4" x="591.86" y="128.8" width="116" height="52" rx="19.12" ry="19.12"/>
        <text class="cls-1" transform="translate(368.84 36.39)"><tspan x="0" y="0">Al sondaggio per i </tspan><tspan x="0" y="43.2">cit</tspan><tspan class="cls-12" x="35.96" y="43.2">t</tspan><tspan x="46.12" y="43.2">adini t</tspan><tspan class="cls-14" x="147.92" y="43.2">r</tspan><tspan x="161.93" y="43.2">ica</tspan><tspan class="cls-14" x="209.64" y="43.2">r</tspan><tspan x="223.65" y="43.2">icesi </tspan><tspan x="0" y="86.4">hanno pa</tspan><tspan class="cls-10" x="156.73" y="86.4">r</tspan><tspan class="cls-12" x="171.49" y="86.4">t</tspan><tspan x="181.65" y="86.4">ecipa</tspan><tspan class="cls-11" x="270.86" y="86.4">t</tspan><tspan x="280.95" y="86.4">o </tspan><tspan class="cls-2" x="313.7" y="86.4">1</tspan><tspan x="333" y="86.4">92 </tspan><tspan x="0" y="129.6">u</tspan><tspan class="cls-12" x="19.62" y="129.6">t</tspan><tspan x="29.78" y="129.6">enti di cui il 42,7% </tspan><tspan x="0" y="172.8">donne ed il </tspan><tspan class="cls-7" x="195.38" y="172.8">r</tspan><tspan x="208.6" y="172.8">es</tspan><tspan class="cls-12" x="243.12" y="172.8">t</tspan><tspan x="253.28" y="172.8">an</tspan><tspan class="cls-12" x="294.61" y="172.8">t</tspan><tspan x="304.77" y="172.8">e </tspan><tspan class="cls-13" x="0" y="216">5</tspan><tspan class="cls-6" x="21.11" y="216">7</tspan><tspan x="38.72" y="216">,3% uomini</tspan></text>
      </g>
      <g>
        <g>
          <g>
            <path class="cls-5" d="m35.73,29.74H15.45c-7.98,0-14.45,6.47-14.45,14.45v20.73c0,5.32,2.88,9.97,7.16,12.48.76.45,1.73-.09,1.73-.98v-30.94c0-.5.41-.91.91-.91h0c.5,0,.91.41.91.91v73.6c0,3.58,2.76,6.69,6.33,6.8,3.7.11,6.73-2.85,6.73-6.53v-37.35c0-.5.41-.91.91-.91h0c.5,0,.91.41.91.91v37.07c0,3.58,2.76,6.7,6.33,6.8,3.7.11,6.73-2.85,6.73-6.53V45.47c0-.5.41-.91.91-.91h0c.5,0,.91.41.91.91v30.83c0,.89.98,1.44,1.74.97,4.18-2.53,6.98-7.12,6.98-12.36v-20.73c0-7.98-6.47-14.45-14.45-14.45Z"/>
            <path class="cls-5" d="m38.46,13.8c0,7.07-5.73,12.8-12.8,12.8s-12.8-5.73-12.8-12.8S18.59,1,25.66,1s12.8,5.73,12.8,12.8Z"/>
          </g>
          <g>
            <path class="cls-9" d="m35.73,29.74H15.45c-7.98,0-14.45,6.47-14.45,14.45v20.73c0,5.32,2.88,9.97,7.16,12.48.76.45,1.73-.09,1.73-.98v-30.94c0-.5.41-.91.91-.91h0c.5,0,.91.41.91.91v73.6c0,3.58,2.76,6.69,6.33,6.8,3.7.11,6.73-2.85,6.73-6.53v-37.35c0-.5.41-.91.91-.91h0c.5,0,.91.41.91.91v37.07c0,3.58,2.76,6.7,6.33,6.8,3.7.11,6.73-2.85,6.73-6.53V45.47c0-.5.41-.91.91-.91h0c.5,0,.91.41.91.91v30.83c0,.89.98,1.44,1.74.97,4.18-2.53,6.98-7.12,6.98-12.36v-20.73c0-7.98-6.47-14.45-14.45-14.45Z"/>
            <path class="cls-9" d="m38.46,13.8c0,7.07-5.73,12.8-12.8,12.8s-12.8-5.73-12.8-12.8S18.59,1,25.66,1s12.8,5.73,12.8,12.8Z"/>
          </g>
        </g>
        <g>
          <g>
            <path class="cls-5" d="m90.66,29.74h-20.28c-7.98,0-14.45,6.47-14.45,14.45v20.73c0,5.32,2.88,9.97,7.16,12.48.76.45,1.73-.09,1.73-.98v-30.94c0-.5.41-.91.91-.91h0c.5,0,.91.41.91.91v73.6c0,3.58,2.76,6.69,6.33,6.8,3.7.11,6.73-2.85,6.73-6.53v-37.35c0-.5.41-.91.91-.91h0c.5,0,.91.41.91.91v37.07c0,3.58,2.76,6.7,6.33,6.8,3.7.11,6.73-2.85,6.73-6.53V45.47c0-.5.41-.91.91-.91h0c.5,0,.91.41.91.91v30.83c0,.89.98,1.44,1.74.97,4.18-2.53,6.98-7.12,6.98-12.36v-20.73c0-7.98-6.47-14.45-14.45-14.45Z"/>
            <path class="cls-5" d="m93.4,13.8c0,7.07-5.73,12.8-12.8,12.8s-12.8-5.73-12.8-12.8,5.73-12.8,12.8-12.8,12.8,5.73,12.8,12.8Z"/>
          </g>
          <g>
            <path class="cls-9" d="m90.66,29.74h-20.28c-7.98,0-14.45,6.47-14.45,14.45v20.73c0,5.32,2.88,9.97,7.16,12.48.76.45,1.73-.09,1.73-.98v-30.94c0-.5.41-.91.91-.91h0c.5,0,.91.41.91.91v73.6c0,3.58,2.76,6.69,6.33,6.8,3.7.11,6.73-2.85,6.73-6.53v-37.35c0-.5.41-.91.91-.91h0c.5,0,.91.41.91.91v37.07c0,3.58,2.76,6.7,6.33,6.8,3.7.11,6.73-2.85,6.73-6.53V45.47c0-.5.41-.91.91-.91h0c.5,0,.91.41.91.91v30.83c0,.89.98,1.44,1.74.97,4.18-2.53,6.98-7.12,6.98-12.36v-20.73c0-7.98-6.47-14.45-14.45-14.45Z"/>
            <path class="cls-9" d="m93.4,13.8c0,7.07-5.73,12.8-12.8,12.8s-12.8-5.73-12.8-12.8,5.73-12.8,12.8-12.8,12.8,5.73,12.8,12.8Z"/>
          </g>
        </g>
        <g>
          <g>
            <path class="cls-5" d="m145.59,29.74h-20.28c-7.98,0-14.45,6.47-14.45,14.45v20.73c0,5.32,2.88,9.97,7.16,12.48.76.45,1.73-.09,1.73-.98v-30.94c0-.5.41-.91.91-.91h0c.5,0,.91.41.91.91v73.6c0,3.58,2.76,6.69,6.33,6.8,3.7.11,6.73-2.85,6.73-6.53v-37.35c0-.5.41-.91.91-.91h0c.5,0,.91.41.91.91v37.07c0,3.58,2.76,6.7,6.33,6.8,3.7.11,6.73-2.85,6.73-6.53V45.47c0-.5.41-.91.91-.91h0c.5,0,.91.41.91.91v30.83c0,.89.98,1.44,1.74.97,4.18-2.53,6.98-7.12,6.98-12.36v-20.73c0-7.98-6.47-14.45-14.45-14.45Z"/>
            <path class="cls-5" d="m148.33,13.8c0,7.07-5.73,12.8-12.8,12.8s-12.8-5.73-12.8-12.8,5.73-12.8,12.8-12.8,12.8,5.73,12.8,12.8Z"/>
          </g>
          <g>
            <path class="cls-9" d="m145.59,29.74h-20.28c-7.98,0-14.45,6.47-14.45,14.45v20.73c0,5.32,2.88,9.97,7.16,12.48.76.45,1.73-.09,1.73-.98v-30.94c0-.5.41-.91.91-.91h0c.5,0,.91.41.91.91v73.6c0,3.58,2.76,6.69,6.33,6.8,3.7.11,6.73-2.85,6.73-6.53v-37.35c0-.5.41-.91.91-.91h0c.5,0,.91.41.91.91v37.07c0,3.58,2.76,6.7,6.33,6.8,3.7.11,6.73-2.85,6.73-6.53V45.47c0-.5.41-.91.91-.91h0c.5,0,.91.41.91.91v30.83c0,.89.98,1.44,1.74.97,4.18-2.53,6.98-7.12,6.98-12.36v-20.73c0-7.98-6.47-14.45-14.45-14.45Z"/>
            <path class="cls-9" d="m148.33,13.8c0,7.07-5.73,12.8-12.8,12.8s-12.8-5.73-12.8-12.8,5.73-12.8,12.8-12.8,12.8,5.73,12.8,12.8Z"/>
          </g>
        </g>
        <g>
          <g>
            <path class="cls-5" d="m200.53,29.74h-20.28c-7.98,0-14.45,6.47-14.45,14.45v20.73c0,5.32,2.88,9.97,7.16,12.48.76.45,1.73-.09,1.73-.98v-30.94c0-.5.41-.91.91-.91h0c.5,0,.91.41.91.91v73.6c0,3.58,2.76,6.69,6.33,6.8,3.7.11,6.73-2.85,6.73-6.53v-37.35c0-.5.41-.91.91-.91h0c.5,0,.91.41.91.91v37.07c0,3.58,2.76,6.7,6.33,6.8,3.7.11,6.73-2.85,6.73-6.53V45.47c0-.5.41-.91.91-.91h0c.5,0,.91.41.91.91v30.83c0,.89.98,1.44,1.74.97,4.18-2.53,6.98-7.12,6.98-12.36v-20.73c0-7.98-6.47-14.45-14.45-14.45Z"/>
            <path class="cls-5" d="m203.26,13.8c0,7.07-5.73,12.8-12.8,12.8s-12.8-5.73-12.8-12.8,5.73-12.8,12.8-12.8,12.8,5.73,12.8,12.8Z"/>
          </g>
          <g>
            <path class="cls-9" d="m200.53,29.74h-20.28c-7.98,0-14.45,6.47-14.45,14.45v20.73c0,5.32,2.88,9.97,7.16,12.48.76.45,1.73-.09,1.73-.98v-30.94c0-.5.41-.91.91-.91h0c.5,0,.91.41.91.91v73.6c0,3.58,2.76,6.69,6.33,6.8,3.7.11,6.73-2.85,6.73-6.53v-37.35c0-.5.41-.91.91-.91h0c.5,0,.91.41.91.91v37.07c0,3.58,2.76,6.7,6.33,6.8,3.7.11,6.73-2.85,6.73-6.53V45.47c0-.5.41-.91.91-.91h0c.5,0,.91.41.91.91v30.83c0,.89.98,1.44,1.74.97,4.18-2.53,6.98-7.12,6.98-12.36v-20.73c0-7.98-6.47-14.45-14.45-14.45Z"/>
            <path class="cls-9" d="m203.26,13.8c0,7.07-5.73,12.8-12.8,12.8s-12.8-5.73-12.8-12.8,5.73-12.8,12.8-12.8,12.8,5.73,12.8,12.8Z"/>
          </g>
        </g>
        <g>
          <g>
            <path class="cls-5" d="m255.46,29.74h-20.28c-7.98,0-14.45,6.47-14.45,14.45v20.73c0,5.32,2.88,9.97,7.16,12.48.76.45,1.73-.09,1.73-.98v-30.94c0-.5.41-.91.91-.91h0c.5,0,.91.41.91.91v73.6c0,3.58,2.76,6.69,6.33,6.8,3.7.11,6.73-2.85,6.73-6.53v-37.35c0-.5.41-.91.91-.91h0c.5,0,.91.41.91.91v37.07c0,3.58,2.76,6.7,6.33,6.8,3.7.11,6.73-2.85,6.73-6.53V45.47c0-.5.41-.91.91-.91h0c.5,0,.91.41.91.91v30.83c0,.89.98,1.44,1.74.97,4.18-2.53,6.98-7.12,6.98-12.36v-20.73c0-7.98-6.47-14.45-14.45-14.45Z"/>
            <path class="cls-5" d="m258.2,13.8c0,7.07-5.73,12.8-12.8,12.8s-12.8-5.73-12.8-12.8,5.73-12.8,12.8-12.8,12.8,5.73,12.8,12.8Z"/>
          </g>
          <g>
            <path class="cls-9" d="m255.46,29.74h-20.28c-7.98,0-14.45,6.47-14.45,14.45v20.73c0,5.32,2.88,9.97,7.16,12.48.76.45,1.73-.09,1.73-.98v-30.94c0-.5.41-.91.91-.91h0c.5,0,.91.41.91.91v73.6c0,3.58,2.76,6.69,6.33,6.8,3.7.11,6.73-2.85,6.73-6.53v-37.35c0-.5.41-.91.91-.91h0c.5,0,.91.41.91.91v37.07c0,3.58,2.76,6.7,6.33,6.8,3.7.11,6.73-2.85,6.73-6.53V45.47c0-.5.41-.91.91-.91h0c.5,0,.91.41.91.91v30.83c0,.89.98,1.44,1.74.97,4.18-2.53,6.98-7.12,6.98-12.36v-20.73c0-7.98-6.47-14.45-14.45-14.45Z"/>
            <path class="cls-9" d="m258.2,13.8c0,7.07-5.73,12.8-12.8,12.8s-12.8-5.73-12.8-12.8,5.73-12.8,12.8-12.8,12.8,5.73,12.8,12.8Z"/>
          </g>
        </g>
        <g>
          <g>
            <path class="cls-5" d="m305.99,2.33c-1.71-.85-3.63-1.33-5.66-1.33-7.07,0-12.8,5.73-12.8,12.8s5.73,12.8,12.8,12.8c2.04,0,3.95-.49,5.66-1.33V2.33Z"/>
            <path class="cls-5" d="m305.99,29.74h-15.88c-7.98,0-14.45,6.47-14.45,14.45v20.73c0,5.32,2.88,9.97,7.16,12.48.76.45,1.73-.09,1.73-.98v-30.94c0-.5.41-.91.91-.91s.91.41.91.91v73.6c0,3.58,2.76,6.69,6.33,6.8,3.7.11,6.73-2.85,6.73-6.53v-37.35c0-.5.41-.91.91-.91s.91.41.91.91v37.07c0,3.02,1.98,5.69,4.74,6.52V29.74Z"/>
          </g>
          <g>
            <path class="cls-9" d="m310.39,29.74h-20.28c-7.98,0-14.45,6.47-14.45,14.45v20.73c0,5.32,2.88,9.97,7.16,12.48.76.45,1.73-.09,1.73-.98v-30.94c0-.5.41-.91.91-.91h0c.5,0,.91.41.91.91v73.6c0,3.58,2.76,6.69,6.33,6.8,3.7.11,6.73-2.85,6.73-6.53v-37.35c0-.5.41-.91.91-.91h0c.5,0,.91.41.91.91v37.07c0,3.58,2.76,6.7,6.33,6.8,3.7.11,6.73-2.85,6.73-6.53V45.47c0-.5.41-.91.91-.91h0c.5,0,.91.41.91.91v30.83c0,.89.98,1.44,1.74.97,4.18-2.53,6.98-7.12,6.98-12.36v-20.73c0-7.98-6.47-14.45-14.45-14.45Z"/>
            <path class="cls-9" d="m313.13,13.8c0,7.07-5.73,12.8-12.8,12.8s-12.8-5.73-12.8-12.8,5.73-12.8,12.8-12.8,12.8,5.73,12.8,12.8Z"/>
          </g>
        </g>
        <g>
          <g>
            <circle class="cls-3" cx="45.88" cy="159.42" r="12.8" transform="translate(-119.81 167.59) rotate(-76.77)"/>
            <path class="cls-3" d="m72.51,239.46l-7.06-18.08c3.02-2.65,4.95-6.51,4.95-10.85v-20.73c0-7.98-6.47-14.45-14.45-14.45h-20.28c-7.98,0-14.45,6.47-14.45,14.45v20.73c0,4.33,1.93,8.2,4.95,10.85l-7.06,18.08h12.82v25.23c0,3.58,2.76,6.7,6.33,6.8,3.7.11,6.73-2.85,6.73-6.53v-25.51h1.81v25.23c0,3.58,2.76,6.7,6.33,6.8,3.7.11,6.73-2.85,6.73-6.53v-25.51h12.64Zm-11.74-49.28h0c.5,0,.91.41.91.91v20.66l-1.81-4.64v-16.01c0-.5.41-.91.91-.91Zm-30.66,21.11v-20.21c0-.5.41-.91.91-.91s.91.41.91.91v15.56l-1.81,4.64Z"/>
          </g>
          <g>
            <circle class="cls-9" cx="45.88" cy="159.42" r="12.8" transform="translate(-119.81 167.59) rotate(-76.77)"/>
            <path class="cls-9" d="m72.51,239.46l-7.06-18.08c3.02-2.65,4.95-6.51,4.95-10.85v-20.73c0-7.98-6.47-14.45-14.45-14.45h-20.28c-7.98,0-14.45,6.47-14.45,14.45v20.73c0,4.33,1.93,8.2,4.95,10.85l-7.06,18.08h12.82v25.23c0,3.58,2.76,6.7,6.33,6.8,3.7.11,6.73-2.85,6.73-6.53v-25.51h1.81v25.23c0,3.58,2.76,6.7,6.33,6.8,3.7.11,6.73-2.85,6.73-6.53v-25.51h12.64Zm-11.74-49.28h0c.5,0,.91.41.91.91v20.66l-1.81-4.64v-16.01c0-.5.41-.91.91-.91Zm-30.66,21.11v-20.21c0-.5.41-.91.91-.91s.91.41.91.91v15.56l-1.81,4.64Z"/>
          </g>
          <g>
            <circle class="cls-3" cx="45.88" cy="159.42" r="12.8" transform="translate(-119.81 167.59) rotate(-76.77)"/>
            <path class="cls-3" d="m72.51,239.46l-7.06-18.08c3.02-2.65,4.95-6.51,4.95-10.85v-20.73c0-7.98-6.47-14.45-14.45-14.45h-20.28c-7.98,0-14.45,6.47-14.45,14.45v20.73c0,4.33,1.93,8.2,4.95,10.85l-7.06,18.08h12.82v25.23c0,3.58,2.76,6.7,6.33,6.8,3.7.11,6.73-2.85,6.73-6.53v-25.51h1.81v25.23c0,3.58,2.76,6.7,6.33,6.8,3.7.11,6.73-2.85,6.73-6.53v-25.51h12.64Zm-11.74-49.28h0c.5,0,.91.41.91.91v20.66l-1.81-4.64v-16.01c0-.5.41-.91.91-.91Zm-30.66,21.11v-20.21c0-.5.41-.91.91-.91s.91.41.91.91v15.56l-1.81,4.64Z"/>
          </g>
          <g>
            <circle class="cls-9" cx="45.88" cy="159.42" r="12.8" transform="translate(-119.81 167.59) rotate(-76.77)"/>
            <path class="cls-9" d="m72.51,239.46l-7.06-18.08c3.02-2.65,4.95-6.51,4.95-10.85v-20.73c0-7.98-6.47-14.45-14.45-14.45h-20.28c-7.98,0-14.45,6.47-14.45,14.45v20.73c0,4.33,1.93,8.2,4.95,10.85l-7.06,18.08h12.82v25.23c0,3.58,2.76,6.7,6.33,6.8,3.7.11,6.73-2.85,6.73-6.53v-25.51h1.81v25.23c0,3.58,2.76,6.7,6.33,6.8,3.7.11,6.73-2.85,6.73-6.53v-25.51h12.64Zm-11.74-49.28h0c.5,0,.91.41.91.91v20.66l-1.81-4.64v-16.01c0-.5.41-.91.91-.91Zm-30.66,21.11v-20.21c0-.5.41-.91.91-.91s.91.41.91.91v15.56l-1.81,4.64Z"/>
          </g>
        </g>
        <g>
          <g>
            <circle class="cls-3" cx="106.25" cy="159.42" r="12.8" transform="translate(-73.26 226.35) rotate(-76.77)"/>
            <path class="cls-3" d="m132.88,239.46l-7.06-18.08c3.02-2.65,4.95-6.51,4.95-10.85v-20.73c0-7.98-6.47-14.45-14.45-14.45h-20.28c-7.98,0-14.45,6.47-14.45,14.45v20.73c0,4.33,1.93,8.2,4.95,10.85l-7.06,18.08h12.82v25.23c0,3.58,2.76,6.7,6.33,6.8,3.7.11,6.73-2.85,6.73-6.53v-25.51h1.81v25.23c0,3.58,2.76,6.7,6.33,6.8,3.7.11,6.73-2.85,6.73-6.53v-25.51h12.64Zm-11.74-49.28h0c.5,0,.91.41.91.91v20.66l-1.81-4.64v-16.01c0-.5.41-.91.91-.91Zm-30.66,21.11v-20.21c0-.5.41-.91.91-.91s.91.41.91.91v15.56l-1.81,4.64Z"/>
          </g>
          <g>
            <circle class="cls-9" cx="106.25" cy="159.42" r="12.8" transform="translate(-73.26 226.35) rotate(-76.77)"/>
            <path class="cls-9" d="m132.88,239.46l-7.06-18.08c3.02-2.65,4.95-6.51,4.95-10.85v-20.73c0-7.98-6.47-14.45-14.45-14.45h-20.28c-7.98,0-14.45,6.47-14.45,14.45v20.73c0,4.33,1.93,8.2,4.95,10.85l-7.06,18.08h12.82v25.23c0,3.58,2.76,6.7,6.33,6.8,3.7.11,6.73-2.85,6.73-6.53v-25.51h1.81v25.23c0,3.58,2.76,6.7,6.33,6.8,3.7.11,6.73-2.85,6.73-6.53v-25.51h12.64Zm-11.74-49.28h0c.5,0,.91.41.91.91v20.66l-1.81-4.64v-16.01c0-.5.41-.91.91-.91Zm-30.66,21.11v-20.21c0-.5.41-.91.91-.91s.91.41.91.91v15.56l-1.81,4.64Z"/>
          </g>
          <g>
            <circle class="cls-3" cx="106.25" cy="159.42" r="12.8" transform="translate(-73.26 226.35) rotate(-76.77)"/>
            <path class="cls-3" d="m132.88,239.46l-7.06-18.08c3.02-2.65,4.95-6.51,4.95-10.85v-20.73c0-7.98-6.47-14.45-14.45-14.45h-20.28c-7.98,0-14.45,6.47-14.45,14.45v20.73c0,4.33,1.93,8.2,4.95,10.85l-7.06,18.08h12.82v25.23c0,3.58,2.76,6.7,6.33,6.8,3.7.11,6.73-2.85,6.73-6.53v-25.51h1.81v25.23c0,3.58,2.76,6.7,6.33,6.8,3.7.11,6.73-2.85,6.73-6.53v-25.51h12.64Zm-11.74-49.28h0c.5,0,.91.41.91.91v20.66l-1.81-4.64v-16.01c0-.5.41-.91.91-.91Zm-30.66,21.11v-20.21c0-.5.41-.91.91-.91s.91.41.91.91v15.56l-1.81,4.64Z"/>
          </g>
          <g>
            <circle class="cls-9" cx="106.25" cy="159.42" r="12.8" transform="translate(-73.26 226.35) rotate(-76.77)"/>
            <path class="cls-9" d="m132.88,239.46l-7.06-18.08c3.02-2.65,4.95-6.51,4.95-10.85v-20.73c0-7.98-6.47-14.45-14.45-14.45h-20.28c-7.98,0-14.45,6.47-14.45,14.45v20.73c0,4.33,1.93,8.2,4.95,10.85l-7.06,18.08h12.82v25.23c0,3.58,2.76,6.7,6.33,6.8,3.7.11,6.73-2.85,6.73-6.53v-25.51h1.81v25.23c0,3.58,2.76,6.7,6.33,6.8,3.7.11,6.73-2.85,6.73-6.53v-25.51h12.64Zm-11.74-49.28h0c.5,0,.91.41.91.91v20.66l-1.81-4.64v-16.01c0-.5.41-.91.91-.91Zm-30.66,21.11v-20.21c0-.5.41-.91.91-.91s.91.41.91.91v15.56l-1.81,4.64Z"/>
          </g>
        </g>
        <g>
          <g>
            <circle class="cls-3" cx="166.61" cy="159.42" r="12.8" transform="translate(-26.71 285.12) rotate(-76.77)"/>
            <path class="cls-3" d="m193.24,239.46l-7.06-18.08c3.02-2.65,4.95-6.51,4.95-10.85v-20.73c0-7.98-6.47-14.45-14.45-14.45h-20.28c-7.98,0-14.45,6.47-14.45,14.45v20.73c0,4.33,1.93,8.2,4.95,10.85l-7.06,18.08h12.82v25.23c0,3.58,2.76,6.7,6.33,6.8,3.7.11,6.73-2.85,6.73-6.53v-25.51h1.81v25.23c0,3.58,2.76,6.7,6.33,6.8,3.7.11,6.73-2.85,6.73-6.53v-25.51h12.64Zm-11.74-49.28h0c.5,0,.91.41.91.91v20.66l-1.81-4.64v-16.01c0-.5.41-.91.91-.91Zm-30.66,21.11v-20.21c0-.5.41-.91.91-.91s.91.41.91.91v15.56l-1.81,4.64Z"/>
          </g>
          <g>
            <circle class="cls-9" cx="166.61" cy="159.42" r="12.8" transform="translate(-26.71 285.12) rotate(-76.77)"/>
            <path class="cls-9" d="m193.24,239.46l-7.06-18.08c3.02-2.65,4.95-6.51,4.95-10.85v-20.73c0-7.98-6.47-14.45-14.45-14.45h-20.28c-7.98,0-14.45,6.47-14.45,14.45v20.73c0,4.33,1.93,8.2,4.95,10.85l-7.06,18.08h12.82v25.23c0,3.58,2.76,6.7,6.33,6.8,3.7.11,6.73-2.85,6.73-6.53v-25.51h1.81v25.23c0,3.58,2.76,6.7,6.33,6.8,3.7.11,6.73-2.85,6.73-6.53v-25.51h12.64Zm-11.74-49.28h0c.5,0,.91.41.91.91v20.66l-1.81-4.64v-16.01c0-.5.41-.91.91-.91Zm-30.66,21.11v-20.21c0-.5.41-.91.91-.91s.91.41.91.91v15.56l-1.81,4.64Z"/>
          </g>
          <g>
            <circle class="cls-3" cx="166.61" cy="159.42" r="12.8" transform="translate(-26.71 285.12) rotate(-76.77)"/>
            <path class="cls-3" d="m193.24,239.46l-7.06-18.08c3.02-2.65,4.95-6.51,4.95-10.85v-20.73c0-7.98-6.47-14.45-14.45-14.45h-20.28c-7.98,0-14.45,6.47-14.45,14.45v20.73c0,4.33,1.93,8.2,4.95,10.85l-7.06,18.08h12.82v25.23c0,3.58,2.76,6.7,6.33,6.8,3.7.11,6.73-2.85,6.73-6.53v-25.51h1.81v25.23c0,3.58,2.76,6.7,6.33,6.8,3.7.11,6.73-2.85,6.73-6.53v-25.51h12.64Zm-11.74-49.28h0c.5,0,.91.41.91.91v20.66l-1.81-4.64v-16.01c0-.5.41-.91.91-.91Zm-30.66,21.11v-20.21c0-.5.41-.91.91-.91s.91.41.91.91v15.56l-1.81,4.64Z"/>
          </g>
          <g>
            <circle class="cls-9" cx="166.61" cy="159.42" r="12.8" transform="translate(-26.71 285.12) rotate(-76.77)"/>
            <path class="cls-9" d="m193.24,239.46l-7.06-18.08c3.02-2.65,4.95-6.51,4.95-10.85v-20.73c0-7.98-6.47-14.45-14.45-14.45h-20.28c-7.98,0-14.45,6.47-14.45,14.45v20.73c0,4.33,1.93,8.2,4.95,10.85l-7.06,18.08h12.82v25.23c0,3.58,2.76,6.7,6.33,6.8,3.7.11,6.73-2.85,6.73-6.53v-25.51h1.81v25.23c0,3.58,2.76,6.7,6.33,6.8,3.7.11,6.73-2.85,6.73-6.53v-25.51h12.64Zm-11.74-49.28h0c.5,0,.91.41.91.91v20.66l-1.81-4.64v-16.01c0-.5.41-.91.91-.91Zm-30.66,21.11v-20.21c0-.5.41-.91.91-.91s.91.41.91.91v15.56l-1.81,4.64Z"/>
          </g>
        </g>
        <g>
          <g>
            <circle class="cls-3" cx="226.98" cy="159.42" r="12.8" transform="translate(19.83 343.88) rotate(-76.77)"/>
            <path class="cls-3" d="m253.61,239.46l-7.06-18.08c3.02-2.65,4.95-6.51,4.95-10.85v-20.73c0-7.98-6.47-14.45-14.45-14.45h-20.28c-7.98,0-14.45,6.47-14.45,14.45v20.73c0,4.33,1.93,8.2,4.95,10.85l-7.06,18.08h12.82v25.23c0,3.58,2.76,6.7,6.33,6.8,3.7.11,6.73-2.85,6.73-6.53v-25.51h1.81v25.23c0,3.58,2.76,6.7,6.33,6.8,3.7.11,6.73-2.85,6.73-6.53v-25.51h12.64Zm-11.74-49.28h0c.5,0,.91.41.91.91v20.66l-1.81-4.64v-16.01c0-.5.41-.91.91-.91Zm-30.66,21.11v-20.21c0-.5.41-.91.91-.91s.91.41.91.91v15.56l-1.81,4.64Z"/>
          </g>
          <g>
            <circle class="cls-9" cx="226.98" cy="159.42" r="12.8" transform="translate(19.83 343.88) rotate(-76.77)"/>
            <path class="cls-9" d="m253.61,239.46l-7.06-18.08c3.02-2.65,4.95-6.51,4.95-10.85v-20.73c0-7.98-6.47-14.45-14.45-14.45h-20.28c-7.98,0-14.45,6.47-14.45,14.45v20.73c0,4.33,1.93,8.2,4.95,10.85l-7.06,18.08h12.82v25.23c0,3.58,2.76,6.7,6.33,6.8,3.7.11,6.73-2.85,6.73-6.53v-25.51h1.81v25.23c0,3.58,2.76,6.7,6.33,6.8,3.7.11,6.73-2.85,6.73-6.53v-25.51h12.64Zm-11.74-49.28h0c.5,0,.91.41.91.91v20.66l-1.81-4.64v-16.01c0-.5.41-.91.91-.91Zm-30.66,21.11v-20.21c0-.5.41-.91.91-.91s.91.41.91.91v15.56l-1.81,4.64Z"/>
          </g>
          <g>
            <circle class="cls-3" cx="226.98" cy="159.42" r="12.8" transform="translate(19.83 343.88) rotate(-76.77)"/>
            <path class="cls-3" d="m253.61,239.46l-7.06-18.08c3.02-2.65,4.95-6.51,4.95-10.85v-20.73c0-7.98-6.47-14.45-14.45-14.45h-20.28c-7.98,0-14.45,6.47-14.45,14.45v20.73c0,4.33,1.93,8.2,4.95,10.85l-7.06,18.08h12.82v25.23c0,3.58,2.76,6.7,6.33,6.8,3.7.11,6.73-2.85,6.73-6.53v-25.51h1.81v25.23c0,3.58,2.76,6.7,6.33,6.8,3.7.11,6.73-2.85,6.73-6.53v-25.51h12.64Zm-11.74-49.28h0c.5,0,.91.41.91.91v20.66l-1.81-4.64v-16.01c0-.5.41-.91.91-.91Zm-30.66,21.11v-20.21c0-.5.41-.91.91-.91s.91.41.91.91v15.56l-1.81,4.64Z"/>
          </g>
          <g>
            <circle class="cls-9" cx="226.98" cy="159.42" r="12.8" transform="translate(19.83 343.88) rotate(-76.77)"/>
            <path class="cls-9" d="m253.61,239.46l-7.06-18.08c3.02-2.65,4.95-6.51,4.95-10.85v-20.73c0-7.98-6.47-14.45-14.45-14.45h-20.28c-7.98,0-14.45,6.47-14.45,14.45v20.73c0,4.33,1.93,8.2,4.95,10.85l-7.06,18.08h12.82v25.23c0,3.58,2.76,6.7,6.33,6.8,3.7.11,6.73-2.85,6.73-6.53v-25.51h1.81v25.23c0,3.58,2.76,6.7,6.33,6.8,3.7.11,6.73-2.85,6.73-6.53v-25.51h12.64Zm-11.74-49.28h0c.5,0,.91.41.91.91v20.66l-1.81-4.64v-16.01c0-.5.41-.91.91-.91Zm-30.66,21.11v-20.21c0-.5.41-.91.91-.91s.91.41.91.91v15.56l-1.81,4.64Z"/>
          </g>
        </g>
        <g>
          <g>
            <polygon class="cls-3" points="313.54 238.34 313.54 239.46 313.97 239.46 313.54 238.34"/>
            <path class="cls-3" d="m269.77,239.46v-62.07c-4.24,2.52-7.09,7.13-7.09,12.42v20.73c0,4.33,1.93,8.2,4.95,10.85l-7.06,18.08h9.2Z"/>
          </g>
          <g>
            <circle class="cls-9" cx="287.35" cy="159.42" r="12.8" transform="translate(66.38 402.64) rotate(-76.77)"/>
            <path class="cls-9" d="m313.97,239.46l-7.06-18.08c3.02-2.65,4.95-6.51,4.95-10.85v-20.73c0-7.98-6.47-14.45-14.45-14.45h-20.28c-7.98,0-14.45,6.47-14.45,14.45v20.73c0,4.33,1.93,8.2,4.95,10.85l-7.06,18.08h12.82v25.23c0,3.58,2.76,6.7,6.33,6.8,3.7.11,6.73-2.85,6.73-6.53v-25.51h1.81v25.23c0,3.58,2.76,6.7,6.33,6.8,3.7.11,6.73-2.85,6.73-6.53v-25.51h12.64Zm-11.74-49.28h0c.5,0,.91.41.91.91v20.66l-1.81-4.64v-16.01c0-.5.41-.91.91-.91Zm-30.66,21.11v-20.21c0-.5.41-.91.91-.91s.91.41.91.91v15.56l-1.81,4.64Z"/>
          </g>
          <g>
            <circle class="cls-9" cx="287.35" cy="159.42" r="12.8" transform="translate(66.38 402.64) rotate(-76.77)"/>
            <path class="cls-9" d="m313.97,239.46l-7.06-18.08c3.02-2.65,4.95-6.51,4.95-10.85v-20.73c0-7.98-6.47-14.45-14.45-14.45h-20.28c-7.98,0-14.45,6.47-14.45,14.45v20.73c0,4.33,1.93,8.2,4.95,10.85l-7.06,18.08h12.82v25.23c0,3.58,2.76,6.7,6.33,6.8,3.7.11,6.73-2.85,6.73-6.53v-25.51h1.81v25.23c0,3.58,2.76,6.7,6.33,6.8,3.7.11,6.73-2.85,6.73-6.53v-25.51h12.64Zm-11.74-49.28h0c.5,0,.91.41.91.91v20.66l-1.81-4.64v-16.01c0-.5.41-.91.91-.91Zm-30.66,21.11v-20.21c0-.5.41-.91.91-.91s.91.41.91.91v15.56l-1.81,4.64Z"/>
          </g>
        </g>
      </g>
    </g>
  </g>
</svg>