<?xml version="1.0" encoding="UTF-8"?>
<svg id="Livello_2" data-name="Livello 2" xmlns="http://www.w3.org/2000/svg" viewBox="0 0 640.7 969.04">
  <defs>
    <style>
      .cls-1 {
        letter-spacing: -.03em;
      }

      .cls-2 {
        font-size: 22.74px;
      }

      .cls-2, .cls-3, .cls-4, .cls-5 {
        font-family: Futura-Medium, Futura;
        font-weight: 500;
      }

      .cls-6 {
        letter-spacing: -.13em;
      }

      .cls-7 {
        letter-spacing: .01em;
      }

      .cls-8 {
        fill: #fbb03b;
      }

      .cls-8, .cls-9, .cls-10 {
        stroke: #000;
        stroke-miterlimit: 10;
        stroke-width: 2px;
      }

      .cls-11 {
        letter-spacing: 0em;
      }

      .cls-9 {
        fill: #dfad73;
      }

      .cls-10 {
        fill: #d0d2a3;
      }

      .cls-12 {
        letter-spacing: 0em;
      }

      .cls-13 {
        letter-spacing: 0em;
      }

      .cls-3 {
        font-size: 33.18px;
      }

      .cls-14 {
        letter-spacing: 0em;
      }

      .cls-15 {
        letter-spacing: .02em;
      }

      .cls-16 {
        letter-spacing: 0em;
      }

      .cls-17 {
        letter-spacing: .02em;
      }

      .cls-18 {
        letter-spacing: .02em;
      }

      .cls-19 {
        letter-spacing: .02em;
      }

      .cls-20 {
        letter-spacing: .02em;
      }

      .cls-21 {
        letter-spacing: -.02em;
      }

      .cls-22 {
        letter-spacing: -.04em;
      }

      .cls-23 {
        letter-spacing: 0em;
      }

      .cls-24 {
        letter-spacing: -.02em;
      }

      .cls-4 {
        font-size: 72px;
      }

      .cls-25 {
        letter-spacing: 0em;
      }

      .cls-26 {
        letter-spacing: .03em;
      }

      .cls-5 {
        font-size: 29px;
      }

      .cls-27 {
        letter-spacing: 0em;
      }
    </style>
  </defs>
  <g id="Livello_6" data-name="Livello 6">
    <g>
      <text class="cls-4" transform="translate(4.98 63.4)"><tspan class="cls-22" x="0" y="0">T</tspan><tspan x="31.5" y="0">o</tspan><tspan class="cls-18" x="74.78" y="0">r</tspan><tspan x="102.8" y="0">na appena pu</tspan><tspan class="cls-23" x="564.29" y="0">o</tspan><tspan x="607.22" y="0">’</tspan></text>
      <g>
        <g>
          <rect class="cls-10" x="46.69" y="920" width="413.91" height="48.04" rx="24.02" ry="24.02"/>
          <rect class="cls-8" x="46.69" y="866.63" width="334.28" height="48.04" rx="24.02" ry="24.02"/>
          <rect class="cls-9" x="46.69" y="813.25" width="64.87" height="48.04" rx="24.02" ry="24.02"/>
          <rect class="cls-10" x="46.69" y="759.88" width="64.87" height="48.04" rx="24.02" ry="24.02"/>
          <text class="cls-2" transform="translate(398.46 877.39)"><tspan x="0" y="0">L</tspan><tspan class="cls-16" x="10.08" y="0">a</tspan><tspan class="cls-24" x="23.92" y="0">v</tspan><tspan x="34.92" y="0">o</tspan><tspan class="cls-11" x="48.59" y="0">r</tspan><tspan x="56.94" y="0">a fuo</tspan><tspan class="cls-20" x="110.41" y="0">r</tspan><tspan class="cls-27" x="119.26" y="0">i</tspan><tspan x="0" y="27.29"> </tspan><tspan class="cls-13" x="7.02" y="27.29">r</tspan><tspan x="15.37" y="27.29">egione</tspan></text>
          <text class="cls-2" transform="translate(474.46 934.07)"><tspan class="cls-15" x="0" y="0">S</tspan><tspan x="13.65" y="0">tudia fuo</tspan><tspan class="cls-20" x="105.04" y="0">r</tspan><tspan class="cls-27" x="113.89" y="0">i</tspan><tspan x="0" y="27.29"> </tspan><tspan class="cls-13" x="7.02" y="27.29">r</tspan><tspan x="15.37" y="27.29">egione</tspan></text>
          <text class="cls-2" transform="translate(141.46 788.76)"><tspan x="0" y="0">L</tspan><tspan class="cls-16" x="10.08" y="0">a</tspan><tspan class="cls-24" x="23.92" y="0">v</tspan><tspan x="34.92" y="0">o</tspan><tspan class="cls-11" x="48.59" y="0">r</tspan><tspan x="56.94" y="0">a in Basilica</tspan><tspan class="cls-16" x="180.53" y="0">t</tspan><tspan class="cls-25" x="186.95" y="0">a</tspan></text>
          <text class="cls-2" transform="translate(143.46 839.45)"><tspan class="cls-15" x="0" y="0">S</tspan><tspan x="13.65" y="0">tudia in Basilica</tspan><tspan class="cls-16" x="175.16" y="0">t</tspan><tspan class="cls-25" x="181.57" y="0">a</tspan></text>
          <text class="cls-5" transform="translate(62.4 793.9)"><tspan class="cls-6" x="0" y="0">7</tspan><tspan x="14.19" y="0">,3</tspan></text>
          <text class="cls-5" transform="translate(62.36 847.96)"><tspan class="cls-6" x="0" y="0">7</tspan><tspan x="14.19" y="0">,3</tspan></text>
          <text class="cls-5" transform="translate(303.06 901.33)"><tspan x="0" y="0">38,2</tspan></text>
          <text class="cls-5" transform="translate(371.42 953.7)"><tspan x="0" y="0">4</tspan><tspan class="cls-6" x="17.9" y="0">7</tspan><tspan x="32.09" y="0">,3</tspan></text>
        </g>
        <g>
          <g>
            <rect class="cls-9" x="306.97" y="242.86" width="93.08" height="40" rx="14.73" ry="14.73"/>
            <rect class="cls-10" x="307.25" y="137.86" width="93.08" height="40" rx="14.73" ry="14.73"/>
            <rect class="cls-8" x="306.28" y="310.86" width="93.08" height="40" rx="14.73" ry="14.73"/>
            <g>
              <path d="m258.95,152.01c1.21,0,2.25.45,3.12,1.36.88.9,1.32,1.97,1.32,3.23s-.44,2.37-1.32,3.26c-.88.9-1.94,1.34-3.19,1.34s-2.29-.45-3.19-1.34c-.88-.91-1.32-1.99-1.32-3.24s.44-2.37,1.33-3.26c.9-.9,1.98-1.35,3.24-1.35Z"/>
              <path d="m289.86,145.9v21.86h-3.3v-21.86h3.3Z"/>
              <path d="m297.69,143.84v23.92h-3.19v-23.92h3.19Z"/>
              <path d="m323.92,148.98h-6.74l-1.08,3.62c.16-.02.31-.03.46-.04.15,0,.28-.01.4-.01,2.12,0,3.87.72,5.22,2.15,1.37,1.43,2.05,3.25,2.05,5.48s-.77,4.2-2.32,5.69c-1.55,1.49-3.5,2.24-5.85,2.24-2.9,0-5.18-1.36-6.85-4.08l2.49-2.11c.69,1.17,1.38,2,2.08,2.48.7.47,1.55.71,2.56.71,1.32,0,2.43-.46,3.33-1.39.9-.95,1.34-2.11,1.34-3.47s-.44-2.54-1.33-3.43c-.89-.92-2-1.37-3.33-1.37-1.48,0-2.76.65-3.84,1.94h-1.09l3.44-11.5h9.03v3.09Z"/>
              <path d="m327.8,156.69c0-3.48.81-6.26,2.44-8.34,1.45-1.88,3.21-2.82,5.28-2.82s3.83.94,5.28,2.82c1.62,2.08,2.44,4.9,2.44,8.48s-.81,6.39-2.44,8.47c-1.45,1.88-3.21,2.82-5.27,2.82s-3.82-.94-5.3-2.82c-1.62-2.08-2.44-4.95-2.44-8.61Zm3.24.01c0,2.43.42,4.44,1.26,6.05.84,1.58,1.91,2.36,3.21,2.36s2.36-.79,3.21-2.36c.85-1.57,1.27-3.54,1.27-5.93s-.42-4.37-1.27-5.95c-.85-1.57-1.92-2.35-3.21-2.35s-2.35.78-3.2,2.35c-.85,1.56-1.27,3.5-1.27,5.83Z"/>
              <path d="m348.44,163.67l2.83,1.1-4.04,8.09-2.15-.89,3.36-8.3Z"/>
              <path d="m359.93,168.51l-2.42-1.8,5.23-7.12c-.28.04-.52.07-.72.08-.2.02-.36.03-.48.03-1.76,0-3.29-.68-4.59-2.03-1.28-1.34-1.93-2.96-1.93-4.84,0-2.01.71-3.73,2.14-5.15s3.15-2.15,5.15-2.15,3.72.71,5.2,2.12c1.47,1.41,2.21,3.07,2.21,4.98,0,1.7-.72,3.54-2.15,5.51l-7.63,10.37Zm-1.7-15.92c0,1.18.4,2.17,1.2,2.97.81.81,1.79,1.22,2.93,1.22s2.11-.4,2.92-1.2,1.22-1.79,1.22-2.93-.41-2.12-1.22-2.93-1.78-1.2-2.93-1.2-2.1.4-2.9,1.2c-.81.81-1.22,1.77-1.22,2.87Z"/>
              <path d="m372.4,150.75c0-1.37.52-2.56,1.57-3.57,1.07-1.01,2.3-1.52,3.7-1.52s2.67.51,3.71,1.53c1.04,1.01,1.56,2.22,1.56,3.62s-.52,2.63-1.56,3.64c-1.04,1.01-2.29,1.52-3.75,1.52s-2.67-.51-3.7-1.54c-1.02-1.03-1.53-2.26-1.53-3.68Zm2.46.04c0,.79.27,1.46.82,2.01.55.55,1.21.82,2,.82s1.42-.27,1.97-.82c.55-.55.82-1.21.82-1.98s-.27-1.42-.82-1.97-1.21-.82-1.98-.82-1.43.27-1.98.82c-.55.55-.82,1.19-.82,1.94Zm15.22-5.28l1.54.88-12.52,21.72-1.56-.93,12.53-21.67Zm-3.85,17.22c0-1.36.52-2.54,1.57-3.55,1.07-1.01,2.3-1.51,3.7-1.51s2.69.51,3.72,1.53c1.04,1.01,1.56,2.22,1.56,3.62s-.52,2.64-1.57,3.64c-1.03,1-2.28,1.5-3.75,1.5s-2.67-.51-3.7-1.53c-1.02-1.02-1.53-2.25-1.53-3.7Zm2.48.06c0,.79.27,1.46.81,2.01.55.55,1.21.82,2,.82s1.43-.27,1.97-.82c.55-.55.82-1.21.82-1.98s-.27-1.44-.82-1.98c-.54-.55-1.2-.82-1.98-.82s-1.42.27-1.97.82-.82,1.2-.82,1.95Z"/>
              <path d="m412.14,156.94v10.82h-3.2v-10.82h-1.13v-2.97h1.13v-5.32c0-1.74.3-2.96.91-3.68.83-1,2.04-1.5,3.62-1.5.57,0,1.28.17,2.14.5v3.26l-.33-.17c-.69-.35-1.25-.52-1.7-.52-.57,0-.95.2-1.15.61-.2.4-.3,1.16-.3,2.29v4.55h3.47v2.97h-3.47Z"/>
              <path d="m428.05,153.97h3.2v13.79h-3.2v-1.44c-1.31,1.23-2.72,1.84-4.23,1.84-1.91,0-3.48-.69-4.73-2.07-1.24-1.41-1.86-3.16-1.86-5.27s.62-3.79,1.86-5.17c1.24-1.38,2.78-2.07,4.64-2.07,1.6,0,3.04.66,4.32,1.98v-1.6Zm-7.56,6.85c0,1.32.35,2.4,1.06,3.23.73.84,1.64,1.26,2.75,1.26,1.18,0,2.13-.41,2.86-1.22.73-.84,1.09-1.91,1.09-3.2s-.36-2.36-1.09-3.2c-.73-.82-1.67-1.23-2.83-1.23-1.1,0-2.01.42-2.75,1.25-.73.84-1.09,1.88-1.09,3.12Z"/>
              <path d="m454.39,175.26v-9.05c-1.26,1.29-2.71,1.94-4.33,1.94-1.86,0-3.4-.68-4.63-2.05-1.24-1.38-1.86-3.1-1.86-5.17s.62-3.85,1.86-5.25c1.25-1.4,2.81-2.1,4.69-2.1,1.6,0,3.02.63,4.28,1.88v-1.5h3.2v21.3h-3.2Zm-7.56-14.47c0,1.33.36,2.41,1.08,3.24.72.85,1.63,1.28,2.73,1.28,1.17,0,2.12-.41,2.85-1.22.74-.82,1.1-1.89,1.1-3.2s-.36-2.36-1.09-3.2c-.73-.82-1.67-1.23-2.83-1.23-1.1,0-2.01.42-2.75,1.25-.73.84-1.09,1.87-1.09,3.09Z"/>
              <path d="m465.12,153.97v7.92c0,2.29.9,3.43,2.71,3.43s2.7-1.14,2.7-3.43v-7.92h3.19v7.99c0,1.1-.14,2.06-.41,2.86-.26.72-.72,1.36-1.37,1.94-1.08.94-2.45,1.4-4.11,1.4s-3.02-.47-4.09-1.4c-.66-.58-1.13-1.22-1.4-1.94-.26-.64-.4-1.6-.4-2.86v-7.99h3.19Z"/>
              <path d="m487.91,153.97h3.2v13.79h-3.2v-1.44c-1.31,1.23-2.72,1.84-4.23,1.84-1.91,0-3.48-.69-4.73-2.07-1.24-1.41-1.85-3.16-1.85-5.27s.62-3.79,1.85-5.17c1.24-1.38,2.79-2.07,4.64-2.07,1.61,0,3.04.66,4.32,1.98v-1.6Zm-7.56,6.85c0,1.32.35,2.4,1.06,3.23.73.84,1.64,1.26,2.75,1.26,1.18,0,2.13-.41,2.86-1.22.73-.84,1.09-1.91,1.09-3.2s-.36-2.36-1.09-3.2c-.73-.82-1.67-1.23-2.83-1.23-1.09,0-2.01.42-2.75,1.25-.73.84-1.09,1.88-1.09,3.12Z"/>
              <path d="m498.31,143.84v23.92h-3.19v-23.92h3.19Z"/>
              <path d="m513.08,154.56v4.23c-.73-.89-1.38-1.5-1.95-1.83-.57-.34-1.23-.51-2-.51-1.2,0-2.19.42-2.99,1.26-.79.84-1.19,1.89-1.19,3.16s.38,2.36,1.15,3.19c.77.83,1.76,1.25,2.96,1.25.76,0,1.44-.17,2.02-.5.57-.32,1.23-.94,2-1.87v4.21c-1.29.67-2.59,1.01-3.88,1.01-2.13,0-3.92-.69-5.35-2.07-1.44-1.39-2.15-3.11-2.15-5.17s.73-3.79,2.18-5.21c1.45-1.42,3.24-2.12,5.35-2.12,1.36,0,2.64.33,3.85.98Z"/>
              <path d="m515.52,160.76c0-1.99.71-3.69,2.14-5.08,1.43-1.4,3.16-2.1,5.21-2.1s3.8.7,5.24,2.11c1.42,1.41,2.12,3.13,2.12,5.18s-.71,3.8-2.14,5.2c-1.44,1.39-3.2,2.08-5.28,2.08s-3.8-.71-5.2-2.12c-1.4-1.4-2.1-3.15-2.1-5.27Zm3.26.06c0,1.38.37,2.47,1.1,3.27.75.81,1.75,1.22,2.99,1.22s2.24-.4,2.99-1.2c.75-.8,1.12-1.87,1.12-3.21s-.37-2.41-1.12-3.21c-.76-.81-1.75-1.22-2.99-1.22s-2.2.41-2.96,1.22c-.76.81-1.13,1.86-1.13,3.14Z"/>
              <path d="m541.62,156.32l-2.63,1.4c-.42-.85-.93-1.28-1.54-1.28-.29,0-.54.1-.75.29-.21.19-.31.44-.31.74,0,.53.61,1.05,1.84,1.57,1.69.73,2.83,1.4,3.41,2.01.58.61.88,1.44.88,2.48,0,1.33-.49,2.45-1.47,3.34-.95.85-2.11,1.27-3.46,1.27-2.31,0-3.95-1.13-4.91-3.38l2.72-1.26c.38.66.67,1.08.86,1.26.39.36.85.54,1.39.54,1.08,0,1.61-.49,1.61-1.47,0-.57-.42-1.1-1.25-1.59-.32-.16-.64-.32-.96-.47-.32-.15-.65-.31-.98-.47-.92-.45-1.58-.91-1.95-1.36-.48-.58-.72-1.32-.72-2.22,0-1.2.41-2.19,1.23-2.97.84-.78,1.86-1.17,3.06-1.17,1.77,0,3.08.91,3.94,2.73Z"/>
              <path d="m555.54,153.97h3.2v13.79h-3.2v-1.44c-1.31,1.23-2.72,1.84-4.23,1.84-1.91,0-3.48-.69-4.73-2.07-1.24-1.41-1.85-3.16-1.85-5.27s.62-3.79,1.85-5.17c1.24-1.38,2.79-2.07,4.64-2.07,1.61,0,3.04.66,4.32,1.98v-1.6Zm-7.56,6.85c0,1.32.35,2.4,1.06,3.23.73.84,1.64,1.26,2.75,1.26,1.18,0,2.13-.41,2.86-1.22.73-.84,1.09-1.91,1.09-3.2s-.36-2.36-1.09-3.2c-.73-.82-1.67-1.23-2.83-1.23-1.09,0-2.01.42-2.75,1.25-.73.84-1.09,1.88-1.09,3.12Z"/>
              <path d="m582.44,154.56v4.23c-.73-.89-1.38-1.5-1.95-1.83-.57-.34-1.23-.51-2-.51-1.2,0-2.19.42-2.99,1.26-.79.84-1.19,1.89-1.19,3.16s.38,2.36,1.15,3.19c.77.83,1.76,1.25,2.96,1.25.76,0,1.44-.17,2.02-.5.57-.32,1.23-.94,2-1.87v4.21c-1.29.67-2.59,1.01-3.88,1.01-2.13,0-3.92-.69-5.35-2.07-1.44-1.39-2.15-3.11-2.15-5.17s.73-3.79,2.18-5.21c1.45-1.42,3.24-2.12,5.35-2.12,1.36,0,2.64.33,3.85.98Z"/>
              <path d="m586.28,143.84h3.19v11.27c1.13-1.02,2.38-1.53,3.75-1.53,1.56,0,2.8.5,3.74,1.51.79.88,1.19,2.28,1.19,4.21v8.45h-3.19v-8.16c0-1.1-.2-1.9-.59-2.4-.39-.5-1.02-.74-1.89-.74-1.11,0-1.9.34-2.35,1.03-.44.7-.67,1.9-.67,3.6v6.67h-3.19v-23.92Z"/>
              <path d="m614.74,161.61h-9.88c.08,1.13.45,2.03,1.1,2.7.65.66,1.49.99,2.51.99.79,0,1.45-.19,1.97-.57.51-.38,1.09-1.08,1.74-2.1l2.69,1.5c-.42.71-.85,1.32-1.32,1.82-.46.5-.96.92-1.49,1.25-.53.33-1.1.56-1.71.71-.61.15-1.28.23-2,.23-2.06,0-3.71-.66-4.96-1.98-1.25-1.33-1.87-3.1-1.87-5.3s.6-3.95,1.81-5.3c1.22-1.33,2.83-2,4.84-2s3.63.65,4.81,1.94c1.17,1.28,1.76,3.06,1.76,5.34v.75Zm-3.27-2.61c-.44-1.7-1.52-2.55-3.21-2.55-.39,0-.75.06-1.09.18s-.65.29-.93.51-.52.49-.71.8c-.2.31-.35.67-.45,1.06h6.4Z"/>
              <path d="m267.96,188.77h3.2v1.27c1.11-1.1,2.37-1.66,3.77-1.66,1.6,0,2.86.5,3.75,1.51.77.86,1.16,2.26,1.16,4.21v8.45h-3.2v-7.7c0-1.36-.19-2.3-.57-2.82-.37-.53-1.04-.79-2.01-.79-1.06,0-1.81.35-2.25,1.05-.43.69-.65,1.89-.65,3.61v6.66h-3.2v-13.79Z"/>
              <path d="m283.21,195.56c0-1.99.71-3.69,2.14-5.08,1.43-1.4,3.16-2.1,5.21-2.1s3.8.7,5.24,2.11c1.42,1.41,2.12,3.13,2.12,5.18s-.71,3.8-2.14,5.2c-1.44,1.39-3.2,2.08-5.28,2.08s-3.8-.71-5.2-2.12c-1.4-1.4-2.1-3.15-2.1-5.27Zm3.26.06c0,1.38.37,2.47,1.1,3.27.76.81,1.75,1.22,2.99,1.22s2.24-.4,2.99-1.2,1.12-1.87,1.12-3.21-.37-2.41-1.12-3.21c-.76-.81-1.75-1.22-2.99-1.22s-2.2.41-2.96,1.22-1.13,1.86-1.13,3.14Z"/>
              <path d="m301.29,188.77h3.2v1.27c1.11-1.1,2.37-1.66,3.77-1.66,1.6,0,2.86.5,3.75,1.51.77.86,1.16,2.26,1.16,4.21v8.45h-3.2v-7.7c0-1.36-.19-2.3-.57-2.82-.37-.53-1.04-.79-2.01-.79-1.06,0-1.81.35-2.25,1.05-.43.69-.65,1.89-.65,3.61v6.66h-3.2v-13.79Z"/>
              <path d="m329.33,210.06h-3.19v-21.3h3.19v1.5c1.25-1.26,2.68-1.88,4.28-1.88,1.9,0,3.46.7,4.69,2.1,1.25,1.39,1.87,3.14,1.87,5.25s-.62,3.79-1.85,5.17c-1.23,1.37-2.78,2.05-4.64,2.05-1.61,0-3.06-.65-4.33-1.94v9.05Zm7.58-14.32c0-1.32-.36-2.4-1.08-3.23-.73-.84-1.64-1.26-2.75-1.26-1.17,0-2.12.41-2.85,1.22-.73.81-1.09,1.88-1.09,3.2s.36,2.36,1.09,3.2c.72.82,1.66,1.23,2.83,1.23,1.1,0,2.02-.42,2.73-1.25.74-.83,1.1-1.87,1.1-3.12Z"/>
              <path d="m342.88,195.56c0-1.99.71-3.69,2.14-5.08,1.42-1.4,3.16-2.1,5.21-2.1s3.8.7,5.24,2.11c1.42,1.41,2.12,3.13,2.12,5.18s-.71,3.8-2.14,5.2c-1.43,1.39-3.2,2.08-5.28,2.08s-3.8-.71-5.2-2.12c-1.4-1.4-2.1-3.15-2.1-5.27Zm3.26.06c0,1.38.37,2.47,1.1,3.27.76.81,1.75,1.22,2.99,1.22s2.24-.4,2.99-1.2c.75-.8,1.12-1.87,1.12-3.21s-.37-2.41-1.12-3.21c-.75-.81-1.75-1.22-2.99-1.22s-2.2.41-2.96,1.22c-.75.81-1.13,1.86-1.13,3.14Z"/>
              <path d="m364.41,191.74v10.82h-3.19v-10.82h-1.36v-2.97h1.36v-5.06h3.19v5.06h2.48v2.97h-2.48Z"/>
              <path d="m369.06,188.77h3.19v1.23c.59-.61,1.1-1.03,1.56-1.26.46-.24,1.01-.35,1.64-.35.84,0,1.72.27,2.63.82l-1.46,2.92c-.6-.43-1.19-.65-1.77-.65-1.74,0-2.61,1.31-2.61,3.94v7.15h-3.19v-13.79Z"/>
              <path d="m392.27,196.41h-9.88c.08,1.13.45,2.03,1.1,2.7.65.66,1.49.99,2.51.99.79,0,1.45-.19,1.97-.57.51-.38,1.09-1.08,1.74-2.1l2.69,1.5c-.42.71-.85,1.32-1.32,1.82-.46.5-.96.92-1.49,1.25-.53.33-1.1.56-1.71.71-.61.15-1.28.23-2,.23-2.06,0-3.71-.66-4.96-1.98-1.25-1.33-1.87-3.1-1.87-5.3s.6-3.95,1.81-5.3c1.22-1.33,2.83-2,4.84-2s3.63.65,4.81,1.94c1.17,1.28,1.76,3.06,1.76,5.34v.75Zm-3.27-2.61c-.44-1.7-1.52-2.55-3.21-2.55-.39,0-.75.06-1.09.18s-.65.29-.93.51-.52.49-.71.8c-.2.31-.35.67-.45,1.06h6.4Z"/>
              <path d="m398.94,178.64v11.72c1.27-1.32,2.72-1.98,4.33-1.98,1.86,0,3.41.69,4.64,2.08,1.24,1.38,1.85,3.1,1.85,5.15s-.62,3.88-1.87,5.27c-1.24,1.38-2.8,2.07-4.69,2.07-1.6,0-3.02-.61-4.28-1.84v1.44h-3.19v-23.92h3.19Zm7.58,17.12c0-1.32-.36-2.4-1.08-3.23-.73-.85-1.64-1.27-2.73-1.27-1.17,0-2.12.41-2.86,1.23-.73.81-1.09,1.87-1.09,3.17s.36,2.41,1.08,3.21c.72.82,1.66,1.23,2.83,1.23,1.1,0,2.02-.41,2.75-1.23.74-.83,1.1-1.87,1.1-3.12Z"/>
              <path d="m416.33,178.64v11.72c1.27-1.32,2.72-1.98,4.33-1.98,1.86,0,3.41.69,4.64,2.08,1.24,1.38,1.85,3.1,1.85,5.15s-.62,3.88-1.87,5.27c-1.24,1.38-2.8,2.07-4.69,2.07-1.6,0-3.02-.61-4.28-1.84v1.44h-3.19v-23.92h3.19Zm7.58,17.12c0-1.32-.36-2.4-1.08-3.23-.73-.85-1.64-1.27-2.73-1.27-1.17,0-2.12.41-2.86,1.23-.73.81-1.09,1.87-1.09,3.17s.36,2.41,1.08,3.21c.72.82,1.66,1.23,2.83,1.23,1.1,0,2.02-.41,2.75-1.23.74-.83,1.1-1.87,1.1-3.12Z"/>
              <path d="m443.09,196.41h-9.88c.08,1.13.45,2.03,1.1,2.7.65.66,1.49.99,2.51.99.79,0,1.45-.19,1.97-.57.51-.38,1.09-1.08,1.74-2.1l2.69,1.5c-.42.71-.85,1.32-1.32,1.82-.46.5-.96.92-1.49,1.25-.53.33-1.1.56-1.71.71-.61.15-1.28.23-2,.23-2.06,0-3.71-.66-4.96-1.98-1.25-1.33-1.87-3.1-1.87-5.3s.6-3.95,1.81-5.3c1.22-1.33,2.83-2,4.84-2s3.63.65,4.81,1.94c1.17,1.28,1.76,3.06,1.76,5.34v.75Zm-3.27-2.61c-.44-1.7-1.51-2.55-3.21-2.55-.39,0-.75.06-1.09.18s-.65.29-.93.51c-.28.22-.52.49-.71.8-.2.31-.35.67-.45,1.06h6.4Z"/>
              <path d="m458.82,191.74v10.82h-3.2v-10.82h-1.13v-2.97h1.13v-5.32c0-1.74.3-2.96.91-3.68.83-1,2.04-1.5,3.62-1.5.57,0,1.28.17,2.14.5v3.26l-.33-.17c-.69-.35-1.25-.52-1.7-.52-.57,0-.95.2-1.15.61-.2.4-.3,1.16-.3,2.29v4.55h3.47v2.97h-3.47Z"/>
              <path d="m474.74,188.77h3.2v13.79h-3.2v-1.44c-1.31,1.23-2.72,1.84-4.23,1.84-1.91,0-3.48-.69-4.73-2.07-1.24-1.41-1.86-3.16-1.86-5.27s.62-3.79,1.86-5.17c1.24-1.38,2.78-2.07,4.64-2.07,1.6,0,3.04.66,4.32,1.98v-1.6Zm-7.56,6.85c0,1.32.35,2.4,1.06,3.23.73.84,1.64,1.26,2.75,1.26,1.18,0,2.13-.41,2.86-1.22.73-.84,1.09-1.91,1.09-3.2s-.36-2.36-1.09-3.2c-.73-.82-1.67-1.23-2.83-1.23-1.1,0-2.01.42-2.75,1.25-.73.84-1.09,1.88-1.09,3.12Z"/>
              <path d="m481.96,188.77h3.19v1.23c.58-.61,1.1-1.03,1.56-1.26.46-.24,1.01-.35,1.64-.35.84,0,1.72.27,2.63.82l-1.46,2.92c-.6-.43-1.19-.65-1.77-.65-1.74,0-2.61,1.31-2.61,3.94v7.15h-3.19v-13.79Z"/>
              <path d="m505.17,196.41h-9.88c.08,1.13.45,2.03,1.1,2.7.65.66,1.49.99,2.51.99.79,0,1.45-.19,1.97-.57.51-.38,1.09-1.08,1.74-2.1l2.69,1.5c-.42.71-.85,1.32-1.32,1.82-.46.5-.96.92-1.49,1.25-.53.33-1.1.56-1.71.71-.61.15-1.28.23-2,.23-2.06,0-3.71-.66-4.96-1.98-1.25-1.33-1.87-3.1-1.87-5.3s.6-3.95,1.81-5.3c1.22-1.33,2.83-2,4.84-2s3.63.65,4.81,1.94c1.17,1.28,1.76,3.06,1.76,5.34v.75Zm-3.27-2.61c-.44-1.7-1.51-2.55-3.21-2.55-.39,0-.75.06-1.09.18s-.65.29-.93.51c-.28.22-.52.49-.71.8-.2.31-.35.67-.45,1.06h6.4Z"/>
              <path d="m527.77,188.77h3.2v13.79h-3.2v-1.44c-1.31,1.23-2.72,1.84-4.23,1.84-1.91,0-3.48-.69-4.73-2.07-1.24-1.41-1.85-3.16-1.85-5.27s.62-3.79,1.85-5.17c1.24-1.38,2.79-2.07,4.64-2.07,1.61,0,3.04.66,4.32,1.98v-1.6Zm-7.56,6.85c0,1.32.35,2.4,1.06,3.23.73.84,1.64,1.26,2.75,1.26,1.18,0,2.13-.41,2.86-1.22.73-.84,1.09-1.91,1.09-3.2s-.36-2.36-1.09-3.2c-.73-.82-1.67-1.23-2.83-1.23-1.09,0-2.01.42-2.75,1.25-.73.84-1.09,1.88-1.09,3.12Z"/>
              <path d="m274.6,218.6v18.76h-3.3v-18.76h-5.03v-3.1h13.34v3.1h-5.01Z"/>
              <path d="m280.95,223.57h3.19v1.23c.59-.61,1.1-1.03,1.56-1.26.46-.24,1.01-.35,1.64-.35.84,0,1.72.27,2.63.82l-1.46,2.92c-.6-.43-1.19-.65-1.77-.65-1.74,0-2.61,1.31-2.61,3.94v7.15h-3.19v-13.79Z"/>
              <path d="m291.76,217.83c0-.56.2-1.04.61-1.44.41-.41.89-.61,1.46-.61s1.07.2,1.47.61c.41.4.61.88.61,1.46s-.2,1.07-.61,1.47c-.4.41-.88.61-1.46.61s-1.07-.2-1.47-.61-.61-.9-.61-1.49Zm3.67,5.74v13.79h-3.19v-13.79h3.19Z"/>
              <path d="m310.19,224.16v4.23c-.73-.89-1.38-1.5-1.95-1.83-.57-.34-1.23-.51-2-.51-1.2,0-2.19.42-2.99,1.26-.79.84-1.19,1.89-1.19,3.16s.38,2.36,1.15,3.19c.77.83,1.76,1.25,2.96,1.25.76,0,1.44-.17,2.02-.5.57-.32,1.23-.94,2-1.87v4.21c-1.29.67-2.59,1.01-3.88,1.01-2.13,0-3.92-.69-5.35-2.07-1.44-1.39-2.15-3.11-2.15-5.17s.73-3.79,2.18-5.21,3.24-2.12,5.35-2.12c1.36,0,2.64.33,3.85.98Z"/>
              <path d="m323.45,223.57h3.2v13.79h-3.2v-1.44c-1.31,1.23-2.72,1.84-4.23,1.84-1.91,0-3.48-.69-4.73-2.07-1.24-1.41-1.85-3.16-1.85-5.27s.62-3.79,1.85-5.17c1.24-1.38,2.78-2.07,4.64-2.07,1.6,0,3.04.66,4.32,1.98v-1.6Zm-7.56,6.85c0,1.32.35,2.4,1.06,3.23.73.84,1.64,1.26,2.75,1.26,1.18,0,2.13-.41,2.86-1.22.73-.84,1.09-1.91,1.09-3.2s-.36-2.36-1.09-3.2c-.73-.82-1.67-1.23-2.83-1.23-1.1,0-2.01.42-2.75,1.25-.73.84-1.09,1.88-1.09,3.12Z"/>
              <path d="m330.67,223.57h3.19v1.23c.58-.61,1.1-1.03,1.56-1.26.46-.24,1.01-.35,1.64-.35.84,0,1.72.27,2.63.82l-1.46,2.92c-.6-.43-1.19-.65-1.77-.65-1.74,0-2.61,1.31-2.61,3.94v7.15h-3.19v-13.79Z"/>
              <path d="m341.47,217.83c0-.56.2-1.04.61-1.44s.89-.61,1.46-.61,1.07.2,1.47.61c.41.4.61.88.61,1.46s-.2,1.07-.61,1.47c-.4.41-.88.61-1.46.61s-1.07-.2-1.47-.61c-.41-.41-.61-.9-.61-1.49Zm3.67,5.74v13.79h-3.19v-13.79h3.19Z"/>
              <path d="m359.91,224.16v4.23c-.73-.89-1.38-1.5-1.95-1.83-.57-.34-1.23-.51-2-.51-1.2,0-2.19.42-2.99,1.26-.79.84-1.19,1.89-1.19,3.16s.38,2.36,1.15,3.19c.77.83,1.76,1.25,2.96,1.25.76,0,1.44-.17,2.02-.5.57-.32,1.23-.94,2-1.87v4.21c-1.29.67-2.59,1.01-3.88,1.01-2.13,0-3.92-.69-5.35-2.07-1.44-1.39-2.15-3.11-2.15-5.17s.73-3.79,2.18-5.21c1.45-1.42,3.24-2.12,5.35-2.12,1.36,0,2.64.33,3.85.98Z"/>
              <path d="m362.35,230.36c0-1.99.71-3.69,2.14-5.08,1.43-1.4,3.16-2.1,5.21-2.1s3.8.7,5.24,2.11c1.42,1.41,2.12,3.13,2.12,5.18s-.71,3.8-2.14,5.2c-1.44,1.39-3.2,2.08-5.28,2.08s-3.8-.71-5.2-2.12c-1.4-1.4-2.1-3.15-2.1-5.27Zm3.26.06c0,1.38.37,2.47,1.1,3.27.75.81,1.75,1.22,2.99,1.22s2.24-.4,2.99-1.2c.75-.8,1.12-1.87,1.12-3.21s-.37-2.41-1.12-3.21c-.76-.81-1.75-1.22-2.99-1.22s-2.2.41-2.96,1.22c-.76.81-1.13,1.86-1.13,3.14Z"/>
              <path d="m258.95,256.41c1.21,0,2.25.45,3.12,1.36.88.9,1.32,1.97,1.32,3.23s-.44,2.37-1.32,3.26c-.88.9-1.94,1.34-3.19,1.34s-2.29-.45-3.19-1.34c-.88-.91-1.32-1.99-1.32-3.24s.44-2.37,1.33-3.26c.9-.9,1.98-1.35,3.24-1.35Z"/>
              <path d="m289.86,250.3v21.86h-3.3v-21.86h3.3Z"/>
              <path d="m297.69,248.24v23.92h-3.19v-23.92h3.19Z"/>
              <path d="m316.17,262.01v-2.82c1.4,0,2.34-.16,2.82-.47.86-.55,1.29-1.43,1.29-2.63,0-.93-.31-1.69-.93-2.28-.61-.59-1.41-.89-2.39-.89-.92,0-1.62.22-2.12.67-.48.45-.84,1.22-1.08,2.29h-3.29c.34-2.06,1.04-3.57,2.1-4.52s2.53-1.44,4.43-1.44,3.48.57,4.69,1.7c1.21,1.12,1.81,2.57,1.81,4.35,0,2-.79,3.56-2.38,4.67,1.81,1.07,2.72,2.8,2.72,5.2,0,1.96-.66,3.57-1.98,4.81-1.32,1.25-3.02,1.87-5.08,1.87-2.63,0-4.59-.97-5.86-2.9-.53-.81-.86-1.94-1.01-3.37h3.19c.17,1.06.58,1.87,1.24,2.43.66.56,1.51.84,2.57.84s1.95-.35,2.65-1.06c.7-.73,1.05-1.65,1.05-2.76,0-1.47-.52-2.52-1.57-3.14-.61-.36-1.56-.54-2.85-.54Z"/>
              <path d="m337.95,249.53l2.42,1.81-5.22,7.11c.28-.04.52-.07.72-.08s.35-.03.47-.03c1.77,0,3.31.68,4.6,2.04,1.28,1.34,1.93,2.96,1.93,4.84,0,2-.72,3.72-2.15,5.15-1.42,1.43-3.14,2.14-5.14,2.14s-3.72-.7-5.21-2.11c-1.46-1.41-2.2-3.07-2.2-5,0-1.73.71-3.56,2.14-5.49l7.65-10.38Zm1.7,15.9c0-1.16-.4-2.14-1.2-2.95s-1.79-1.22-2.93-1.22-2.13.4-2.93,1.2c-.8.8-1.2,1.77-1.2,2.92s.4,2.11,1.2,2.92c.8.8,1.78,1.2,2.95,1.2s2.1-.4,2.9-1.2,1.22-1.77,1.22-2.88Z"/>
              <path d="m348.44,268.07l2.83,1.1-4.04,8.09-2.15-.89,3.36-8.3Z"/>
              <path d="m367.72,266.06h2.32v3h-2.32v3.1h-3.3v-3.1h-10.73l14.03-20.39v17.39Zm-3.3,0v-7.32l-5.04,7.32h5.04Z"/>
              <path d="m372.4,255.15c0-1.37.52-2.56,1.57-3.57,1.07-1.01,2.3-1.52,3.7-1.52s2.67.51,3.71,1.53c1.04,1.01,1.56,2.22,1.56,3.62s-.52,2.63-1.56,3.64c-1.04,1.01-2.29,1.52-3.75,1.52s-2.67-.51-3.7-1.54c-1.02-1.03-1.53-2.26-1.53-3.68Zm2.46.04c0,.79.27,1.46.82,2.01.55.55,1.21.82,2,.82s1.42-.27,1.97-.82c.55-.55.82-1.21.82-1.98s-.27-1.42-.82-1.97-1.21-.82-1.98-.82-1.43.27-1.98.82c-.55.55-.82,1.19-.82,1.94Zm15.22-5.28l1.54.88-12.52,21.72-1.56-.93,12.53-21.67Zm-3.85,17.22c0-1.36.52-2.54,1.57-3.55,1.07-1.01,2.3-1.51,3.7-1.51s2.69.51,3.72,1.53c1.04,1.01,1.56,2.22,1.56,3.62s-.52,2.64-1.57,3.64c-1.03,1-2.28,1.5-3.75,1.5s-2.67-.51-3.7-1.53c-1.02-1.02-1.53-2.25-1.53-3.7Zm2.48.06c0,.79.27,1.46.81,2.01.55.55,1.21.82,2,.82s1.43-.27,1.97-.82c.55-.55.82-1.21.82-1.98s-.27-1.44-.82-1.98c-.54-.55-1.2-.82-1.98-.82s-1.42.27-1.97.82-.82,1.2-.82,1.95Z"/>
              <path d="m412.14,261.34v10.82h-3.2v-10.82h-1.13v-2.97h1.13v-5.32c0-1.74.3-2.96.91-3.68.83-1,2.04-1.5,3.62-1.5.57,0,1.28.17,2.14.5v3.26l-.33-.17c-.69-.35-1.25-.52-1.7-.52-.57,0-.95.2-1.15.61-.2.4-.3,1.16-.3,2.29v4.55h3.47v2.97h-3.47Z"/>
              <path d="m428.05,258.37h3.2v13.79h-3.2v-1.44c-1.31,1.23-2.72,1.84-4.23,1.84-1.91,0-3.48-.69-4.73-2.07-1.24-1.41-1.86-3.16-1.86-5.27s.62-3.79,1.86-5.17c1.24-1.38,2.78-2.07,4.64-2.07,1.6,0,3.04.66,4.32,1.98v-1.6Zm-7.56,6.85c0,1.32.35,2.4,1.06,3.23.73.84,1.64,1.26,2.75,1.26,1.18,0,2.13-.41,2.86-1.22.73-.84,1.09-1.91,1.09-3.2s-.36-2.36-1.09-3.2c-.73-.82-1.67-1.23-2.83-1.23-1.1,0-2.01.42-2.75,1.25-.73.84-1.09,1.88-1.09,3.12Z"/>
              <path d="m454.39,279.67v-9.05c-1.26,1.29-2.71,1.94-4.33,1.94-1.86,0-3.4-.68-4.63-2.05-1.24-1.38-1.86-3.1-1.86-5.17s.62-3.85,1.86-5.25c1.25-1.4,2.81-2.1,4.69-2.1,1.6,0,3.02.63,4.28,1.88v-1.5h3.2v21.3h-3.2Zm-7.56-14.47c0,1.33.36,2.41,1.08,3.24.72.85,1.63,1.28,2.73,1.28,1.17,0,2.12-.41,2.85-1.22.74-.82,1.1-1.89,1.1-3.2s-.36-2.36-1.09-3.2c-.73-.82-1.67-1.23-2.83-1.23-1.1,0-2.01.42-2.75,1.25-.73.84-1.09,1.87-1.09,3.09Z"/>
              <path d="m465.12,258.37v7.92c0,2.29.9,3.43,2.71,3.43s2.7-1.14,2.7-3.43v-7.92h3.19v7.99c0,1.1-.14,2.06-.41,2.86-.26.72-.72,1.36-1.37,1.94-1.08.94-2.45,1.4-4.11,1.4s-3.02-.47-4.09-1.4c-.66-.58-1.13-1.22-1.4-1.94-.26-.64-.4-1.6-.4-2.86v-7.99h3.19Z"/>
              <path d="m487.91,258.37h3.2v13.79h-3.2v-1.44c-1.31,1.23-2.72,1.84-4.23,1.84-1.91,0-3.48-.69-4.73-2.07-1.24-1.41-1.85-3.16-1.85-5.27s.62-3.79,1.85-5.17c1.24-1.38,2.79-2.07,4.64-2.07,1.61,0,3.04.66,4.32,1.98v-1.6Zm-7.56,6.85c0,1.32.35,2.4,1.06,3.23.73.84,1.64,1.26,2.75,1.26,1.18,0,2.13-.41,2.86-1.22.73-.84,1.09-1.91,1.09-3.2s-.36-2.36-1.09-3.2c-.73-.82-1.67-1.23-2.83-1.23-1.09,0-2.01.42-2.75,1.25-.73.84-1.09,1.88-1.09,3.12Z"/>
              <path d="m498.31,248.24v23.92h-3.19v-23.92h3.19Z"/>
              <path d="m513.08,258.96v4.23c-.73-.89-1.38-1.5-1.95-1.83-.57-.34-1.23-.51-2-.51-1.2,0-2.19.42-2.99,1.26-.79.84-1.19,1.89-1.19,3.16s.38,2.36,1.15,3.19c.77.83,1.76,1.25,2.96,1.25.76,0,1.44-.17,2.02-.5.57-.32,1.23-.94,2-1.87v4.21c-1.29.67-2.59,1.01-3.88,1.01-2.13,0-3.92-.69-5.35-2.07-1.44-1.39-2.15-3.11-2.15-5.17s.73-3.79,2.18-5.21c1.45-1.42,3.24-2.12,5.35-2.12,1.36,0,2.64.33,3.85.98Z"/>
              <path d="m515.52,265.17c0-1.99.71-3.69,2.14-5.08,1.43-1.4,3.16-2.1,5.21-2.1s3.8.7,5.24,2.11c1.42,1.41,2.12,3.13,2.12,5.18s-.71,3.8-2.14,5.2c-1.44,1.39-3.2,2.08-5.28,2.08s-3.8-.71-5.2-2.12c-1.4-1.4-2.1-3.15-2.1-5.27Zm3.26.06c0,1.38.37,2.47,1.1,3.27.75.81,1.75,1.22,2.99,1.22s2.24-.4,2.99-1.2c.75-.8,1.12-1.87,1.12-3.21s-.37-2.41-1.12-3.21c-.76-.81-1.75-1.22-2.99-1.22s-2.2.41-2.96,1.22c-.76.81-1.13,1.86-1.13,3.14Z"/>
              <path d="m541.62,260.72l-2.63,1.4c-.42-.85-.93-1.28-1.54-1.28-.29,0-.54.1-.75.29-.21.19-.31.44-.31.74,0,.53.61,1.05,1.84,1.57,1.69.73,2.83,1.4,3.41,2.01.58.61.88,1.44.88,2.48,0,1.33-.49,2.45-1.47,3.34-.95.85-2.11,1.27-3.46,1.27-2.31,0-3.95-1.13-4.91-3.38l2.72-1.26c.38.66.67,1.08.86,1.26.39.36.85.54,1.39.54,1.08,0,1.61-.49,1.61-1.47,0-.57-.42-1.1-1.25-1.59-.32-.16-.64-.32-.96-.47-.32-.15-.65-.31-.98-.47-.92-.45-1.58-.91-1.95-1.36-.48-.58-.72-1.32-.72-2.22,0-1.2.41-2.19,1.23-2.97.84-.78,1.86-1.17,3.06-1.17,1.77,0,3.08.91,3.94,2.73Z"/>
              <path d="m555.54,258.37h3.2v13.79h-3.2v-1.44c-1.31,1.23-2.72,1.84-4.23,1.84-1.91,0-3.48-.69-4.73-2.07-1.24-1.41-1.85-3.16-1.85-5.27s.62-3.79,1.85-5.17c1.24-1.38,2.79-2.07,4.64-2.07,1.61,0,3.04.66,4.32,1.98v-1.6Zm-7.56,6.85c0,1.32.35,2.4,1.06,3.23.73.84,1.64,1.26,2.75,1.26,1.18,0,2.13-.41,2.86-1.22.73-.84,1.09-1.91,1.09-3.2s-.36-2.36-1.09-3.2c-.73-.82-1.67-1.23-2.83-1.23-1.09,0-2.01.42-2.75,1.25-.73.84-1.09,1.88-1.09,3.12Z"/>
              <path d="m582.44,258.96v4.23c-.73-.89-1.38-1.5-1.95-1.83-.57-.34-1.23-.51-2-.51-1.2,0-2.19.42-2.99,1.26-.79.84-1.19,1.89-1.19,3.16s.38,2.36,1.15,3.19c.77.83,1.76,1.25,2.96,1.25.76,0,1.44-.17,2.02-.5.57-.32,1.23-.94,2-1.87v4.21c-1.29.67-2.59,1.01-3.88,1.01-2.13,0-3.92-.69-5.35-2.07-1.44-1.39-2.15-3.11-2.15-5.17s.73-3.79,2.18-5.21c1.45-1.42,3.24-2.12,5.35-2.12,1.36,0,2.64.33,3.85.98Z"/>
              <path d="m586.28,248.24h3.19v11.27c1.13-1.02,2.38-1.53,3.75-1.53,1.56,0,2.8.5,3.74,1.51.79.88,1.19,2.28,1.19,4.21v8.45h-3.19v-8.16c0-1.1-.2-1.9-.59-2.4-.39-.5-1.02-.74-1.89-.74-1.11,0-1.9.34-2.35,1.03-.44.7-.67,1.9-.67,3.6v6.67h-3.19v-23.92Z"/>
              <path d="m614.74,266.01h-9.88c.08,1.13.45,2.03,1.1,2.7.65.66,1.49.99,2.51.99.79,0,1.45-.19,1.97-.57.51-.38,1.09-1.08,1.74-2.1l2.69,1.5c-.42.71-.85,1.32-1.32,1.82-.46.5-.96.92-1.49,1.25-.53.33-1.1.56-1.71.71-.61.15-1.28.23-2,.23-2.06,0-3.71-.66-4.96-1.98-1.25-1.33-1.87-3.1-1.87-5.3s.6-3.95,1.81-5.3c1.22-1.33,2.83-2,4.84-2s3.63.65,4.81,1.94c1.17,1.28,1.76,3.06,1.76,5.34v.75Zm-3.27-2.61c-.44-1.7-1.52-2.55-3.21-2.55-.39,0-.75.06-1.09.18s-.65.29-.93.51-.52.49-.71.8c-.2.31-.35.67-.45,1.06h6.4Z"/>
              <path d="m271.14,314.46h-3.19v-21.3h3.19v1.5c1.26-1.26,2.68-1.88,4.28-1.88,1.9,0,3.46.7,4.69,2.1,1.25,1.39,1.87,3.14,1.87,5.25s-.62,3.79-1.85,5.17c-1.23,1.37-2.78,2.05-4.64,2.05-1.61,0-3.06-.65-4.33-1.94v9.05Zm7.58-14.32c0-1.32-.36-2.4-1.08-3.23-.73-.84-1.64-1.26-2.75-1.26-1.17,0-2.12.41-2.85,1.22s-1.09,1.88-1.09,3.2.36,2.36,1.09,3.2c.72.82,1.66,1.23,2.83,1.23,1.1,0,2.02-.42,2.73-1.25.74-.83,1.1-1.87,1.1-3.12Z"/>
              <path d="m284.69,299.96c0-1.99.71-3.69,2.14-5.08,1.43-1.4,3.16-2.1,5.21-2.1s3.8.7,5.24,2.11c1.42,1.41,2.12,3.13,2.12,5.18s-.71,3.8-2.14,5.2c-1.44,1.39-3.2,2.08-5.28,2.08s-3.8-.71-5.2-2.12c-1.4-1.4-2.1-3.15-2.1-5.27Zm3.26.06c0,1.38.37,2.47,1.1,3.27.76.81,1.75,1.22,2.99,1.22s2.24-.4,2.99-1.2,1.12-1.87,1.12-3.21-.37-2.41-1.12-3.21c-.76-.81-1.75-1.22-2.99-1.22s-2.2.41-2.96,1.22-1.13,1.86-1.13,3.14Z"/>
              <path d="m306.23,296.14v10.82h-3.19v-10.82h-1.36v-2.97h1.36v-5.06h3.19v5.06h2.48v2.97h-2.48Z"/>
              <path d="m310.87,293.17h3.19v1.23c.58-.61,1.1-1.03,1.56-1.26.46-.24,1.01-.35,1.64-.35.84,0,1.72.27,2.63.82l-1.46,2.92c-.6-.43-1.19-.65-1.77-.65-1.74,0-2.61,1.31-2.61,3.94v7.15h-3.19v-13.79Z"/>
              <path d="m334.08,300.81h-9.88c.08,1.13.45,2.03,1.1,2.7.65.66,1.49.99,2.51.99.79,0,1.45-.19,1.97-.57.51-.38,1.09-1.08,1.74-2.1l2.69,1.5c-.42.71-.85,1.32-1.32,1.82-.46.5-.96.92-1.49,1.25-.53.33-1.1.56-1.71.71-.61.15-1.28.23-2,.23-2.06,0-3.71-.66-4.96-1.98-1.25-1.33-1.87-3.1-1.87-5.3s.6-3.95,1.81-5.3c1.22-1.33,2.83-2,4.84-2s3.63.65,4.81,1.94c1.17,1.28,1.76,3.06,1.76,5.34v.75Zm-3.27-2.61c-.44-1.7-1.51-2.55-3.21-2.55-.39,0-.75.06-1.09.18s-.65.29-.93.51c-.28.22-.52.49-.71.8-.2.31-.35.67-.45,1.06h6.4Z"/>
              <path d="m340.75,283.04v11.72c1.27-1.32,2.72-1.98,4.33-1.98,1.86,0,3.41.69,4.64,2.08,1.24,1.38,1.86,3.1,1.86,5.15s-.62,3.88-1.87,5.27c-1.24,1.38-2.8,2.07-4.69,2.07-1.59,0-3.02-.61-4.28-1.84v1.44h-3.19v-23.92h3.19Zm7.58,17.12c0-1.32-.36-2.4-1.08-3.23-.73-.85-1.64-1.27-2.73-1.27-1.17,0-2.12.41-2.86,1.23-.73.81-1.09,1.87-1.09,3.17s.36,2.41,1.08,3.21c.72.82,1.66,1.23,2.83,1.23,1.1,0,2.02-.41,2.75-1.23.74-.83,1.1-1.87,1.1-3.12Z"/>
              <path d="m358.14,283.04v11.72c1.27-1.32,2.72-1.98,4.33-1.98,1.86,0,3.41.69,4.64,2.08,1.24,1.38,1.86,3.1,1.86,5.15s-.62,3.88-1.87,5.27c-1.24,1.38-2.8,2.07-4.69,2.07-1.59,0-3.02-.61-4.28-1.84v1.44h-3.19v-23.92h3.19Zm7.58,17.12c0-1.32-.36-2.4-1.08-3.23-.73-.85-1.64-1.27-2.73-1.27-1.17,0-2.12.41-2.86,1.23-.73.81-1.09,1.87-1.09,3.17s.36,2.41,1.08,3.21c.72.82,1.66,1.23,2.83,1.23,1.1,0,2.02-.41,2.75-1.23.74-.83,1.1-1.87,1.1-3.12Z"/>
              <path d="m384.9,300.81h-9.88c.08,1.13.45,2.03,1.1,2.7.65.66,1.49.99,2.51.99.79,0,1.45-.19,1.97-.57.51-.38,1.09-1.08,1.74-2.1l2.69,1.5c-.42.71-.85,1.32-1.32,1.82-.46.5-.96.92-1.49,1.25-.53.33-1.1.56-1.71.71-.61.15-1.28.23-2,.23-2.06,0-3.71-.66-4.96-1.98-1.25-1.33-1.87-3.1-1.87-5.3s.6-3.95,1.81-5.3c1.22-1.33,2.83-2,4.84-2s3.63.65,4.81,1.94c1.17,1.28,1.76,3.06,1.76,5.34v.75Zm-3.27-2.61c-.44-1.7-1.52-2.55-3.21-2.55-.39,0-.75.06-1.09.18s-.65.29-.93.51-.52.49-.71.8c-.2.31-.35.67-.45,1.06h6.4Z"/>
              <path d="m400.64,296.14v10.82h-3.2v-10.82h-1.13v-2.97h1.13v-5.32c0-1.74.3-2.96.91-3.68.83-1,2.04-1.5,3.62-1.5.57,0,1.28.17,2.14.5v3.26l-.33-.17c-.69-.35-1.26-.52-1.7-.52-.57,0-.95.2-1.15.61-.2.4-.3,1.16-.3,2.29v4.55h3.47v2.97h-3.47Z"/>
              <path d="m416.55,293.17h3.2v13.79h-3.2v-1.44c-1.31,1.23-2.72,1.84-4.23,1.84-1.91,0-3.48-.69-4.73-2.07-1.24-1.41-1.85-3.16-1.85-5.27s.62-3.79,1.85-5.17c1.24-1.38,2.79-2.07,4.64-2.07,1.61,0,3.04.66,4.32,1.98v-1.6Zm-7.56,6.85c0,1.32.35,2.4,1.06,3.23.73.84,1.64,1.26,2.75,1.26,1.18,0,2.13-.41,2.86-1.22.73-.84,1.09-1.91,1.09-3.2s-.36-2.36-1.09-3.2c-.73-.82-1.67-1.23-2.83-1.23-1.09,0-2.01.42-2.75,1.25-.73.84-1.09,1.88-1.09,3.12Z"/>
              <path d="m423.77,293.17h3.19v1.23c.59-.61,1.1-1.03,1.56-1.26.46-.24,1.01-.35,1.64-.35.84,0,1.72.27,2.63.82l-1.46,2.92c-.6-.43-1.19-.65-1.77-.65-1.74,0-2.61,1.31-2.61,3.94v7.15h-3.19v-13.79Z"/>
              <path d="m446.98,300.81h-9.88c.08,1.13.45,2.03,1.1,2.7.65.66,1.49.99,2.51.99.79,0,1.45-.19,1.97-.57.51-.38,1.09-1.08,1.74-2.1l2.69,1.5c-.42.71-.85,1.32-1.32,1.82-.46.5-.96.92-1.49,1.25-.53.33-1.1.56-1.71.71-.61.15-1.28.23-2,.23-2.06,0-3.71-.66-4.96-1.98-1.25-1.33-1.87-3.1-1.87-5.3s.6-3.95,1.81-5.3c1.22-1.33,2.83-2,4.84-2s3.63.65,4.81,1.94c1.17,1.28,1.76,3.06,1.76,5.34v.75Zm-3.27-2.61c-.44-1.7-1.52-2.55-3.21-2.55-.39,0-.75.06-1.09.18s-.65.29-.93.51-.52.49-.71.8c-.2.31-.35.67-.45,1.06h6.4Z"/>
              <path d="m469.58,293.17h3.2v13.79h-3.2v-1.44c-1.31,1.23-2.72,1.84-4.23,1.84-1.91,0-3.48-.69-4.73-2.07-1.24-1.41-1.86-3.16-1.86-5.27s.62-3.79,1.86-5.17c1.24-1.38,2.78-2.07,4.64-2.07,1.6,0,3.04.66,4.32,1.98v-1.6Zm-7.56,6.85c0,1.32.35,2.4,1.06,3.23.73.84,1.64,1.26,2.75,1.26,1.18,0,2.13-.41,2.86-1.22.73-.84,1.09-1.91,1.09-3.2s-.36-2.36-1.09-3.2c-.73-.82-1.67-1.23-2.83-1.23-1.1,0-2.01.42-2.75,1.25-.73.84-1.09,1.88-1.09,3.12Z"/>
              <path d="m492.39,288.2v18.76h-3.3v-18.76h-5.03v-3.1h13.34v3.1h-5.01Z"/>
              <path d="m498.75,293.17h3.19v1.23c.58-.61,1.1-1.03,1.56-1.26.46-.24,1.01-.35,1.64-.35.84,0,1.72.27,2.63.82l-1.46,2.92c-.6-.43-1.19-.65-1.77-.65-1.74,0-2.61,1.31-2.61,3.94v7.15h-3.19v-13.79Z"/>
              <path d="m509.56,287.43c0-.56.2-1.04.61-1.44s.89-.61,1.46-.61,1.07.2,1.47.61c.41.4.61.88.61,1.46s-.2,1.07-.61,1.47c-.4.41-.88.61-1.46.61s-1.07-.2-1.47-.61c-.41-.41-.61-.9-.61-1.49Zm3.67,5.74v13.79h-3.19v-13.79h3.19Z"/>
              <path d="m527.99,293.76v4.23c-.73-.89-1.38-1.5-1.95-1.83-.57-.34-1.23-.51-2-.51-1.2,0-2.19.42-2.99,1.26-.79.84-1.19,1.89-1.19,3.16s.38,2.36,1.15,3.19c.77.83,1.76,1.25,2.96,1.25.76,0,1.44-.17,2.02-.5.57-.32,1.23-.94,2-1.87v4.21c-1.29.67-2.59,1.01-3.88,1.01-2.13,0-3.92-.69-5.35-2.07-1.44-1.39-2.15-3.11-2.15-5.17s.73-3.79,2.18-5.21c1.45-1.42,3.24-2.12,5.35-2.12,1.36,0,2.64.33,3.85.98Z"/>
              <path d="m541.25,293.17h3.2v13.79h-3.2v-1.44c-1.31,1.23-2.72,1.84-4.23,1.84-1.91,0-3.48-.69-4.73-2.07-1.24-1.41-1.85-3.16-1.85-5.27s.62-3.79,1.85-5.17c1.24-1.38,2.79-2.07,4.64-2.07,1.61,0,3.04.66,4.32,1.98v-1.6Zm-7.56,6.85c0,1.32.35,2.4,1.06,3.23.73.84,1.64,1.26,2.75,1.26,1.18,0,2.13-.41,2.86-1.22.73-.84,1.09-1.91,1.09-3.2s-.36-2.36-1.09-3.2c-.73-.82-1.67-1.23-2.83-1.23-1.09,0-2.01.42-2.75,1.25-.73.84-1.09,1.88-1.09,3.12Z"/>
              <path d="m548.47,293.17h3.19v1.23c.59-.61,1.1-1.03,1.56-1.26.46-.24,1.01-.35,1.64-.35.84,0,1.72.27,2.63.82l-1.46,2.92c-.6-.43-1.19-.65-1.77-.65-1.74,0-2.61,1.31-2.61,3.94v7.15h-3.19v-13.79Z"/>
              <path d="m559.27,287.43c0-.56.2-1.04.61-1.44.41-.41.89-.61,1.46-.61s1.07.2,1.47.61c.41.4.61.88.61,1.46s-.2,1.07-.61,1.47c-.4.41-.88.61-1.46.61s-1.07-.2-1.47-.61c-.41-.41-.61-.9-.61-1.49Zm3.67,5.74v13.79h-3.19v-13.79h3.19Z"/>
              <path d="m577.71,293.76v4.23c-.73-.89-1.38-1.5-1.95-1.83-.57-.34-1.23-.51-2-.51-1.2,0-2.2.42-2.99,1.26-.79.84-1.19,1.89-1.19,3.16s.38,2.36,1.15,3.19c.77.83,1.76,1.25,2.96,1.25.76,0,1.44-.17,2.03-.5.57-.32,1.23-.94,2-1.87v4.21c-1.29.67-2.59,1.01-3.88,1.01-2.13,0-3.92-.69-5.35-2.07-1.43-1.39-2.15-3.11-2.15-5.17s.73-3.79,2.18-5.21c1.45-1.42,3.24-2.12,5.35-2.12,1.36,0,2.64.33,3.85.98Z"/>
              <path d="m580.14,299.96c0-1.99.71-3.69,2.14-5.08,1.42-1.4,3.16-2.1,5.21-2.1s3.8.7,5.24,2.11c1.42,1.41,2.12,3.13,2.12,5.18s-.71,3.8-2.14,5.2c-1.43,1.39-3.2,2.08-5.28,2.08s-3.8-.71-5.2-2.12c-1.4-1.4-2.1-3.15-2.1-5.27Zm3.26.06c0,1.38.37,2.47,1.1,3.27.76.81,1.75,1.22,2.99,1.22s2.24-.4,2.99-1.2c.75-.8,1.12-1.87,1.12-3.21s-.37-2.41-1.12-3.21c-.75-.81-1.75-1.22-2.99-1.22s-2.2.41-2.96,1.22c-.75.81-1.13,1.86-1.13,3.14Z"/>
              <path d="m258.95,326.01c1.21,0,2.25.45,3.12,1.36.88.9,1.32,1.97,1.32,3.23s-.44,2.37-1.32,3.26c-.88.9-1.94,1.34-3.19,1.34s-2.29-.45-3.19-1.34c-.88-.91-1.32-1.99-1.32-3.24s.44-2.37,1.33-3.26c.9-.9,1.98-1.35,3.24-1.35Z"/>
              <path d="m289.86,319.9v21.86h-3.3v-21.86h3.3Z"/>
              <path d="m297.69,317.84v23.92h-3.19v-23.92h3.19Z"/>
              <path d="m316.53,322.98h-3.78l1.81-3.09h5.27v21.86h-3.3v-18.78Z"/>
              <path d="m331.54,338.66h8.14v3.1h-14.68l7.59-9.19c.75-.92,1.37-1.71,1.88-2.38.5-.67.89-1.23,1.15-1.69.54-.89.81-1.69.81-2.39,0-1.02-.36-1.87-1.08-2.56-.72-.69-1.61-1.03-2.66-1.03-2.21,0-3.47,1.31-3.79,3.92h-3.29c.53-4.61,2.86-6.91,6.98-6.91,1.99,0,3.66.63,5.01,1.9,1.36,1.26,2.04,2.83,2.04,4.7,0,1.19-.32,2.36-.95,3.5-.32.59-.79,1.3-1.41,2.12s-1.4,1.78-2.34,2.9l-3.4,4.02Z"/>
              <path d="m346.15,337.67l2.83,1.1-4.04,8.09-2.15-.89,3.36-8.3Z"/>
              <path d="m363.41,322.98h-10.79v-3.09h16.3l-13.79,22.61-2.62-1.66,10.9-17.87Z"/>
              <path d="m370.11,324.75c0-1.37.52-2.56,1.57-3.57,1.07-1.01,2.3-1.52,3.7-1.52s2.67.51,3.71,1.53c1.04,1.01,1.56,2.22,1.56,3.62s-.52,2.63-1.56,3.64c-1.04,1.01-2.29,1.52-3.75,1.52s-2.67-.51-3.7-1.54c-1.02-1.03-1.53-2.26-1.53-3.68Zm2.46.04c0,.79.27,1.46.82,2.01.55.55,1.21.82,2,.82s1.42-.27,1.97-.82c.55-.55.82-1.21.82-1.98s-.27-1.42-.82-1.97-1.21-.82-1.98-.82-1.43.27-1.98.82c-.55.55-.82,1.19-.82,1.94Zm15.22-5.28l1.54.88-12.52,21.72-1.56-.93,12.53-21.67Zm-3.85,17.22c0-1.36.52-2.54,1.57-3.55,1.07-1.01,2.3-1.51,3.7-1.51s2.69.51,3.72,1.53c1.04,1.01,1.56,2.22,1.56,3.62s-.52,2.64-1.57,3.64c-1.03,1-2.28,1.5-3.75,1.5s-2.67-.51-3.7-1.53c-1.02-1.02-1.53-2.25-1.53-3.7Zm2.48.06c0,.79.27,1.46.81,2.01.55.55,1.21.82,2,.82s1.43-.27,1.97-.82c.55-.55.82-1.21.82-1.98s-.27-1.44-.82-1.98c-.54-.55-1.2-.82-1.98-.82s-1.42.27-1.97.82-.82,1.2-.82,1.95Z"/>
              <path d="m414.56,330.32l-2.63,1.4c-.42-.85-.93-1.28-1.54-1.28-.29,0-.54.1-.75.29-.21.19-.31.44-.31.74,0,.53.61,1.05,1.84,1.57,1.69.73,2.83,1.4,3.41,2.01.59.61.88,1.44.88,2.48,0,1.33-.49,2.45-1.47,3.34-.95.85-2.1,1.27-3.46,1.27-2.31,0-3.95-1.13-4.91-3.38l2.72-1.26c.38.66.67,1.08.86,1.26.39.36.85.54,1.39.54,1.08,0,1.61-.49,1.61-1.47,0-.57-.42-1.1-1.25-1.59-.32-.16-.64-.32-.96-.47-.32-.15-.65-.31-.98-.47-.93-.45-1.58-.91-1.95-1.36-.48-.58-.72-1.32-.72-2.22,0-1.2.41-2.19,1.23-2.97.84-.78,1.86-1.17,3.06-1.17,1.76,0,3.08.91,3.94,2.73Z"/>
              <path d="m421.59,330.94v10.82h-3.19v-10.82h-1.36v-2.97h1.36v-5.06h3.19v5.06h2.48v2.97h-2.48Z"/>
              <path d="m429.43,327.97v7.92c0,2.29.9,3.43,2.7,3.43s2.71-1.14,2.71-3.43v-7.92h3.19v7.99c0,1.1-.14,2.06-.41,2.86-.26.72-.72,1.36-1.37,1.94-1.08.94-2.44,1.4-4.11,1.4s-3.02-.47-4.09-1.4c-.66-.58-1.13-1.22-1.4-1.94-.26-.64-.4-1.6-.4-2.86v-7.99h3.19Z"/>
              <path d="m452.21,317.84h3.2v23.92h-3.2v-1.44c-1.25,1.23-2.68,1.84-4.26,1.84-1.89,0-3.46-.69-4.7-2.07-1.24-1.41-1.86-3.16-1.86-5.27s.62-3.78,1.86-5.15c1.23-1.39,2.77-2.08,4.63-2.08,1.61,0,3.06.66,4.33,1.98v-11.72Zm-7.56,16.98c0,1.32.35,2.4,1.06,3.23.73.84,1.64,1.26,2.75,1.26,1.18,0,2.13-.41,2.86-1.22.73-.84,1.09-1.91,1.09-3.2s-.36-2.36-1.09-3.2c-.73-.82-1.67-1.23-2.83-1.23-1.1,0-2.01.42-2.75,1.25-.73.84-1.09,1.88-1.09,3.12Z"/>
              <path d="m458.95,322.23c0-.56.2-1.04.61-1.44.41-.41.89-.61,1.46-.61s1.07.2,1.47.61c.41.4.61.88.61,1.46s-.2,1.07-.61,1.47c-.4.41-.88.61-1.46.61s-1.07-.2-1.47-.61c-.41-.41-.61-.9-.61-1.49Zm3.67,5.74v13.79h-3.19v-13.79h3.19Z"/>
              <path d="m476.82,327.97h3.2v13.79h-3.2v-1.44c-1.31,1.23-2.72,1.84-4.23,1.84-1.91,0-3.48-.69-4.73-2.07-1.24-1.41-1.86-3.16-1.86-5.27s.62-3.79,1.86-5.17c1.24-1.38,2.78-2.07,4.64-2.07,1.6,0,3.04.66,4.32,1.98v-1.6Zm-7.56,6.85c0,1.32.35,2.4,1.06,3.23.73.84,1.64,1.26,2.75,1.26,1.18,0,2.13-.41,2.86-1.22.73-.84,1.09-1.91,1.09-3.2s-.36-2.36-1.09-3.2c-.73-.82-1.67-1.23-2.83-1.23-1.1,0-2.01.42-2.75,1.25-.73.84-1.09,1.88-1.09,3.12Z"/>
              <path d="m503.16,349.26v-9.05c-1.26,1.29-2.71,1.94-4.33,1.94-1.86,0-3.4-.68-4.63-2.05-1.24-1.38-1.86-3.1-1.86-5.17s.62-3.85,1.86-5.25c1.25-1.4,2.81-2.1,4.69-2.1,1.6,0,3.02.63,4.28,1.88v-1.5h3.2v21.3h-3.2Zm-7.56-14.47c0,1.33.36,2.41,1.08,3.24.72.85,1.63,1.28,2.73,1.28,1.17,0,2.12-.41,2.85-1.22.74-.82,1.1-1.89,1.1-3.2s-.36-2.36-1.09-3.2c-.73-.82-1.67-1.23-2.83-1.23-1.1,0-2.01.42-2.75,1.25-.73.84-1.09,1.87-1.09,3.09Z"/>
              <path d="m513.89,327.97v7.92c0,2.29.9,3.43,2.71,3.43s2.7-1.14,2.7-3.43v-7.92h3.19v7.99c0,1.1-.14,2.06-.41,2.86-.26.72-.72,1.36-1.37,1.94-1.08.94-2.45,1.4-4.11,1.4s-3.02-.47-4.09-1.4c-.66-.58-1.13-1.22-1.4-1.94-.26-.64-.4-1.6-.4-2.86v-7.99h3.19Z"/>
              <path d="m536.67,327.97h3.2v13.79h-3.2v-1.44c-1.31,1.23-2.72,1.84-4.23,1.84-1.91,0-3.48-.69-4.73-2.07-1.24-1.41-1.85-3.16-1.85-5.27s.62-3.79,1.85-5.17c1.24-1.38,2.79-2.07,4.64-2.07,1.61,0,3.04.66,4.32,1.98v-1.6Zm-7.56,6.85c0,1.32.35,2.4,1.06,3.23.73.84,1.64,1.26,2.75,1.26,1.18,0,2.13-.41,2.86-1.22.73-.84,1.09-1.91,1.09-3.2s-.36-2.36-1.09-3.2c-.73-.82-1.67-1.23-2.83-1.23-1.09,0-2.01.42-2.75,1.25-.73.84-1.09,1.88-1.09,3.12Z"/>
              <path d="m547.08,317.84v23.92h-3.19v-23.92h3.19Z"/>
              <path d="m561.85,328.56v4.23c-.73-.89-1.38-1.5-1.95-1.83-.57-.34-1.23-.51-2-.51-1.2,0-2.19.42-2.99,1.26-.79.84-1.19,1.89-1.19,3.16s.38,2.36,1.15,3.19c.77.83,1.76,1.25,2.96,1.25.76,0,1.44-.17,2.02-.5.57-.32,1.23-.94,2-1.87v4.21c-1.29.67-2.59,1.01-3.88,1.01-2.13,0-3.92-.69-5.35-2.07-1.44-1.39-2.15-3.11-2.15-5.17s.73-3.79,2.18-5.21c1.45-1.42,3.24-2.12,5.35-2.12,1.36,0,2.64.33,3.85.98Z"/>
              <path d="m564.29,334.76c0-1.99.71-3.69,2.14-5.08,1.43-1.4,3.16-2.1,5.21-2.1s3.8.7,5.24,2.11c1.42,1.41,2.12,3.13,2.12,5.18s-.71,3.8-2.14,5.2c-1.44,1.39-3.2,2.08-5.28,2.08s-3.8-.71-5.2-2.12c-1.4-1.4-2.1-3.15-2.1-5.27Zm3.26.06c0,1.38.37,2.47,1.1,3.27.75.81,1.75,1.22,2.99,1.22s2.24-.4,2.99-1.2c.75-.8,1.12-1.87,1.12-3.21s-.37-2.41-1.12-3.21c-.76-.81-1.75-1.22-2.99-1.22s-2.2.41-2.96,1.22c-.76.81-1.13,1.86-1.13,3.14Z"/>
              <path d="m590.38,330.32l-2.63,1.4c-.42-.85-.93-1.28-1.54-1.28-.29,0-.54.1-.75.29-.21.19-.31.44-.31.74,0,.53.61,1.05,1.84,1.57,1.69.73,2.83,1.4,3.41,2.01.58.61.88,1.44.88,2.48,0,1.33-.49,2.45-1.47,3.34-.95.85-2.11,1.27-3.46,1.27-2.31,0-3.95-1.13-4.91-3.38l2.72-1.26c.38.66.67,1.08.86,1.26.39.36.85.54,1.39.54,1.08,0,1.61-.49,1.61-1.47,0-.57-.42-1.1-1.25-1.59-.32-.16-.64-.32-.96-.47-.32-.15-.65-.31-.98-.47-.92-.45-1.58-.91-1.95-1.36-.48-.58-.72-1.32-.72-2.22,0-1.2.41-2.19,1.23-2.97.84-.78,1.86-1.17,3.06-1.17,1.77,0,3.08.91,3.94,2.73Z"/>
              <path d="m604.3,327.97h3.2v13.79h-3.2v-1.44c-1.31,1.23-2.72,1.84-4.23,1.84-1.91,0-3.48-.69-4.73-2.07-1.24-1.41-1.85-3.16-1.85-5.27s.62-3.79,1.85-5.17c1.24-1.38,2.79-2.07,4.64-2.07,1.61,0,3.04.66,4.32,1.98v-1.6Zm-7.56,6.85c0,1.32.35,2.4,1.06,3.23.73.84,1.64,1.26,2.75,1.26,1.18,0,2.13-.41,2.86-1.22.73-.84,1.09-1.91,1.09-3.2s-.36-2.36-1.09-3.2c-.73-.82-1.67-1.23-2.83-1.23-1.09,0-2.01.42-2.75,1.25-.73.84-1.09,1.88-1.09,3.12Z"/>
              <path d="m278.69,363.36v4.23c-.73-.89-1.38-1.5-1.95-1.83-.57-.34-1.23-.51-2-.51-1.2,0-2.19.42-2.99,1.26-.79.84-1.19,1.89-1.19,3.16s.38,2.36,1.15,3.19c.77.83,1.76,1.25,2.96,1.25.76,0,1.44-.17,2.02-.5.57-.32,1.23-.94,2-1.87v4.21c-1.29.67-2.59,1.01-3.88,1.01-2.13,0-3.92-.69-5.35-2.07-1.44-1.39-2.15-3.11-2.15-5.17s.73-3.79,2.18-5.21,3.24-2.12,5.35-2.12c1.36,0,2.64.33,3.85.98Z"/>
              <path d="m282.53,352.64h3.19v11.27c1.13-1.02,2.38-1.53,3.75-1.53,1.56,0,2.8.5,3.74,1.51.79.88,1.19,2.28,1.19,4.21v8.45h-3.19v-8.16c0-1.1-.2-1.9-.59-2.4-.39-.5-1.02-.74-1.89-.74-1.11,0-1.9.34-2.35,1.03-.44.7-.67,1.9-.67,3.6v6.67h-3.19v-23.92Z"/>
              <path d="m310.99,370.41h-9.88c.08,1.13.45,2.03,1.1,2.7.65.66,1.49.99,2.51.99.79,0,1.45-.19,1.97-.57.51-.38,1.09-1.08,1.74-2.1l2.69,1.5c-.42.71-.85,1.32-1.32,1.82s-.96.92-1.49,1.25c-.53.33-1.1.56-1.71.71s-1.28.23-2,.23c-2.06,0-3.71-.66-4.96-1.98-1.25-1.33-1.87-3.1-1.87-5.3s.6-3.95,1.81-5.3c1.22-1.33,2.83-2,4.84-2s3.63.65,4.81,1.94c1.17,1.28,1.76,3.06,1.76,5.34v.75Zm-3.27-2.61c-.44-1.7-1.52-2.55-3.21-2.55-.39,0-.75.06-1.09.18s-.65.29-.93.51c-.28.22-.52.49-.71.8-.2.31-.35.67-.45,1.06h6.4Z"/>
              <path d="m326.61,384.06h-3.19v-21.3h3.19v1.5c1.25-1.26,2.68-1.88,4.28-1.88,1.9,0,3.46.7,4.69,2.1,1.25,1.39,1.87,3.14,1.87,5.25s-.62,3.79-1.85,5.17c-1.23,1.37-2.78,2.05-4.64,2.05-1.61,0-3.06-.65-4.33-1.94v9.05Zm7.58-14.32c0-1.32-.36-2.4-1.08-3.23-.73-.84-1.64-1.26-2.75-1.26-1.17,0-2.12.41-2.85,1.22-.73.81-1.09,1.88-1.09,3.2s.36,2.36,1.09,3.2c.72.82,1.66,1.23,2.83,1.23,1.1,0,2.02-.42,2.73-1.25.74-.83,1.1-1.87,1.1-3.12Z"/>
              <path d="m340.16,369.56c0-1.99.71-3.69,2.14-5.08,1.42-1.4,3.16-2.1,5.21-2.1s3.8.7,5.24,2.11c1.42,1.41,2.12,3.13,2.12,5.18s-.71,3.8-2.14,5.2c-1.43,1.39-3.2,2.08-5.28,2.08s-3.8-.71-5.2-2.12c-1.4-1.4-2.1-3.15-2.1-5.27Zm3.26.06c0,1.38.37,2.47,1.1,3.27.76.81,1.75,1.22,2.99,1.22s2.24-.4,2.99-1.2c.75-.8,1.12-1.87,1.12-3.21s-.37-2.41-1.12-3.21c-.75-.81-1.75-1.22-2.99-1.22s-2.2.41-2.96,1.22c-.75.81-1.13,1.86-1.13,3.14Z"/>
              <path d="m361.7,365.74v10.82h-3.19v-10.82h-1.36v-2.97h1.36v-5.06h3.19v5.06h2.48v2.97h-2.48Z"/>
              <path d="m366.34,362.77h3.19v1.23c.59-.61,1.1-1.03,1.56-1.26.46-.24,1.01-.35,1.64-.35.84,0,1.72.27,2.63.82l-1.46,2.92c-.6-.43-1.19-.65-1.77-.65-1.74,0-2.61,1.31-2.61,3.94v7.15h-3.19v-13.79Z"/>
              <path d="m389.55,370.41h-9.88c.08,1.13.45,2.03,1.1,2.7.65.66,1.49.99,2.51.99.79,0,1.45-.19,1.97-.57.51-.38,1.09-1.08,1.74-2.1l2.69,1.5c-.42.71-.85,1.32-1.32,1.82-.46.5-.96.92-1.49,1.25-.53.33-1.1.56-1.71.71-.61.15-1.28.23-2,.23-2.06,0-3.71-.66-4.96-1.98-1.25-1.33-1.87-3.1-1.87-5.3s.6-3.95,1.81-5.3c1.22-1.33,2.83-2,4.84-2s3.63.65,4.81,1.94c1.17,1.28,1.76,3.06,1.76,5.34v.75Zm-3.27-2.61c-.44-1.7-1.52-2.55-3.21-2.55-.39,0-.75.06-1.09.18s-.65.29-.93.51-.52.49-.71.8c-.2.31-.35.67-.45,1.06h6.4Z"/>
              <path d="m396.22,352.64v11.72c1.27-1.32,2.72-1.98,4.33-1.98,1.86,0,3.41.69,4.64,2.08,1.24,1.38,1.85,3.1,1.85,5.15s-.62,3.88-1.87,5.27c-1.24,1.38-2.8,2.07-4.69,2.07-1.6,0-3.02-.61-4.28-1.84v1.44h-3.19v-23.92h3.19Zm7.58,17.12c0-1.32-.36-2.4-1.08-3.23-.73-.85-1.64-1.27-2.73-1.27-1.17,0-2.12.41-2.86,1.23-.73.81-1.09,1.87-1.09,3.17s.36,2.41,1.08,3.21c.72.82,1.66,1.23,2.83,1.23,1.1,0,2.02-.41,2.75-1.23.74-.83,1.1-1.87,1.1-3.12Z"/>
              <path d="m413.61,352.64v11.72c1.27-1.32,2.72-1.98,4.33-1.98,1.86,0,3.41.69,4.64,2.08,1.24,1.38,1.85,3.1,1.85,5.15s-.62,3.88-1.87,5.27c-1.24,1.38-2.8,2.07-4.69,2.07-1.6,0-3.02-.61-4.28-1.84v1.44h-3.19v-23.92h3.19Zm7.58,17.12c0-1.32-.36-2.4-1.08-3.23-.73-.85-1.64-1.27-2.73-1.27-1.17,0-2.12.41-2.86,1.23-.73.81-1.09,1.87-1.09,3.17s.36,2.41,1.08,3.21c.72.82,1.66,1.23,2.83,1.23,1.1,0,2.02-.41,2.75-1.23.74-.83,1.1-1.87,1.1-3.12Z"/>
              <path d="m440.37,370.41h-9.88c.08,1.13.45,2.03,1.1,2.7.65.66,1.49.99,2.51.99.79,0,1.45-.19,1.97-.57.51-.38,1.09-1.08,1.74-2.1l2.69,1.5c-.42.71-.85,1.32-1.32,1.82-.46.5-.96.92-1.49,1.25-.53.33-1.1.56-1.71.71-.61.15-1.28.23-2,.23-2.06,0-3.71-.66-4.96-1.98-1.25-1.33-1.87-3.1-1.87-5.3s.6-3.95,1.81-5.3c1.22-1.33,2.83-2,4.84-2s3.63.65,4.81,1.94c1.17,1.28,1.76,3.06,1.76,5.34v.75Zm-3.27-2.61c-.44-1.7-1.51-2.55-3.21-2.55-.39,0-.75.06-1.09.18s-.65.29-.93.51c-.28.22-.52.49-.71.8-.2.31-.35.67-.45,1.06h6.4Z"/>
              <path d="m460.82,365.12l-2.63,1.4c-.42-.85-.93-1.28-1.54-1.28-.29,0-.54.1-.75.29-.21.19-.31.44-.31.74,0,.53.61,1.05,1.84,1.57,1.69.73,2.83,1.4,3.41,2.01.59.61.88,1.44.88,2.48,0,1.33-.49,2.45-1.47,3.34-.95.85-2.1,1.27-3.46,1.27-2.31,0-3.95-1.13-4.91-3.38l2.72-1.26c.38.66.67,1.08.86,1.26.39.36.85.54,1.39.54,1.08,0,1.61-.49,1.61-1.47,0-.57-.42-1.1-1.25-1.59-.32-.16-.64-.32-.96-.47-.32-.15-.65-.31-.98-.47-.93-.45-1.58-.91-1.95-1.36-.48-.58-.72-1.32-.72-2.22,0-1.2.41-2.19,1.23-2.97.84-.78,1.86-1.17,3.06-1.17,1.76,0,3.08.91,3.94,2.73Z"/>
              <path d="m467.85,365.74v10.82h-3.19v-10.82h-1.36v-2.97h1.36v-5.06h3.19v5.06h2.48v2.97h-2.48Z"/>
              <path d="m475.68,362.77v7.92c0,2.29.9,3.43,2.7,3.43s2.71-1.14,2.71-3.43v-7.92h3.19v7.99c0,1.1-.14,2.06-.41,2.86-.26.72-.72,1.36-1.37,1.94-1.08.94-2.44,1.4-4.11,1.4s-3.02-.47-4.09-1.4c-.66-.58-1.13-1.22-1.4-1.94-.26-.64-.4-1.6-.4-2.86v-7.99h3.19Z"/>
              <path d="m498.47,352.64h3.2v23.92h-3.2v-1.44c-1.25,1.23-2.68,1.84-4.26,1.84-1.89,0-3.46-.69-4.7-2.07-1.24-1.41-1.86-3.16-1.86-5.27s.62-3.78,1.86-5.15c1.23-1.39,2.77-2.08,4.63-2.08,1.61,0,3.06.66,4.33,1.98v-11.72Zm-7.56,16.98c0,1.32.35,2.4,1.06,3.23.73.84,1.64,1.26,2.75,1.26,1.18,0,2.13-.41,2.86-1.22.73-.84,1.09-1.91,1.09-3.2s-.36-2.36-1.09-3.2c-.73-.82-1.67-1.23-2.83-1.23-1.1,0-2.01.42-2.75,1.25-.73.84-1.09,1.88-1.09,3.12Z"/>
              <path d="m505.21,357.03c0-.56.2-1.04.61-1.44.41-.41.89-.61,1.46-.61s1.07.2,1.47.61c.41.4.61.88.61,1.46s-.2,1.07-.61,1.47c-.4.41-.88.61-1.46.61s-1.07-.2-1.47-.61c-.41-.41-.61-.9-.61-1.49Zm3.67,5.74v13.79h-3.19v-13.79h3.19Z"/>
              <path d="m523.08,362.77h3.2v13.79h-3.2v-1.44c-1.31,1.23-2.72,1.84-4.23,1.84-1.91,0-3.48-.69-4.73-2.07-1.24-1.41-1.86-3.16-1.86-5.27s.62-3.79,1.86-5.17c1.24-1.38,2.78-2.07,4.64-2.07,1.6,0,3.04.66,4.32,1.98v-1.6Zm-7.56,6.85c0,1.32.35,2.4,1.06,3.23.73.84,1.64,1.26,2.75,1.26,1.18,0,2.13-.41,2.86-1.22.73-.84,1.09-1.91,1.09-3.2s-.36-2.36-1.09-3.2c-.73-.82-1.67-1.23-2.83-1.23-1.1,0-2.01.42-2.75,1.25-.73.84-1.09,1.88-1.09,3.12Z"/>
              <path d="m530.3,362.77h3.19v1.23c.58-.61,1.1-1.03,1.56-1.26.46-.24,1.01-.35,1.64-.35.84,0,1.72.27,2.63.82l-1.46,2.92c-.6-.43-1.19-.65-1.77-.65-1.74,0-2.61,1.31-2.61,3.94v7.15h-3.19v-13.79Z"/>
              <path d="m553.51,370.41h-9.88c.08,1.13.45,2.03,1.1,2.7.65.66,1.49.99,2.51.99.79,0,1.45-.19,1.97-.57.51-.38,1.09-1.08,1.74-2.1l2.69,1.5c-.42.71-.85,1.32-1.32,1.82-.46.5-.96.92-1.49,1.25-.53.33-1.1.56-1.71.71-.61.15-1.28.23-2,.23-2.06,0-3.71-.66-4.96-1.98-1.25-1.33-1.87-3.1-1.87-5.3s.6-3.95,1.81-5.3c1.22-1.33,2.83-2,4.84-2s3.63.65,4.81,1.94c1.17,1.28,1.76,3.06,1.76,5.34v.75Zm-3.27-2.61c-.44-1.7-1.51-2.55-3.21-2.55-.39,0-.75.06-1.09.18s-.65.29-.93.51c-.28.22-.52.49-.71.8-.2.31-.35.67-.45,1.06h6.4Z"/>
              <path d="m565.46,357.03c0-.56.2-1.04.61-1.44s.89-.61,1.46-.61,1.07.2,1.47.61c.41.4.61.88.61,1.46s-.2,1.07-.61,1.47c-.4.41-.88.61-1.46.61s-1.07-.2-1.47-.61c-.41-.41-.61-.9-.61-1.49Zm3.67,5.74v13.79h-3.19v-13.79h3.19Z"/>
              <path d="m573.16,362.77h3.2v1.27c1.11-1.1,2.37-1.66,3.77-1.66,1.6,0,2.86.5,3.75,1.51.77.86,1.16,2.26,1.16,4.21v8.45h-3.2v-7.7c0-1.36-.19-2.3-.57-2.82-.37-.53-1.04-.79-2.01-.79-1.06,0-1.81.35-2.25,1.05-.43.69-.65,1.89-.65,3.61v6.66h-3.2v-13.79Z"/>
              <path d="m268.56,411.36v-21.86h3.29c1.46,0,2.63.11,3.5.34.88.23,1.62.61,2.22,1.15.61.56,1.1,1.25,1.46,2.08.37.84.55,1.69.55,2.55,0,1.57-.6,2.89-1.8,3.98,1.16.4,2.08,1.09,2.75,2.08.68.98,1.02,2.12,1.02,3.43,0,1.71-.6,3.15-1.81,4.33-.73.73-1.54,1.23-2.45,1.52-.99.27-2.23.41-3.72.41h-5Zm3.3-12.47h1.03c1.23,0,2.13-.27,2.7-.81.57-.54.86-1.34.86-2.4s-.29-1.81-.88-2.34-1.44-.8-2.55-.8h-1.16v6.36Zm0,9.37h2.04c1.49,0,2.59-.29,3.29-.88.74-.63,1.1-1.44,1.1-2.41s-.35-1.74-1.06-2.38c-.69-.63-1.92-.95-3.7-.95h-1.67v6.61Z"/>
              <path d="m295.27,397.57h3.2v13.79h-3.2v-1.44c-1.31,1.23-2.72,1.84-4.23,1.84-1.91,0-3.48-.69-4.73-2.07-1.24-1.41-1.85-3.16-1.85-5.27s.62-3.79,1.85-5.17c1.24-1.38,2.78-2.07,4.64-2.07,1.6,0,3.04.66,4.32,1.98v-1.6Zm-7.56,6.85c0,1.32.35,2.4,1.06,3.23.73.84,1.64,1.26,2.75,1.26,1.18,0,2.13-.41,2.86-1.22.73-.84,1.09-1.91,1.09-3.2s-.36-2.36-1.09-3.2c-.73-.82-1.67-1.23-2.83-1.23-1.1,0-2.01.42-2.75,1.25-.73.84-1.09,1.88-1.09,3.12Z"/>
              <path d="m310.51,399.92l-2.63,1.4c-.42-.85-.93-1.28-1.54-1.28-.29,0-.54.1-.75.29s-.31.44-.31.74c0,.53.61,1.05,1.84,1.57,1.69.73,2.83,1.4,3.41,2.01.59.61.88,1.44.88,2.48,0,1.33-.49,2.45-1.47,3.34-.95.85-2.1,1.27-3.46,1.27-2.31,0-3.95-1.13-4.91-3.38l2.72-1.26c.38.66.67,1.08.86,1.26.39.36.85.54,1.39.54,1.08,0,1.61-.49,1.61-1.47,0-.57-.42-1.1-1.25-1.59-.32-.16-.64-.32-.96-.47s-.65-.31-.98-.47c-.93-.45-1.58-.91-1.95-1.36-.48-.58-.72-1.32-.72-2.22,0-1.2.41-2.19,1.23-2.97.84-.78,1.86-1.17,3.06-1.17,1.77,0,3.08.91,3.94,2.73Z"/>
              <path d="m313.78,391.83c0-.56.2-1.04.61-1.44s.89-.61,1.46-.61,1.07.2,1.47.61c.41.4.61.88.61,1.46s-.2,1.07-.61,1.47c-.4.41-.88.61-1.46.61s-1.07-.2-1.47-.61c-.41-.41-.61-.9-.61-1.49Zm3.67,5.74v13.79h-3.19v-13.79h3.19Z"/>
              <path d="m324.67,387.44v23.92h-3.19v-23.92h3.19Z"/>
              <path d="m328.22,391.83c0-.56.2-1.04.61-1.44s.89-.61,1.46-.61,1.07.2,1.47.61c.41.4.61.88.61,1.46s-.2,1.07-.61,1.47c-.4.41-.88.61-1.46.61s-1.07-.2-1.47-.61c-.41-.41-.61-.9-.61-1.49Zm3.67,5.74v13.79h-3.19v-13.79h3.19Z"/>
              <path d="m346.66,398.16v4.23c-.73-.89-1.38-1.5-1.95-1.83-.57-.34-1.23-.51-2-.51-1.2,0-2.19.42-2.99,1.26-.79.84-1.19,1.89-1.19,3.16s.38,2.36,1.15,3.19c.77.83,1.76,1.25,2.96,1.25.76,0,1.44-.17,2.02-.5.57-.32,1.23-.94,2-1.87v4.21c-1.29.67-2.59,1.01-3.88,1.01-2.13,0-3.92-.69-5.35-2.07-1.44-1.39-2.15-3.11-2.15-5.17s.73-3.79,2.18-5.21c1.45-1.42,3.24-2.12,5.35-2.12,1.36,0,2.64.33,3.85.98Z"/>
              <path d="m359.91,397.57h3.2v13.79h-3.2v-1.44c-1.31,1.23-2.72,1.84-4.23,1.84-1.91,0-3.48-.69-4.73-2.07-1.24-1.41-1.85-3.16-1.85-5.27s.62-3.79,1.85-5.17c1.24-1.38,2.79-2.07,4.64-2.07,1.61,0,3.04.66,4.32,1.98v-1.6Zm-7.56,6.85c0,1.32.35,2.4,1.06,3.23.73.84,1.64,1.26,2.75,1.26,1.18,0,2.13-.41,2.86-1.22.73-.84,1.09-1.91,1.09-3.2s-.36-2.36-1.09-3.2c-.73-.82-1.67-1.23-2.83-1.23-1.09,0-2.01.42-2.75,1.25-.73.84-1.09,1.88-1.09,3.12Z"/>
              <path d="m370.42,400.54v10.82h-3.19v-10.82h-1.36v-2.97h1.36v-5.06h3.19v5.06h2.48v2.97h-2.48Z"/>
              <path d="m385.48,397.57h3.2v13.79h-3.2v-1.44c-1.31,1.23-2.72,1.84-4.23,1.84-1.91,0-3.48-.69-4.73-2.07-1.24-1.41-1.85-3.16-1.85-5.27s.62-3.79,1.85-5.17c1.24-1.38,2.79-2.07,4.64-2.07,1.61,0,3.04.66,4.32,1.98v-1.6Zm-7.56,6.85c0,1.32.35,2.4,1.06,3.23.73.84,1.64,1.26,2.75,1.26,1.18,0,2.13-.41,2.86-1.22.73-.84,1.09-1.91,1.09-3.2s-.36-2.36-1.09-3.2c-.73-.82-1.67-1.23-2.83-1.23-1.09,0-2.01.42-2.75,1.25-.73.84-1.09,1.88-1.09,3.12Z"/>
            </g>
          </g>
          <g>
            <path class="cls-9" d="m51.63,278.6c0-17.74,5.81-34.12,15.63-47.34,2.48-3.34,2.11-8.01-.88-10.9l-10.59-10.23c-3.52-3.4-9.21-3.03-12.24.81-14.11,17.87-21.61,38.22-22.85,61.86-1.55,29.5,8.49,57.83,28.25,79.79,16.99,18.87,39.43,31.09,64.14,35.12,4.87.8,9.36-2.8,9.62-7.74l.77-14.6c.22-4.14-2.66-7.82-6.74-8.56-37.04-6.77-65.12-39.21-65.12-78.2Z"/>
            <path class="cls-8" d="m128.04,191.55v-14.72c0-4.91-4.25-8.73-9.14-8.23-21.96,2.22-41.51,10.52-58.36,24.77-3.75,3.17-3.96,8.88-.43,12.3l10.59,10.22c3,2.89,7.67,3.1,10.92.5,11.06-8.81,24.51-14.74,39.23-16.64,4.12-.53,7.19-4.05,7.19-8.2Z"/>
            <path class="cls-10" d="m143.41,168.66c-4.89-.54-9.16,3.31-9.16,8.23v14.66c0,4.13,3.05,7.67,7.15,8.2,39.07,5.03,69.26,38.41,69.26,78.85,0,15.42-4.39,29.81-11.99,41.99-.39.63-.79,1.26-1.2,1.87-.1.16-.21.31-.31.46-.25.38-.51.75-.77,1.12-.24.34-.48.68-.72,1.02-.04.06-.08.11-.12.17-6.53,9-14.9,16.58-24.56,22.18-.16.09-.32.19-.48.28-.29.17-.59.33-.88.49-.49.27-.98.54-1.47.8-.05.03-.1.06-.15.08-9.51,4.96-19.93,7.95-30.59,8.79-4.13.33-7.36,3.69-7.58,7.82l-.75,14.65c-.25,4.88,3.76,8.93,8.64,8.69,35.25-1.75,65.71-19.19,85.45-49.1.45-.67.89-1.35,1.33-2.04.01-.02.02-.03.03-.05h0c10.37-16.34,16.36-35.25,17.13-54.8,2.32-58.82-41.57-108.09-98.24-114.37Z"/>
          </g>
        </g>
        <g>
          <g>
            <path class="cls-9" d="m365,598.24c0-40.41,30.18-73.77,69.22-78.78,4.1-.53,7.14-4.06,7.14-8.19v-14.7c0-4.88-4.21-8.73-9.06-8.23-13.93,1.44-26.79,5.45-39.71,12.32-26.06,13.86-45.16,37.03-53.79,65.25-7.42,24.27-6.33,49.77,2.93,73,1.83,4.58,7.22,6.58,11.58,4.26l12.87-6.84c3.64-1.94,5.33-6.28,3.88-10.14-3.27-8.7-5.06-18.12-5.06-27.95Z"/>
            <path class="cls-10" d="m447.56,496.63v14.65c0,4.15,3.08,7.66,7.2,8.2,38.98,5.06,69.1,38.38,69.11,78.74.02,42.98-34.54,78.43-77.51,79.44-27.5.65-51.92-12.68-66.67-33.38-2.4-3.37-6.94-4.42-10.59-2.48l-12.94,6.88c-4.31,2.29-5.73,7.81-3.02,11.87,20.57,30.77,53.24,48.16,91.31,48.16,29.51,0,57.26-11.49,78.13-32.36,20.87-20.87,32.36-48.62,32.36-78.13,0-56.8-43.08-103.72-98.27-109.82-4.87-.54-9.11,3.32-9.11,8.23Z"/>
          </g>
          <g>
            <rect class="cls-9" x="85.75" y="495.37" width="189.58" height="206.27" rx="38.91" ry="38.91"/>
            <text class="cls-3" transform="translate(129.5 547.67)"><tspan x="0" y="0">32,7% </tspan><tspan class="cls-21" x="-24.2" y="39.82">P</tspan><tspan x="-7.1" y="39.82">ensa </tspan><tspan class="cls-26" x="73.05" y="39.82">c</tspan><tspan x="89.72" y="39.82">he </tspan><tspan class="cls-14" x="-25.08" y="79.64">t</tspan><tspan x="-15.78" y="79.64">o</tspan><tspan class="cls-17" x="4.16" y="79.64">r</tspan><tspan x="17.08" y="79.64">ne</tspan><tspan class="cls-12" x="53.63" y="79.64">r</tspan><tspan class="cls-7" x="65.82" y="79.64">a</tspan><tspan x="86.18" y="79.64">’ a </tspan><tspan class="cls-1" x="-13.31" y="119.46">T</tspan><tspan class="cls-19" x="1.56" y="119.46">r</tspan><tspan x="14.48" y="119.46">ica</tspan><tspan class="cls-19" x="58.45" y="119.46">r</tspan><tspan x="71.37" y="119.46">ico</tspan></text>
          </g>
        </g>
      </g>
    </g>
  </g>
</svg>