<?xml version="1.0" encoding="UTF-8"?>
<svg id="Livello_2" data-name="Livello 2" xmlns="http://www.w3.org/2000/svg" viewBox="0 0 612.88 963.04">
  <defs>
    <style>
      .cls-1 {
        letter-spacing: -.08em;
      }

      .cls-2 {
        letter-spacing: -.02em;
      }

      .cls-3 {
        font-size: 22.74px;
      }

      .cls-3, .cls-4, .cls-5, .cls-6 {
        font-family: Futura-Medium, Futura;
        font-weight: 500;
      }

      .cls-7 {
        letter-spacing: 0em;
      }

      .cls-8 {
        letter-spacing: 0em;
      }

      .cls-9 {
        letter-spacing: -.02em;
      }

      .cls-10 {
        letter-spacing: 0em;
      }

      .cls-11 {
        letter-spacing: .01em;
      }

      .cls-12 {
        fill: #fbb03b;
      }

      .cls-12, .cls-13, .cls-14 {
        stroke: #000;
        stroke-miterlimit: 10;
        stroke-width: 2px;
      }

      .cls-15 {
        letter-spacing: 0em;
      }

      .cls-13 {
        fill: #dfad73;
      }

      .cls-14 {
        fill: #d0d2a3;
      }

      .cls-16 {
        letter-spacing: 0em;
      }

      .cls-4 {
        font-size: 33.18px;
      }

      .cls-17 {
        letter-spacing: .02em;
      }

      .cls-18 {
        letter-spacing: -.08em;
      }

      .cls-19 {
        letter-spacing: 0em;
      }

      .cls-20 {
        letter-spacing: 0em;
      }

      .cls-21 {
        letter-spacing: -.04em;
      }

      .cls-22 {
        letter-spacing: -.02em;
      }

      .cls-23 {
        letter-spacing: -.02em;
      }

      .cls-5 {
        font-size: 72px;
      }

      .cls-24 {
        letter-spacing: 0em;
      }

      .cls-6 {
        font-size: 29px;
      }

      .cls-25 {
        letter-spacing: .03em;
      }
    </style>
  </defs>
  <g id="Livello_8" data-name="Livello 8">
    <g>
      <text class="cls-5" transform="translate(108.59 63.4)"><tspan class="cls-24" x="0" y="0">V</tspan><tspan x="49.39" y="0">i</tspan><tspan class="cls-9" x="67.32" y="0">v</tspan><tspan x="102.27" y="0">e alt</tspan><tspan class="cls-10" x="245.11" y="0">r</tspan><tspan class="cls-2" x="271.41" y="0">o</tspan><tspan class="cls-9" x="313.24" y="0">v</tspan><tspan x="348.19" y="0">e </tspan></text>
      <g>
        <g>
          <path class="cls-12" d="m421.77,565.74c0-40.43,30.17-73.8,69.23-78.84,4.1-.53,7.14-4.06,7.14-8.2v-14.68c0-4.92-4.27-8.75-9.16-8.23-24.38,2.59-46.5,12.97-64.54,30.39-21.25,20.52-33.23,48.08-33.75,77.61-.44,25.39,7.64,49.62,22.95,69.42,3.02,3.91,8.76,4.33,12.31.9l10.55-10.18c2.99-2.89,3.36-7.55.88-10.89-9.8-13.22-15.61-29.58-15.61-47.31Z"/>
          <path class="cls-14" d="m536.61,486.13l6.46-13.25c2.13-4.38.06-9.66-4.5-11.37-8.29-3.1-16.36-4.96-25.16-5.81-4.86-.47-9.06,3.36-9.06,8.24v14.76c0,4.14,3.06,7.67,7.18,8.2,5.19.67,10.21,1.83,15.04,3.45,3.93,1.32,8.24-.49,10.05-4.22Z"/>
          <path class="cls-13" d="m605.8,529.73c-8.27-24.01-24.14-44.01-45.3-57.38-4.18-2.64-9.72-1.09-11.89,3.35l-6.42,13.15c-1.81,3.72-.62,8.22,2.83,10.5,21.74,14.36,36.02,39.11,35.74,67.18-.43,43.69-36.48,79.07-80.17,78.7-18.51-.15-35.5-6.63-48.94-17.37-3.23-2.58-7.89-2.32-10.86.55l-10.58,10.22c-3.55,3.43-3.31,9.15.47,12.33,6.64,5.57,13.66,10.04,22.09,14.15,54.8,26.73,121.13,3.89,147.86-50.91,12.95-26.55,14.78-56.55,5.17-84.47Z"/>
        </g>
        <g>
          <rect class="cls-13" x="118.4" y="407.38" width="93.08" height="40" rx="14.73" ry="14.73"/>
          <rect class="cls-14" x="70.4" y="617.38" width="93.08" height="40" rx="14.73" ry="14.73"/>
          <rect class="cls-12" x="117.73" y="512.38" width="93.08" height="40" rx="14.73" ry="14.73"/>
          <g>
            <path d="m56.34,422.06c1.21,0,2.25.45,3.12,1.36.88.9,1.32,1.97,1.32,3.23s-.44,2.37-1.32,3.26c-.88.9-1.94,1.34-3.19,1.34s-2.29-.45-3.19-1.34c-.88-.91-1.32-1.99-1.32-3.24s.44-2.37,1.33-3.26c.9-.9,1.98-1.35,3.24-1.35Z"/>
            <path d="m101.32,415.94v21.86h-3.3v-21.86h3.3Z"/>
            <path d="m109.15,413.89v23.92h-3.19v-23.92h3.19Z"/>
            <path d="m135.37,419.03h-6.74l-1.08,3.62c.16-.02.31-.03.46-.04.15,0,.28-.01.4-.01,2.12,0,3.87.72,5.22,2.15,1.37,1.43,2.05,3.25,2.05,5.48s-.77,4.2-2.32,5.69c-1.55,1.49-3.5,2.24-5.85,2.24-2.9,0-5.18-1.36-6.85-4.08l2.49-2.11c.69,1.17,1.38,2,2.08,2.48.7.47,1.55.71,2.56.71,1.32,0,2.43-.46,3.33-1.39.9-.95,1.35-2.11,1.35-3.47s-.44-2.54-1.33-3.43c-.89-.92-2-1.37-3.33-1.37-1.48,0-2.76.65-3.84,1.94h-1.09l3.44-11.5h9.04v3.09Z"/>
            <path d="m139.25,426.73c0-3.48.81-6.26,2.44-8.34,1.45-1.88,3.21-2.82,5.28-2.82s3.83.94,5.28,2.82c1.62,2.08,2.44,4.9,2.44,8.48s-.81,6.39-2.44,8.47c-1.45,1.88-3.21,2.82-5.27,2.82s-3.82-.94-5.3-2.82c-1.62-2.08-2.44-4.95-2.44-8.61Zm3.24.01c0,2.43.42,4.44,1.26,6.05.84,1.58,1.91,2.36,3.21,2.36s2.36-.79,3.21-2.36c.85-1.57,1.28-3.54,1.28-5.93s-.43-4.37-1.28-5.95c-.85-1.57-1.92-2.35-3.21-2.35s-2.35.78-3.2,2.35c-.85,1.56-1.27,3.5-1.27,5.83Z"/>
            <path d="m159.9,433.72l2.83,1.1-4.04,8.09-2.15-.89,3.36-8.3Z"/>
            <path d="m171.38,438.56l-2.42-1.8,5.22-7.12c-.28.04-.52.07-.72.08-.2.02-.36.03-.48.03-1.77,0-3.29-.68-4.59-2.03-1.28-1.34-1.93-2.96-1.93-4.84,0-2.01.71-3.73,2.14-5.15,1.43-1.43,3.15-2.15,5.15-2.15s3.72.71,5.2,2.12c1.47,1.41,2.21,3.07,2.21,4.98,0,1.7-.72,3.54-2.15,5.51l-7.63,10.37Zm-1.7-15.92c0,1.18.4,2.17,1.2,2.97s1.79,1.22,2.93,1.22,2.11-.4,2.92-1.2c.81-.81,1.22-1.79,1.22-2.93s-.41-2.12-1.22-2.93c-.8-.8-1.78-1.2-2.93-1.2s-2.1.4-2.9,1.2c-.81.81-1.22,1.77-1.22,2.87Z"/>
            <path d="m183.86,420.8c0-1.37.52-2.56,1.57-3.57,1.07-1.01,2.3-1.52,3.7-1.52s2.67.51,3.71,1.53c1.04,1.01,1.56,2.22,1.56,3.62s-.52,2.63-1.56,3.64c-1.04,1.01-2.29,1.52-3.75,1.52s-2.67-.51-3.7-1.54c-1.02-1.03-1.53-2.26-1.53-3.68Zm2.46.04c0,.79.27,1.46.82,2.01.55.55,1.21.82,2,.82s1.42-.27,1.97-.82c.55-.55.82-1.21.82-1.98s-.27-1.42-.82-1.97c-.55-.55-1.21-.82-1.98-.82s-1.44.27-1.98.82-.82,1.19-.82,1.94Zm15.22-5.28l1.54.88-12.52,21.72-1.56-.93,12.53-21.67Zm-3.85,17.22c0-1.36.52-2.54,1.57-3.55,1.07-1.01,2.3-1.51,3.7-1.51s2.69.51,3.72,1.53c1.04,1.01,1.56,2.22,1.56,3.62s-.52,2.64-1.57,3.64c-1.03,1-2.28,1.5-3.75,1.5s-2.67-.51-3.7-1.53c-1.02-1.02-1.53-2.25-1.53-3.7Zm2.48.06c0,.79.27,1.46.81,2.01.55.55,1.21.82,2,.82s1.43-.27,1.97-.82c.55-.55.82-1.21.82-1.98s-.27-1.44-.82-1.98c-.54-.55-1.2-.82-1.98-.82s-1.42.27-1.97.82-.82,1.2-.82,1.95Z"/>
            <path d="m223.59,426.99v10.82h-3.2v-10.82h-1.13v-2.97h1.13v-5.32c0-1.74.3-2.96.91-3.68.83-1,2.04-1.5,3.62-1.5.57,0,1.28.17,2.14.5v3.26l-.33-.17c-.69-.35-1.26-.52-1.7-.52-.57,0-.95.2-1.15.61-.2.4-.3,1.16-.3,2.29v4.55h3.47v2.97h-3.47Z"/>
            <path d="m239.51,424.02h3.2v13.79h-3.2v-1.44c-1.31,1.23-2.72,1.84-4.23,1.84-1.91,0-3.48-.69-4.73-2.07-1.24-1.41-1.86-3.16-1.86-5.27s.62-3.79,1.86-5.17c1.24-1.38,2.79-2.07,4.64-2.07,1.61,0,3.04.66,4.32,1.98v-1.6Zm-7.56,6.85c0,1.32.35,2.4,1.06,3.23.73.84,1.64,1.26,2.75,1.26,1.18,0,2.13-.41,2.86-1.22.73-.84,1.09-1.91,1.09-3.2s-.36-2.36-1.09-3.2c-.73-.82-1.67-1.23-2.83-1.23-1.09,0-2.01.42-2.75,1.25-.73.84-1.09,1.88-1.09,3.12Z"/>
            <path d="m265.85,445.31v-9.05c-1.26,1.29-2.71,1.94-4.33,1.94-1.86,0-3.4-.68-4.63-2.05-1.24-1.38-1.86-3.1-1.86-5.17s.62-3.85,1.86-5.25c1.25-1.4,2.81-2.1,4.69-2.1,1.59,0,3.02.63,4.28,1.88v-1.5h3.2v21.3h-3.2Zm-7.56-14.47c0,1.33.36,2.41,1.08,3.24.72.85,1.63,1.28,2.73,1.28,1.17,0,2.12-.41,2.85-1.22.74-.82,1.11-1.89,1.11-3.2s-.36-2.36-1.09-3.2c-.73-.82-1.67-1.23-2.83-1.23-1.09,0-2.01.42-2.75,1.25-.73.84-1.09,1.87-1.09,3.09Z"/>
            <path d="m276.58,424.02v7.92c0,2.29.9,3.43,2.7,3.43s2.7-1.14,2.7-3.43v-7.92h3.19v7.99c0,1.1-.14,2.06-.41,2.86-.26.72-.72,1.36-1.37,1.94-1.08.94-2.45,1.4-4.11,1.4s-3.02-.47-4.09-1.4c-.66-.58-1.13-1.22-1.4-1.94-.26-.64-.4-1.6-.4-2.86v-7.99h3.19Z"/>
            <path d="m299.36,424.02h3.2v13.79h-3.2v-1.44c-1.31,1.23-2.72,1.84-4.23,1.84-1.91,0-3.48-.69-4.73-2.07-1.24-1.41-1.86-3.16-1.86-5.27s.62-3.79,1.86-5.17c1.24-1.38,2.78-2.07,4.64-2.07,1.6,0,3.04.66,4.32,1.98v-1.6Zm-7.56,6.85c0,1.32.35,2.4,1.06,3.23.73.84,1.64,1.26,2.75,1.26,1.18,0,2.13-.41,2.86-1.22.73-.84,1.09-1.91,1.09-3.2s-.36-2.36-1.09-3.2c-.73-.82-1.67-1.23-2.83-1.23-1.09,0-2.01.42-2.75,1.25-.73.84-1.09,1.88-1.09,3.12Z"/>
            <path d="m309.77,413.89v23.92h-3.19v-23.92h3.19Z"/>
            <path d="m324.54,424.61v4.23c-.73-.89-1.38-1.5-1.95-1.83-.57-.34-1.23-.51-2-.51-1.2,0-2.2.42-2.99,1.26-.79.84-1.19,1.89-1.19,3.16s.38,2.36,1.15,3.19c.77.83,1.76,1.25,2.96,1.25.76,0,1.44-.17,2.02-.5.57-.32,1.23-.94,2-1.87v4.21c-1.29.67-2.59,1.01-3.88,1.01-2.13,0-3.92-.69-5.35-2.07-1.43-1.39-2.15-3.11-2.15-5.17s.73-3.79,2.18-5.21,3.24-2.12,5.35-2.12c1.36,0,2.64.33,3.85.98Z"/>
            <path d="m326.98,430.81c0-1.99.71-3.69,2.14-5.08,1.43-1.4,3.16-2.1,5.21-2.1s3.8.7,5.24,2.11c1.42,1.41,2.12,3.13,2.12,5.18s-.71,3.8-2.14,5.2c-1.43,1.39-3.2,2.08-5.28,2.08s-3.8-.71-5.2-2.12c-1.4-1.4-2.1-3.15-2.1-5.27Zm3.26.06c0,1.38.37,2.47,1.1,3.27.75.81,1.75,1.22,2.99,1.22s2.24-.4,2.99-1.2,1.12-1.87,1.12-3.21-.37-2.41-1.12-3.21c-.76-.81-1.75-1.22-2.99-1.22s-2.2.41-2.96,1.22-1.13,1.86-1.13,3.14Z"/>
            <path d="m353.07,426.37l-2.63,1.4c-.42-.85-.93-1.28-1.54-1.28-.29,0-.54.1-.75.29-.21.19-.31.44-.31.74,0,.53.61,1.05,1.84,1.57,1.69.73,2.83,1.4,3.41,2.01.58.61.88,1.44.88,2.48,0,1.33-.49,2.45-1.47,3.34-.95.85-2.11,1.27-3.46,1.27-2.31,0-3.95-1.13-4.91-3.38l2.72-1.26c.38.66.67,1.08.86,1.26.39.36.85.54,1.39.54,1.08,0,1.61-.49,1.61-1.47,0-.57-.42-1.1-1.25-1.59-.32-.16-.64-.32-.96-.47s-.65-.31-.98-.47c-.92-.45-1.58-.91-1.95-1.36-.48-.58-.72-1.32-.72-2.22,0-1.2.41-2.19,1.23-2.97.84-.78,1.86-1.17,3.06-1.17,1.76,0,3.08.91,3.94,2.73Z"/>
            <path d="m366.99,424.02h3.2v13.79h-3.2v-1.44c-1.31,1.23-2.72,1.84-4.23,1.84-1.91,0-3.48-.69-4.73-2.07-1.24-1.41-1.86-3.16-1.86-5.27s.62-3.79,1.86-5.17c1.24-1.38,2.78-2.07,4.64-2.07,1.6,0,3.04.66,4.32,1.98v-1.6Zm-7.56,6.85c0,1.32.35,2.4,1.06,3.23.73.84,1.64,1.26,2.75,1.26,1.18,0,2.13-.41,2.86-1.22.73-.84,1.09-1.91,1.09-3.2s-.36-2.36-1.09-3.2c-.73-.82-1.67-1.23-2.83-1.23-1.09,0-2.01.42-2.75,1.25-.73.84-1.09,1.88-1.09,3.12Z"/>
            <path d="m62.45,459.41v4.23c-.73-.89-1.38-1.5-1.95-1.83-.57-.34-1.23-.51-2-.51-1.2,0-2.19.42-2.99,1.26-.79.84-1.19,1.89-1.19,3.16s.38,2.36,1.15,3.19c.77.83,1.76,1.25,2.96,1.25.77,0,1.44-.17,2.03-.5.57-.32,1.23-.94,2-1.87v4.21c-1.29.67-2.59,1.01-3.88,1.01-2.13,0-3.92-.69-5.35-2.07-1.43-1.39-2.15-3.11-2.15-5.17s.73-3.79,2.18-5.21c1.45-1.42,3.24-2.12,5.35-2.12,1.36,0,2.64.33,3.85.98Z"/>
            <path d="m66.29,448.69h3.19v11.27c1.13-1.02,2.38-1.53,3.75-1.53,1.56,0,2.8.5,3.74,1.51.79.88,1.19,2.28,1.19,4.21v8.45h-3.19v-8.16c0-1.1-.2-1.9-.59-2.4-.39-.5-1.02-.74-1.89-.74-1.11,0-1.9.34-2.35,1.03-.44.7-.67,1.9-.67,3.6v6.67h-3.19v-23.92Z"/>
            <path d="m94.75,466.46h-9.88c.08,1.13.45,2.03,1.1,2.7.65.66,1.49.99,2.51.99.79,0,1.45-.19,1.97-.57.51-.38,1.09-1.08,1.74-2.1l2.69,1.5c-.42.71-.86,1.32-1.32,1.82s-.96.92-1.49,1.25c-.53.33-1.1.56-1.71.71s-1.28.23-2,.23c-2.06,0-3.71-.66-4.96-1.98-1.25-1.33-1.87-3.1-1.87-5.3s.6-3.95,1.81-5.3c1.22-1.33,2.83-2,4.84-2s3.63.65,4.81,1.94c1.17,1.28,1.76,3.06,1.76,5.34v.75Zm-3.27-2.61c-.44-1.7-1.52-2.55-3.21-2.55-.39,0-.75.06-1.09.18s-.65.29-.93.51c-.28.22-.52.49-.71.8-.2.31-.35.67-.45,1.06h6.4Z"/>
            <path d="m107.18,458.82h3.2v1.27c1.11-1.1,2.37-1.66,3.77-1.66,1.61,0,2.86.5,3.75,1.51.77.86,1.16,2.26,1.16,4.21v8.45h-3.2v-7.7c0-1.36-.19-2.3-.57-2.82-.37-.53-1.04-.79-2.01-.79-1.06,0-1.81.35-2.25,1.05-.43.69-.65,1.89-.65,3.61v6.66h-3.2v-13.79Z"/>
            <path d="m122.43,465.61c0-1.99.71-3.69,2.14-5.08,1.43-1.4,3.16-2.1,5.21-2.1s3.8.7,5.24,2.11c1.42,1.41,2.12,3.13,2.12,5.18s-.71,3.8-2.14,5.2c-1.43,1.39-3.2,2.08-5.28,2.08s-3.8-.71-5.2-2.12c-1.4-1.4-2.1-3.15-2.1-5.27Zm3.26.06c0,1.38.37,2.47,1.1,3.27.76.81,1.75,1.22,2.99,1.22s2.24-.4,2.99-1.2c.75-.8,1.12-1.87,1.12-3.21s-.37-2.41-1.12-3.21c-.76-.81-1.75-1.22-2.99-1.22s-2.2.41-2.96,1.22c-.76.81-1.13,1.86-1.13,3.14Z"/>
            <path d="m140.51,458.82h3.2v1.27c1.11-1.1,2.37-1.66,3.77-1.66,1.6,0,2.86.5,3.75,1.51.77.86,1.16,2.26,1.16,4.21v8.45h-3.2v-7.7c0-1.36-.19-2.3-.57-2.82-.37-.53-1.04-.79-2.01-.79-1.06,0-1.81.35-2.25,1.05-.43.69-.65,1.89-.65,3.61v6.66h-3.2v-13.79Z"/>
            <path d="m168.55,480.11h-3.19v-21.3h3.19v1.5c1.25-1.26,2.68-1.88,4.28-1.88,1.9,0,3.46.7,4.69,2.1,1.25,1.39,1.87,3.14,1.87,5.25s-.62,3.79-1.86,5.17c-1.23,1.37-2.78,2.05-4.64,2.05-1.61,0-3.06-.65-4.33-1.94v9.05Zm7.58-14.32c0-1.32-.36-2.4-1.08-3.23-.73-.84-1.64-1.26-2.75-1.26-1.17,0-2.12.41-2.85,1.22s-1.09,1.88-1.09,3.2.36,2.36,1.09,3.2c.72.82,1.66,1.23,2.83,1.23,1.1,0,2.02-.42,2.73-1.25.74-.83,1.1-1.87,1.1-3.12Z"/>
            <path d="m182.1,465.61c0-1.99.71-3.69,2.14-5.08,1.42-1.4,3.16-2.1,5.21-2.1s3.8.7,5.24,2.11c1.42,1.41,2.12,3.13,2.12,5.18s-.71,3.8-2.14,5.2c-1.44,1.39-3.2,2.08-5.28,2.08s-3.8-.71-5.2-2.12c-1.4-1.4-2.1-3.15-2.1-5.27Zm3.26.06c0,1.38.37,2.47,1.11,3.27.75.81,1.75,1.22,2.99,1.22s2.24-.4,2.99-1.2c.75-.8,1.12-1.87,1.12-3.21s-.37-2.41-1.12-3.21c-.75-.81-1.75-1.22-2.99-1.22s-2.2.41-2.96,1.22c-.75.81-1.13,1.86-1.13,3.14Z"/>
            <path d="m203.64,461.79v10.82h-3.19v-10.82h-1.36v-2.97h1.36v-5.06h3.19v5.06h2.48v2.97h-2.48Z"/>
            <path d="m208.28,458.82h3.19v1.23c.59-.61,1.11-1.03,1.56-1.26.46-.24,1.01-.35,1.64-.35.84,0,1.72.27,2.63.82l-1.46,2.92c-.6-.43-1.19-.65-1.77-.65-1.74,0-2.61,1.31-2.61,3.94v7.15h-3.19v-13.79Z"/>
            <path d="m231.49,466.46h-9.88c.09,1.13.45,2.03,1.11,2.7.65.66,1.49.99,2.51.99.79,0,1.45-.19,1.97-.57.51-.38,1.09-1.08,1.74-2.1l2.69,1.5c-.42.71-.85,1.32-1.32,1.82-.46.5-.96.92-1.49,1.25-.53.33-1.1.56-1.71.71-.61.15-1.28.23-2,.23-2.06,0-3.71-.66-4.96-1.98-1.25-1.33-1.87-3.1-1.87-5.3s.6-3.95,1.81-5.3c1.22-1.33,2.83-2,4.84-2s3.63.65,4.81,1.94c1.17,1.28,1.76,3.06,1.76,5.34v.75Zm-3.27-2.61c-.44-1.7-1.52-2.55-3.21-2.55-.39,0-.75.06-1.09.18s-.65.29-.93.51c-.28.22-.52.49-.71.8-.2.31-.35.67-.45,1.06h6.4Z"/>
            <path d="m238.16,448.69v11.72c1.27-1.32,2.72-1.98,4.33-1.98,1.86,0,3.41.69,4.64,2.08,1.24,1.38,1.86,3.1,1.86,5.15s-.62,3.88-1.87,5.27c-1.24,1.38-2.8,2.07-4.69,2.07-1.6,0-3.02-.61-4.28-1.84v1.44h-3.19v-23.92h3.19Zm7.58,17.12c0-1.32-.36-2.4-1.08-3.23-.73-.85-1.64-1.27-2.73-1.27-1.17,0-2.12.41-2.86,1.23-.73.81-1.09,1.87-1.09,3.17s.36,2.41,1.08,3.21c.72.82,1.66,1.23,2.83,1.23,1.11,0,2.02-.41,2.75-1.23.74-.83,1.1-1.87,1.1-3.12Z"/>
            <path d="m255.55,448.69v11.72c1.27-1.32,2.72-1.98,4.33-1.98,1.86,0,3.41.69,4.64,2.08,1.24,1.38,1.86,3.1,1.86,5.15s-.62,3.88-1.87,5.27c-1.24,1.38-2.8,2.07-4.69,2.07-1.6,0-3.02-.61-4.28-1.84v1.44h-3.19v-23.92h3.19Zm7.58,17.12c0-1.32-.36-2.4-1.08-3.23-.73-.85-1.64-1.27-2.73-1.27-1.17,0-2.12.41-2.86,1.23-.73.81-1.09,1.87-1.09,3.17s.36,2.41,1.08,3.21c.72.82,1.66,1.23,2.83,1.23,1.11,0,2.02-.41,2.75-1.23.74-.83,1.1-1.87,1.1-3.12Z"/>
            <path d="m282.31,466.46h-9.88c.08,1.13.45,2.03,1.1,2.7.65.66,1.49.99,2.51.99.79,0,1.45-.19,1.97-.57.51-.38,1.09-1.08,1.74-2.1l2.69,1.5c-.42.71-.85,1.32-1.32,1.82s-.96.92-1.49,1.25c-.53.33-1.1.56-1.71.71s-1.28.23-2,.23c-2.06,0-3.71-.66-4.96-1.98-1.25-1.33-1.87-3.1-1.87-5.3s.6-3.95,1.81-5.3c1.22-1.33,2.83-2,4.84-2s3.63.65,4.81,1.94c1.17,1.28,1.76,3.06,1.76,5.34v.75Zm-3.27-2.61c-.44-1.7-1.51-2.55-3.21-2.55-.39,0-.75.06-1.09.18s-.65.29-.93.51c-.28.22-.52.49-.71.8-.2.31-.35.67-.45,1.06h6.4Z"/>
            <path d="m298.05,461.79v10.82h-3.2v-10.82h-1.13v-2.97h1.13v-5.32c0-1.74.3-2.96.91-3.68.83-1,2.04-1.5,3.62-1.5.57,0,1.28.17,2.14.5v3.26l-.33-.17c-.69-.35-1.25-.52-1.7-.52-.57,0-.95.2-1.15.61-.2.4-.3,1.16-.3,2.29v4.55h3.47v2.97h-3.47Z"/>
            <path d="m313.96,458.82h3.2v13.79h-3.2v-1.44c-1.31,1.23-2.72,1.84-4.23,1.84-1.91,0-3.48-.69-4.73-2.07-1.24-1.41-1.85-3.16-1.85-5.27s.62-3.79,1.85-5.17c1.24-1.38,2.78-2.07,4.64-2.07,1.6,0,3.04.66,4.32,1.98v-1.6Zm-7.56,6.85c0,1.32.35,2.4,1.06,3.23.73.84,1.64,1.26,2.75,1.26,1.18,0,2.13-.41,2.86-1.22.73-.84,1.09-1.91,1.09-3.2s-.36-2.36-1.09-3.2c-.73-.82-1.67-1.23-2.83-1.23-1.1,0-2.01.42-2.75,1.25-.73.84-1.09,1.88-1.09,3.12Z"/>
            <path d="m321.18,458.82h3.19v1.23c.58-.61,1.1-1.03,1.56-1.26.46-.24,1.01-.35,1.64-.35.84,0,1.72.27,2.63.82l-1.46,2.92c-.6-.43-1.2-.65-1.77-.65-1.74,0-2.61,1.31-2.61,3.94v7.15h-3.19v-13.79Z"/>
            <path d="m344.39,466.46h-9.88c.08,1.13.45,2.03,1.1,2.7.65.66,1.49.99,2.51.99.79,0,1.45-.19,1.97-.57.51-.38,1.09-1.08,1.74-2.1l2.69,1.5c-.42.71-.85,1.32-1.32,1.82s-.96.92-1.49,1.25c-.53.33-1.1.56-1.71.71s-1.28.23-2,.23c-2.06,0-3.71-.66-4.96-1.98-1.25-1.33-1.87-3.1-1.87-5.3s.6-3.95,1.81-5.3c1.22-1.33,2.83-2,4.84-2s3.63.65,4.81,1.94c1.17,1.28,1.76,3.06,1.76,5.34v.75Zm-3.27-2.61c-.44-1.7-1.51-2.55-3.21-2.55-.39,0-.75.06-1.09.18s-.65.29-.93.51c-.28.22-.52.49-.71.8-.2.31-.35.67-.45,1.06h6.4Z"/>
            <path d="m366.99,458.82h3.2v13.79h-3.2v-1.44c-1.31,1.23-2.72,1.84-4.23,1.84-1.91,0-3.48-.69-4.73-2.07-1.24-1.41-1.86-3.16-1.86-5.27s.62-3.79,1.86-5.17c1.24-1.38,2.78-2.07,4.64-2.07,1.6,0,3.04.66,4.32,1.98v-1.6Zm-7.56,6.85c0,1.32.35,2.4,1.06,3.23.73.84,1.64,1.26,2.75,1.26,1.18,0,2.13-.41,2.86-1.22.73-.84,1.09-1.91,1.09-3.2s-.36-2.36-1.09-3.2c-.73-.82-1.67-1.23-2.83-1.23-1.09,0-2.01.42-2.75,1.25-.73.84-1.09,1.88-1.09,3.12Z"/>
            <path d="m268.38,488.65v18.76h-3.3v-18.76h-5.03v-3.1h13.34v3.1h-5.01Z"/>
            <path d="m274.74,493.62h3.19v1.23c.58-.61,1.1-1.03,1.56-1.26.46-.24,1.01-.35,1.64-.35.84,0,1.72.27,2.63.82l-1.46,2.92c-.6-.43-1.2-.65-1.77-.65-1.74,0-2.61,1.31-2.61,3.94v7.15h-3.19v-13.79Z"/>
            <path d="m285.54,487.88c0-.56.2-1.04.61-1.44.41-.41.89-.61,1.46-.61s1.07.2,1.47.61c.41.4.61.88.61,1.46s-.2,1.07-.61,1.47c-.4.41-.88.61-1.46.61s-1.07-.2-1.47-.61c-.41-.41-.61-.9-.61-1.49Zm3.67,5.74v13.79h-3.19v-13.79h3.19Z"/>
            <path d="m303.98,494.21v4.23c-.73-.89-1.38-1.5-1.95-1.83-.57-.34-1.23-.51-2-.51-1.2,0-2.2.42-2.99,1.26-.79.84-1.19,1.89-1.19,3.16s.38,2.36,1.15,3.19c.77.83,1.76,1.25,2.96,1.25.76,0,1.44-.17,2.02-.5.57-.32,1.23-.94,2-1.87v4.21c-1.29.67-2.59,1.01-3.88,1.01-2.13,0-3.92-.69-5.35-2.07-1.43-1.39-2.15-3.11-2.15-5.17s.73-3.79,2.18-5.21,3.24-2.12,5.35-2.12c1.36,0,2.64.33,3.85.98Z"/>
            <path d="m317.23,493.62h3.2v13.79h-3.2v-1.44c-1.31,1.23-2.72,1.84-4.23,1.84-1.91,0-3.48-.69-4.73-2.07-1.24-1.41-1.85-3.16-1.85-5.27s.62-3.79,1.85-5.17c1.24-1.38,2.79-2.07,4.64-2.07,1.61,0,3.04.66,4.32,1.98v-1.6Zm-7.56,6.85c0,1.32.35,2.4,1.06,3.23.73.84,1.64,1.26,2.75,1.26,1.18,0,2.13-.41,2.86-1.22.73-.84,1.09-1.91,1.09-3.2s-.36-2.36-1.09-3.2c-.73-.82-1.67-1.23-2.83-1.23-1.1,0-2.01.42-2.75,1.25-.73.84-1.09,1.88-1.09,3.12Z"/>
            <path d="m324.45,493.62h3.19v1.23c.59-.61,1.11-1.03,1.56-1.26.46-.24,1.01-.35,1.64-.35.84,0,1.72.27,2.63.82l-1.46,2.92c-.6-.43-1.19-.65-1.77-.65-1.74,0-2.61,1.31-2.61,3.94v7.15h-3.19v-13.79Z"/>
            <path d="m335.26,487.88c0-.56.2-1.04.61-1.44.41-.41.89-.61,1.46-.61s1.07.2,1.47.61c.41.4.61.88.61,1.46s-.2,1.07-.61,1.47c-.4.41-.88.61-1.46.61s-1.07-.2-1.47-.61-.61-.9-.61-1.49Zm3.67,5.74v13.79h-3.19v-13.79h3.19Z"/>
            <path d="m353.69,494.21v4.23c-.73-.89-1.38-1.5-1.95-1.83-.57-.34-1.23-.51-2-.51-1.2,0-2.19.42-2.99,1.26-.79.84-1.19,1.89-1.19,3.16s.38,2.36,1.15,3.19c.77.83,1.76,1.25,2.96,1.25.77,0,1.44-.17,2.03-.5.57-.32,1.23-.94,2-1.87v4.21c-1.29.67-2.59,1.01-3.88,1.01-2.13,0-3.92-.69-5.35-2.07-1.43-1.39-2.15-3.11-2.15-5.17s.73-3.79,2.18-5.21c1.45-1.42,3.24-2.12,5.35-2.12,1.36,0,2.64.33,3.85.98Z"/>
            <path d="m356.13,500.41c0-1.99.71-3.69,2.14-5.08,1.43-1.4,3.16-2.1,5.21-2.1s3.8.7,5.24,2.11c1.42,1.41,2.12,3.13,2.12,5.18s-.71,3.8-2.14,5.2c-1.43,1.39-3.2,2.08-5.28,2.08s-3.8-.71-5.2-2.12c-1.4-1.4-2.1-3.15-2.1-5.27Zm3.26.06c0,1.38.37,2.47,1.1,3.27.76.81,1.75,1.22,2.99,1.22s2.24-.4,2.99-1.2c.75-.8,1.12-1.87,1.12-3.21s-.37-2.41-1.12-3.21c-.76-.81-1.75-1.22-2.99-1.22s-2.2.41-2.96,1.22c-.76.81-1.13,1.86-1.13,3.14Z"/>
            <path d="m56.34,526.46c1.21,0,2.25.45,3.12,1.36.88.9,1.32,1.97,1.32,3.23s-.44,2.37-1.32,3.26c-.88.9-1.94,1.34-3.19,1.34s-2.29-.45-3.19-1.34c-.88-.91-1.32-1.99-1.32-3.24s.44-2.37,1.33-3.26c.9-.9,1.98-1.35,3.24-1.35Z"/>
            <path d="m101.32,520.34v21.86h-3.3v-21.86h3.3Z"/>
            <path d="m109.15,518.29v23.92h-3.19v-23.92h3.19Z"/>
            <path d="m127.63,532.06v-2.82c1.4,0,2.34-.16,2.82-.47.86-.55,1.29-1.43,1.29-2.63,0-.93-.31-1.69-.93-2.28-.61-.59-1.41-.89-2.39-.89-.92,0-1.62.22-2.12.67-.48.45-.84,1.22-1.08,2.29h-3.29c.34-2.06,1.04-3.57,2.1-4.52,1.06-.96,2.54-1.44,4.43-1.44s3.48.57,4.69,1.7c1.21,1.12,1.81,2.57,1.81,4.35,0,2-.79,3.56-2.38,4.67,1.81,1.07,2.72,2.8,2.72,5.2,0,1.96-.66,3.57-1.98,4.81-1.32,1.25-3.02,1.87-5.08,1.87-2.63,0-4.59-.97-5.86-2.9-.53-.81-.86-1.94-1.01-3.37h3.19c.17,1.06.58,1.87,1.24,2.43s1.51.84,2.57.84,1.95-.35,2.65-1.06c.7-.73,1.05-1.65,1.05-2.76,0-1.47-.52-2.52-1.57-3.14-.61-.36-1.56-.54-2.85-.54Z"/>
            <path d="m149.41,519.58l2.42,1.81-5.22,7.11c.28-.04.52-.07.72-.08.2-.02.35-.03.47-.03,1.78,0,3.31.68,4.6,2.04,1.28,1.34,1.93,2.96,1.93,4.84,0,2-.72,3.72-2.15,5.15-1.42,1.43-3.14,2.14-5.14,2.14s-3.72-.7-5.21-2.11c-1.46-1.41-2.19-3.07-2.19-5,0-1.73.71-3.56,2.14-5.49l7.65-10.38Zm1.7,15.9c0-1.16-.4-2.14-1.2-2.95s-1.79-1.22-2.93-1.22-2.13.4-2.93,1.2c-.8.8-1.2,1.77-1.2,2.92s.4,2.11,1.2,2.92c.8.8,1.78,1.2,2.95,1.2s2.1-.4,2.9-1.2c.81-.81,1.22-1.77,1.22-2.88Z"/>
            <path d="m159.9,538.12l2.83,1.1-4.04,8.09-2.15-.89,3.36-8.3Z"/>
            <path d="m179.17,536.1h2.32v3h-2.32v3.1h-3.3v-3.1h-10.73l14.03-20.39v17.39Zm-3.3,0v-7.32l-5.04,7.32h5.04Z"/>
            <path d="m183.86,525.2c0-1.37.52-2.56,1.57-3.57,1.07-1.01,2.3-1.52,3.7-1.52s2.67.51,3.71,1.53c1.04,1.01,1.56,2.22,1.56,3.62s-.52,2.63-1.56,3.64c-1.04,1.01-2.29,1.52-3.75,1.52s-2.67-.51-3.7-1.54c-1.02-1.03-1.53-2.26-1.53-3.68Zm2.46.04c0,.79.27,1.46.82,2.01.55.55,1.21.82,2,.82s1.42-.27,1.97-.82c.55-.55.82-1.21.82-1.98s-.27-1.42-.82-1.97c-.55-.55-1.21-.82-1.98-.82s-1.44.27-1.98.82-.82,1.19-.82,1.94Zm15.22-5.28l1.54.88-12.52,21.72-1.56-.93,12.53-21.67Zm-3.85,17.22c0-1.36.52-2.54,1.57-3.55,1.07-1.01,2.3-1.51,3.7-1.51s2.69.51,3.72,1.53c1.04,1.01,1.56,2.22,1.56,3.62s-.52,2.64-1.57,3.64c-1.03,1-2.28,1.5-3.75,1.5s-2.67-.51-3.7-1.53c-1.02-1.02-1.53-2.25-1.53-3.7Zm2.48.06c0,.79.27,1.46.81,2.01.55.55,1.21.82,2,.82s1.43-.27,1.97-.82c.55-.55.82-1.21.82-1.98s-.27-1.44-.82-1.98c-.54-.55-1.2-.82-1.98-.82s-1.42.27-1.97.82-.82,1.2-.82,1.95Z"/>
            <path d="m223.59,531.39v10.82h-3.2v-10.82h-1.13v-2.97h1.13v-5.32c0-1.74.3-2.96.91-3.68.83-1,2.04-1.5,3.62-1.5.57,0,1.28.17,2.14.5v3.26l-.33-.17c-.69-.35-1.26-.52-1.7-.52-.57,0-.95.2-1.15.61-.2.4-.3,1.16-.3,2.29v4.55h3.47v2.97h-3.47Z"/>
            <path d="m239.51,528.42h3.2v13.79h-3.2v-1.44c-1.31,1.23-2.72,1.84-4.23,1.84-1.91,0-3.48-.69-4.73-2.07-1.24-1.41-1.86-3.16-1.86-5.27s.62-3.79,1.86-5.17c1.24-1.38,2.79-2.07,4.64-2.07,1.61,0,3.04.66,4.32,1.98v-1.6Zm-7.56,6.85c0,1.32.35,2.4,1.06,3.23.73.84,1.64,1.26,2.75,1.26,1.18,0,2.13-.41,2.86-1.22.73-.84,1.09-1.91,1.09-3.2s-.36-2.36-1.09-3.2c-.73-.82-1.67-1.23-2.83-1.23-1.09,0-2.01.42-2.75,1.25-.73.84-1.09,1.88-1.09,3.12Z"/>
            <path d="m265.85,549.71v-9.05c-1.26,1.29-2.71,1.94-4.33,1.94-1.86,0-3.4-.68-4.63-2.05-1.24-1.38-1.86-3.1-1.86-5.17s.62-3.85,1.86-5.25c1.25-1.4,2.81-2.1,4.69-2.1,1.59,0,3.02.63,4.28,1.88v-1.5h3.2v21.3h-3.2Zm-7.56-14.47c0,1.33.36,2.41,1.08,3.24.72.85,1.63,1.28,2.73,1.28,1.17,0,2.12-.41,2.85-1.22.74-.82,1.11-1.89,1.11-3.2s-.36-2.36-1.09-3.2c-.73-.82-1.67-1.23-2.83-1.23-1.09,0-2.01.42-2.75,1.25-.73.84-1.09,1.87-1.09,3.09Z"/>
            <path d="m276.58,528.42v7.92c0,2.29.9,3.43,2.7,3.43s2.7-1.14,2.7-3.43v-7.92h3.19v7.99c0,1.1-.14,2.06-.41,2.86-.26.72-.72,1.36-1.37,1.94-1.08.94-2.45,1.4-4.11,1.4s-3.02-.47-4.09-1.4c-.66-.58-1.13-1.22-1.4-1.94-.26-.64-.4-1.6-.4-2.86v-7.99h3.19Z"/>
            <path d="m299.36,528.42h3.2v13.79h-3.2v-1.44c-1.31,1.23-2.72,1.84-4.23,1.84-1.91,0-3.48-.69-4.73-2.07-1.24-1.41-1.86-3.16-1.86-5.27s.62-3.79,1.86-5.17c1.24-1.38,2.78-2.07,4.64-2.07,1.6,0,3.04.66,4.32,1.98v-1.6Zm-7.56,6.85c0,1.32.35,2.4,1.06,3.23.73.84,1.64,1.26,2.75,1.26,1.18,0,2.13-.41,2.86-1.22.73-.84,1.09-1.91,1.09-3.2s-.36-2.36-1.09-3.2c-.73-.82-1.67-1.23-2.83-1.23-1.09,0-2.01.42-2.75,1.25-.73.84-1.09,1.88-1.09,3.12Z"/>
            <path d="m309.77,518.29v23.92h-3.19v-23.92h3.19Z"/>
            <path d="m324.54,529.01v4.23c-.73-.89-1.38-1.5-1.95-1.83-.57-.34-1.23-.51-2-.51-1.2,0-2.2.42-2.99,1.26-.79.84-1.19,1.89-1.19,3.16s.38,2.36,1.15,3.19c.77.83,1.76,1.25,2.96,1.25.76,0,1.44-.17,2.02-.5.57-.32,1.23-.94,2-1.87v4.21c-1.29.67-2.59,1.01-3.88,1.01-2.13,0-3.92-.69-5.35-2.07-1.43-1.39-2.15-3.11-2.15-5.17s.73-3.79,2.18-5.21,3.24-2.12,5.35-2.12c1.36,0,2.64.33,3.85.98Z"/>
            <path d="m326.98,535.21c0-1.99.71-3.69,2.14-5.08,1.43-1.4,3.16-2.1,5.21-2.1s3.8.7,5.24,2.11c1.42,1.41,2.12,3.13,2.12,5.18s-.71,3.8-2.14,5.2c-1.43,1.39-3.2,2.08-5.28,2.08s-3.8-.71-5.2-2.12c-1.4-1.4-2.1-3.15-2.1-5.27Zm3.26.06c0,1.38.37,2.47,1.1,3.27.75.81,1.75,1.22,2.99,1.22s2.24-.4,2.99-1.2,1.12-1.87,1.12-3.21-.37-2.41-1.12-3.21c-.76-.81-1.75-1.22-2.99-1.22s-2.2.41-2.96,1.22-1.13,1.86-1.13,3.14Z"/>
            <path d="m353.07,530.77l-2.63,1.4c-.42-.85-.93-1.28-1.54-1.28-.29,0-.54.1-.75.29-.21.19-.31.44-.31.74,0,.53.61,1.05,1.84,1.57,1.69.73,2.83,1.4,3.41,2.01.58.61.88,1.44.88,2.48,0,1.33-.49,2.45-1.47,3.34-.95.85-2.11,1.27-3.46,1.27-2.31,0-3.95-1.13-4.91-3.38l2.72-1.26c.38.66.67,1.08.86,1.26.39.36.85.54,1.39.54,1.08,0,1.61-.49,1.61-1.47,0-.57-.42-1.1-1.25-1.59-.32-.16-.64-.32-.96-.47s-.65-.31-.98-.47c-.92-.45-1.58-.91-1.95-1.36-.48-.58-.72-1.32-.72-2.22,0-1.2.41-2.19,1.23-2.97.84-.78,1.86-1.17,3.06-1.17,1.76,0,3.08.91,3.94,2.73Z"/>
            <path d="m366.99,528.42h3.2v13.79h-3.2v-1.44c-1.31,1.23-2.72,1.84-4.23,1.84-1.91,0-3.48-.69-4.73-2.07-1.24-1.41-1.86-3.16-1.86-5.27s.62-3.79,1.86-5.17c1.24-1.38,2.78-2.07,4.64-2.07,1.6,0,3.04.66,4.32,1.98v-1.6Zm-7.56,6.85c0,1.32.35,2.4,1.06,3.23.73.84,1.64,1.26,2.75,1.26,1.18,0,2.13-.41,2.86-1.22.73-.84,1.09-1.91,1.09-3.2s-.36-2.36-1.09-3.2c-.73-.82-1.67-1.23-2.83-1.23-1.09,0-2.01.42-2.75,1.25-.73.84-1.09,1.88-1.09,3.12Z"/>
            <path d="m62.45,563.81v4.23c-.73-.89-1.38-1.5-1.95-1.83-.57-.34-1.23-.51-2-.51-1.2,0-2.19.42-2.99,1.26-.79.84-1.19,1.89-1.19,3.16s.38,2.36,1.15,3.19c.77.83,1.76,1.25,2.96,1.25.77,0,1.44-.17,2.03-.5.57-.32,1.23-.94,2-1.87v4.21c-1.29.67-2.59,1.01-3.88,1.01-2.13,0-3.92-.69-5.35-2.07-1.43-1.39-2.15-3.11-2.15-5.17s.73-3.79,2.18-5.21c1.45-1.42,3.24-2.12,5.35-2.12,1.36,0,2.64.33,3.85.98Z"/>
            <path d="m66.29,553.09h3.19v11.27c1.13-1.02,2.38-1.53,3.75-1.53,1.56,0,2.8.5,3.74,1.51.79.88,1.19,2.28,1.19,4.21v8.45h-3.19v-8.16c0-1.1-.2-1.9-.59-2.4-.39-.5-1.02-.74-1.89-.74-1.11,0-1.9.34-2.35,1.03-.44.7-.67,1.9-.67,3.6v6.67h-3.19v-23.92Z"/>
            <path d="m94.75,570.86h-9.88c.08,1.13.45,2.03,1.1,2.7.65.66,1.49.99,2.51.99.79,0,1.45-.19,1.97-.57.51-.38,1.09-1.08,1.74-2.1l2.69,1.5c-.42.71-.86,1.32-1.32,1.82s-.96.92-1.49,1.25c-.53.33-1.1.56-1.71.71s-1.28.23-2,.23c-2.06,0-3.71-.66-4.96-1.98-1.25-1.33-1.87-3.1-1.87-5.3s.6-3.95,1.81-5.3c1.22-1.33,2.83-2,4.84-2s3.63.65,4.81,1.94c1.17,1.28,1.76,3.06,1.76,5.34v.75Zm-3.27-2.61c-.44-1.7-1.52-2.55-3.21-2.55-.39,0-.75.06-1.09.18s-.65.29-.93.51c-.28.22-.52.49-.71.8-.2.31-.35.67-.45,1.06h6.4Z"/>
            <path d="m107.18,563.22h3.2v1.27c1.11-1.1,2.37-1.66,3.77-1.66,1.61,0,2.86.5,3.75,1.51.77.86,1.16,2.26,1.16,4.21v8.45h-3.2v-7.7c0-1.36-.19-2.3-.57-2.82-.37-.53-1.04-.79-2.01-.79-1.06,0-1.81.35-2.25,1.05-.43.69-.65,1.89-.65,3.61v6.66h-3.2v-13.79Z"/>
            <path d="m122.43,570.01c0-1.99.71-3.69,2.14-5.08,1.43-1.4,3.16-2.1,5.21-2.1s3.8.7,5.24,2.11c1.42,1.41,2.12,3.13,2.12,5.18s-.71,3.8-2.14,5.2c-1.43,1.39-3.2,2.08-5.28,2.08s-3.8-.71-5.2-2.12c-1.4-1.4-2.1-3.15-2.1-5.27Zm3.26.06c0,1.38.37,2.47,1.1,3.27.76.81,1.75,1.22,2.99,1.22s2.24-.4,2.99-1.2c.75-.8,1.12-1.87,1.12-3.21s-.37-2.41-1.12-3.21c-.76-.81-1.75-1.22-2.99-1.22s-2.2.41-2.96,1.22c-.76.81-1.13,1.86-1.13,3.14Z"/>
            <path d="m140.51,563.22h3.2v1.27c1.11-1.1,2.37-1.66,3.77-1.66,1.6,0,2.86.5,3.75,1.51.77.86,1.16,2.26,1.16,4.21v8.45h-3.2v-7.7c0-1.36-.19-2.3-.57-2.82-.37-.53-1.04-.79-2.01-.79-1.06,0-1.81.35-2.25,1.05-.43.69-.65,1.89-.65,3.61v6.66h-3.2v-13.79Z"/>
            <path d="m168.55,584.51h-3.19v-21.3h3.19v1.5c1.25-1.26,2.68-1.88,4.28-1.88,1.9,0,3.46.7,4.69,2.1,1.25,1.39,1.87,3.14,1.87,5.25s-.62,3.79-1.86,5.17c-1.23,1.37-2.78,2.05-4.64,2.05-1.61,0-3.06-.65-4.33-1.94v9.05Zm7.58-14.32c0-1.32-.36-2.4-1.08-3.23-.73-.84-1.64-1.26-2.75-1.26-1.17,0-2.12.41-2.85,1.22s-1.09,1.88-1.09,3.2.36,2.36,1.09,3.2c.72.82,1.66,1.23,2.83,1.23,1.1,0,2.02-.42,2.73-1.25.74-.83,1.1-1.87,1.1-3.12Z"/>
            <path d="m182.1,570.01c0-1.99.71-3.69,2.14-5.08,1.42-1.4,3.16-2.1,5.21-2.1s3.8.7,5.24,2.11c1.42,1.41,2.12,3.13,2.12,5.18s-.71,3.8-2.14,5.2c-1.44,1.39-3.2,2.08-5.28,2.08s-3.8-.71-5.2-2.12c-1.4-1.4-2.1-3.15-2.1-5.27Zm3.26.06c0,1.38.37,2.47,1.11,3.27.75.81,1.75,1.22,2.99,1.22s2.24-.4,2.99-1.2c.75-.8,1.12-1.87,1.12-3.21s-.37-2.41-1.12-3.21c-.75-.81-1.75-1.22-2.99-1.22s-2.2.41-2.96,1.22c-.75.81-1.13,1.86-1.13,3.14Z"/>
            <path d="m203.64,566.19v10.82h-3.19v-10.82h-1.36v-2.97h1.36v-5.06h3.19v5.06h2.48v2.97h-2.48Z"/>
            <path d="m208.28,563.22h3.19v1.23c.59-.61,1.11-1.03,1.56-1.26.46-.24,1.01-.35,1.64-.35.84,0,1.72.27,2.63.82l-1.46,2.92c-.6-.43-1.19-.65-1.77-.65-1.74,0-2.61,1.31-2.61,3.94v7.15h-3.19v-13.79Z"/>
            <path d="m231.49,570.86h-9.88c.09,1.13.45,2.03,1.11,2.7.65.66,1.49.99,2.51.99.79,0,1.45-.19,1.97-.57.51-.38,1.09-1.08,1.74-2.1l2.69,1.5c-.42.71-.85,1.32-1.32,1.82-.46.5-.96.92-1.49,1.25-.53.33-1.1.56-1.71.71-.61.15-1.28.23-2,.23-2.06,0-3.71-.66-4.96-1.98-1.25-1.33-1.87-3.1-1.87-5.3s.6-3.95,1.81-5.3c1.22-1.33,2.83-2,4.84-2s3.63.65,4.81,1.94c1.17,1.28,1.76,3.06,1.76,5.34v.75Zm-3.27-2.61c-.44-1.7-1.52-2.55-3.21-2.55-.39,0-.75.06-1.09.18s-.65.29-.93.51c-.28.22-.52.49-.71.8-.2.31-.35.67-.45,1.06h6.4Z"/>
            <path d="m238.16,553.09v11.72c1.27-1.32,2.72-1.98,4.33-1.98,1.86,0,3.41.69,4.64,2.08,1.24,1.38,1.86,3.1,1.86,5.15s-.62,3.88-1.87,5.27c-1.24,1.38-2.8,2.07-4.69,2.07-1.6,0-3.02-.61-4.28-1.84v1.44h-3.19v-23.92h3.19Zm7.58,17.12c0-1.32-.36-2.4-1.08-3.23-.73-.85-1.64-1.27-2.73-1.27-1.17,0-2.12.41-2.86,1.23-.73.81-1.09,1.87-1.09,3.17s.36,2.41,1.08,3.21c.72.82,1.66,1.23,2.83,1.23,1.11,0,2.02-.41,2.75-1.23.74-.83,1.1-1.87,1.1-3.12Z"/>
            <path d="m255.55,553.09v11.72c1.27-1.32,2.72-1.98,4.33-1.98,1.86,0,3.41.69,4.64,2.08,1.24,1.38,1.86,3.1,1.86,5.15s-.62,3.88-1.87,5.27c-1.24,1.38-2.8,2.07-4.69,2.07-1.6,0-3.02-.61-4.28-1.84v1.44h-3.19v-23.92h3.19Zm7.58,17.12c0-1.32-.36-2.4-1.08-3.23-.73-.85-1.64-1.27-2.73-1.27-1.17,0-2.12.41-2.86,1.23-.73.81-1.09,1.87-1.09,3.17s.36,2.41,1.08,3.21c.72.82,1.66,1.23,2.83,1.23,1.11,0,2.02-.41,2.75-1.23.74-.83,1.1-1.87,1.1-3.12Z"/>
            <path d="m282.31,570.86h-9.88c.08,1.13.45,2.03,1.1,2.7.65.66,1.49.99,2.51.99.79,0,1.45-.19,1.97-.57.51-.38,1.09-1.08,1.74-2.1l2.69,1.5c-.42.71-.85,1.32-1.32,1.82s-.96.92-1.49,1.25c-.53.33-1.1.56-1.71.71s-1.28.23-2,.23c-2.06,0-3.71-.66-4.96-1.98-1.25-1.33-1.87-3.1-1.87-5.3s.6-3.95,1.81-5.3c1.22-1.33,2.83-2,4.84-2s3.63.65,4.81,1.94c1.17,1.28,1.76,3.06,1.76,5.34v.75Zm-3.27-2.61c-.44-1.7-1.51-2.55-3.21-2.55-.39,0-.75.06-1.09.18s-.65.29-.93.51c-.28.22-.52.49-.71.8-.2.31-.35.67-.45,1.06h6.4Z"/>
            <path d="m298.05,566.19v10.82h-3.2v-10.82h-1.13v-2.97h1.13v-5.32c0-1.74.3-2.96.91-3.68.83-1,2.04-1.5,3.62-1.5.57,0,1.28.17,2.14.5v3.26l-.33-.17c-.69-.35-1.25-.52-1.7-.52-.57,0-.95.2-1.15.61-.2.4-.3,1.16-.3,2.29v4.55h3.47v2.97h-3.47Z"/>
            <path d="m313.96,563.22h3.2v13.79h-3.2v-1.44c-1.31,1.23-2.72,1.84-4.23,1.84-1.91,0-3.48-.69-4.73-2.07-1.24-1.41-1.85-3.16-1.85-5.27s.62-3.79,1.85-5.17c1.24-1.38,2.78-2.07,4.64-2.07,1.6,0,3.04.66,4.32,1.98v-1.6Zm-7.56,6.85c0,1.32.35,2.4,1.06,3.23.73.84,1.64,1.26,2.75,1.26,1.18,0,2.13-.41,2.86-1.22.73-.84,1.09-1.91,1.09-3.2s-.36-2.36-1.09-3.2c-.73-.82-1.67-1.23-2.83-1.23-1.1,0-2.01.42-2.75,1.25-.73.84-1.09,1.88-1.09,3.12Z"/>
            <path d="m321.18,563.22h3.19v1.23c.58-.61,1.1-1.03,1.56-1.26.46-.24,1.01-.35,1.64-.35.84,0,1.72.27,2.63.82l-1.46,2.92c-.6-.43-1.2-.65-1.77-.65-1.74,0-2.61,1.31-2.61,3.94v7.15h-3.19v-13.79Z"/>
            <path d="m344.39,570.86h-9.88c.08,1.13.45,2.03,1.1,2.7.65.66,1.49.99,2.51.99.79,0,1.45-.19,1.97-.57.51-.38,1.09-1.08,1.74-2.1l2.69,1.5c-.42.71-.85,1.32-1.32,1.82s-.96.92-1.49,1.25c-.53.33-1.1.56-1.71.71s-1.28.23-2,.23c-2.06,0-3.71-.66-4.96-1.98-1.25-1.33-1.87-3.1-1.87-5.3s.6-3.95,1.81-5.3c1.22-1.33,2.83-2,4.84-2s3.63.65,4.81,1.94c1.17,1.28,1.76,3.06,1.76,5.34v.75Zm-3.27-2.61c-.44-1.7-1.51-2.55-3.21-2.55-.39,0-.75.06-1.09.18s-.65.29-.93.51c-.28.22-.52.49-.71.8-.2.31-.35.67-.45,1.06h6.4Z"/>
            <path d="m366.99,563.22h3.2v13.79h-3.2v-1.44c-1.31,1.23-2.72,1.84-4.23,1.84-1.91,0-3.48-.69-4.73-2.07-1.24-1.41-1.86-3.16-1.86-5.27s.62-3.79,1.86-5.17c1.24-1.38,2.78-2.07,4.64-2.07,1.6,0,3.04.66,4.32,1.98v-1.6Zm-7.56,6.85c0,1.32.35,2.4,1.06,3.23.73.84,1.64,1.26,2.75,1.26,1.18,0,2.13-.41,2.86-1.22.73-.84,1.09-1.91,1.09-3.2s-.36-2.36-1.09-3.2c-.73-.82-1.67-1.23-2.83-1.23-1.09,0-2.01.42-2.75,1.25-.73.84-1.09,1.88-1.09,3.12Z"/>
            <path d="m268.38,593.05v18.76h-3.3v-18.76h-5.03v-3.1h13.34v3.1h-5.01Z"/>
            <path d="m274.74,598.02h3.19v1.23c.58-.61,1.1-1.03,1.56-1.26.46-.24,1.01-.35,1.64-.35.84,0,1.72.27,2.63.82l-1.46,2.92c-.6-.43-1.2-.65-1.77-.65-1.74,0-2.61,1.31-2.61,3.94v7.15h-3.19v-13.79Z"/>
            <path d="m285.54,592.28c0-.56.2-1.04.61-1.44.41-.41.89-.61,1.46-.61s1.07.2,1.47.61c.41.4.61.88.61,1.46s-.2,1.07-.61,1.47c-.4.41-.88.61-1.46.61s-1.07-.2-1.47-.61c-.41-.41-.61-.9-.61-1.49Zm3.67,5.74v13.79h-3.19v-13.79h3.19Z"/>
            <path d="m303.98,598.61v4.23c-.73-.89-1.38-1.5-1.95-1.83-.57-.34-1.23-.51-2-.51-1.2,0-2.2.42-2.99,1.26-.79.84-1.19,1.89-1.19,3.16s.38,2.36,1.15,3.19c.77.83,1.76,1.25,2.96,1.25.76,0,1.44-.17,2.02-.5.57-.32,1.23-.94,2-1.87v4.21c-1.29.67-2.59,1.01-3.88,1.01-2.13,0-3.92-.69-5.35-2.07-1.43-1.39-2.15-3.11-2.15-5.17s.73-3.79,2.18-5.21,3.24-2.12,5.35-2.12c1.36,0,2.64.33,3.85.98Z"/>
            <path d="m317.23,598.02h3.2v13.79h-3.2v-1.44c-1.31,1.23-2.72,1.84-4.23,1.84-1.91,0-3.48-.69-4.73-2.07-1.24-1.41-1.85-3.16-1.85-5.27s.62-3.79,1.85-5.17c1.24-1.38,2.79-2.07,4.64-2.07,1.61,0,3.04.66,4.32,1.98v-1.6Zm-7.56,6.85c0,1.32.35,2.4,1.06,3.23.73.84,1.64,1.26,2.75,1.26,1.18,0,2.13-.41,2.86-1.22.73-.84,1.09-1.91,1.09-3.2s-.36-2.36-1.09-3.2c-.73-.82-1.67-1.23-2.83-1.23-1.1,0-2.01.42-2.75,1.25-.73.84-1.09,1.88-1.09,3.12Z"/>
            <path d="m324.45,598.02h3.19v1.23c.59-.61,1.11-1.03,1.56-1.26.46-.24,1.01-.35,1.64-.35.84,0,1.72.27,2.63.82l-1.46,2.92c-.6-.43-1.19-.65-1.77-.65-1.74,0-2.61,1.31-2.61,3.94v7.15h-3.19v-13.79Z"/>
            <path d="m335.26,592.28c0-.56.2-1.04.61-1.44.41-.41.89-.61,1.46-.61s1.07.2,1.47.61c.41.4.61.88.61,1.46s-.2,1.07-.61,1.47c-.4.41-.88.61-1.46.61s-1.07-.2-1.47-.61-.61-.9-.61-1.49Zm3.67,5.74v13.79h-3.19v-13.79h3.19Z"/>
            <path d="m353.69,598.61v4.23c-.73-.89-1.38-1.5-1.95-1.83-.57-.34-1.23-.51-2-.51-1.2,0-2.19.42-2.99,1.26-.79.84-1.19,1.89-1.19,3.16s.38,2.36,1.15,3.19c.77.83,1.76,1.25,2.96,1.25.77,0,1.44-.17,2.03-.5.57-.32,1.23-.94,2-1.87v4.21c-1.29.67-2.59,1.01-3.88,1.01-2.13,0-3.92-.69-5.35-2.07-1.43-1.39-2.15-3.11-2.15-5.17s.73-3.79,2.18-5.21c1.45-1.42,3.24-2.12,5.35-2.12,1.36,0,2.64.33,3.85.98Z"/>
            <path d="m356.13,604.81c0-1.99.71-3.69,2.14-5.08,1.43-1.4,3.16-2.1,5.21-2.1s3.8.7,5.24,2.11c1.42,1.41,2.12,3.13,2.12,5.18s-.71,3.8-2.14,5.2c-1.43,1.39-3.2,2.08-5.28,2.08s-3.8-.71-5.2-2.12c-1.4-1.4-2.1-3.15-2.1-5.27Zm3.26.06c0,1.38.37,2.47,1.1,3.27.76.81,1.75,1.22,2.99,1.22s2.24-.4,2.99-1.2c.75-.8,1.12-1.87,1.12-3.21s-.37-2.41-1.12-3.21c-.76-.81-1.75-1.22-2.99-1.22s-2.2.41-2.96,1.22c-.76.81-1.13,1.86-1.13,3.14Z"/>
            <path d="m14.27,630.86c1.21,0,2.25.45,3.12,1.36.88.9,1.32,1.97,1.32,3.23s-.44,2.37-1.32,3.26c-.88.9-1.94,1.34-3.19,1.34s-2.29-.45-3.19-1.34c-.88-.91-1.32-1.99-1.32-3.24s.44-2.37,1.33-3.26c.9-.9,1.98-1.35,3.24-1.35Z"/>
            <path d="m52.55,624.74v21.86h-3.3v-21.86h3.3Z"/>
            <path d="m60.38,622.69v23.92h-3.19v-23.92h3.19Z"/>
            <path d="m79.21,627.83h-3.78l1.81-3.09h5.27v21.86h-3.3v-18.78Z"/>
            <path d="m94.22,643.51h8.14v3.1h-14.68l7.59-9.19c.75-.92,1.37-1.71,1.88-2.38.5-.67.89-1.23,1.15-1.69.54-.89.81-1.69.81-2.39,0-1.02-.36-1.87-1.08-2.56s-1.6-1.03-2.66-1.03c-2.21,0-3.47,1.31-3.79,3.92h-3.29c.53-4.61,2.86-6.91,6.98-6.91,1.99,0,3.66.63,5.01,1.9,1.36,1.26,2.04,2.83,2.04,4.7,0,1.19-.32,2.36-.95,3.5-.32.59-.79,1.3-1.41,2.12-.62.82-1.4,1.78-2.34,2.9l-3.4,4.02Z"/>
            <path d="m108.84,642.52l2.83,1.1-4.04,8.09-2.15-.89,3.36-8.3Z"/>
            <path d="m126.1,627.83h-10.79v-3.09h16.3l-13.79,22.61-2.62-1.66,10.9-17.87Z"/>
            <path d="m132.8,629.6c0-1.37.52-2.56,1.57-3.57,1.07-1.01,2.3-1.52,3.7-1.52s2.67.51,3.71,1.53c1.04,1.01,1.56,2.22,1.56,3.62s-.52,2.63-1.56,3.64c-1.04,1.01-2.29,1.52-3.75,1.52s-2.67-.51-3.7-1.54c-1.02-1.03-1.53-2.26-1.53-3.68Zm2.46.04c0,.79.27,1.46.82,2.01.55.55,1.21.82,2,.82s1.42-.27,1.97-.82c.55-.55.82-1.21.82-1.98s-.27-1.42-.82-1.97-1.21-.82-1.98-.82-1.43.27-1.98.82c-.55.55-.82,1.19-.82,1.94Zm15.22-5.28l1.54.88-12.52,21.72-1.56-.93,12.53-21.67Zm-3.85,17.22c0-1.36.52-2.54,1.57-3.55,1.07-1.01,2.3-1.51,3.7-1.51s2.69.51,3.72,1.53c1.04,1.01,1.56,2.22,1.56,3.62s-.52,2.64-1.57,3.64c-1.03,1-2.28,1.5-3.75,1.5s-2.67-.51-3.7-1.53c-1.02-1.02-1.53-2.25-1.53-3.7Zm2.48.06c0,.79.27,1.46.81,2.01.55.55,1.21.82,2,.82s1.43-.27,1.97-.82c.55-.55.82-1.21.82-1.98s-.27-1.44-.82-1.98c-.54-.55-1.2-.82-1.98-.82s-1.42.27-1.97.82c-.55.55-.82,1.2-.82,1.95Z"/>
            <path d="m177.25,635.17l-2.63,1.4c-.42-.85-.93-1.28-1.54-1.28-.29,0-.54.1-.75.29s-.31.44-.31.74c0,.53.61,1.05,1.84,1.57,1.69.73,2.83,1.4,3.41,2.01.59.61.88,1.44.88,2.48,0,1.33-.49,2.45-1.47,3.34-.95.85-2.11,1.27-3.46,1.27-2.31,0-3.95-1.13-4.91-3.38l2.72-1.26c.38.66.67,1.08.86,1.26.39.36.85.54,1.39.54,1.08,0,1.61-.49,1.61-1.47,0-.57-.42-1.1-1.25-1.59-.32-.16-.64-.32-.96-.47-.32-.15-.65-.31-.98-.47-.93-.45-1.58-.91-1.95-1.36-.48-.58-.72-1.32-.72-2.22,0-1.2.41-2.19,1.23-2.97.84-.78,1.86-1.17,3.06-1.17,1.76,0,3.08.91,3.94,2.73Z"/>
            <path d="m184.28,635.79v10.82h-3.19v-10.82h-1.36v-2.97h1.36v-5.06h3.19v5.06h2.48v2.97h-2.48Z"/>
            <path d="m192.11,632.82v7.92c0,2.29.9,3.43,2.7,3.43s2.71-1.14,2.71-3.43v-7.92h3.19v7.99c0,1.1-.14,2.06-.41,2.86-.26.72-.72,1.36-1.37,1.94-1.08.94-2.45,1.4-4.11,1.4s-3.02-.47-4.09-1.4c-.66-.58-1.13-1.22-1.4-1.94-.26-.64-.4-1.6-.4-2.86v-7.99h3.19Z"/>
            <path d="m214.9,622.69h3.2v23.92h-3.2v-1.44c-1.26,1.23-2.68,1.84-4.26,1.84-1.89,0-3.46-.69-4.7-2.07-1.24-1.41-1.85-3.16-1.85-5.27s.62-3.78,1.85-5.15c1.23-1.39,2.77-2.08,4.63-2.08,1.62,0,3.06.66,4.33,1.98v-11.72Zm-7.56,16.98c0,1.32.35,2.4,1.06,3.23.73.84,1.64,1.26,2.75,1.26,1.18,0,2.13-.41,2.86-1.22.73-.84,1.09-1.91,1.09-3.2s-.36-2.36-1.09-3.2c-.73-.82-1.67-1.23-2.83-1.23-1.1,0-2.01.42-2.75,1.25-.73.84-1.09,1.88-1.09,3.12Z"/>
            <path d="m221.64,627.08c0-.56.2-1.04.61-1.44.41-.41.89-.61,1.46-.61s1.07.2,1.47.61c.41.4.61.88.61,1.46s-.2,1.07-.61,1.47c-.4.41-.88.61-1.46.61s-1.07-.2-1.47-.61-.61-.9-.61-1.49Zm3.67,5.74v13.79h-3.19v-13.79h3.19Z"/>
            <path d="m239.51,632.82h3.2v13.79h-3.2v-1.44c-1.31,1.23-2.72,1.84-4.23,1.84-1.91,0-3.48-.69-4.73-2.07-1.24-1.41-1.86-3.16-1.86-5.27s.62-3.79,1.86-5.17c1.24-1.38,2.79-2.07,4.64-2.07,1.61,0,3.04.66,4.32,1.98v-1.6Zm-7.56,6.85c0,1.32.35,2.4,1.06,3.23.73.84,1.64,1.26,2.75,1.26,1.18,0,2.13-.41,2.86-1.22.73-.84,1.09-1.91,1.09-3.2s-.36-2.36-1.09-3.2c-.73-.82-1.67-1.23-2.83-1.23-1.09,0-2.01.42-2.75,1.25-.73.84-1.09,1.88-1.09,3.12Z"/>
            <path d="m265.85,654.11v-9.05c-1.26,1.29-2.71,1.94-4.33,1.94-1.86,0-3.4-.68-4.63-2.05-1.24-1.38-1.86-3.1-1.86-5.17s.62-3.85,1.86-5.25c1.25-1.4,2.81-2.1,4.69-2.1,1.59,0,3.02.63,4.28,1.88v-1.5h3.2v21.3h-3.2Zm-7.56-14.47c0,1.33.36,2.41,1.08,3.24.72.85,1.63,1.28,2.73,1.28,1.17,0,2.12-.41,2.85-1.22.74-.82,1.11-1.89,1.11-3.2s-.36-2.36-1.09-3.2c-.73-.82-1.67-1.23-2.83-1.23-1.09,0-2.01.42-2.75,1.25-.73.84-1.09,1.87-1.09,3.09Z"/>
            <path d="m276.58,632.82v7.92c0,2.29.9,3.43,2.7,3.43s2.7-1.14,2.7-3.43v-7.92h3.19v7.99c0,1.1-.14,2.06-.41,2.86-.26.72-.72,1.36-1.37,1.94-1.08.94-2.45,1.4-4.11,1.4s-3.02-.47-4.09-1.4c-.66-.58-1.13-1.22-1.4-1.94-.26-.64-.4-1.6-.4-2.86v-7.99h3.19Z"/>
            <path d="m299.36,632.82h3.2v13.79h-3.2v-1.44c-1.31,1.23-2.72,1.84-4.23,1.84-1.91,0-3.48-.69-4.73-2.07-1.24-1.41-1.86-3.16-1.86-5.27s.62-3.79,1.86-5.17c1.24-1.38,2.78-2.07,4.64-2.07,1.6,0,3.04.66,4.32,1.98v-1.6Zm-7.56,6.85c0,1.32.35,2.4,1.06,3.23.73.84,1.64,1.26,2.75,1.26,1.18,0,2.13-.41,2.86-1.22.73-.84,1.09-1.91,1.09-3.2s-.36-2.36-1.09-3.2c-.73-.82-1.67-1.23-2.83-1.23-1.09,0-2.01.42-2.75,1.25-.73.84-1.09,1.88-1.09,3.12Z"/>
            <path d="m309.77,622.69v23.92h-3.19v-23.92h3.19Z"/>
            <path d="m324.54,633.41v4.23c-.73-.89-1.38-1.5-1.95-1.83-.57-.34-1.23-.51-2-.51-1.2,0-2.2.42-2.99,1.26-.79.84-1.19,1.89-1.19,3.16s.38,2.36,1.15,3.19c.77.83,1.76,1.25,2.96,1.25.76,0,1.44-.17,2.02-.5.57-.32,1.23-.94,2-1.87v4.21c-1.29.67-2.59,1.01-3.88,1.01-2.13,0-3.92-.69-5.35-2.07-1.43-1.39-2.15-3.11-2.15-5.17s.73-3.79,2.18-5.21,3.24-2.12,5.35-2.12c1.36,0,2.64.33,3.85.98Z"/>
            <path d="m326.98,639.61c0-1.99.71-3.69,2.14-5.08,1.43-1.4,3.16-2.1,5.21-2.1s3.8.7,5.24,2.11c1.42,1.41,2.12,3.13,2.12,5.18s-.71,3.8-2.14,5.2c-1.43,1.39-3.2,2.08-5.28,2.08s-3.8-.71-5.2-2.12c-1.4-1.4-2.1-3.15-2.1-5.27Zm3.26.06c0,1.38.37,2.47,1.1,3.27.75.81,1.75,1.22,2.99,1.22s2.24-.4,2.99-1.2,1.12-1.87,1.12-3.21-.37-2.41-1.12-3.21c-.76-.81-1.75-1.22-2.99-1.22s-2.2.41-2.96,1.22-1.13,1.86-1.13,3.14Z"/>
            <path d="m353.07,635.17l-2.63,1.4c-.42-.85-.93-1.28-1.54-1.28-.29,0-.54.1-.75.29-.21.19-.31.44-.31.74,0,.53.61,1.05,1.84,1.57,1.69.73,2.83,1.4,3.41,2.01.58.61.88,1.44.88,2.48,0,1.33-.49,2.45-1.47,3.34-.95.85-2.11,1.27-3.46,1.27-2.31,0-3.95-1.13-4.91-3.38l2.72-1.26c.38.66.67,1.08.86,1.26.39.36.85.54,1.39.54,1.08,0,1.61-.49,1.61-1.47,0-.57-.42-1.1-1.25-1.59-.32-.16-.64-.32-.96-.47s-.65-.31-.98-.47c-.92-.45-1.58-.91-1.95-1.36-.48-.58-.72-1.32-.72-2.22,0-1.2.41-2.19,1.23-2.97.84-.78,1.86-1.17,3.06-1.17,1.76,0,3.08.91,3.94,2.73Z"/>
            <path d="m366.99,632.82h3.2v13.79h-3.2v-1.44c-1.31,1.23-2.72,1.84-4.23,1.84-1.91,0-3.48-.69-4.73-2.07-1.24-1.41-1.86-3.16-1.86-5.27s.62-3.79,1.86-5.17c1.24-1.38,2.78-2.07,4.64-2.07,1.6,0,3.04.66,4.32,1.98v-1.6Zm-7.56,6.85c0,1.32.35,2.4,1.06,3.23.73.84,1.64,1.26,2.75,1.26,1.18,0,2.13-.41,2.86-1.22.73-.84,1.09-1.91,1.09-3.2s-.36-2.36-1.09-3.2c-.73-.82-1.67-1.23-2.83-1.23-1.09,0-2.01.42-2.75,1.25-.73.84-1.09,1.88-1.09,3.12Z"/>
            <path d="m63.84,668.21v4.23c-.73-.89-1.38-1.5-1.96-1.83-.57-.34-1.23-.51-2-.51-1.2,0-2.2.42-2.99,1.26-.79.84-1.19,1.89-1.19,3.16s.38,2.36,1.15,3.19c.77.83,1.76,1.25,2.96,1.25.76,0,1.44-.17,2.02-.5.57-.32,1.23-.94,2-1.87v4.21c-1.29.67-2.59,1.01-3.88,1.01-2.13,0-3.92-.69-5.35-2.07-1.44-1.39-2.15-3.11-2.15-5.17s.73-3.79,2.18-5.21c1.45-1.42,3.24-2.12,5.35-2.12,1.36,0,2.64.33,3.85.98Z"/>
            <path d="m67.67,657.49h3.19v11.27c1.13-1.02,2.38-1.53,3.75-1.53,1.56,0,2.8.5,3.74,1.51.79.88,1.19,2.28,1.19,4.21v8.45h-3.19v-8.16c0-1.1-.2-1.9-.59-2.4-.39-.5-1.02-.74-1.89-.74-1.11,0-1.9.34-2.35,1.03-.44.7-.67,1.9-.67,3.6v6.67h-3.19v-23.92Z"/>
            <path d="m96.14,675.26h-9.88c.08,1.13.45,2.03,1.1,2.7.65.66,1.49.99,2.51.99.79,0,1.45-.19,1.97-.57.51-.38,1.09-1.08,1.74-2.1l2.69,1.5c-.42.71-.85,1.32-1.32,1.82s-.96.92-1.49,1.25c-.53.33-1.1.56-1.71.71s-1.28.23-2,.23c-2.06,0-3.71-.66-4.96-1.98-1.25-1.33-1.87-3.1-1.87-5.3s.6-3.95,1.81-5.3c1.22-1.33,2.83-2,4.84-2s3.63.65,4.81,1.94c1.17,1.28,1.76,3.06,1.76,5.34v.75Zm-3.27-2.61c-.44-1.7-1.51-2.55-3.21-2.55-.39,0-.75.06-1.09.18s-.65.29-.93.51c-.28.22-.52.49-.71.8-.2.31-.35.67-.45,1.06h6.4Z"/>
            <path d="m111.76,688.91h-3.19v-21.3h3.19v1.5c1.25-1.26,2.68-1.88,4.28-1.88,1.9,0,3.46.7,4.69,2.1,1.25,1.39,1.87,3.14,1.87,5.25s-.62,3.79-1.86,5.17c-1.23,1.37-2.78,2.05-4.64,2.05-1.61,0-3.06-.65-4.33-1.94v9.05Zm7.58-14.32c0-1.32-.36-2.4-1.08-3.23-.73-.84-1.64-1.26-2.75-1.26-1.17,0-2.12.41-2.85,1.22-.73.81-1.09,1.88-1.09,3.2s.36,2.36,1.09,3.2c.72.82,1.66,1.23,2.83,1.23,1.1,0,2.02-.42,2.73-1.25.74-.83,1.1-1.87,1.1-3.12Z"/>
            <path d="m125.31,674.41c0-1.99.71-3.69,2.14-5.08,1.42-1.4,3.16-2.1,5.21-2.1s3.8.7,5.24,2.11c1.42,1.41,2.12,3.13,2.12,5.18s-.71,3.8-2.14,5.2c-1.44,1.39-3.2,2.08-5.28,2.08s-3.8-.71-5.2-2.12c-1.4-1.4-2.1-3.15-2.1-5.27Zm3.26.06c0,1.38.37,2.47,1.1,3.27.76.81,1.75,1.22,2.99,1.22s2.24-.4,2.99-1.2,1.12-1.87,1.12-3.21-.37-2.41-1.12-3.21c-.75-.81-1.75-1.22-2.99-1.22s-2.21.41-2.96,1.22-1.13,1.86-1.13,3.14Z"/>
            <path d="m146.84,670.59v10.82h-3.19v-10.82h-1.36v-2.97h1.36v-5.06h3.19v5.06h2.48v2.97h-2.48Z"/>
            <path d="m151.49,667.62h3.19v1.23c.58-.61,1.1-1.03,1.56-1.26.46-.24,1.01-.35,1.64-.35.84,0,1.72.27,2.63.82l-1.46,2.92c-.6-.43-1.2-.65-1.77-.65-1.74,0-2.61,1.31-2.61,3.94v7.15h-3.19v-13.79Z"/>
            <path d="m174.7,675.26h-9.88c.08,1.13.45,2.03,1.1,2.7.65.66,1.49.99,2.51.99.79,0,1.45-.19,1.97-.57.51-.38,1.09-1.08,1.74-2.1l2.69,1.5c-.42.71-.85,1.32-1.32,1.82s-.96.92-1.49,1.25c-.53.33-1.1.56-1.71.71s-1.28.23-2,.23c-2.06,0-3.71-.66-4.96-1.98-1.25-1.33-1.87-3.1-1.87-5.3s.6-3.95,1.81-5.3c1.22-1.33,2.83-2,4.84-2s3.63.65,4.81,1.94c1.17,1.28,1.76,3.06,1.76,5.34v.75Zm-3.27-2.61c-.44-1.7-1.51-2.55-3.21-2.55-.39,0-.75.06-1.09.18s-.65.29-.93.51c-.28.22-.52.49-.71.8-.2.31-.35.67-.45,1.06h6.4Z"/>
            <path d="m181.37,657.49v11.72c1.27-1.32,2.72-1.98,4.33-1.98,1.86,0,3.41.69,4.64,2.08,1.24,1.38,1.86,3.1,1.86,5.15s-.62,3.88-1.87,5.27c-1.24,1.38-2.8,2.07-4.69,2.07-1.59,0-3.02-.61-4.28-1.84v1.44h-3.19v-23.92h3.19Zm7.58,17.12c0-1.32-.36-2.4-1.08-3.23-.73-.85-1.64-1.27-2.73-1.27-1.17,0-2.12.41-2.86,1.23-.73.81-1.09,1.87-1.09,3.17s.36,2.41,1.08,3.21c.72.82,1.66,1.23,2.83,1.23,1.1,0,2.02-.41,2.75-1.23.74-.83,1.1-1.87,1.1-3.12Z"/>
            <path d="m198.76,657.49v11.72c1.27-1.32,2.72-1.98,4.33-1.98,1.86,0,3.41.69,4.64,2.08,1.24,1.38,1.86,3.1,1.86,5.15s-.62,3.88-1.87,5.27c-1.24,1.38-2.8,2.07-4.69,2.07-1.59,0-3.02-.61-4.28-1.84v1.44h-3.19v-23.92h3.19Zm7.58,17.12c0-1.32-.36-2.4-1.08-3.23-.73-.85-1.64-1.27-2.73-1.27-1.17,0-2.12.41-2.86,1.23-.73.81-1.09,1.87-1.09,3.17s.36,2.41,1.08,3.21c.72.82,1.66,1.23,2.83,1.23,1.1,0,2.02-.41,2.75-1.23.74-.83,1.1-1.87,1.1-3.12Z"/>
            <path d="m225.52,675.26h-9.88c.08,1.13.45,2.03,1.1,2.7.65.66,1.49.99,2.51.99.79,0,1.45-.19,1.97-.57.51-.38,1.09-1.08,1.74-2.1l2.69,1.5c-.42.71-.85,1.32-1.32,1.82-.46.5-.96.92-1.49,1.25-.53.33-1.1.56-1.71.71-.61.15-1.28.23-2,.23-2.06,0-3.71-.66-4.96-1.98-1.25-1.33-1.87-3.1-1.87-5.3s.6-3.95,1.81-5.3c1.22-1.33,2.83-2,4.84-2s3.63.65,4.81,1.94c1.17,1.28,1.76,3.06,1.76,5.34v.75Zm-3.27-2.61c-.44-1.7-1.51-2.55-3.21-2.55-.39,0-.75.06-1.09.18s-.65.29-.93.51-.52.49-.71.8c-.2.31-.35.67-.45,1.06h6.4Z"/>
            <path d="m245.96,669.97l-2.63,1.4c-.42-.85-.93-1.28-1.54-1.28-.29,0-.54.1-.75.29-.21.19-.31.44-.31.74,0,.53.61,1.05,1.84,1.57,1.69.73,2.83,1.4,3.41,2.01.58.61.88,1.44.88,2.48,0,1.33-.49,2.45-1.47,3.34-.95.85-2.11,1.27-3.46,1.27-2.31,0-3.95-1.13-4.91-3.38l2.72-1.26c.38.66.67,1.08.86,1.26.39.36.85.54,1.39.54,1.08,0,1.61-.49,1.61-1.47,0-.57-.42-1.1-1.25-1.59-.32-.16-.64-.32-.96-.47s-.65-.31-.98-.47c-.92-.45-1.58-.91-1.95-1.36-.48-.58-.72-1.32-.72-2.22,0-1.2.41-2.19,1.23-2.97.84-.78,1.86-1.17,3.06-1.17,1.76,0,3.08.91,3.94,2.73Z"/>
            <path d="m253,670.59v10.82h-3.19v-10.82h-1.36v-2.97h1.36v-5.06h3.19v5.06h2.48v2.97h-2.48Z"/>
            <path d="m260.83,667.62v7.92c0,2.29.9,3.43,2.7,3.43s2.7-1.14,2.7-3.43v-7.92h3.19v7.99c0,1.1-.14,2.06-.41,2.86-.26.72-.72,1.36-1.37,1.94-1.08.94-2.45,1.4-4.11,1.4s-3.02-.47-4.09-1.4c-.66-.58-1.13-1.22-1.4-1.94-.26-.64-.4-1.6-.4-2.86v-7.99h3.19Z"/>
            <path d="m283.62,657.49h3.2v23.92h-3.2v-1.44c-1.26,1.23-2.68,1.84-4.26,1.84-1.89,0-3.46-.69-4.7-2.07-1.24-1.41-1.86-3.16-1.86-5.27s.62-3.78,1.86-5.15c1.23-1.39,2.77-2.08,4.63-2.08,1.61,0,3.06.66,4.33,1.98v-11.72Zm-7.56,16.98c0,1.32.35,2.4,1.06,3.23.73.84,1.64,1.26,2.75,1.26,1.18,0,2.13-.41,2.86-1.22.73-.84,1.09-1.91,1.09-3.2s-.36-2.36-1.09-3.2c-.73-.82-1.67-1.23-2.83-1.23-1.09,0-2.01.42-2.75,1.25-.73.84-1.09,1.88-1.09,3.12Z"/>
            <path d="m290.36,661.88c0-.56.2-1.04.61-1.44.41-.41.89-.61,1.46-.61s1.07.2,1.47.61c.41.4.61.88.61,1.46s-.2,1.07-.61,1.47c-.4.41-.88.61-1.46.61s-1.07-.2-1.47-.61c-.41-.41-.61-.9-.61-1.49Zm3.67,5.74v13.79h-3.19v-13.79h3.19Z"/>
            <path d="m308.23,667.62h3.2v13.79h-3.2v-1.44c-1.31,1.23-2.72,1.84-4.23,1.84-1.91,0-3.48-.69-4.73-2.07-1.24-1.41-1.85-3.16-1.85-5.27s.62-3.79,1.85-5.17c1.24-1.38,2.79-2.07,4.64-2.07,1.61,0,3.04.66,4.32,1.98v-1.6Zm-7.56,6.85c0,1.32.35,2.4,1.06,3.23.73.84,1.64,1.26,2.75,1.26,1.18,0,2.13-.41,2.86-1.22.73-.84,1.09-1.91,1.09-3.2s-.36-2.36-1.09-3.2c-.73-.82-1.67-1.23-2.83-1.23-1.1,0-2.01.42-2.75,1.25-.73.84-1.09,1.88-1.09,3.12Z"/>
            <path d="m315.45,667.62h3.19v1.23c.59-.61,1.11-1.03,1.56-1.26.46-.24,1.01-.35,1.64-.35.84,0,1.72.27,2.63.82l-1.46,2.92c-.6-.43-1.19-.65-1.77-.65-1.74,0-2.61,1.31-2.61,3.94v7.15h-3.19v-13.79Z"/>
            <path d="m338.66,675.26h-9.88c.09,1.13.45,2.03,1.11,2.7.65.66,1.49.99,2.51.99.79,0,1.45-.19,1.97-.57.51-.38,1.09-1.08,1.74-2.1l2.69,1.5c-.42.71-.85,1.32-1.32,1.82-.46.5-.96.92-1.49,1.25-.53.33-1.1.56-1.71.71-.61.15-1.28.23-2,.23-2.06,0-3.71-.66-4.96-1.98-1.25-1.33-1.87-3.1-1.87-5.3s.6-3.95,1.81-5.3c1.22-1.33,2.83-2,4.84-2s3.63.65,4.81,1.94c1.17,1.28,1.76,3.06,1.76,5.34v.75Zm-3.27-2.61c-.44-1.7-1.52-2.55-3.21-2.55-.39,0-.75.06-1.09.18s-.65.29-.93.51c-.28.22-.52.49-.71.8-.2.31-.35.67-.45,1.06h6.4Z"/>
            <path d="m350.61,661.88c0-.56.2-1.04.61-1.44.41-.41.89-.61,1.46-.61s1.07.2,1.47.61c.41.4.61.88.61,1.46s-.2,1.07-.61,1.47c-.4.41-.88.61-1.46.61s-1.07-.2-1.47-.61-.61-.9-.61-1.49Zm3.67,5.74v13.79h-3.19v-13.79h3.19Z"/>
            <path d="m358.31,667.62h3.2v1.27c1.11-1.1,2.37-1.66,3.77-1.66,1.6,0,2.86.5,3.75,1.51.77.86,1.16,2.26,1.16,4.21v8.45h-3.2v-7.7c0-1.36-.19-2.3-.57-2.82-.37-.53-1.04-.79-2.01-.79-1.06,0-1.81.35-2.25,1.05-.43.69-.65,1.89-.65,3.61v6.66h-3.2v-13.79Z"/>
            <path d="m250.07,716.21v-21.86h3.29c1.46,0,2.63.11,3.5.34.88.23,1.62.61,2.22,1.15.61.56,1.1,1.25,1.46,2.08.37.84.55,1.69.55,2.55,0,1.57-.6,2.89-1.8,3.98,1.16.4,2.08,1.09,2.75,2.08.68.98,1.02,2.12,1.02,3.43,0,1.71-.6,3.15-1.81,4.33-.73.73-1.54,1.23-2.45,1.52-.99.27-2.23.41-3.72.41h-5Zm3.3-12.47h1.03c1.23,0,2.13-.27,2.7-.81s.86-1.34.86-2.4-.29-1.81-.88-2.34-1.43-.8-2.55-.8h-1.16v6.36Zm0,9.37h2.04c1.49,0,2.59-.29,3.29-.88.74-.63,1.1-1.44,1.1-2.41s-.35-1.74-1.06-2.38c-.69-.63-1.92-.95-3.7-.95h-1.67v6.61Z"/>
            <path d="m276.78,702.42h3.2v13.79h-3.2v-1.44c-1.31,1.23-2.72,1.84-4.23,1.84-1.91,0-3.48-.69-4.73-2.07-1.24-1.41-1.86-3.16-1.86-5.27s.62-3.79,1.86-5.17c1.24-1.38,2.79-2.07,4.64-2.07,1.61,0,3.04.66,4.32,1.98v-1.6Zm-7.56,6.85c0,1.32.35,2.4,1.06,3.23.73.84,1.64,1.26,2.75,1.26,1.18,0,2.13-.41,2.86-1.22.73-.84,1.09-1.91,1.09-3.2s-.36-2.36-1.09-3.2c-.73-.82-1.67-1.23-2.83-1.23-1.09,0-2.01.42-2.75,1.25-.73.84-1.09,1.88-1.09,3.12Z"/>
            <path d="m292.01,704.77l-2.63,1.4c-.42-.85-.93-1.28-1.54-1.28-.29,0-.54.1-.75.29-.21.19-.31.44-.31.74,0,.53.61,1.05,1.84,1.57,1.69.73,2.83,1.4,3.41,2.01.58.61.88,1.44.88,2.48,0,1.33-.49,2.45-1.47,3.34-.95.85-2.11,1.27-3.46,1.27-2.31,0-3.95-1.13-4.91-3.38l2.72-1.26c.38.66.67,1.08.86,1.26.39.36.85.54,1.39.54,1.08,0,1.61-.49,1.61-1.47,0-.57-.42-1.1-1.25-1.59-.32-.16-.64-.32-.96-.47s-.65-.31-.98-.47c-.92-.45-1.58-.91-1.95-1.36-.48-.58-.72-1.32-.72-2.22,0-1.2.41-2.19,1.23-2.97.84-.78,1.86-1.17,3.06-1.17,1.76,0,3.08.91,3.94,2.73Z"/>
            <path d="m295.28,696.68c0-.56.2-1.04.61-1.44.41-.41.89-.61,1.46-.61s1.07.2,1.47.61c.41.4.61.88.61,1.46s-.2,1.07-.61,1.47c-.4.41-.88.61-1.46.61s-1.07-.2-1.47-.61c-.41-.41-.61-.9-.61-1.49Zm3.67,5.74v13.79h-3.19v-13.79h3.19Z"/>
            <path d="m306.17,692.29v23.92h-3.19v-23.92h3.19Z"/>
            <path d="m309.73,696.68c0-.56.2-1.04.61-1.44.41-.41.89-.61,1.46-.61s1.07.2,1.47.61c.41.4.61.88.61,1.46s-.2,1.07-.61,1.47c-.4.41-.88.61-1.46.61s-1.07-.2-1.47-.61c-.41-.41-.61-.9-.61-1.49Zm3.67,5.74v13.79h-3.19v-13.79h3.19Z"/>
            <path d="m328.16,703.01v4.23c-.73-.89-1.38-1.5-1.95-1.83-.57-.34-1.23-.51-2-.51-1.2,0-2.2.42-2.99,1.26-.79.84-1.19,1.89-1.19,3.16s.38,2.36,1.15,3.19c.77.83,1.76,1.25,2.96,1.25.76,0,1.44-.17,2.02-.5.57-.32,1.23-.94,2-1.87v4.21c-1.29.67-2.59,1.01-3.88,1.01-2.13,0-3.92-.69-5.35-2.07-1.43-1.39-2.15-3.11-2.15-5.17s.73-3.79,2.18-5.21,3.24-2.12,5.35-2.12c1.36,0,2.64.33,3.85.98Z"/>
            <path d="m341.42,702.42h3.2v13.79h-3.2v-1.44c-1.31,1.23-2.72,1.84-4.23,1.84-1.91,0-3.48-.69-4.73-2.07-1.24-1.41-1.85-3.16-1.85-5.27s.62-3.79,1.85-5.17c1.24-1.38,2.79-2.07,4.64-2.07,1.61,0,3.04.66,4.32,1.98v-1.6Zm-7.56,6.85c0,1.32.35,2.4,1.06,3.23.73.84,1.64,1.26,2.75,1.26,1.18,0,2.13-.41,2.86-1.22.73-.84,1.09-1.91,1.09-3.2s-.36-2.36-1.09-3.2c-.73-.82-1.67-1.23-2.83-1.23-1.1,0-2.01.42-2.75,1.25-.73.84-1.09,1.88-1.09,3.12Z"/>
            <path d="m351.93,705.39v10.82h-3.19v-10.82h-1.36v-2.97h1.36v-5.06h3.19v5.06h2.48v2.97h-2.48Z"/>
            <path d="m366.99,702.42h3.2v13.79h-3.2v-1.44c-1.31,1.23-2.72,1.84-4.23,1.84-1.91,0-3.48-.69-4.73-2.07-1.24-1.41-1.86-3.16-1.86-5.27s.62-3.79,1.86-5.17c1.24-1.38,2.78-2.07,4.64-2.07,1.6,0,3.04.66,4.32,1.98v-1.6Zm-7.56,6.85c0,1.32.35,2.4,1.06,3.23.73.84,1.64,1.26,2.75,1.26,1.18,0,2.13-.41,2.86-1.22.73-.84,1.09-1.91,1.09-3.2s-.36-2.36-1.09-3.2c-.73-.82-1.67-1.23-2.83-1.23-1.09,0-2.01.42-2.75,1.25-.73.84-1.09,1.88-1.09,3.12Z"/>
          </g>
        </g>
      </g>
      <g>
        <g>
          <path class="cls-13" d="m168.83,334.01c-44.06.69-80.76-35.43-80.76-79.49,0-40.41,30.15-73.78,69.19-78.83,4.12-.53,7.21-4.04,7.21-8.2v-14.73c0-4.88-4.2-8.72-9.06-8.24-26.7,2.66-49.77,14.26-68.71,34.57-20.14,21.6-30.67,49.75-29.64,79.27,1.03,29.52,13.49,56.87,35.1,77.01,21.6,20.14,49.76,30.67,79.27,29.64,25.38-.89,49.16-10.22,68.13-26.55,3.74-3.22,3.87-8.97.26-12.34l-10.7-9.98c-3.05-2.84-7.72-2.96-10.93-.31-13.45,11.12-30.61,17.89-49.35,18.18Z"/>
          <path class="cls-14" d="m245.76,176.31c-17.96-17.96-41-28.98-65.88-31.71-4.91-.54-9.2,3.29-9.2,8.23v14.66c0,4.13,3.05,7.67,7.15,8.2,39.07,5.03,69.25,38.41,69.25,78.84,0,17.25-5.5,33.22-14.84,46.26-2.41,3.36-1.91,8,1.12,10.82l10.75,10.03c3.58,3.34,9.26,2.85,12.23-1.04,14.66-19.2,21.81-40.94,21.81-66.08,0-29.54-11.5-57.3-32.39-78.19Z"/>
        </g>
        <g>
          <rect class="cls-14" x="342.89" y="168.28" width="212" height="173" rx="38.91" ry="38.91"/>
          <text class="cls-4" transform="translate(357.34 243.77)"><tspan class="cls-21" x="0" y="0">3</tspan><tspan x="19.02" y="0">7% L</tspan><tspan class="cls-19" x="94.85" y="0">a</tspan><tspan class="cls-23" x="115.04" y="0">v</tspan><tspan x="131.08" y="0">o</tspan><tspan class="cls-7" x="151.03" y="0">r</tspan><tspan x="163.15" y="0">o </tspan><tspan x="26.52" y="39.82">pubblico</tspan></text>
        </g>
      </g>
      <g>
        <rect class="cls-14" x="54.04" y="914" width="63.59" height="48.04" rx="24.02" ry="24.02"/>
        <rect class="cls-12" x="54.04" y="860.63" width="79.53" height="48.04" rx="24.02" ry="24.02"/>
        <rect class="cls-13" x="54.04" y="807.25" width="413.76" height="48.04" rx="24.02" ry="24.02"/>
        <rect class="cls-14" x="54.04" y="753.88" width="48.04" height="48.04" rx="24.02" ry="24.02"/>
        <text class="cls-3" transform="translate(150.8 894.39)"><tspan x="0" y="0">A</tspan><tspan class="cls-25" x="16.85" y="0">f</tspan><tspan class="cls-17" x="24.35" y="0">f</tspan><tspan x="31.58" y="0">ini</tspan><tspan class="cls-20" x="55.38" y="0">t</tspan><tspan class="cls-11" x="61.8" y="0">a</tspan><tspan x="75.76" y="0"> cultu</tspan><tspan class="cls-15" x="137.72" y="0">r</tspan><tspan x="146.07" y="0">ale</tspan></text>
        <text class="cls-3" transform="translate(150.8 945.07)"><tspan x="0" y="0">Alt</tspan><tspan class="cls-8" x="28.73" y="0">r</tspan><tspan x="37.04" y="0">o</tspan></text>
        <text class="cls-3" transform="translate(133.8 778.76)"><tspan class="cls-16" x="0" y="0">F</tspan><tspan x="11.41" y="0">amiglia</tspan></text>
        <text class="cls-3" transform="translate(491.8 836.45)"><tspan x="0" y="0">L</tspan><tspan class="cls-20" x="10.08" y="0">a</tspan><tspan class="cls-22" x="23.92" y="0">v</tspan><tspan x="34.92" y="0">o</tspan><tspan class="cls-8" x="48.59" y="0">r</tspan><tspan x="56.89" y="0">o</tspan></text>
        <text class="cls-6" transform="translate(55.89 790.9)"><tspan x="0" y="0">3,7</tspan></text>
        <text class="cls-6" transform="translate(391.04 840.96)"><tspan x="0" y="0">96,3</tspan></text>
        <text class="cls-6" transform="translate(60.92 896.34)"><tspan class="cls-18" x="0" y="0">1</tspan><tspan x="15.72" y="0">8,5</tspan></text>
        <text class="cls-6" transform="translate(55.98 948.71)"><tspan class="cls-1" x="0" y="0">1</tspan><tspan x="15.6" y="0">4,8</tspan></text>
      </g>
    </g>
  </g>
</svg>