<?xml version="1.0" encoding="UTF-8"?>
<svg id="Livello_2" data-name="Livello 2" xmlns="http://www.w3.org/2000/svg" viewBox="0 0 612.88 963.04">
  <defs>
    <style>
      .cls-1 {
        letter-spacing: -.08em;
      }

      .cls-2 {
        letter-spacing: -.02em;
      }

      .cls-3 {
        font-size: 22.74px;
      }

      .cls-3, .cls-4, .cls-5, .cls-6 {
        font-family: Futura-Medium, Futura;
        font-weight: 500;
      }

      .cls-7 {
        letter-spacing: 0em;
      }

      .cls-8 {
        letter-spacing: 0em;
      }

      .cls-9 {
        letter-spacing: -.02em;
      }

      .cls-10 {
        letter-spacing: 0em;
      }

      .cls-11 {
        letter-spacing: .01em;
      }

      .cls-12 {
        fill: #fbb03b;
      }

      .cls-12, .cls-13, .cls-14 {
        stroke: #000;
        stroke-miterlimit: 10;
        stroke-width: 2px;
      }

      .cls-15 {
        letter-spacing: 0em;
      }

      .cls-13 {
        fill: #dfad73;
      }

      .cls-14 {
        fill: #d0d2a3;
      }

      .cls-16 {
        letter-spacing: 0em;
      }

      .cls-4 {
        font-size: 33.18px;
      }

      .cls-17 {
        letter-spacing: .02em;
      }

      .cls-18 {
        letter-spacing: -.08em;
      }

      .cls-19 {
        letter-spacing: 0em;
      }

      .cls-20 {
        letter-spacing: 0em;
      }

      .cls-21 {
        letter-spacing: -.04em;
      }

      .cls-22 {
        letter-spacing: -.02em;
      }

      .cls-23 {
        letter-spacing: -.02em;
      }

      .cls-5 {
        font-size: 72px;
      }

      .cls-24 {
        letter-spacing: 0em;
      }

      .cls-6 {
        font-size: 29px;
      }

      .cls-25 {
        letter-spacing: .03em;
      }
    </style>
  </defs>
  <g id="Livello_8" data-name="Livello 8">
    <g>
      <text class="cls-5" transform="translate(108.59 63.4)"><tspan class="cls-24" x="0" y="0">V</tspan><tspan x="49.39" y="0">i</tspan><tspan class="cls-9" x="67.32" y="0">v</tspan><tspan x="102.27" y="0">e alt</tspan><tspan class="cls-10" x="245.11" y="0">r</tspan><tspan class="cls-2" x="271.41" y="0">o</tspan><tspan class="cls-9" x="313.24" y="0">v</tspan><tspan x="348.19" y="0">e </tspan></text>
      <g>
        <g>
          <path class="cls-12" d="m421.77,573.74c0-40.43,30.17-73.8,69.23-78.84,4.1-.53,7.14-4.06,7.14-8.2v-14.68c0-4.92-4.27-8.75-9.16-8.23-24.38,2.59-46.5,12.97-64.54,30.39-21.25,20.52-33.23,48.08-33.75,77.61-.44,25.39,7.64,49.62,22.95,69.42,3.02,3.91,8.76,4.33,12.31.9l10.55-10.18c2.99-2.89,3.36-7.55.88-10.89-9.8-13.22-15.61-29.58-15.61-47.31Z"/>
          <path class="cls-14" d="m536.61,494.13l6.46-13.25c2.13-4.38.06-9.66-4.5-11.37-8.29-3.1-16.36-4.96-25.16-5.81-4.86-.47-9.06,3.36-9.06,8.24v14.76c0,4.14,3.06,7.67,7.18,8.2,5.19.67,10.21,1.83,15.04,3.45,3.93,1.32,8.24-.49,10.05-4.22Z"/>
          <path class="cls-13" d="m605.8,537.73c-8.27-24.01-24.14-44.01-45.3-57.38-4.18-2.64-9.72-1.09-11.89,3.35l-6.42,13.15c-1.81,3.72-.62,8.22,2.83,10.5,21.74,14.36,36.02,39.11,35.74,67.18-.43,43.69-36.48,79.07-80.17,78.7-18.51-.15-35.5-6.63-48.94-17.37-3.23-2.58-7.89-2.32-10.86.55l-10.58,10.22c-3.55,3.43-3.31,9.15.47,12.33,6.64,5.57,13.66,10.04,22.09,14.15,54.8,26.73,121.13,3.89,147.86-50.91,12.95-26.55,14.78-56.55,5.17-84.47Z"/>
        </g>
        <g>
          <rect class="cls-13" x="101.4" y="432.78" width="93.08" height="40" rx="14.73" ry="14.73"/>
          <rect class="cls-14" x="144.29" y="606.78" width="77" height="40" rx="14.73" ry="14.73"/>
          <rect class="cls-12" x="67.73" y="537.78" width="72.56" height="40" rx="14.73" ry="14.73"/>
          <g>
            <path d="m58.41,447.46c1.21,0,2.25.45,3.12,1.36.88.9,1.32,1.97,1.32,3.23s-.44,2.37-1.32,3.26c-.88.9-1.94,1.34-3.19,1.34s-2.29-.45-3.19-1.34c-.88-.91-1.32-1.99-1.32-3.24s.44-2.37,1.33-3.26c.9-.9,1.98-1.35,3.24-1.35Z"/>
            <path d="m85.71,441.35v21.86h-3.3v-21.86h3.3Z"/>
            <path d="m93.54,439.29v23.92h-3.19v-23.92h3.19Z"/>
            <path d="m119.77,444.43h-6.74l-1.08,3.62c.16-.02.31-.03.46-.04.15,0,.28-.01.4-.01,2.12,0,3.87.72,5.23,2.15,1.37,1.43,2.05,3.25,2.05,5.48s-.77,4.2-2.32,5.69c-1.55,1.49-3.5,2.24-5.85,2.24-2.9,0-5.18-1.36-6.85-4.08l2.49-2.11c.69,1.17,1.38,2,2.08,2.48.7.47,1.55.71,2.56.71,1.32,0,2.43-.46,3.33-1.39.9-.95,1.34-2.11,1.34-3.47s-.44-2.54-1.33-3.43c-.89-.92-2-1.37-3.33-1.37-1.48,0-2.76.65-3.84,1.94h-1.09l3.44-11.5h9.03v3.09Z"/>
            <path d="m137.67,444.43h-6.74l-1.08,3.62c.16-.02.31-.03.46-.04.15,0,.28-.01.4-.01,2.12,0,3.87.72,5.23,2.15,1.37,1.43,2.05,3.25,2.05,5.48s-.77,4.2-2.32,5.69c-1.55,1.49-3.5,2.24-5.85,2.24-2.9,0-5.18-1.36-6.85-4.08l2.49-2.11c.69,1.17,1.38,2,2.08,2.48.7.47,1.55.71,2.56.71,1.32,0,2.43-.46,3.33-1.39.9-.95,1.34-2.11,1.34-3.47s-.44-2.54-1.33-3.43c-.89-.92-2-1.37-3.33-1.37-1.48,0-2.76.65-3.84,1.94h-1.09l3.44-11.5h9.03v3.09Z"/>
            <path d="m144.29,459.12l2.83,1.1-4.04,8.09-2.15-.89,3.36-8.3Z"/>
            <path d="m160.65,440.58l2.42,1.81-5.23,7.11c.28-.04.52-.07.72-.08.2-.02.35-.03.47-.03,1.77,0,3.31.68,4.6,2.04,1.28,1.34,1.93,2.96,1.93,4.84,0,2-.72,3.72-2.15,5.15s-3.14,2.14-5.14,2.14-3.72-.7-5.21-2.11c-1.46-1.41-2.2-3.07-2.2-5,0-1.73.71-3.56,2.14-5.49l7.65-10.38Zm1.7,15.9c0-1.16-.4-2.14-1.2-2.95-.81-.81-1.79-1.22-2.93-1.22s-2.13.4-2.93,1.2c-.8.8-1.2,1.77-1.2,2.92s.4,2.11,1.2,2.92c.8.8,1.79,1.2,2.95,1.2s2.1-.4,2.9-1.2c.81-.81,1.22-1.77,1.22-2.88Z"/>
            <path d="m168.25,446.2c0-1.37.52-2.56,1.57-3.57,1.07-1.01,2.3-1.52,3.7-1.52s2.67.51,3.71,1.53c1.04,1.01,1.56,2.22,1.56,3.62s-.52,2.63-1.56,3.64c-1.04,1.01-2.29,1.52-3.75,1.52s-2.67-.51-3.7-1.54c-1.02-1.03-1.53-2.26-1.53-3.68Zm2.46.04c0,.79.27,1.46.82,2.01.55.55,1.21.82,2,.82s1.42-.27,1.97-.82c.55-.55.82-1.21.82-1.98s-.27-1.42-.82-1.97-1.21-.82-1.98-.82-1.43.27-1.98.82c-.55.55-.82,1.19-.82,1.94Zm15.22-5.28l1.54.88-12.52,21.72-1.56-.93,12.53-21.67Zm-3.85,17.22c0-1.36.52-2.54,1.57-3.55,1.07-1.01,2.3-1.51,3.7-1.51s2.69.51,3.72,1.53c1.04,1.01,1.56,2.22,1.56,3.62s-.52,2.64-1.57,3.64c-1.03,1-2.28,1.5-3.75,1.5s-2.67-.51-3.7-1.53c-1.02-1.02-1.53-2.25-1.53-3.7Zm2.48.06c0,.79.27,1.46.81,2.01.55.55,1.21.82,2,.82s1.43-.27,1.97-.82c.55-.55.82-1.21.82-1.98s-.27-1.44-.82-1.98c-.54-.55-1.2-.82-1.98-.82s-1.42.27-1.97.82c-.55.55-.82,1.2-.82,1.95Z"/>
            <path d="m206.4,449.42l3.57,7.75,3.55-7.75h3.58l-7.17,14.74-7.11-14.74h3.57Z"/>
            <path d="m218.06,456.21c0-1.99.71-3.69,2.14-5.08,1.43-1.4,3.16-2.1,5.21-2.1s3.8.7,5.24,2.11c1.42,1.41,2.12,3.13,2.12,5.18s-.71,3.8-2.14,5.2c-1.43,1.39-3.2,2.08-5.28,2.08s-3.8-.71-5.2-2.12c-1.4-1.4-2.1-3.15-2.1-5.27Zm3.26.06c0,1.38.37,2.47,1.1,3.27.75.81,1.75,1.22,2.99,1.22s2.24-.4,2.99-1.2,1.12-1.87,1.12-3.21-.37-2.41-1.12-3.21c-.76-.81-1.75-1.22-2.99-1.22s-2.2.41-2.96,1.22-1.13,1.86-1.13,3.14Z"/>
            <path d="m236.14,449.42h3.19v1.23c.59-.61,1.1-1.03,1.56-1.26.46-.24,1.01-.35,1.64-.35.84,0,1.72.27,2.63.82l-1.46,2.92c-.6-.43-1.19-.65-1.77-.65-1.74,0-2.61,1.31-2.61,3.94v7.15h-3.19v-13.79Z"/>
            <path d="m247.42,449.42h3.19v1.23c.59-.61,1.11-1.03,1.56-1.26.46-.24,1.01-.35,1.64-.35.84,0,1.72.27,2.63.82l-1.46,2.92c-.6-.43-1.19-.65-1.77-.65-1.74,0-2.61,1.31-2.61,3.94v7.15h-3.19v-13.79Z"/>
            <path d="m270.63,457.06h-9.88c.09,1.13.45,2.03,1.11,2.7.65.66,1.49.99,2.51.99.79,0,1.45-.19,1.97-.57.51-.38,1.09-1.08,1.74-2.1l2.69,1.5c-.42.71-.85,1.32-1.32,1.82-.46.5-.96.92-1.49,1.25-.53.33-1.1.56-1.71.71-.61.15-1.28.23-2,.23-2.06,0-3.71-.66-4.96-1.98-1.25-1.33-1.87-3.1-1.87-5.3s.6-3.95,1.81-5.3c1.22-1.33,2.83-2,4.84-2s3.63.65,4.81,1.94c1.17,1.28,1.76,3.06,1.76,5.34v.75Zm-3.27-2.61c-.44-1.7-1.52-2.55-3.21-2.55-.39,0-.75.06-1.09.18s-.65.29-.93.51c-.28.22-.52.49-.71.8-.2.31-.35.67-.45,1.06h6.4Z"/>
            <path d="m277.3,439.29v11.72c1.27-1.32,2.72-1.98,4.33-1.98,1.86,0,3.41.69,4.64,2.08,1.24,1.38,1.86,3.1,1.86,5.15s-.62,3.88-1.87,5.27c-1.24,1.38-2.8,2.07-4.69,2.07-1.6,0-3.02-.61-4.28-1.84v1.44h-3.19v-23.92h3.19Zm7.58,17.12c0-1.32-.36-2.4-1.08-3.23-.73-.85-1.64-1.27-2.73-1.27-1.17,0-2.12.41-2.86,1.23-.73.81-1.09,1.87-1.09,3.17s.36,2.41,1.08,3.21c.72.82,1.66,1.23,2.83,1.23,1.11,0,2.02-.41,2.75-1.23.74-.83,1.1-1.87,1.1-3.12Z"/>
            <path d="m294.69,439.29v11.72c1.27-1.32,2.72-1.98,4.33-1.98,1.86,0,3.41.69,4.64,2.08,1.24,1.38,1.86,3.1,1.86,5.15s-.62,3.88-1.87,5.27c-1.24,1.38-2.8,2.07-4.69,2.07-1.6,0-3.02-.61-4.28-1.84v1.44h-3.19v-23.92h3.19Zm7.58,17.12c0-1.32-.36-2.4-1.08-3.23-.73-.85-1.64-1.27-2.73-1.27-1.17,0-2.12.41-2.86,1.23-.73.81-1.09,1.87-1.09,3.17s.36,2.41,1.08,3.21c.72.82,1.66,1.23,2.83,1.23,1.11,0,2.02-.41,2.75-1.23.74-.83,1.1-1.87,1.1-3.12Z"/>
            <path d="m321.45,457.06h-9.88c.08,1.13.45,2.03,1.1,2.7.65.66,1.49.99,2.51.99.79,0,1.45-.19,1.97-.57.51-.38,1.09-1.08,1.74-2.1l2.69,1.5c-.42.71-.85,1.32-1.32,1.82s-.96.92-1.49,1.25c-.53.33-1.1.56-1.71.71s-1.28.23-2,.23c-2.06,0-3.71-.66-4.96-1.98-1.25-1.33-1.87-3.1-1.87-5.3s.6-3.95,1.81-5.3c1.22-1.33,2.83-2,4.84-2s3.63.65,4.81,1.94c1.17,1.28,1.76,3.06,1.76,5.34v.75Zm-3.27-2.61c-.44-1.7-1.51-2.55-3.21-2.55-.39,0-.75.06-1.09.18s-.65.29-.93.51c-.28.22-.52.49-.71.8-.2.31-.35.67-.45,1.06h6.4Z"/>
            <path d="m333.89,449.42h3.19v1.27c.61-.64,1.14-1.08,1.57-1.3.46-.24,1.04-.35,1.74-.35,1.56,0,2.79.68,3.7,2.04,1-1.36,2.36-2.04,4.06-2.04,3.11,0,4.66,1.88,4.66,5.65v8.52h-3.2v-7.66c0-1.32-.16-2.26-.48-2.8-.33-.56-.87-.83-1.63-.83-.88,0-1.52.33-1.92.99s-.6,1.72-.6,3.19v7.12h-3.2v-7.62c0-2.45-.71-3.68-2.12-3.68-.9,0-1.55.33-1.96,1-.41.67-.62,1.73-.62,3.17v7.12h-3.19v-13.79Z"/>
            <path d="m366.99,449.42h3.2v13.79h-3.2v-1.44c-1.31,1.23-2.72,1.84-4.23,1.84-1.91,0-3.48-.69-4.73-2.07-1.24-1.41-1.86-3.16-1.86-5.27s.62-3.79,1.86-5.17c1.24-1.38,2.78-2.07,4.64-2.07,1.6,0,3.04.66,4.32,1.98v-1.6Zm-7.56,6.85c0,1.32.35,2.4,1.06,3.23.73.84,1.64,1.26,2.75,1.26,1.18,0,2.13-.41,2.86-1.22.73-.84,1.09-1.91,1.09-3.2s-.36-2.36-1.09-3.2c-.73-.82-1.67-1.23-2.83-1.23-1.09,0-2.01.42-2.75,1.25-.73.84-1.09,1.88-1.09,3.12Z"/>
            <path d="m63.48,484.22h3.2v1.27c1.11-1.1,2.37-1.66,3.77-1.66,1.6,0,2.86.5,3.75,1.51.77.86,1.16,2.26,1.16,4.21v8.45h-3.2v-7.7c0-1.36-.19-2.3-.57-2.82-.37-.53-1.04-.79-2.01-.79-1.06,0-1.81.35-2.25,1.05-.43.69-.65,1.89-.65,3.61v6.66h-3.2v-13.79Z"/>
            <path d="m78.73,491.01c0-1.99.71-3.69,2.14-5.08,1.42-1.4,3.16-2.1,5.21-2.1s3.8.7,5.24,2.11c1.42,1.41,2.12,3.13,2.12,5.18s-.71,3.8-2.14,5.2c-1.44,1.39-3.2,2.08-5.28,2.08s-3.8-.71-5.2-2.12c-1.4-1.4-2.1-3.15-2.1-5.27Zm3.26.06c0,1.38.37,2.47,1.11,3.27.75.81,1.75,1.22,2.99,1.22s2.24-.4,2.99-1.2c.75-.8,1.12-1.87,1.12-3.21s-.37-2.41-1.12-3.21c-.75-.81-1.75-1.22-2.99-1.22s-2.2.41-2.96,1.22c-.75.81-1.13,1.86-1.13,3.14Z"/>
            <path d="m96.82,484.22h3.2v1.27c1.11-1.1,2.37-1.66,3.77-1.66,1.61,0,2.86.5,3.75,1.51.77.86,1.16,2.26,1.16,4.21v8.45h-3.2v-7.7c0-1.36-.19-2.3-.57-2.82-.37-.53-1.04-.79-2.01-.79-1.06,0-1.81.35-2.25,1.05-.43.69-.65,1.89-.65,3.61v6.66h-3.2v-13.79Z"/>
            <path d="m124.85,505.51h-3.19v-21.3h3.19v1.5c1.26-1.26,2.68-1.88,4.28-1.88,1.9,0,3.46.7,4.69,2.1,1.25,1.39,1.87,3.14,1.87,5.25s-.62,3.79-1.85,5.17c-1.23,1.37-2.78,2.05-4.64,2.05-1.61,0-3.06-.65-4.33-1.94v9.05Zm7.58-14.32c0-1.32-.36-2.4-1.08-3.23-.73-.84-1.64-1.26-2.75-1.26-1.17,0-2.12.41-2.85,1.22s-1.09,1.88-1.09,3.2.36,2.36,1.09,3.2c.72.82,1.66,1.23,2.83,1.23,1.1,0,2.02-.42,2.73-1.25.74-.83,1.11-1.87,1.11-3.12Z"/>
            <path d="m138.4,491.01c0-1.99.71-3.69,2.14-5.08,1.43-1.4,3.16-2.1,5.21-2.1s3.8.7,5.24,2.11c1.42,1.41,2.12,3.13,2.12,5.18s-.71,3.8-2.14,5.2c-1.43,1.39-3.2,2.08-5.28,2.08s-3.8-.71-5.2-2.12c-1.4-1.4-2.1-3.15-2.1-5.27Zm3.26.06c0,1.38.37,2.47,1.1,3.27.76.81,1.75,1.22,2.99,1.22s2.24-.4,2.99-1.2c.75-.8,1.12-1.87,1.12-3.21s-.37-2.41-1.12-3.21c-.76-.81-1.75-1.22-2.99-1.22s-2.2.41-2.96,1.22c-.76.81-1.13,1.86-1.13,3.14Z"/>
            <path d="m159.94,487.19v10.82h-3.19v-10.82h-1.36v-2.97h1.36v-5.06h3.19v5.06h2.48v2.97h-2.48Z"/>
            <path d="m164.59,484.22h3.19v1.23c.58-.61,1.1-1.03,1.56-1.26.46-.24,1.01-.35,1.64-.35.84,0,1.72.27,2.63.82l-1.46,2.92c-.6-.43-1.19-.65-1.77-.65-1.74,0-2.61,1.31-2.61,3.94v7.15h-3.19v-13.79Z"/>
            <path d="m187.79,491.86h-9.88c.08,1.13.45,2.03,1.1,2.7.65.66,1.49.99,2.51.99.79,0,1.45-.19,1.97-.57.51-.38,1.09-1.08,1.74-2.1l2.69,1.5c-.42.71-.85,1.32-1.32,1.82-.46.5-.96.92-1.49,1.25-.53.33-1.1.56-1.71.71-.61.15-1.28.23-2,.23-2.06,0-3.71-.66-4.96-1.98-1.25-1.33-1.87-3.1-1.87-5.3s.6-3.95,1.81-5.3c1.22-1.33,2.83-2,4.84-2s3.63.65,4.81,1.94c1.17,1.28,1.76,3.06,1.76,5.34v.75Zm-3.27-2.61c-.44-1.7-1.51-2.55-3.21-2.55-.39,0-.75.06-1.09.18s-.65.29-.93.51-.52.49-.71.8c-.2.31-.35.67-.45,1.06h6.4Z"/>
            <path d="m194.46,474.09v11.72c1.27-1.32,2.72-1.98,4.33-1.98,1.86,0,3.41.69,4.64,2.08,1.24,1.38,1.85,3.1,1.85,5.15s-.62,3.88-1.87,5.27c-1.24,1.38-2.8,2.07-4.69,2.07-1.59,0-3.02-.61-4.28-1.84v1.44h-3.19v-23.92h3.19Zm7.58,17.12c0-1.32-.36-2.4-1.08-3.23-.73-.85-1.64-1.27-2.73-1.27-1.17,0-2.12.41-2.86,1.23-.73.81-1.09,1.87-1.09,3.17s.36,2.41,1.08,3.21c.72.82,1.66,1.23,2.83,1.23,1.1,0,2.02-.41,2.75-1.23.74-.83,1.11-1.87,1.11-3.12Z"/>
            <path d="m211.85,474.09v11.72c1.27-1.32,2.72-1.98,4.33-1.98,1.86,0,3.41.69,4.64,2.08,1.24,1.38,1.85,3.1,1.85,5.15s-.62,3.88-1.87,5.27c-1.24,1.38-2.8,2.07-4.69,2.07-1.59,0-3.02-.61-4.28-1.84v1.44h-3.19v-23.92h3.19Zm7.58,17.12c0-1.32-.36-2.4-1.08-3.23-.73-.85-1.64-1.27-2.73-1.27-1.17,0-2.12.41-2.86,1.23-.73.81-1.09,1.87-1.09,3.17s.36,2.41,1.08,3.21c.72.82,1.66,1.23,2.83,1.23,1.1,0,2.02-.41,2.75-1.23.74-.83,1.11-1.87,1.11-3.12Z"/>
            <path d="m238.62,491.86h-9.88c.08,1.13.45,2.03,1.1,2.7.65.66,1.49.99,2.51.99.79,0,1.45-.19,1.97-.57.51-.38,1.09-1.08,1.74-2.1l2.69,1.5c-.42.71-.86,1.32-1.32,1.82s-.96.92-1.49,1.25c-.53.33-1.1.56-1.71.71s-1.28.23-2,.23c-2.06,0-3.71-.66-4.96-1.98-1.25-1.33-1.87-3.1-1.87-5.3s.6-3.95,1.81-5.3c1.22-1.33,2.83-2,4.84-2s3.63.65,4.81,1.94c1.17,1.28,1.76,3.06,1.76,5.34v.75Zm-3.27-2.61c-.44-1.7-1.52-2.55-3.21-2.55-.39,0-.75.06-1.09.18s-.65.29-.93.51c-.28.22-.52.49-.71.8-.2.31-.35.67-.45,1.06h6.4Z"/>
            <path d="m254.33,487.19v10.82h-3.19v-10.82h-1.36v-2.97h1.36v-5.06h3.19v5.06h2.48v2.97h-2.48Z"/>
            <path d="m258.53,491.01c0-1.99.71-3.69,2.14-5.08,1.42-1.4,3.16-2.1,5.21-2.1s3.8.7,5.24,2.11c1.42,1.41,2.12,3.13,2.12,5.18s-.71,3.8-2.14,5.2c-1.44,1.39-3.2,2.08-5.28,2.08s-3.8-.71-5.2-2.12c-1.4-1.4-2.1-3.15-2.1-5.27Zm3.26.06c0,1.38.37,2.47,1.1,3.27.76.81,1.75,1.22,2.99,1.22s2.24-.4,2.99-1.2,1.12-1.87,1.12-3.21-.37-2.41-1.12-3.21c-.75-.81-1.75-1.22-2.99-1.22s-2.21.41-2.96,1.22-1.13,1.86-1.13,3.14Z"/>
            <path d="m276.61,484.22h3.19v1.23c.58-.61,1.1-1.03,1.56-1.26.46-.24,1.01-.35,1.64-.35.84,0,1.72.27,2.63.82l-1.46,2.92c-.6-.43-1.2-.65-1.77-.65-1.74,0-2.61,1.31-2.61,3.94v7.15h-3.19v-13.79Z"/>
            <path d="m287.89,484.22h3.2v1.27c1.11-1.1,2.37-1.66,3.77-1.66,1.6,0,2.86.5,3.75,1.51.77.86,1.16,2.26,1.16,4.21v8.45h-3.2v-7.7c0-1.36-.19-2.3-.57-2.82-.37-.53-1.04-.79-2.01-.79-1.06,0-1.81.35-2.25,1.05-.43.69-.65,1.89-.65,3.61v6.66h-3.2v-13.79Z"/>
            <path d="m313.96,484.22h3.2v13.79h-3.2v-1.44c-1.31,1.23-2.72,1.84-4.23,1.84-1.91,0-3.48-.69-4.73-2.07-1.24-1.41-1.85-3.16-1.85-5.27s.62-3.79,1.85-5.17c1.24-1.38,2.78-2.07,4.64-2.07,1.6,0,3.04.66,4.32,1.98v-1.6Zm-7.56,6.85c0,1.32.35,2.4,1.06,3.23.73.84,1.64,1.26,2.75,1.26,1.18,0,2.13-.41,2.86-1.22.73-.84,1.09-1.91,1.09-3.2s-.36-2.36-1.09-3.2c-.73-.82-1.67-1.23-2.83-1.23-1.1,0-2.01.42-2.75,1.25-.73.84-1.09,1.88-1.09,3.12Z"/>
            <path d="m321.18,484.22h3.19v1.23c.58-.61,1.1-1.03,1.56-1.26.46-.24,1.01-.35,1.64-.35.84,0,1.72.27,2.63.82l-1.46,2.92c-.6-.43-1.2-.65-1.77-.65-1.74,0-2.61,1.31-2.61,3.94v7.15h-3.19v-13.79Z"/>
            <path d="m344.39,491.86h-9.88c.08,1.13.45,2.03,1.1,2.7.65.66,1.49.99,2.51.99.79,0,1.45-.19,1.97-.57.51-.38,1.09-1.08,1.74-2.1l2.69,1.5c-.42.71-.85,1.32-1.32,1.82s-.96.92-1.49,1.25c-.53.33-1.1.56-1.71.71s-1.28.23-2,.23c-2.06,0-3.71-.66-4.96-1.98-1.25-1.33-1.87-3.1-1.87-5.3s.6-3.95,1.81-5.3c1.22-1.33,2.83-2,4.84-2s3.63.65,4.81,1.94c1.17,1.28,1.76,3.06,1.76,5.34v.75Zm-3.27-2.61c-.44-1.7-1.51-2.55-3.21-2.55-.39,0-.75.06-1.09.18s-.65.29-.93.51c-.28.22-.52.49-.71.8-.2.31-.35.67-.45,1.06h6.4Z"/>
            <path d="m366.99,484.22h3.2v13.79h-3.2v-1.44c-1.31,1.23-2.72,1.84-4.23,1.84-1.91,0-3.48-.69-4.73-2.07-1.24-1.41-1.86-3.16-1.86-5.27s.62-3.79,1.86-5.17c1.24-1.38,2.78-2.07,4.64-2.07,1.6,0,3.04.66,4.32,1.98v-1.6Zm-7.56,6.85c0,1.32.35,2.4,1.06,3.23.73.84,1.64,1.26,2.75,1.26,1.18,0,2.13-.41,2.86-1.22.73-.84,1.09-1.91,1.09-3.2s-.36-2.36-1.09-3.2c-.73-.82-1.67-1.23-2.83-1.23-1.09,0-2.01.42-2.75,1.25-.73.84-1.09,1.88-1.09,3.12Z"/>
            <path d="m268.38,514.05v18.76h-3.3v-18.76h-5.03v-3.1h13.34v3.1h-5.01Z"/>
            <path d="m274.74,519.02h3.19v1.23c.58-.61,1.1-1.03,1.56-1.26.46-.24,1.01-.35,1.64-.35.84,0,1.72.27,2.63.82l-1.46,2.92c-.6-.43-1.2-.65-1.77-.65-1.74,0-2.61,1.31-2.61,3.94v7.15h-3.19v-13.79Z"/>
            <path d="m285.54,513.28c0-.56.2-1.04.61-1.44.41-.41.89-.61,1.46-.61s1.07.2,1.47.61c.41.4.61.88.61,1.46s-.2,1.07-.61,1.47c-.4.41-.88.61-1.46.61s-1.07-.2-1.47-.61c-.41-.41-.61-.9-.61-1.49Zm3.67,5.74v13.79h-3.19v-13.79h3.19Z"/>
            <path d="m303.98,519.61v4.23c-.73-.89-1.38-1.5-1.95-1.83-.57-.34-1.23-.51-2-.51-1.2,0-2.2.42-2.99,1.26-.79.84-1.19,1.89-1.19,3.16s.38,2.36,1.15,3.19c.77.83,1.76,1.25,2.96,1.25.76,0,1.44-.17,2.02-.5.57-.32,1.23-.94,2-1.87v4.21c-1.29.67-2.59,1.01-3.88,1.01-2.13,0-3.92-.69-5.35-2.07-1.43-1.39-2.15-3.11-2.15-5.17s.73-3.79,2.18-5.21,3.24-2.12,5.35-2.12c1.36,0,2.64.33,3.85.98Z"/>
            <path d="m317.23,519.02h3.2v13.79h-3.2v-1.44c-1.31,1.23-2.72,1.84-4.23,1.84-1.91,0-3.48-.69-4.73-2.07-1.24-1.41-1.85-3.16-1.85-5.27s.62-3.79,1.85-5.17c1.24-1.38,2.79-2.07,4.64-2.07,1.61,0,3.04.66,4.32,1.98v-1.6Zm-7.56,6.85c0,1.32.35,2.4,1.06,3.23.73.84,1.64,1.26,2.75,1.26,1.18,0,2.13-.41,2.86-1.22.73-.84,1.09-1.91,1.09-3.2s-.36-2.36-1.09-3.2c-.73-.82-1.67-1.23-2.83-1.23-1.1,0-2.01.42-2.75,1.25-.73.84-1.09,1.88-1.09,3.12Z"/>
            <path d="m324.45,519.02h3.19v1.23c.59-.61,1.11-1.03,1.56-1.26.46-.24,1.01-.35,1.64-.35.84,0,1.72.27,2.63.82l-1.46,2.92c-.6-.43-1.19-.65-1.77-.65-1.74,0-2.61,1.31-2.61,3.94v7.15h-3.19v-13.79Z"/>
            <path d="m335.26,513.28c0-.56.2-1.04.61-1.44.41-.41.89-.61,1.46-.61s1.07.2,1.47.61c.41.4.61.88.61,1.46s-.2,1.07-.61,1.47c-.4.41-.88.61-1.46.61s-1.07-.2-1.47-.61-.61-.9-.61-1.49Zm3.67,5.74v13.79h-3.19v-13.79h3.19Z"/>
            <path d="m353.69,519.61v4.23c-.73-.89-1.38-1.5-1.95-1.83-.57-.34-1.23-.51-2-.51-1.2,0-2.19.42-2.99,1.26-.79.84-1.19,1.89-1.19,3.16s.38,2.36,1.15,3.19c.77.83,1.76,1.25,2.96,1.25.77,0,1.44-.17,2.03-.5.57-.32,1.23-.94,2-1.87v4.21c-1.29.67-2.59,1.01-3.88,1.01-2.13,0-3.92-.69-5.35-2.07-1.43-1.39-2.15-3.11-2.15-5.17s.73-3.79,2.18-5.21c1.45-1.42,3.24-2.12,5.35-2.12,1.36,0,2.64.33,3.85.98Z"/>
            <path d="m356.13,525.81c0-1.99.71-3.69,2.14-5.08,1.43-1.4,3.16-2.1,5.21-2.1s3.8.7,5.24,2.11c1.42,1.41,2.12,3.13,2.12,5.18s-.71,3.8-2.14,5.2c-1.43,1.39-3.2,2.08-5.28,2.08s-3.8-.71-5.2-2.12c-1.4-1.4-2.1-3.15-2.1-5.27Zm3.26.06c0,1.38.37,2.47,1.1,3.27.76.81,1.75,1.22,2.99,1.22s2.24-.4,2.99-1.2c.75-.8,1.12-1.87,1.12-3.21s-.37-2.41-1.12-3.21c-.76-.81-1.75-1.22-2.99-1.22s-2.2.41-2.96,1.22c-.76.81-1.13,1.86-1.13,3.14Z"/>
            <path d="m19.19,551.86c1.21,0,2.25.45,3.12,1.36.88.9,1.32,1.97,1.32,3.23s-.44,2.37-1.32,3.26c-.88.9-1.94,1.34-3.19,1.34s-2.29-.45-3.19-1.34c-.88-.91-1.32-1.99-1.32-3.24s.44-2.37,1.33-3.26c.9-.9,1.98-1.35,3.24-1.35Z"/>
            <path d="m55.02,545.75v21.86h-3.3v-21.86h3.3Z"/>
            <path d="m62.85,543.69v23.92h-3.19v-23.92h3.19Z"/>
            <path d="m81.32,557.46v-2.82c1.4,0,2.34-.16,2.82-.47.86-.55,1.29-1.43,1.29-2.63,0-.93-.31-1.69-.93-2.28-.61-.59-1.41-.89-2.39-.89-.92,0-1.62.22-2.12.67-.48.45-.84,1.22-1.08,2.29h-3.29c.34-2.06,1.04-3.57,2.1-4.52,1.06-.96,2.53-1.44,4.43-1.44s3.48.57,4.69,1.7c1.21,1.12,1.81,2.57,1.81,4.35,0,2-.79,3.56-2.38,4.67,1.81,1.07,2.72,2.8,2.72,5.2,0,1.96-.66,3.57-1.98,4.81-1.32,1.25-3.02,1.87-5.08,1.87-2.63,0-4.59-.97-5.86-2.9-.53-.81-.86-1.94-1-3.37h3.19c.17,1.06.58,1.87,1.24,2.43.66.56,1.51.84,2.57.84s1.95-.35,2.65-1.06c.7-.73,1.05-1.65,1.05-2.76,0-1.47-.52-2.52-1.57-3.14-.61-.36-1.56-.54-2.85-.54Z"/>
            <path d="m102.74,548.83h-10.79v-3.09h16.3l-13.79,22.61-2.62-1.66,10.9-17.87Z"/>
            <path d="m109.43,550.6c0-1.37.52-2.56,1.57-3.57,1.07-1.01,2.3-1.52,3.7-1.52s2.67.51,3.71,1.53c1.04,1.01,1.56,2.22,1.56,3.62s-.52,2.63-1.56,3.64c-1.04,1.01-2.29,1.52-3.75,1.52s-2.67-.51-3.7-1.54c-1.02-1.03-1.53-2.26-1.53-3.68Zm2.46.04c0,.79.27,1.46.82,2.01.55.55,1.21.82,2,.82s1.42-.27,1.97-.82c.55-.55.82-1.21.82-1.98s-.27-1.42-.82-1.97c-.55-.55-1.21-.82-1.98-.82s-1.44.27-1.98.82-.82,1.19-.82,1.94Zm15.22-5.28l1.54.88-12.52,21.72-1.56-.93,12.53-21.67Zm-3.85,17.22c0-1.36.52-2.54,1.57-3.55,1.07-1.01,2.3-1.51,3.7-1.51s2.69.51,3.72,1.53c1.04,1.01,1.56,2.22,1.56,3.62s-.52,2.64-1.57,3.64c-1.03,1-2.28,1.5-3.75,1.5s-2.67-.51-3.7-1.53c-1.02-1.02-1.53-2.25-1.53-3.7Zm2.48.06c0,.79.27,1.46.81,2.01.55.55,1.21.82,2,.82s1.43-.27,1.97-.82c.55-.55.82-1.21.82-1.98s-.27-1.44-.82-1.98c-.54-.55-1.2-.82-1.98-.82s-1.42.27-1.97.82-.82,1.2-.82,1.95Z"/>
            <path d="m149.05,575.11h-3.19v-21.3h3.19v1.5c1.26-1.26,2.68-1.88,4.28-1.88,1.9,0,3.46.7,4.69,2.1,1.25,1.39,1.87,3.14,1.87,5.25s-.62,3.79-1.85,5.17c-1.23,1.37-2.78,2.05-4.64,2.05-1.62,0-3.06-.65-4.33-1.94v9.05Zm7.58-14.32c0-1.32-.36-2.4-1.08-3.23-.73-.84-1.64-1.26-2.75-1.26-1.17,0-2.12.41-2.85,1.22-.73.81-1.09,1.88-1.09,3.2s.36,2.36,1.09,3.2c.72.82,1.66,1.23,2.83,1.23,1.11,0,2.02-.42,2.73-1.25.74-.83,1.1-1.87,1.1-3.12Z"/>
            <path d="m162.6,560.61c0-1.99.71-3.69,2.14-5.08,1.43-1.4,3.16-2.1,5.21-2.1s3.8.7,5.24,2.11c1.42,1.41,2.12,3.13,2.12,5.18s-.71,3.8-2.14,5.2c-1.43,1.39-3.2,2.08-5.28,2.08s-3.8-.71-5.2-2.12c-1.4-1.4-2.1-3.15-2.1-5.27Zm3.26.06c0,1.38.37,2.47,1.1,3.27.75.81,1.75,1.22,2.99,1.22s2.24-.4,2.99-1.2,1.12-1.87,1.12-3.21-.37-2.41-1.12-3.21c-.76-.81-1.75-1.22-2.99-1.22s-2.2.41-2.96,1.22-1.13,1.86-1.13,3.14Z"/>
            <path d="m184.14,556.79v10.82h-3.19v-10.82h-1.36v-2.97h1.36v-5.06h3.19v5.06h2.48v2.97h-2.48Z"/>
            <path d="m201.6,561.46h-9.88c.08,1.13.45,2.03,1.1,2.7.65.66,1.49.99,2.51.99.79,0,1.45-.19,1.97-.57.51-.38,1.09-1.08,1.74-2.1l2.69,1.5c-.42.71-.85,1.32-1.32,1.82s-.96.92-1.49,1.25c-.53.33-1.1.56-1.71.71s-1.28.23-2,.23c-2.06,0-3.71-.66-4.96-1.98-1.25-1.33-1.87-3.1-1.87-5.3s.6-3.95,1.81-5.3c1.22-1.33,2.83-2,4.84-2s3.63.65,4.81,1.94c1.17,1.28,1.76,3.06,1.76,5.34v.75Zm-3.27-2.61c-.44-1.7-1.51-2.55-3.21-2.55-.39,0-.75.06-1.09.18s-.65.29-.93.51c-.28.22-.52.49-.71.8-.2.31-.35.67-.45,1.06h6.4Z"/>
            <path d="m205.08,553.82h3.19v1.23c.58-.61,1.1-1.03,1.56-1.26.46-.24,1.01-.35,1.64-.35.84,0,1.72.27,2.63.82l-1.46,2.92c-.6-.43-1.19-.65-1.77-.65-1.74,0-2.61,1.31-2.61,3.94v7.15h-3.19v-13.79Z"/>
            <path d="m219.12,543.69v11.72c1.28-1.32,2.72-1.98,4.33-1.98,1.86,0,3.41.69,4.64,2.08,1.24,1.38,1.85,3.1,1.85,5.15s-.62,3.88-1.87,5.27c-1.24,1.38-2.8,2.07-4.69,2.07-1.6,0-3.02-.61-4.28-1.84v1.44h-3.19v-23.92h3.19Zm7.58,17.12c0-1.32-.36-2.4-1.08-3.23-.73-.85-1.64-1.27-2.73-1.27-1.17,0-2.12.41-2.86,1.23-.73.81-1.09,1.87-1.09,3.17s.36,2.41,1.08,3.21c.72.82,1.66,1.23,2.83,1.23,1.1,0,2.02-.41,2.75-1.23.74-.83,1.1-1.87,1.1-3.12Z"/>
            <path d="m236.51,543.69v11.72c1.28-1.32,2.72-1.98,4.33-1.98,1.86,0,3.41.69,4.64,2.08,1.24,1.38,1.85,3.1,1.85,5.15s-.62,3.88-1.87,5.27c-1.24,1.38-2.8,2.07-4.69,2.07-1.6,0-3.02-.61-4.28-1.84v1.44h-3.19v-23.92h3.19Zm7.58,17.12c0-1.32-.36-2.4-1.08-3.23-.73-.85-1.64-1.27-2.73-1.27-1.17,0-2.12.41-2.86,1.23-.73.81-1.09,1.87-1.09,3.17s.36,2.41,1.08,3.21c.72.82,1.66,1.23,2.83,1.23,1.1,0,2.02-.41,2.75-1.23.74-.83,1.1-1.87,1.1-3.12Z"/>
            <path d="m263.27,561.46h-9.88c.09,1.13.45,2.03,1.11,2.7.65.66,1.49.99,2.51.99.79,0,1.45-.19,1.97-.57.51-.38,1.09-1.08,1.74-2.1l2.69,1.5c-.42.71-.85,1.32-1.32,1.82-.46.5-.96.92-1.49,1.25-.53.33-1.1.56-1.71.71-.61.15-1.28.23-2,.23-2.06,0-3.71-.66-4.96-1.98-1.25-1.33-1.87-3.1-1.87-5.3s.6-3.95,1.81-5.3c1.22-1.33,2.83-2,4.84-2s3.63.65,4.81,1.94c1.17,1.28,1.76,3.06,1.76,5.34v.75Zm-3.27-2.61c-.44-1.7-1.52-2.55-3.21-2.55-.39,0-.75.06-1.09.18s-.65.29-.93.51c-.28.22-.52.49-.71.8-.2.31-.35.67-.45,1.06h6.4Z"/>
            <path d="m275.7,553.82h3.19v1.27c.61-.64,1.14-1.08,1.57-1.3.46-.24,1.04-.35,1.74-.35,1.56,0,2.79.68,3.7,2.04,1-1.36,2.36-2.04,4.06-2.04,3.11,0,4.66,1.88,4.66,5.65v8.52h-3.2v-7.66c0-1.32-.16-2.26-.48-2.8-.33-.56-.87-.83-1.63-.83-.88,0-1.52.33-1.92.99-.4.66-.6,1.72-.6,3.19v7.12h-3.2v-7.62c0-2.45-.71-3.68-2.12-3.68-.9,0-1.55.33-1.96,1-.41.67-.62,1.73-.62,3.17v7.12h-3.19v-13.79Z"/>
            <path d="m308.81,553.82h3.2v13.79h-3.2v-1.44c-1.31,1.23-2.72,1.84-4.23,1.84-1.91,0-3.48-.69-4.73-2.07-1.24-1.41-1.85-3.16-1.85-5.27s.62-3.79,1.85-5.17c1.24-1.38,2.78-2.07,4.64-2.07,1.6,0,3.04.66,4.32,1.98v-1.6Zm-7.56,6.85c0,1.32.35,2.4,1.06,3.23.73.84,1.64,1.26,2.75,1.26,1.18,0,2.13-.41,2.86-1.22.73-.84,1.09-1.91,1.09-3.2s-.36-2.36-1.09-3.2c-.73-.82-1.67-1.23-2.83-1.23-1.1,0-2.01.42-2.75,1.25-.73.84-1.09,1.88-1.09,3.12Z"/>
            <path d="m324.98,553.82h3.2v1.27c1.11-1.1,2.37-1.66,3.77-1.66,1.61,0,2.86.5,3.75,1.51.77.86,1.16,2.26,1.16,4.21v8.45h-3.2v-7.7c0-1.36-.19-2.3-.57-2.82-.37-.53-1.04-.79-2.01-.79-1.06,0-1.81.35-2.25,1.05-.43.69-.65,1.89-.65,3.61v6.66h-3.2v-13.79Z"/>
            <path d="m340.23,560.61c0-1.99.71-3.69,2.14-5.08,1.43-1.4,3.16-2.1,5.21-2.1s3.8.7,5.24,2.11c1.42,1.41,2.12,3.13,2.12,5.18s-.71,3.8-2.14,5.2c-1.43,1.39-3.2,2.08-5.28,2.08s-3.8-.71-5.2-2.12c-1.4-1.4-2.1-3.15-2.1-5.27Zm3.26.06c0,1.38.37,2.47,1.1,3.27.75.81,1.75,1.22,2.99,1.22s2.24-.4,2.99-1.2,1.12-1.87,1.12-3.21-.37-2.41-1.12-3.21c-.76-.81-1.75-1.22-2.99-1.22s-2.2.41-2.96,1.22-1.13,1.86-1.13,3.14Z"/>
            <path d="m358.31,553.82h3.2v1.27c1.11-1.1,2.37-1.66,3.77-1.66,1.6,0,2.86.5,3.75,1.51.77.86,1.16,2.26,1.16,4.21v8.45h-3.2v-7.7c0-1.36-.19-2.3-.57-2.82-.37-.53-1.04-.79-2.01-.79-1.06,0-1.81.35-2.25,1.05-.43.69-.65,1.89-.65,3.61v6.66h-3.2v-13.79Z"/>
            <path d="m51.32,588.62l3.57,7.75,3.55-7.75h3.58l-7.17,14.74-7.11-14.74h3.57Z"/>
            <path d="m67.36,588.62v7.92c0,2.29.9,3.43,2.71,3.43s2.7-1.14,2.7-3.43v-7.92h3.19v7.99c0,1.1-.14,2.06-.41,2.86-.26.72-.72,1.36-1.37,1.94-1.08.94-2.44,1.4-4.11,1.4s-3.02-.47-4.09-1.4c-.66-.58-1.13-1.22-1.4-1.94-.26-.64-.4-1.6-.4-2.86v-7.99h3.19Z"/>
            <path d="m79.33,595.41c0-1.99.71-3.69,2.14-5.08,1.43-1.4,3.16-2.1,5.21-2.1s3.8.7,5.24,2.11c1.42,1.41,2.12,3.13,2.12,5.18s-.71,3.8-2.14,5.2c-1.43,1.39-3.2,2.08-5.28,2.08s-3.8-.71-5.2-2.12c-1.4-1.4-2.1-3.15-2.1-5.27Zm3.26.06c0,1.38.37,2.47,1.1,3.27.76.81,1.75,1.22,2.99,1.22s2.24-.4,2.99-1.2c.75-.8,1.12-1.87,1.12-3.21s-.37-2.41-1.12-3.21c-.76-.81-1.75-1.22-2.99-1.22s-2.2.41-2.96,1.22c-.76.81-1.13,1.86-1.13,3.14Z"/>
            <path d="m100.6,578.49v23.92h-3.19v-23.92h3.19Z"/>
            <path d="m117.19,596.26h-9.88c.09,1.13.45,2.03,1.11,2.7.65.66,1.49.99,2.51.99.79,0,1.45-.19,1.97-.57.51-.38,1.09-1.08,1.74-2.1l2.69,1.5c-.42.71-.85,1.32-1.32,1.82-.46.5-.96.92-1.49,1.25-.53.33-1.1.56-1.71.71-.61.15-1.28.23-2,.23-2.06,0-3.71-.66-4.96-1.98-1.25-1.33-1.87-3.1-1.87-5.3s.6-3.95,1.81-5.3c1.22-1.33,2.83-2,4.84-2s3.63.65,4.81,1.94c1.17,1.28,1.76,3.06,1.76,5.34v.75Zm-3.27-2.61c-.44-1.7-1.52-2.55-3.21-2.55-.39,0-.75.06-1.09.18s-.65.29-.93.51c-.28.22-.52.49-.71.8-.2.31-.35.67-.45,1.06h6.4Z"/>
            <path d="m132.91,591.59v10.82h-3.19v-10.82h-1.36v-2.97h1.36v-5.06h3.19v5.06h2.48v2.97h-2.48Z"/>
            <path d="m137.1,595.41c0-1.99.71-3.69,2.14-5.08,1.43-1.4,3.16-2.1,5.21-2.1s3.8.7,5.24,2.11c1.42,1.41,2.12,3.13,2.12,5.18s-.71,3.8-2.14,5.2c-1.43,1.39-3.2,2.08-5.28,2.08s-3.8-.71-5.2-2.12c-1.4-1.4-2.1-3.15-2.1-5.27Zm3.26.06c0,1.38.37,2.47,1.1,3.27.76.81,1.75,1.22,2.99,1.22s2.24-.4,2.99-1.2c.75-.8,1.12-1.87,1.12-3.21s-.37-2.41-1.12-3.21c-.76-.81-1.75-1.22-2.99-1.22s-2.2.41-2.96,1.22c-.76.81-1.13,1.86-1.13,3.14Z"/>
            <path d="m155.18,588.62h3.19v1.23c.58-.61,1.1-1.03,1.56-1.26.46-.24,1.01-.35,1.64-.35.84,0,1.72.27,2.63.82l-1.46,2.92c-.6-.43-1.19-.65-1.77-.65-1.74,0-2.61,1.31-2.61,3.94v7.15h-3.19v-13.79Z"/>
            <path d="m166.47,588.62h3.2v1.27c1.11-1.1,2.37-1.66,3.77-1.66,1.6,0,2.86.5,3.75,1.51.77.86,1.16,2.26,1.16,4.21v8.45h-3.2v-7.7c0-1.36-.19-2.3-.57-2.82-.37-.53-1.04-.79-2.01-.79-1.06,0-1.81.35-2.25,1.05-.43.69-.65,1.89-.65,3.61v6.66h-3.2v-13.79Z"/>
            <path d="m192.54,588.62h3.2v13.79h-3.2v-1.44c-1.31,1.23-2.72,1.84-4.23,1.84-1.91,0-3.48-.69-4.73-2.07-1.24-1.41-1.86-3.16-1.86-5.27s.62-3.79,1.86-5.17c1.24-1.38,2.78-2.07,4.64-2.07,1.6,0,3.04.66,4.32,1.98v-1.6Zm-7.56,6.85c0,1.32.35,2.4,1.06,3.23.73.84,1.64,1.26,2.75,1.26,1.18,0,2.13-.41,2.86-1.22.73-.84,1.09-1.91,1.09-3.2s-.36-2.36-1.09-3.2c-.73-.82-1.67-1.23-2.83-1.23-1.09,0-2.01.42-2.75,1.25-.73.84-1.09,1.88-1.09,3.12Z"/>
            <path d="m199.76,588.62h3.19v1.23c.58-.61,1.1-1.03,1.56-1.26.46-.24,1.01-.35,1.64-.35.84,0,1.72.27,2.63.82l-1.46,2.92c-.6-.43-1.19-.65-1.77-.65-1.74,0-2.61,1.31-2.61,3.94v7.15h-3.19v-13.79Z"/>
            <path d="m222.97,596.26h-9.88c.08,1.13.45,2.03,1.1,2.7.65.66,1.49.99,2.51.99.79,0,1.45-.19,1.97-.57.51-.38,1.09-1.08,1.74-2.1l2.69,1.5c-.42.71-.85,1.32-1.32,1.82-.46.5-.96.92-1.49,1.25-.53.33-1.1.56-1.71.71-.61.15-1.28.23-2,.23-2.06,0-3.71-.66-4.96-1.98-1.25-1.33-1.87-3.1-1.87-5.3s.6-3.95,1.81-5.3c1.22-1.33,2.83-2,4.84-2s3.63.65,4.81,1.94c1.17,1.28,1.76,3.06,1.76,5.34v.75Zm-3.27-2.61c-.44-1.7-1.51-2.55-3.21-2.55-.39,0-.75.06-1.09.18s-.65.29-.93.51-.52.49-.71.8c-.2.31-.35.67-.45,1.06h6.4Z"/>
            <path d="m245.57,588.62h3.2v13.79h-3.2v-1.44c-1.31,1.23-2.72,1.84-4.23,1.84-1.91,0-3.48-.69-4.73-2.07-1.24-1.41-1.86-3.16-1.86-5.27s.62-3.79,1.86-5.17c1.24-1.38,2.79-2.07,4.64-2.07,1.61,0,3.04.66,4.32,1.98v-1.6Zm-7.56,6.85c0,1.32.35,2.4,1.06,3.23.73.84,1.64,1.26,2.75,1.26,1.18,0,2.13-.41,2.86-1.22.73-.84,1.09-1.91,1.09-3.2s-.36-2.36-1.09-3.2c-.73-.82-1.67-1.23-2.83-1.23-1.09,0-2.01.42-2.75,1.25-.73.84-1.09,1.88-1.09,3.12Z"/>
            <path d="m268.38,583.65v18.76h-3.3v-18.76h-5.03v-3.1h13.34v3.1h-5.01Z"/>
            <path d="m274.74,588.62h3.19v1.23c.58-.61,1.1-1.03,1.56-1.26.46-.24,1.01-.35,1.64-.35.84,0,1.72.27,2.63.82l-1.46,2.92c-.6-.43-1.2-.65-1.77-.65-1.74,0-2.61,1.31-2.61,3.94v7.15h-3.19v-13.79Z"/>
            <path d="m285.54,582.88c0-.56.2-1.04.61-1.44.41-.41.89-.61,1.46-.61s1.07.2,1.47.61c.41.4.61.88.61,1.46s-.2,1.07-.61,1.47c-.4.41-.88.61-1.46.61s-1.07-.2-1.47-.61c-.41-.41-.61-.9-.61-1.49Zm3.67,5.74v13.79h-3.19v-13.79h3.19Z"/>
            <path d="m303.98,589.21v4.23c-.73-.89-1.38-1.5-1.95-1.83-.57-.34-1.23-.51-2-.51-1.2,0-2.2.42-2.99,1.26-.79.84-1.19,1.89-1.19,3.16s.38,2.36,1.15,3.19c.77.83,1.76,1.25,2.96,1.25.76,0,1.44-.17,2.02-.5.57-.32,1.23-.94,2-1.87v4.21c-1.29.67-2.59,1.01-3.88,1.01-2.13,0-3.92-.69-5.35-2.07-1.43-1.39-2.15-3.11-2.15-5.17s.73-3.79,2.18-5.21,3.24-2.12,5.35-2.12c1.36,0,2.64.33,3.85.98Z"/>
            <path d="m317.23,588.62h3.2v13.79h-3.2v-1.44c-1.31,1.23-2.72,1.84-4.23,1.84-1.91,0-3.48-.69-4.73-2.07-1.24-1.41-1.85-3.16-1.85-5.27s.62-3.79,1.85-5.17c1.24-1.38,2.79-2.07,4.64-2.07,1.61,0,3.04.66,4.32,1.98v-1.6Zm-7.56,6.85c0,1.32.35,2.4,1.06,3.23.73.84,1.64,1.26,2.75,1.26,1.18,0,2.13-.41,2.86-1.22.73-.84,1.09-1.91,1.09-3.2s-.36-2.36-1.09-3.2c-.73-.82-1.67-1.23-2.83-1.23-1.1,0-2.01.42-2.75,1.25-.73.84-1.09,1.88-1.09,3.12Z"/>
            <path d="m324.45,588.62h3.19v1.23c.59-.61,1.11-1.03,1.56-1.26.46-.24,1.01-.35,1.64-.35.84,0,1.72.27,2.63.82l-1.46,2.92c-.6-.43-1.19-.65-1.77-.65-1.74,0-2.61,1.31-2.61,3.94v7.15h-3.19v-13.79Z"/>
            <path d="m335.26,582.88c0-.56.2-1.04.61-1.44.41-.41.89-.61,1.46-.61s1.07.2,1.47.61c.41.4.61.88.61,1.46s-.2,1.07-.61,1.47c-.4.41-.88.61-1.46.61s-1.07-.2-1.47-.61-.61-.9-.61-1.49Zm3.67,5.74v13.79h-3.19v-13.79h3.19Z"/>
            <path d="m353.69,589.21v4.23c-.73-.89-1.38-1.5-1.95-1.83-.57-.34-1.23-.51-2-.51-1.2,0-2.19.42-2.99,1.26-.79.84-1.19,1.89-1.19,3.16s.38,2.36,1.15,3.19c.77.83,1.76,1.25,2.96,1.25.77,0,1.44-.17,2.03-.5.57-.32,1.23-.94,2-1.87v4.21c-1.29.67-2.59,1.01-3.88,1.01-2.13,0-3.92-.69-5.35-2.07-1.43-1.39-2.15-3.11-2.15-5.17s.73-3.79,2.18-5.21c1.45-1.42,3.24-2.12,5.35-2.12,1.36,0,2.64.33,3.85.98Z"/>
            <path d="m356.13,595.41c0-1.99.71-3.69,2.14-5.08,1.43-1.4,3.16-2.1,5.21-2.1s3.8.7,5.24,2.11c1.42,1.41,2.12,3.13,2.12,5.18s-.71,3.8-2.14,5.2c-1.43,1.39-3.2,2.08-5.28,2.08s-3.8-.71-5.2-2.12c-1.4-1.4-2.1-3.15-2.1-5.27Zm3.26.06c0,1.38.37,2.47,1.1,3.27.76.81,1.75,1.22,2.99,1.22s2.24-.4,2.99-1.2c.75-.8,1.12-1.87,1.12-3.21s-.37-2.41-1.12-3.21c-.76-.81-1.75-1.22-2.99-1.22s-2.2.41-2.96,1.22c-.76.81-1.13,1.86-1.13,3.14Z"/>
            <path d="m100.38,621.46c1.21,0,2.25.45,3.12,1.36.88.9,1.32,1.97,1.32,3.23s-.44,2.37-1.32,3.26c-.88.9-1.94,1.34-3.19,1.34s-2.29-.45-3.19-1.34c-.88-.91-1.32-1.99-1.32-3.24s.44-2.37,1.33-3.26c.9-.9,1.98-1.35,3.24-1.35Z"/>
            <path d="m131.61,615.35v21.86h-3.3v-21.86h3.3Z"/>
            <path d="m139.44,613.29v23.92h-3.19v-23.92h3.19Z"/>
            <path d="m162.7,618.43h-10.79v-3.09h16.3l-13.79,22.61-2.62-1.66,10.9-17.87Z"/>
            <path d="m168.58,633.12l2.83,1.1-4.04,8.09-2.15-.89,3.36-8.3Z"/>
            <path d="m187.85,631.11h2.32v3h-2.32v3.1h-3.3v-3.1h-10.73l14.03-20.39v17.39Zm-3.3,0v-7.32l-5.04,7.32h5.04Z"/>
            <path d="m192.54,620.2c0-1.37.52-2.56,1.57-3.57,1.07-1.01,2.3-1.52,3.7-1.52s2.67.51,3.71,1.53c1.04,1.01,1.56,2.22,1.56,3.62s-.52,2.63-1.56,3.64c-1.04,1.01-2.29,1.52-3.75,1.52s-2.67-.51-3.7-1.54c-1.02-1.03-1.53-2.26-1.53-3.68Zm2.46.04c0,.79.27,1.46.82,2.01s1.21.82,2,.82,1.42-.27,1.97-.82.82-1.21.82-1.98-.27-1.42-.82-1.97c-.55-.55-1.21-.82-1.98-.82s-1.44.27-1.98.82c-.55.55-.82,1.19-.82,1.94Zm15.22-5.28l1.54.88-12.52,21.72-1.56-.93,12.53-21.67Zm-3.85,17.22c0-1.36.52-2.54,1.57-3.55,1.07-1.01,2.3-1.51,3.7-1.51s2.69.51,3.72,1.53c1.04,1.01,1.56,2.22,1.56,3.62s-.52,2.64-1.57,3.64c-1.03,1-2.28,1.5-3.75,1.5s-2.67-.51-3.7-1.53c-1.02-1.02-1.53-2.25-1.53-3.7Zm2.48.06c0,.79.27,1.46.81,2.01.55.55,1.21.82,2,.82s1.43-.27,1.97-.82c.55-.55.82-1.21.82-1.98s-.27-1.44-.82-1.98c-.54-.55-1.2-.82-1.98-.82s-1.42.27-1.97.82c-.55.55-.82,1.2-.82,1.95Z"/>
            <path d="m230.69,623.42l3.57,7.75,3.55-7.75h3.58l-7.17,14.74-7.11-14.74h3.57Z"/>
            <path d="m242.34,630.21c0-1.99.71-3.69,2.14-5.08,1.43-1.4,3.16-2.1,5.21-2.1s3.8.7,5.24,2.11c1.42,1.41,2.12,3.13,2.12,5.18s-.71,3.8-2.14,5.2c-1.43,1.39-3.2,2.08-5.28,2.08s-3.8-.71-5.2-2.12c-1.4-1.4-2.1-3.15-2.1-5.27Zm3.26.06c0,1.38.37,2.47,1.1,3.27.76.81,1.75,1.22,2.99,1.22s2.24-.4,2.99-1.2c.75-.8,1.12-1.87,1.12-3.21s-.37-2.41-1.12-3.21c-.76-.81-1.75-1.22-2.99-1.22s-2.2.41-2.96,1.22c-.76.81-1.13,1.86-1.13,3.14Z"/>
            <path d="m260.42,623.42h3.19v1.23c.58-.61,1.1-1.03,1.56-1.26.46-.24,1.01-.35,1.64-.35.84,0,1.72.27,2.63.82l-1.46,2.92c-.6-.43-1.19-.65-1.77-.65-1.74,0-2.61,1.31-2.61,3.94v7.15h-3.19v-13.79Z"/>
            <path d="m271.71,623.42h3.19v1.23c.59-.61,1.1-1.03,1.56-1.26.46-.24,1.01-.35,1.64-.35.84,0,1.72.27,2.63.82l-1.46,2.92c-.6-.43-1.19-.65-1.77-.65-1.74,0-2.61,1.31-2.61,3.94v7.15h-3.19v-13.79Z"/>
            <path d="m294.92,631.06h-9.88c.08,1.13.45,2.03,1.1,2.7.65.66,1.49.99,2.51.99.79,0,1.45-.19,1.97-.57.51-.38,1.09-1.08,1.74-2.1l2.69,1.5c-.42.71-.86,1.32-1.32,1.82s-.96.92-1.49,1.25c-.53.33-1.1.56-1.71.71s-1.28.23-2,.23c-2.06,0-3.71-.66-4.96-1.98-1.25-1.33-1.87-3.1-1.87-5.3s.6-3.95,1.81-5.3c1.22-1.33,2.83-2,4.84-2s3.63.65,4.81,1.94c1.17,1.28,1.76,3.06,1.76,5.34v.75Zm-3.27-2.61c-.44-1.7-1.52-2.55-3.21-2.55-.39,0-.75.06-1.09.18s-.65.29-.93.51c-.28.22-.52.49-.71.8-.2.31-.35.67-.45,1.06h6.4Z"/>
            <path d="m301.59,613.29v11.72c1.28-1.32,2.72-1.98,4.33-1.98,1.86,0,3.41.69,4.64,2.08,1.24,1.38,1.85,3.1,1.85,5.15s-.62,3.88-1.87,5.27c-1.24,1.38-2.8,2.07-4.69,2.07-1.6,0-3.02-.61-4.28-1.84v1.44h-3.19v-23.92h3.19Zm7.58,17.12c0-1.32-.36-2.4-1.08-3.23-.73-.85-1.64-1.27-2.73-1.27-1.17,0-2.12.41-2.86,1.23-.73.81-1.09,1.87-1.09,3.17s.36,2.41,1.08,3.21c.72.82,1.66,1.23,2.83,1.23,1.1,0,2.02-.41,2.75-1.23.74-.83,1.1-1.87,1.1-3.12Z"/>
            <path d="m318.97,613.29v11.72c1.28-1.32,2.72-1.98,4.33-1.98,1.86,0,3.41.69,4.64,2.08,1.24,1.38,1.85,3.1,1.85,5.15s-.62,3.88-1.87,5.27c-1.24,1.38-2.8,2.07-4.69,2.07-1.6,0-3.02-.61-4.28-1.84v1.44h-3.19v-23.92h3.19Zm7.58,17.12c0-1.32-.36-2.4-1.08-3.23-.73-.85-1.64-1.27-2.73-1.27-1.17,0-2.12.41-2.86,1.23-.73.81-1.09,1.87-1.09,3.17s.36,2.41,1.08,3.21c.72.82,1.66,1.23,2.83,1.23,1.1,0,2.02-.41,2.75-1.23.74-.83,1.1-1.87,1.1-3.12Z"/>
            <path d="m345.74,631.06h-9.88c.09,1.13.45,2.03,1.11,2.7.65.66,1.49.99,2.51.99.79,0,1.45-.19,1.97-.57.51-.38,1.09-1.08,1.74-2.1l2.69,1.5c-.42.71-.85,1.32-1.32,1.82-.46.5-.96.92-1.49,1.25-.53.33-1.1.56-1.71.71-.61.15-1.28.23-2,.23-2.06,0-3.71-.66-4.96-1.98-1.25-1.33-1.87-3.1-1.87-5.3s.6-3.95,1.81-5.3c1.22-1.33,2.83-2,4.84-2s3.63.65,4.81,1.94c1.17,1.28,1.76,3.06,1.76,5.34v.75Zm-3.27-2.61c-.44-1.7-1.52-2.55-3.21-2.55-.39,0-.75.06-1.09.18s-.65.29-.93.51c-.28.22-.52.49-.71.8-.2.31-.35.67-.45,1.06h6.4Z"/>
            <path d="m370.73,631.06h-9.88c.08,1.13.45,2.03,1.1,2.7.65.66,1.49.99,2.51.99.79,0,1.45-.19,1.97-.57.51-.38,1.09-1.08,1.74-2.1l2.69,1.5c-.42.71-.85,1.32-1.32,1.82s-.96.92-1.49,1.25c-.53.33-1.1.56-1.71.71s-1.28.23-2,.23c-2.06,0-3.71-.66-4.96-1.98-1.25-1.33-1.87-3.1-1.87-5.3s.6-3.95,1.81-5.3c1.22-1.33,2.83-2,4.84-2s3.63.65,4.81,1.94c1.17,1.28,1.76,3.06,1.76,5.34v.75Zm-3.27-2.61c-.44-1.7-1.51-2.55-3.21-2.55-.39,0-.75.06-1.09.18s-.65.29-.93.51c-.28.22-.52.49-.71.8-.2.31-.35.67-.45,1.06h6.4Z"/>
            <path d="m124.85,679.51h-3.19v-21.3h3.19v1.5c1.26-1.26,2.68-1.88,4.28-1.88,1.9,0,3.46.7,4.69,2.1,1.25,1.39,1.87,3.14,1.87,5.25s-.62,3.79-1.85,5.17c-1.23,1.37-2.78,2.05-4.64,2.05-1.61,0-3.06-.65-4.33-1.94v9.05Zm7.58-14.32c0-1.32-.36-2.4-1.08-3.23-.73-.84-1.64-1.26-2.75-1.26-1.17,0-2.12.41-2.85,1.22s-1.09,1.88-1.09,3.2.36,2.36,1.09,3.2c.72.82,1.66,1.23,2.83,1.23,1.1,0,2.02-.42,2.73-1.25.74-.83,1.11-1.87,1.11-3.12Z"/>
            <path d="m138.4,665.01c0-1.99.71-3.69,2.14-5.08,1.43-1.4,3.16-2.1,5.21-2.1s3.8.7,5.24,2.11c1.42,1.41,2.12,3.13,2.12,5.18s-.71,3.8-2.14,5.2c-1.43,1.39-3.2,2.08-5.28,2.08s-3.8-.71-5.2-2.12c-1.4-1.4-2.1-3.15-2.1-5.27Zm3.26.06c0,1.38.37,2.47,1.1,3.27.76.81,1.75,1.22,2.99,1.22s2.24-.4,2.99-1.2c.75-.8,1.12-1.87,1.12-3.21s-.37-2.41-1.12-3.21c-.76-.81-1.75-1.22-2.99-1.22s-2.2.41-2.96,1.22c-.76.81-1.13,1.86-1.13,3.14Z"/>
            <path d="m159.94,661.19v10.82h-3.19v-10.82h-1.36v-2.97h1.36v-5.06h3.19v5.06h2.48v2.97h-2.48Z"/>
            <path d="m164.59,658.22h3.19v1.23c.58-.61,1.1-1.03,1.56-1.26.46-.24,1.01-.35,1.64-.35.84,0,1.72.27,2.63.82l-1.46,2.92c-.6-.43-1.19-.65-1.77-.65-1.74,0-2.61,1.31-2.61,3.94v7.15h-3.19v-13.79Z"/>
            <path d="m187.79,665.86h-9.88c.08,1.13.45,2.03,1.1,2.7.65.66,1.49.99,2.51.99.79,0,1.45-.19,1.97-.57.51-.38,1.09-1.08,1.74-2.1l2.69,1.5c-.42.71-.85,1.32-1.32,1.82-.46.5-.96.92-1.49,1.25-.53.33-1.1.56-1.71.71-.61.15-1.28.23-2,.23-2.06,0-3.71-.66-4.96-1.98-1.25-1.33-1.87-3.1-1.87-5.3s.6-3.95,1.81-5.3c1.22-1.33,2.83-2,4.84-2s3.63.65,4.81,1.94c1.17,1.28,1.76,3.06,1.76,5.34v.75Zm-3.27-2.61c-.44-1.7-1.51-2.55-3.21-2.55-.39,0-.75.06-1.09.18s-.65.29-.93.51-.52.49-.71.8c-.2.31-.35.67-.45,1.06h6.4Z"/>
            <path d="m194.46,648.09v11.72c1.27-1.32,2.72-1.98,4.33-1.98,1.86,0,3.41.69,4.64,2.08,1.24,1.38,1.85,3.1,1.85,5.15s-.62,3.88-1.87,5.27c-1.24,1.38-2.8,2.07-4.69,2.07-1.59,0-3.02-.61-4.28-1.84v1.44h-3.19v-23.92h3.19Zm7.58,17.12c0-1.32-.36-2.4-1.08-3.23-.73-.85-1.64-1.27-2.73-1.27-1.17,0-2.12.41-2.86,1.23-.73.81-1.09,1.87-1.09,3.17s.36,2.41,1.08,3.21c.72.82,1.66,1.23,2.83,1.23,1.1,0,2.02-.41,2.75-1.23.74-.83,1.11-1.87,1.11-3.12Z"/>
            <path d="m211.85,648.09v11.72c1.27-1.32,2.72-1.98,4.33-1.98,1.86,0,3.41.69,4.64,2.08,1.24,1.38,1.85,3.1,1.85,5.15s-.62,3.88-1.87,5.27c-1.24,1.38-2.8,2.07-4.69,2.07-1.59,0-3.02-.61-4.28-1.84v1.44h-3.19v-23.92h3.19Zm7.58,17.12c0-1.32-.36-2.4-1.08-3.23-.73-.85-1.64-1.27-2.73-1.27-1.17,0-2.12.41-2.86,1.23-.73.81-1.09,1.87-1.09,3.17s.36,2.41,1.08,3.21c.72.82,1.66,1.23,2.83,1.23,1.1,0,2.02-.41,2.75-1.23.74-.83,1.11-1.87,1.11-3.12Z"/>
            <path d="m238.62,665.86h-9.88c.08,1.13.45,2.03,1.1,2.7.65.66,1.49.99,2.51.99.79,0,1.45-.19,1.97-.57.51-.38,1.09-1.08,1.74-2.1l2.69,1.5c-.42.71-.86,1.32-1.32,1.82s-.96.92-1.49,1.25c-.53.33-1.1.56-1.71.71s-1.28.23-2,.23c-2.06,0-3.71-.66-4.96-1.98-1.25-1.33-1.87-3.1-1.87-5.3s.6-3.95,1.81-5.3c1.22-1.33,2.83-2,4.84-2s3.63.65,4.81,1.94c1.17,1.28,1.76,3.06,1.76,5.34v.75Zm-3.27-2.61c-.44-1.7-1.52-2.55-3.21-2.55-.39,0-.75.06-1.09.18s-.65.29-.93.51c-.28.22-.52.49-.71.8-.2.31-.35.67-.45,1.06h6.4Z"/>
            <path d="m254.33,661.19v10.82h-3.19v-10.82h-1.36v-2.97h1.36v-5.06h3.19v5.06h2.48v2.97h-2.48Z"/>
            <path d="m258.53,665.01c0-1.99.71-3.69,2.14-5.08,1.42-1.4,3.16-2.1,5.21-2.1s3.8.7,5.24,2.11c1.42,1.41,2.12,3.13,2.12,5.18s-.71,3.8-2.14,5.2c-1.44,1.39-3.2,2.08-5.28,2.08s-3.8-.71-5.2-2.12c-1.4-1.4-2.1-3.15-2.1-5.27Zm3.26.06c0,1.38.37,2.47,1.1,3.27.76.81,1.75,1.22,2.99,1.22s2.24-.4,2.99-1.2,1.12-1.87,1.12-3.21-.37-2.41-1.12-3.21c-.75-.81-1.75-1.22-2.99-1.22s-2.21.41-2.96,1.22-1.13,1.86-1.13,3.14Z"/>
            <path d="m276.61,658.22h3.19v1.23c.58-.61,1.1-1.03,1.56-1.26.46-.24,1.01-.35,1.64-.35.84,0,1.72.27,2.63.82l-1.46,2.92c-.6-.43-1.2-.65-1.77-.65-1.74,0-2.61,1.31-2.61,3.94v7.15h-3.19v-13.79Z"/>
            <path d="m287.89,658.22h3.2v1.27c1.11-1.1,2.37-1.66,3.77-1.66,1.6,0,2.86.5,3.75,1.51.77.86,1.16,2.26,1.16,4.21v8.45h-3.2v-7.7c0-1.36-.19-2.3-.57-2.82-.37-.53-1.04-.79-2.01-.79-1.06,0-1.81.35-2.25,1.05-.43.69-.65,1.89-.65,3.61v6.66h-3.2v-13.79Z"/>
            <path d="m313.96,658.22h3.2v13.79h-3.2v-1.44c-1.31,1.23-2.72,1.84-4.23,1.84-1.91,0-3.48-.69-4.73-2.07-1.24-1.41-1.85-3.16-1.85-5.27s.62-3.79,1.85-5.17c1.24-1.38,2.78-2.07,4.64-2.07,1.6,0,3.04.66,4.32,1.98v-1.6Zm-7.56,6.85c0,1.32.35,2.4,1.06,3.23.73.84,1.64,1.26,2.75,1.26,1.18,0,2.13-.41,2.86-1.22.73-.84,1.09-1.91,1.09-3.2s-.36-2.36-1.09-3.2c-.73-.82-1.67-1.23-2.83-1.23-1.1,0-2.01.42-2.75,1.25-.73.84-1.09,1.88-1.09,3.12Z"/>
            <path d="m321.18,658.22h3.19v1.23c.58-.61,1.1-1.03,1.56-1.26.46-.24,1.01-.35,1.64-.35.84,0,1.72.27,2.63.82l-1.46,2.92c-.6-.43-1.2-.65-1.77-.65-1.74,0-2.61,1.31-2.61,3.94v7.15h-3.19v-13.79Z"/>
            <path d="m344.39,665.86h-9.88c.08,1.13.45,2.03,1.1,2.7.65.66,1.49.99,2.51.99.79,0,1.45-.19,1.97-.57.51-.38,1.09-1.08,1.74-2.1l2.69,1.5c-.42.71-.85,1.32-1.32,1.82s-.96.92-1.49,1.25c-.53.33-1.1.56-1.71.71s-1.28.23-2,.23c-2.06,0-3.71-.66-4.96-1.98-1.25-1.33-1.87-3.1-1.87-5.3s.6-3.95,1.81-5.3c1.22-1.33,2.83-2,4.84-2s3.63.65,4.81,1.94c1.17,1.28,1.76,3.06,1.76,5.34v.75Zm-3.27-2.61c-.44-1.7-1.51-2.55-3.21-2.55-.39,0-.75.06-1.09.18s-.65.29-.93.51c-.28.22-.52.49-.71.8-.2.31-.35.67-.45,1.06h6.4Z"/>
            <path d="m366.99,658.22h3.2v13.79h-3.2v-1.44c-1.31,1.23-2.72,1.84-4.23,1.84-1.91,0-3.48-.69-4.73-2.07-1.24-1.41-1.86-3.16-1.86-5.27s.62-3.79,1.86-5.17c1.24-1.38,2.78-2.07,4.64-2.07,1.6,0,3.04.66,4.32,1.98v-1.6Zm-7.56,6.85c0,1.32.35,2.4,1.06,3.23.73.84,1.64,1.26,2.75,1.26,1.18,0,2.13-.41,2.86-1.22.73-.84,1.09-1.91,1.09-3.2s-.36-2.36-1.09-3.2c-.73-.82-1.67-1.23-2.83-1.23-1.09,0-2.01.42-2.75,1.25-.73.84-1.09,1.88-1.09,3.12Z"/>
            <path d="m268.38,688.05v18.76h-3.3v-18.76h-5.03v-3.1h13.34v3.1h-5.01Z"/>
            <path d="m274.74,693.02h3.19v1.23c.58-.61,1.1-1.03,1.56-1.26.46-.24,1.01-.35,1.64-.35.84,0,1.72.27,2.63.82l-1.46,2.92c-.6-.43-1.2-.65-1.77-.65-1.74,0-2.61,1.31-2.61,3.94v7.15h-3.19v-13.79Z"/>
            <path d="m285.54,687.28c0-.56.2-1.04.61-1.44.41-.41.89-.61,1.46-.61s1.07.2,1.47.61c.41.4.61.88.61,1.46s-.2,1.07-.61,1.47c-.4.41-.88.61-1.46.61s-1.07-.2-1.47-.61c-.41-.41-.61-.9-.61-1.49Zm3.67,5.74v13.79h-3.19v-13.79h3.19Z"/>
            <path d="m303.98,693.61v4.23c-.73-.89-1.38-1.5-1.95-1.83-.57-.34-1.23-.51-2-.51-1.2,0-2.2.42-2.99,1.26-.79.84-1.19,1.89-1.19,3.16s.38,2.36,1.15,3.19c.77.83,1.76,1.25,2.96,1.25.76,0,1.44-.17,2.02-.5.57-.32,1.23-.94,2-1.87v4.21c-1.29.67-2.59,1.01-3.88,1.01-2.13,0-3.92-.69-5.35-2.07-1.43-1.39-2.15-3.11-2.15-5.17s.73-3.79,2.18-5.21,3.24-2.12,5.35-2.12c1.36,0,2.64.33,3.85.98Z"/>
            <path d="m317.23,693.02h3.2v13.79h-3.2v-1.44c-1.31,1.23-2.72,1.84-4.23,1.84-1.91,0-3.48-.69-4.73-2.07-1.24-1.41-1.85-3.16-1.85-5.27s.62-3.79,1.85-5.17c1.24-1.38,2.79-2.07,4.64-2.07,1.61,0,3.04.66,4.32,1.98v-1.6Zm-7.56,6.85c0,1.32.35,2.4,1.06,3.23.73.84,1.64,1.26,2.75,1.26,1.18,0,2.13-.41,2.86-1.22.73-.84,1.09-1.91,1.09-3.2s-.36-2.36-1.09-3.2c-.73-.82-1.67-1.23-2.83-1.23-1.1,0-2.01.42-2.75,1.25-.73.84-1.09,1.88-1.09,3.12Z"/>
            <path d="m324.45,693.02h3.19v1.23c.59-.61,1.11-1.03,1.56-1.26.46-.24,1.01-.35,1.64-.35.84,0,1.72.27,2.63.82l-1.46,2.92c-.6-.43-1.19-.65-1.77-.65-1.74,0-2.61,1.31-2.61,3.94v7.15h-3.19v-13.79Z"/>
            <path d="m335.26,687.28c0-.56.2-1.04.61-1.44.41-.41.89-.61,1.46-.61s1.07.2,1.47.61c.41.4.61.88.61,1.46s-.2,1.07-.61,1.47c-.4.41-.88.61-1.46.61s-1.07-.2-1.47-.61-.61-.9-.61-1.49Zm3.67,5.74v13.79h-3.19v-13.79h3.19Z"/>
            <path d="m353.69,693.61v4.23c-.73-.89-1.38-1.5-1.95-1.83-.57-.34-1.23-.51-2-.51-1.2,0-2.19.42-2.99,1.26-.79.84-1.19,1.89-1.19,3.16s.38,2.36,1.15,3.19c.77.83,1.76,1.25,2.96,1.25.77,0,1.44-.17,2.03-.5.57-.32,1.23-.94,2-1.87v4.21c-1.29.67-2.59,1.01-3.88,1.01-2.13,0-3.92-.69-5.35-2.07-1.43-1.39-2.15-3.11-2.15-5.17s.73-3.79,2.18-5.21c1.45-1.42,3.24-2.12,5.35-2.12,1.36,0,2.64.33,3.85.98Z"/>
            <path d="m356.13,699.81c0-1.99.71-3.69,2.14-5.08,1.43-1.4,3.16-2.1,5.21-2.1s3.8.7,5.24,2.11c1.42,1.41,2.12,3.13,2.12,5.18s-.71,3.8-2.14,5.2c-1.43,1.39-3.2,2.08-5.28,2.08s-3.8-.71-5.2-2.12c-1.4-1.4-2.1-3.15-2.1-5.27Zm3.26.06c0,1.38.37,2.47,1.1,3.27.76.81,1.75,1.22,2.99,1.22s2.24-.4,2.99-1.2c.75-.8,1.12-1.87,1.12-3.21s-.37-2.41-1.12-3.21c-.76-.81-1.75-1.22-2.99-1.22s-2.2.41-2.96,1.22c-.76.81-1.13,1.86-1.13,3.14Z"/>
          </g>
        </g>
      </g>
      <g>
        <g>
          <path class="cls-13" d="m168.83,334.01c-44.06.69-80.76-35.43-80.76-79.49,0-40.41,30.15-73.78,69.19-78.83,4.12-.53,7.21-4.04,7.21-8.2v-14.73c0-4.88-4.2-8.72-9.06-8.24-26.7,2.66-49.77,14.26-68.71,34.57-20.14,21.6-30.67,49.75-29.64,79.27,1.03,29.52,13.49,56.87,35.1,77.01,21.6,20.14,49.76,30.67,79.27,29.64,25.38-.89,49.16-10.22,68.13-26.55,3.74-3.22,3.87-8.97.26-12.34l-10.7-9.98c-3.05-2.84-7.72-2.96-10.93-.31-13.45,11.12-30.61,17.89-49.35,18.18Z"/>
          <path class="cls-14" d="m245.76,176.31c-17.96-17.96-41-28.98-65.88-31.71-4.91-.54-9.2,3.29-9.2,8.23v14.66c0,4.13,3.05,7.67,7.15,8.2,39.07,5.03,69.25,38.41,69.25,78.84,0,17.25-5.5,33.22-14.84,46.26-2.41,3.36-1.91,8,1.12,10.82l10.75,10.03c3.58,3.34,9.26,2.85,12.23-1.04,14.66-19.2,21.81-40.94,21.81-66.08,0-29.54-11.5-57.3-32.39-78.19Z"/>
        </g>
        <g>
          <rect class="cls-14" x="342.89" y="168.28" width="212" height="173" rx="38.91" ry="38.91"/>
          <text class="cls-4" transform="translate(357.34 243.77)"><tspan class="cls-21" x="0" y="0">3</tspan><tspan x="19.02" y="0">7% L</tspan><tspan class="cls-19" x="94.85" y="0">a</tspan><tspan class="cls-23" x="115.04" y="0">v</tspan><tspan x="131.08" y="0">o</tspan><tspan class="cls-7" x="151.03" y="0">r</tspan><tspan x="163.15" y="0">o </tspan><tspan x="26.52" y="39.82">pubblico</tspan></text>
        </g>
      </g>
      <g>
        <rect class="cls-14" x="54.04" y="914" width="63.59" height="48.04" rx="24.02" ry="24.02"/>
        <rect class="cls-12" x="54.04" y="860.63" width="79.53" height="48.04" rx="24.02" ry="24.02"/>
        <rect class="cls-13" x="54.04" y="807.25" width="413.76" height="48.04" rx="24.02" ry="24.02"/>
        <rect class="cls-14" x="54.04" y="753.88" width="48.04" height="48.04" rx="24.02" ry="24.02"/>
        <text class="cls-3" transform="translate(150.8 894.39)"><tspan x="0" y="0">A</tspan><tspan class="cls-25" x="16.85" y="0">f</tspan><tspan class="cls-17" x="24.35" y="0">f</tspan><tspan x="31.58" y="0">ini</tspan><tspan class="cls-20" x="55.38" y="0">t</tspan><tspan class="cls-11" x="61.8" y="0">a</tspan><tspan x="75.76" y="0">’ cultu</tspan><tspan class="cls-15" x="137.72" y="0">r</tspan><tspan x="146.07" y="0">ale</tspan></text>
        <text class="cls-3" transform="translate(150.8 945.07)"><tspan x="0" y="0">Alt</tspan><tspan class="cls-8" x="28.73" y="0">r</tspan><tspan x="37.04" y="0">o</tspan></text>
        <text class="cls-3" transform="translate(133.8 778.76)"><tspan class="cls-16" x="0" y="0">F</tspan><tspan x="11.41" y="0">amiglia</tspan></text>
        <text class="cls-3" transform="translate(491.8 836.45)"><tspan x="0" y="0">L</tspan><tspan class="cls-20" x="10.08" y="0">a</tspan><tspan class="cls-22" x="23.92" y="0">v</tspan><tspan x="34.92" y="0">o</tspan><tspan class="cls-8" x="48.59" y="0">r</tspan><tspan x="56.89" y="0">o</tspan></text>
        <text class="cls-6" transform="translate(55.89 790.9)"><tspan x="0" y="0">3,7</tspan></text>
        <text class="cls-6" transform="translate(391.04 840.96)"><tspan x="0" y="0">96,3</tspan></text>
        <text class="cls-6" transform="translate(60.92 896.34)"><tspan class="cls-18" x="0" y="0">1</tspan><tspan x="15.72" y="0">8,5</tspan></text>
        <text class="cls-6" transform="translate(55.98 948.71)"><tspan class="cls-1" x="0" y="0">1</tspan><tspan x="15.6" y="0">4,8</tspan></text>
      </g>
    </g>
  </g>
</svg>