<?xml version="1.0" encoding="UTF-8"?>
<svg id="Livello_2" data-name="Livello 2" xmlns="http://www.w3.org/2000/svg" viewBox="0 0 598.72 969.04">
  <defs>
    <style>
      .cls-1 {
        letter-spacing: -.09em;
      }

      .cls-2 {
        letter-spacing: -.05em;
      }

      .cls-3 {
        letter-spacing: -.03em;
      }

      .cls-4 {
        letter-spacing: -.03em;
      }

      .cls-5 {
        font-size: 22.74px;
      }

      .cls-5, .cls-6, .cls-7 {
        font-family: Futura-Medium, Futura;
        font-weight: 500;
      }

      .cls-8 {
        letter-spacing: 0em;
      }

      .cls-9 {
        letter-spacing: -.02em;
      }

      .cls-10 {
        letter-spacing: -.13em;
      }

      .cls-11 {
        letter-spacing: -.06em;
      }

      .cls-12 {
        fill: #fbb03b;
      }

      .cls-12, .cls-13, .cls-14 {
        stroke: #000;
        stroke-miterlimit: 10;
        stroke-width: 2px;
      }

      .cls-15 {
        letter-spacing: 0em;
      }

      .cls-16 {
        letter-spacing: 0em;
      }

      .cls-13 {
        fill: #dfad73;
      }

      .cls-14 {
        fill: #d0d2a3;
      }

      .cls-17 {
        letter-spacing: 0em;
      }

      .cls-18 {
        letter-spacing: .02em;
      }

      .cls-19 {
        letter-spacing: 0em;
      }

      .cls-20 {
        letter-spacing: .02em;
      }

      .cls-21 {
        letter-spacing: .02em;
      }

      .cls-22 {
        letter-spacing: -.02em;
      }

      .cls-23 {
        letter-spacing: -.02em;
      }

      .cls-6 {
        font-size: 72px;
      }

      .cls-24 {
        letter-spacing: 0em;
      }

      .cls-25 {
        letter-spacing: 0em;
      }

      .cls-7 {
        font-size: 29px;
      }

      .cls-26 {
        letter-spacing: 0em;
      }
    </style>
  </defs>
  <g id="Livello_5" data-name="Livello 5">
    <g>
      <text class="cls-6" transform="translate(18.01 63.4)"><tspan class="cls-25" x="0" y="0">V</tspan><tspan x="49.39" y="0">i</tspan><tspan class="cls-9" x="67.32" y="0">v</tspan><tspan x="102.27" y="0">e a </tspan><tspan class="cls-4" x="229.71" y="0">T</tspan><tspan class="cls-20" x="261.98" y="0">r</tspan><tspan x="290" y="0">ica</tspan><tspan class="cls-20" x="385.42" y="0">r</tspan><tspan x="413.44" y="0">ico</tspan></text>
      <g>
        <rect class="cls-13" x="39.85" y="920" width="63.7" height="48.04" rx="24.02" ry="24.02"/>
        <rect class="cls-14" x="39.85" y="866.63" width="105.87" height="48.04" rx="24.02" ry="24.02"/>
        <rect class="cls-12" x="39.85" y="813.25" width="238.24" height="48.04" rx="24.02" ry="24.02"/>
        <rect class="cls-13" x="39.85" y="759.88" width="167.59" height="48.04" rx="24.02" ry="24.02"/>
        <rect class="cls-14" x="39.85" y="706.5" width="405.83" height="48.04" rx="24.02" ry="24.02"/>
        <text class="cls-5" transform="translate(131.62 957.32)"><tspan class="cls-22" x="0" y="0">P</tspan><tspan x="11.72" y="0">ensiona</tspan><tspan class="cls-17" x="91.44" y="0">t</tspan><tspan x="97.82" y="0">o, disoccupa</tspan><tspan class="cls-17" x="229.07" y="0">t</tspan><tspan class="cls-24" x="235.45" y="0">o o alt</tspan><tspan class="cls-8" x="302.35" y="0">r</tspan><tspan x="310.65" y="0">o</tspan></text>
        <text class="cls-5" transform="translate(308.62 847.01)"><tspan x="0" y="0">L</tspan><tspan class="cls-19" x="10.08" y="0">a</tspan><tspan class="cls-23" x="23.92" y="0">v</tspan><tspan x="34.92" y="0">o</tspan><tspan class="cls-15" x="48.59" y="0">r</tspan><tspan x="56.94" y="0">a fuo</tspan><tspan class="cls-21" x="110.41" y="0">r</tspan><tspan class="cls-26" x="119.26" y="0">i </tspan><tspan class="cls-3" x="131.94" y="0">T</tspan><tspan class="cls-21" x="142.14" y="0">r</tspan><tspan x="150.99" y="0">ica</tspan><tspan class="cls-21" x="181.13" y="0">r</tspan><tspan x="189.98" y="0">ico</tspan></text>
        <text class="cls-5" transform="translate(187.62 902.7)"><tspan class="cls-18" x="0" y="0">S</tspan><tspan x="13.65" y="0">tudia fuo</tspan><tspan class="cls-21" x="105.04" y="0">r</tspan><tspan class="cls-26" x="113.89" y="0">i </tspan><tspan class="cls-3" x="126.57" y="0">T</tspan><tspan class="cls-21" x="136.76" y="0">r</tspan><tspan x="145.61" y="0">ica</tspan><tspan class="cls-21" x="175.75" y="0">r</tspan><tspan x="184.61" y="0">ico</tspan></text>
        <text class="cls-5" transform="translate(459.62 727.39)"><tspan x="0" y="0">L</tspan><tspan class="cls-19" x="10.08" y="0">a</tspan><tspan class="cls-23" x="23.92" y="0">v</tspan><tspan x="34.92" y="0">o</tspan><tspan class="cls-15" x="48.59" y="0">r</tspan><tspan x="56.94" y="0">a a </tspan><tspan class="cls-3" x="0" y="27.29">T</tspan><tspan class="cls-21" x="10.19" y="27.29">r</tspan><tspan x="19.05" y="27.29">ica</tspan><tspan class="cls-21" x="49.19" y="27.29">r</tspan><tspan x="58.04" y="27.29">ico</tspan></text>
        <text class="cls-5" transform="translate(232.62 791.07)"><tspan class="cls-18" x="0" y="0">S</tspan><tspan x="13.65" y="0">tudia a </tspan><tspan class="cls-3" x="92.88" y="0">T</tspan><tspan class="cls-21" x="103.07" y="0">r</tspan><tspan x="111.92" y="0">ica</tspan><tspan class="cls-21" x="142.06" y="0">r</tspan><tspan x="150.91" y="0">ico</tspan></text>
        <text class="cls-7" transform="translate(372.54 741.52)"><tspan x="0" y="0">4</tspan><tspan class="cls-2" x="17.9" y="0">1</tspan><tspan x="34.47" y="0">,8</tspan></text>
        <text class="cls-7" transform="translate(139.03 793.58)"><tspan class="cls-1" x="0" y="0">1</tspan><tspan class="cls-10" x="15.21" y="0">7</tspan><tspan x="29.4" y="0">,3</tspan></text>
        <text class="cls-7" transform="translate(192.43 849.96)"><tspan class="cls-16" x="0" y="0">2</tspan><tspan x="17.7" y="0">4,5</tspan></text>
        <text class="cls-7" transform="translate(74.7 901.33)"><tspan class="cls-11" x="0" y="0">1</tspan><tspan x="16.16" y="0">0,9</tspan></text>
        <text class="cls-7" transform="translate(47.66 956.93)"><tspan x="0" y="0">6,5</tspan></text>
      </g>
      <g>
        <g>
          <rect class="cls-14" x="363.36" y="172.55" width="159" height="173" rx="38.91" ry="38.91"/>
          <g>
            <path d="m409.61,226.64h-12.35v-3.53h18.65l-15.78,25.88-3-1.9,12.48-20.45Z"/>
            <path d="m423.48,248.99l-2.77-2.06,5.98-8.15c-.32.04-.6.08-.83.1-.23.02-.41.03-.55.03-2.02,0-3.77-.77-5.25-2.32-1.47-1.53-2.2-3.38-2.2-5.54,0-2.3.82-4.27,2.45-5.9,1.64-1.64,3.61-2.46,5.9-2.46s4.26.81,5.95,2.43c1.69,1.61,2.53,3.51,2.53,5.7,0,1.94-.82,4.04-2.46,6.3l-8.73,11.86Zm-1.94-18.21c0,1.35.46,2.48,1.38,3.4.93.93,2.05,1.39,3.35,1.39s2.42-.46,3.34-1.38,1.39-2.05,1.39-3.35-.46-2.42-1.39-3.35-2.04-1.38-3.35-1.38-2.4.46-3.32,1.38c-.93.93-1.39,2.03-1.39,3.29Z"/>
            <path d="m439.37,246.31c0-.61.22-1.13.66-1.57.44-.44.97-.66,1.59-.66s1.15.22,1.59.66c.44.44.66.97.66,1.59s-.22,1.16-.66,1.6c-.43.43-.96.65-1.59.65s-1.17-.22-1.6-.65c-.43-.43-.65-.97-.65-1.62Z"/>
            <path d="m453.08,226.64h-4.33l2.07-3.53h6.03v25.02h-3.78v-21.49Z"/>
            <path d="m465.81,228.67c0-1.57.6-2.93,1.8-4.08,1.22-1.16,2.63-1.73,4.23-1.73s3.06.58,4.25,1.75c1.19,1.16,1.78,2.54,1.78,4.15s-.59,3.01-1.78,4.16c-1.19,1.16-2.62,1.73-4.29,1.73s-3.05-.59-4.23-1.77c-1.17-1.18-1.75-2.58-1.75-4.21Zm2.82.05c0,.91.31,1.67.94,2.3.63.63,1.39.94,2.28.94s1.63-.31,2.25-.94c.63-.63.94-1.38.94-2.27s-.31-1.63-.94-2.25c-.63-.63-1.38-.94-2.27-.94s-1.64.31-2.27.94c-.63.63-.94,1.37-.94,2.22Zm17.42-6.04l1.77,1-14.32,24.86-1.78-1.07,14.34-24.79Zm-4.41,19.7c0-1.56.6-2.91,1.8-4.07,1.22-1.16,2.63-1.73,4.23-1.73s3.07.58,4.26,1.75c1.19,1.16,1.78,2.54,1.78,4.15s-.6,3.02-1.8,4.17c-1.18,1.14-2.61,1.72-4.29,1.72s-3.05-.58-4.23-1.75c-1.17-1.17-1.75-2.58-1.75-4.23Zm2.84.06c0,.91.31,1.67.92,2.3.63.63,1.39.94,2.28.94s1.64-.31,2.25-.94c.63-.63.94-1.38.94-2.27s-.31-1.64-.94-2.27c-.62-.63-1.37-.94-2.27-.94s-1.63.31-2.25.94c-.63.63-.94,1.37-.94,2.24Z"/>
            <path d="m395.78,260.58h3.65v12.9c1.3-1.17,2.73-1.75,4.29-1.75,1.78,0,3.21.58,4.28,1.73.91,1,1.36,2.61,1.36,4.81v9.67h-3.65v-9.33c0-1.26-.22-2.18-.67-2.75-.45-.57-1.17-.85-2.16-.85-1.27,0-2.17.39-2.69,1.18-.51.8-.76,2.17-.76,4.12v7.63h-3.65v-27.37Z"/>
            <path d="m425.61,272.17h3.66v15.78h-3.66v-1.65c-1.5,1.4-3.12,2.11-4.84,2.11-2.18,0-3.99-.79-5.41-2.37-1.42-1.61-2.12-3.62-2.12-6.03s.71-4.34,2.12-5.91c1.42-1.58,3.19-2.37,5.31-2.37,1.84,0,3.48.76,4.94,2.27v-1.83Zm-8.65,7.84c0,1.51.41,2.74,1.22,3.69.83.96,1.88,1.44,3.14,1.44,1.35,0,2.44-.46,3.27-1.39.83-.96,1.25-2.18,1.25-3.66s-.42-2.7-1.25-3.66c-.83-.94-1.91-1.41-3.24-1.41-1.25,0-2.3.47-3.14,1.43-.83.96-1.25,2.15-1.25,3.56Z"/>
            <path d="m447.89,275.57v12.38h-3.66v-12.38h-1.3v-3.4h1.3v-6.09c0-1.99.35-3.39,1.04-4.21.95-1.14,2.33-1.72,4.15-1.72.65,0,1.46.19,2.45.57v3.73l-.37-.19c-.79-.4-1.44-.6-1.94-.6-.65,0-1.09.23-1.31.7-.23.45-.34,1.33-.34,2.62v5.2h3.97v3.4h-3.97Z"/>
            <path d="m454.12,265.61c0-.64.23-1.19.7-1.65.46-.46,1.02-.7,1.67-.7s1.22.23,1.69.7c.46.45.7,1.01.7,1.67s-.23,1.22-.7,1.69c-.45.46-1.01.7-1.67.7s-1.22-.23-1.69-.7c-.46-.46-.7-1.03-.7-1.7Zm4.2,6.56v15.78h-3.65v-15.78h3.65Z"/>
            <path d="m478.19,287.58c0,.75-.02,1.4-.07,1.97-.05.57-.12,1.07-.2,1.5-.26,1.19-.77,2.21-1.52,3.06-1.43,1.64-3.39,2.46-5.88,2.46-2.11,0-3.84-.57-5.2-1.7-1.4-1.17-2.21-2.78-2.43-4.84h3.66c.14.78.37,1.38.7,1.8.76.98,1.86,1.47,3.31,1.47,2.67,0,4-1.64,4-4.91v-2.2c-1.45,1.48-3.12,2.22-5.01,2.22-2.15,0-3.91-.78-5.28-2.33-1.38-1.58-2.07-3.55-2.07-5.91s.64-4.26,1.93-5.87c1.38-1.71,3.21-2.56,5.48-2.56,1.99,0,3.64.74,4.96,2.22v-1.78h3.65v15.41Zm-3.5-7.49c0-1.53-.41-2.76-1.23-3.68-.83-.94-1.9-1.41-3.19-1.41-1.38,0-2.47.51-3.27,1.54-.72.92-1.09,2.11-1.09,3.56s.36,2.62,1.09,3.53c.79,1,1.88,1.51,3.27,1.51s2.5-.51,3.31-1.52c.75-.92,1.12-2.1,1.12-3.53Z"/>
            <path d="m486.44,260.58v27.37h-3.65v-27.37h3.65Z"/>
            <path d="m490.51,265.61c0-.64.23-1.19.7-1.65.46-.46,1.02-.7,1.67-.7s1.22.23,1.69.7c.46.45.7,1.01.7,1.67s-.23,1.22-.7,1.69c-.45.46-1.01.7-1.67.7s-1.22-.23-1.69-.7c-.46-.46-.7-1.03-.7-1.7Zm4.2,6.56v15.78h-3.65v-15.78h3.65Z"/>
          </g>
        </g>
        <g>
          <path class="cls-14" d="m263.94,181.08c-17.94-17.94-40.96-28.95-65.82-31.68-4.9-.54-9.19,3.29-9.19,8.22v14.63c0,4.15,3.08,7.66,7.2,8.19,38.94,5.04,69.04,38.29,69.12,78.59.09,43.91-36.58,80.15-80.48,79.58-43.37-.57-78.36-35.91-78.36-79.41,0-3.07.17-6.1.51-9.08.47-4.12-2.19-7.95-6.21-8.95l-14.27-3.56c-4.75-1.18-9.52,1.99-10.18,6.85s-.9,9.23-.9,14.74c0,29.51,11.49,57.25,32.35,78.11,20.86,20.86,48.6,32.35,78.11,32.35s57.25-11.49,78.11-32.35c20.86-20.86,32.35-48.6,32.35-78.11s-11.49-57.25-32.35-78.11Z"/>
          <path class="cls-13" d="m182.72,172.24v-14.64c0-4.91-4.25-8.75-9.13-8.23-20.44,2.2-39.56,9.92-55.86,22.66-16.3,12.74-28.42,29.42-35.5,48.72-1.69,4.61,1.01,9.66,5.77,10.85l14.19,3.54c4.04,1.01,8.18-1.15,9.7-5.02,10.4-26.42,34.54-45.92,63.63-49.69,4.12-.53,7.2-4.04,7.2-8.19Z"/>
        </g>
      </g>
      <g>
        <g>
          <path class="cls-13" d="m579.11,492.27l-13.04,6.65c-3.71,1.89-5.42,6.24-4.02,10.17,2.99,8.39,4.61,17.43,4.59,26.85-.11,43.91-36.31,79.63-80.22,79.19-18.44-.19-35.38-6.66-48.77-17.39-3.23-2.58-7.88-2.33-10.85.54l-10.47,10.11c-3.52,3.4-3.35,9.11.4,12.26,15.09,12.64,32.94,20.92,52.23,24.15,23.25,3.89,46.91.16,68.41-10.8,26.28-13.39,45.78-36.22,54.89-64.27,7.84-24.12,7.2-49.62-1.65-73-1.74-4.61-7.1-6.7-11.49-4.46Z"/>
          <path class="cls-12" d="m407.85,535.72c0-40.38,30.14-73.71,69.15-78.73,4.09-.53,7.13-4.06,7.13-8.19v-14.8c0-4.91-4.25-8.72-9.13-8.22-24.53,2.51-46.17,12.7-64.49,30.38-21.22,20.49-33.19,48.02-33.7,77.51-.44,25.36,7.63,49.56,22.92,69.33,3.02,3.9,8.75,4.33,12.3.9l10.48-10.12c2.99-2.89,3.36-7.54.89-10.88-9.77-13.19-15.55-29.52-15.55-47.19Z"/>
          <path class="cls-14" d="m563.22,493.41l13.14-6.69c4.37-2.23,5.84-7.74,3.18-11.87-18.23-28.35-46.54-45.69-80.07-49.07-4.88-.49-9.13,3.32-9.13,8.22v14.8c0,4.13,3.04,7.66,7.13,8.19,22.89,2.94,42.73,15.63,55.22,33.77,2.34,3.4,6.85,4.53,10.54,2.65Z"/>
        </g>
        <g>
          <rect class="cls-13" x="160.92" y="501.8" width="93.08" height="40" rx="14.73" ry="14.73"/>
          <rect class="cls-14" x="83.1" y="430.8" width="93.08" height="40" rx="14.73" ry="14.73"/>
          <rect class="cls-12" x="119.1" y="570.8" width="93.08" height="40" rx="14.73" ry="14.73"/>
          <g>
            <path d="m44.2,443.11c1.21,0,2.25.45,3.12,1.36.88.9,1.32,1.97,1.32,3.23s-.44,2.37-1.32,3.26c-.88.9-1.94,1.34-3.19,1.34s-2.29-.45-3.19-1.34c-.88-.91-1.32-1.99-1.32-3.24s.44-2.37,1.33-3.26c.9-.9,1.98-1.35,3.24-1.35Z"/>
            <path d="m66.3,436.99v21.86h-3.3v-21.86h3.3Z"/>
            <path d="m74.13,434.94v23.92h-3.19v-23.92h3.19Z"/>
            <path d="m92.96,440.08h-3.78l1.81-3.09h5.27v21.86h-3.3v-18.78Z"/>
            <path d="m111.83,436.23l2.42,1.81-5.23,7.11c.28-.04.52-.07.72-.08s.35-.03.47-.03c1.77,0,3.31.68,4.6,2.04,1.28,1.34,1.93,2.96,1.93,4.84,0,2-.72,3.72-2.15,5.15-1.43,1.43-3.14,2.14-5.14,2.14s-3.72-.7-5.21-2.11c-1.46-1.41-2.19-3.07-2.19-5,0-1.73.71-3.56,2.14-5.49l7.65-10.38Zm1.7,15.9c0-1.16-.4-2.14-1.2-2.95-.81-.81-1.79-1.22-2.93-1.22s-2.13.4-2.93,1.2-1.2,1.77-1.2,2.92.4,2.11,1.2,2.92,1.78,1.2,2.95,1.2,2.1-.4,2.9-1.2c.81-.81,1.22-1.77,1.22-2.88Z"/>
            <path d="m122.33,454.76l2.83,1.1-4.04,8.09-2.15-.89,3.36-8.3Z"/>
            <path d="m141.6,452.75h2.32v3h-2.32v3.1h-3.3v-3.1h-10.73l14.03-20.39v17.39Zm-3.3,0v-7.32l-5.04,7.32h5.04Z"/>
            <path d="m146.29,441.85c0-1.37.52-2.56,1.57-3.57,1.07-1.01,2.3-1.52,3.7-1.52s2.67.51,3.71,1.53c1.04,1.01,1.56,2.22,1.56,3.62s-.52,2.63-1.56,3.64c-1.04,1.01-2.29,1.52-3.75,1.52s-2.67-.51-3.7-1.54c-1.02-1.03-1.53-2.26-1.53-3.68Zm2.46.04c0,.79.27,1.46.82,2.01s1.21.82,2,.82,1.42-.27,1.97-.82.82-1.21.82-1.98-.27-1.42-.82-1.97c-.55-.55-1.21-.82-1.98-.82s-1.44.27-1.98.82c-.55.55-.82,1.19-.82,1.94Zm15.22-5.28l1.54.88-12.52,21.72-1.56-.93,12.53-21.67Zm-3.85,17.22c0-1.36.52-2.54,1.57-3.55,1.07-1.01,2.3-1.51,3.7-1.51s2.69.51,3.72,1.53c1.04,1.01,1.56,2.22,1.56,3.62s-.52,2.64-1.57,3.64c-1.03,1-2.28,1.5-3.75,1.5s-2.67-.51-3.7-1.53c-1.02-1.02-1.53-2.25-1.53-3.7Zm2.48.06c0,.79.27,1.46.81,2.01.55.55,1.21.82,2,.82s1.43-.27,1.97-.82c.55-.55.82-1.21.82-1.98s-.27-1.44-.82-1.98c-.54-.55-1.2-.82-1.98-.82s-1.42.27-1.97.82c-.55.55-.82,1.2-.82,1.95Z"/>
            <path d="m182.72,434.94h3.19v11.27c1.13-1.02,2.38-1.53,3.75-1.53,1.56,0,2.8.5,3.74,1.51.79.88,1.19,2.28,1.19,4.21v8.45h-3.19v-8.16c0-1.1-.2-1.9-.59-2.4-.39-.5-1.02-.74-1.89-.74-1.11,0-1.9.34-2.35,1.03-.44.7-.67,1.9-.67,3.6v6.67h-3.19v-23.92Z"/>
            <path d="m208.79,445.06h3.2v13.79h-3.2v-1.44c-1.31,1.23-2.72,1.84-4.23,1.84-1.91,0-3.48-.69-4.73-2.07-1.24-1.41-1.85-3.16-1.85-5.27s.62-3.79,1.85-5.17c1.24-1.38,2.78-2.07,4.64-2.07,1.6,0,3.04.66,4.32,1.98v-1.6Zm-7.56,6.85c0,1.32.35,2.4,1.06,3.23.73.84,1.64,1.26,2.75,1.26,1.18,0,2.13-.41,2.86-1.22.73-.84,1.09-1.91,1.09-3.2s-.36-2.36-1.09-3.2c-.73-.82-1.67-1.23-2.83-1.23-1.1,0-2.01.42-2.75,1.25-.73.84-1.09,1.88-1.09,3.12Z"/>
            <path d="m228.15,466.36h-3.19v-21.3h3.19v1.5c1.26-1.26,2.68-1.88,4.28-1.88,1.9,0,3.46.7,4.69,2.1,1.25,1.39,1.87,3.14,1.87,5.25s-.62,3.79-1.85,5.17c-1.23,1.37-2.78,2.05-4.64,2.05-1.61,0-3.06-.65-4.33-1.94v9.05Zm7.58-14.32c0-1.32-.36-2.4-1.08-3.23-.73-.84-1.64-1.26-2.75-1.26-1.17,0-2.12.41-2.85,1.22s-1.09,1.88-1.09,3.2.36,2.36,1.09,3.2c.72.82,1.66,1.23,2.83,1.23,1.1,0,2.02-.42,2.73-1.25.74-.83,1.1-1.87,1.1-3.12Z"/>
            <path d="m254.91,452.71h-9.88c.08,1.13.45,2.03,1.1,2.7.65.66,1.49.99,2.51.99.79,0,1.45-.19,1.97-.57.51-.38,1.09-1.08,1.74-2.1l2.69,1.5c-.42.71-.85,1.32-1.32,1.82s-.96.92-1.49,1.25c-.53.33-1.1.56-1.71.71s-1.28.23-2,.23c-2.06,0-3.71-.66-4.96-1.98-1.25-1.33-1.87-3.1-1.87-5.3s.6-3.95,1.81-5.3c1.22-1.33,2.83-2,4.84-2s3.63.65,4.81,1.94c1.17,1.28,1.76,3.06,1.76,5.34v.75Zm-3.27-2.61c-.44-1.7-1.52-2.55-3.21-2.55-.39,0-.75.06-1.09.18s-.65.29-.93.51c-.28.22-.52.49-.71.8-.2.31-.35.67-.45,1.06h6.4Z"/>
            <path d="m258.39,445.06h3.2v1.27c1.11-1.1,2.37-1.66,3.77-1.66,1.6,0,2.86.5,3.75,1.51.77.86,1.16,2.26,1.16,4.21v8.45h-3.2v-7.7c0-1.36-.19-2.3-.57-2.82-.37-.53-1.04-.79-2.01-.79-1.06,0-1.81.35-2.25,1.05-.43.69-.65,1.89-.65,3.61v6.66h-3.2v-13.79Z"/>
            <path d="m282.31,447.41l-2.63,1.4c-.42-.85-.93-1.28-1.54-1.28-.29,0-.54.1-.75.29s-.31.44-.31.74c0,.53.61,1.05,1.84,1.57,1.69.73,2.83,1.4,3.41,2.01.59.61.88,1.44.88,2.48,0,1.33-.49,2.45-1.47,3.34-.95.85-2.1,1.27-3.46,1.27-2.31,0-3.95-1.13-4.91-3.38l2.72-1.26c.38.66.67,1.08.86,1.26.39.36.85.54,1.39.54,1.08,0,1.61-.49,1.61-1.47,0-.57-.42-1.1-1.25-1.59-.32-.16-.64-.32-.96-.47s-.65-.31-.98-.47c-.93-.45-1.58-.91-1.95-1.36-.48-.58-.72-1.32-.72-2.22,0-1.2.41-2.19,1.23-2.97.84-.78,1.86-1.17,3.06-1.17,1.77,0,3.08.91,3.94,2.73Z"/>
            <path d="m296.23,445.06h3.2v13.79h-3.2v-1.44c-1.31,1.23-2.72,1.84-4.23,1.84-1.91,0-3.48-.69-4.73-2.07-1.24-1.41-1.85-3.16-1.85-5.27s.62-3.79,1.85-5.17c1.24-1.38,2.78-2.07,4.64-2.07,1.6,0,3.04.66,4.32,1.98v-1.6Zm-7.56,6.85c0,1.32.35,2.4,1.06,3.23.73.84,1.64,1.26,2.75,1.26,1.18,0,2.13-.41,2.86-1.22.73-.84,1.09-1.91,1.09-3.2s-.36-2.36-1.09-3.2c-.73-.82-1.67-1.23-2.83-1.23-1.1,0-2.01.42-2.75,1.25-.73.84-1.09,1.88-1.09,3.12Z"/>
            <path d="m306.74,448.04v10.82h-3.19v-10.82h-1.36v-2.97h1.36v-5.06h3.19v5.06h2.48v2.97h-2.48Z"/>
            <path d="m310.93,451.86c0-1.99.71-3.69,2.14-5.08,1.43-1.4,3.16-2.1,5.21-2.1s3.8.7,5.24,2.11c1.42,1.41,2.12,3.13,2.12,5.18s-.71,3.8-2.14,5.2c-1.44,1.39-3.2,2.08-5.28,2.08s-3.8-.71-5.2-2.12c-1.4-1.4-2.1-3.15-2.1-5.27Zm3.26.06c0,1.38.37,2.47,1.1,3.27.76.81,1.75,1.22,2.99,1.22s2.24-.4,2.99-1.2,1.12-1.87,1.12-3.21-.37-2.41-1.12-3.21c-.76-.81-1.75-1.22-2.99-1.22s-2.2.41-2.96,1.22-1.13,1.86-1.13,3.14Z"/>
            <path d="m79.07,469.74h3.2v23.92h-3.2v-1.44c-1.26,1.23-2.68,1.84-4.26,1.84-1.89,0-3.46-.69-4.7-2.07-1.24-1.41-1.85-3.16-1.85-5.27s.62-3.78,1.85-5.15c1.23-1.39,2.77-2.08,4.63-2.08,1.61,0,3.06.66,4.33,1.98v-11.72Zm-7.56,16.98c0,1.32.35,2.4,1.06,3.23.73.84,1.64,1.26,2.75,1.26,1.18,0,2.13-.41,2.86-1.22.73-.84,1.09-1.91,1.09-3.2s-.36-2.36-1.09-3.2c-.73-.82-1.67-1.23-2.83-1.23-1.1,0-2.01.42-2.75,1.25-.73.84-1.09,1.88-1.09,3.12Z"/>
            <path d="m85.81,474.13c0-.56.2-1.04.61-1.44.41-.41.89-.61,1.46-.61s1.07.2,1.47.61c.41.4.61.88.61,1.46s-.2,1.07-.61,1.47c-.4.41-.88.61-1.46.61s-1.07-.2-1.47-.61-.61-.9-.61-1.49Zm3.67,5.74v13.79h-3.19v-13.79h3.19Z"/>
            <path d="m105.65,469.74v23.92h-3.19v-23.92h3.19Z"/>
            <path d="m119.85,479.86h3.2v13.79h-3.2v-1.44c-1.31,1.23-2.72,1.84-4.23,1.84-1.91,0-3.48-.69-4.73-2.07-1.24-1.41-1.85-3.16-1.85-5.27s.62-3.79,1.85-5.17c1.24-1.38,2.78-2.07,4.64-2.07,1.6,0,3.04.66,4.32,1.98v-1.6Zm-7.56,6.85c0,1.32.35,2.4,1.06,3.23.73.84,1.64,1.26,2.75,1.26,1.18,0,2.13-.41,2.86-1.22.73-.84,1.09-1.91,1.09-3.2s-.36-2.36-1.09-3.2c-.73-.82-1.67-1.23-2.83-1.23-1.1,0-2.01.42-2.75,1.25-.73.84-1.09,1.88-1.09,3.12Z"/>
            <path d="m135.09,482.21l-2.63,1.4c-.42-.85-.93-1.28-1.54-1.28-.29,0-.54.1-.75.29s-.31.44-.31.74c0,.53.61,1.05,1.84,1.57,1.69.73,2.83,1.4,3.41,2.01.59.61.88,1.44.88,2.48,0,1.33-.49,2.45-1.47,3.34-.95.85-2.1,1.27-3.46,1.27-2.31,0-3.95-1.13-4.91-3.38l2.72-1.26c.38.66.67,1.08.86,1.26.39.36.85.54,1.39.54,1.08,0,1.61-.49,1.61-1.47,0-.57-.42-1.1-1.25-1.59-.32-.16-.64-.32-.96-.47s-.65-.31-.98-.47c-.93-.45-1.58-.91-1.95-1.36-.48-.58-.72-1.32-.72-2.22,0-1.2.41-2.19,1.23-2.97.84-.78,1.86-1.17,3.06-1.17,1.77,0,3.08.91,3.94,2.73Z"/>
            <path d="m149.57,480.46v4.23c-.73-.89-1.38-1.5-1.95-1.83-.57-.34-1.23-.51-2-.51-1.2,0-2.19.42-2.99,1.26-.79.84-1.19,1.89-1.19,3.16s.38,2.36,1.15,3.19c.77.83,1.76,1.25,2.96,1.25.76,0,1.44-.17,2.02-.5.57-.32,1.23-.94,2-1.87v4.21c-1.29.67-2.59,1.01-3.88,1.01-2.13,0-3.92-.69-5.35-2.07-1.44-1.39-2.15-3.11-2.15-5.17s.73-3.79,2.18-5.21,3.24-2.12,5.35-2.12c1.36,0,2.64.33,3.85.98Z"/>
            <path d="m152.18,474.13c0-.56.2-1.04.61-1.44.41-.41.89-.61,1.46-.61s1.07.2,1.47.61c.41.4.61.88.61,1.46s-.2,1.07-.61,1.47c-.4.41-.88.61-1.46.61s-1.07-.2-1.47-.61-.61-.9-.61-1.49Zm3.67,5.74v13.79h-3.19v-13.79h3.19Z"/>
            <path d="m170.05,479.86h3.2v13.79h-3.2v-1.44c-1.31,1.23-2.72,1.84-4.23,1.84-1.91,0-3.48-.69-4.73-2.07-1.24-1.41-1.85-3.16-1.85-5.27s.62-3.79,1.85-5.17c1.24-1.38,2.78-2.07,4.64-2.07,1.6,0,3.04.66,4.32,1.98v-1.6Zm-7.56,6.85c0,1.32.35,2.4,1.06,3.23.73.84,1.64,1.26,2.75,1.26,1.18,0,2.13-.41,2.86-1.22.73-.84,1.09-1.91,1.09-3.2s-.36-2.36-1.09-3.2c-.73-.82-1.67-1.23-2.83-1.23-1.1,0-2.01.42-2.75,1.25-.73.84-1.09,1.88-1.09,3.12Z"/>
            <path d="m177.27,479.86h3.19v1.23c.59-.61,1.1-1.03,1.56-1.26.46-.24,1.01-.35,1.64-.35.84,0,1.72.27,2.63.82l-1.46,2.92c-.6-.43-1.19-.65-1.77-.65-1.74,0-2.61,1.31-2.61,3.94v7.15h-3.19v-13.79Z"/>
            <path d="m200.48,487.51h-9.88c.08,1.13.45,2.03,1.1,2.7.65.66,1.49.99,2.51.99.79,0,1.45-.19,1.97-.57.51-.38,1.09-1.08,1.74-2.1l2.69,1.5c-.42.71-.85,1.32-1.32,1.82s-.96.92-1.49,1.25c-.53.33-1.1.56-1.71.71s-1.28.23-2,.23c-2.06,0-3.71-.66-4.96-1.98-1.25-1.33-1.87-3.1-1.87-5.3s.6-3.95,1.81-5.3c1.22-1.33,2.83-2,4.84-2s3.63.65,4.81,1.94c1.17,1.28,1.76,3.06,1.76,5.34v.75Zm-3.27-2.61c-.44-1.7-1.52-2.55-3.21-2.55-.39,0-.75.06-1.09.18s-.65.29-.93.51c-.28.22-.52.49-.71.8-.2.31-.35.67-.45,1.06h6.4Z"/>
            <path d="m212.43,474.13c0-.56.2-1.04.61-1.44.41-.41.89-.61,1.46-.61s1.07.2,1.47.61c.41.4.61.88.61,1.46s-.2,1.07-.61,1.47c-.4.41-.88.61-1.46.61s-1.07-.2-1.47-.61-.61-.9-.61-1.49Zm3.67,5.74v13.79h-3.19v-13.79h3.19Z"/>
            <path d="m223.32,469.74v23.92h-3.19v-23.92h3.19Z"/>
            <path d="m239.49,501.16h-3.19v-21.3h3.19v1.5c1.26-1.26,2.68-1.88,4.28-1.88,1.9,0,3.46.7,4.69,2.1,1.25,1.39,1.87,3.14,1.87,5.25s-.62,3.79-1.85,5.17c-1.23,1.37-2.78,2.05-4.64,2.05-1.61,0-3.06-.65-4.33-1.94v9.05Zm7.58-14.32c0-1.32-.36-2.4-1.08-3.23-.73-.84-1.64-1.26-2.75-1.26-1.17,0-2.12.41-2.85,1.22s-1.09,1.88-1.09,3.2.36,2.36,1.09,3.2c.72.82,1.66,1.23,2.83,1.23,1.1,0,2.02-.42,2.73-1.25.74-.83,1.1-1.87,1.1-3.12Z"/>
            <path d="m263.86,479.86h3.2v13.79h-3.2v-1.44c-1.31,1.23-2.72,1.84-4.23,1.84-1.91,0-3.48-.69-4.73-2.07-1.24-1.41-1.85-3.16-1.85-5.27s.62-3.79,1.85-5.17c1.24-1.38,2.78-2.07,4.64-2.07,1.6,0,3.04.66,4.32,1.98v-1.6Zm-7.56,6.85c0,1.32.35,2.4,1.06,3.23.73.84,1.64,1.26,2.75,1.26,1.18,0,2.13-.41,2.86-1.22.73-.84,1.09-1.91,1.09-3.2s-.36-2.36-1.09-3.2c-.73-.82-1.67-1.23-2.83-1.23-1.1,0-2.01.42-2.75,1.25-.73.84-1.09,1.88-1.09,3.12Z"/>
            <path d="m283.64,487.51h-9.88c.08,1.13.45,2.03,1.1,2.7.65.66,1.49.99,2.51.99.79,0,1.45-.19,1.97-.57.51-.38,1.09-1.08,1.74-2.1l2.69,1.5c-.42.71-.85,1.32-1.32,1.82s-.96.92-1.49,1.25c-.53.33-1.1.56-1.71.71s-1.28.23-2,.23c-2.06,0-3.71-.66-4.96-1.98-1.25-1.33-1.87-3.1-1.87-5.3s.6-3.95,1.81-5.3c1.22-1.33,2.83-2,4.84-2s3.63.65,4.81,1.94c1.17,1.28,1.76,3.06,1.76,5.34v.75Zm-3.27-2.61c-.44-1.7-1.52-2.55-3.21-2.55-.39,0-.75.06-1.09.18s-.65.29-.93.51c-.28.22-.52.49-.71.8-.2.31-.35.67-.45,1.06h6.4Z"/>
            <path d="m295.14,482.21l-2.63,1.4c-.42-.85-.93-1.28-1.54-1.28-.29,0-.54.1-.75.29s-.31.44-.31.74c0,.53.61,1.05,1.84,1.57,1.69.73,2.83,1.4,3.41,2.01.59.61.88,1.44.88,2.48,0,1.33-.49,2.45-1.47,3.34-.95.85-2.1,1.27-3.46,1.27-2.31,0-3.95-1.13-4.91-3.38l2.72-1.26c.38.66.67,1.08.86,1.26.39.36.85.54,1.39.54,1.08,0,1.61-.49,1.61-1.47,0-.57-.42-1.1-1.25-1.59-.32-.16-.64-.32-.96-.47s-.65-.31-.98-.47c-.93-.45-1.58-.91-1.95-1.36-.48-.58-.72-1.32-.72-2.22,0-1.2.41-2.19,1.23-2.97.84-.78,1.86-1.17,3.06-1.17,1.77,0,3.08.91,3.94,2.73Z"/>
            <path d="m300.6,479.86l3.57,7.75,3.55-7.75h3.58l-7.17,14.74-7.11-14.74h3.57Z"/>
            <path d="m325.53,487.51h-9.88c.08,1.13.45,2.03,1.1,2.7.65.66,1.49.99,2.51.99.79,0,1.45-.19,1.97-.57.51-.38,1.09-1.08,1.74-2.1l2.69,1.5c-.42.71-.85,1.32-1.32,1.82s-.96.92-1.49,1.25c-.53.33-1.1.56-1.71.71s-1.28.23-2,.23c-2.06,0-3.71-.66-4.96-1.98-1.25-1.33-1.87-3.1-1.87-5.3s.6-3.95,1.81-5.3c1.22-1.33,2.83-2,4.84-2s3.63.65,4.81,1.94c1.17,1.28,1.76,3.06,1.76,5.34v.75Zm-3.27-2.61c-.44-1.7-1.52-2.55-3.21-2.55-.39,0-.75.06-1.09.18s-.65.29-.93.51c-.28.22-.52.49-.71.8-.2.31-.35.67-.45,1.06h6.4Z"/>
            <path d="m126.82,512.71c1.21,0,2.25.45,3.12,1.36.88.9,1.32,1.97,1.32,3.23s-.44,2.37-1.32,3.26c-.88.9-1.94,1.34-3.19,1.34s-2.29-.45-3.19-1.34c-.88-.91-1.32-1.99-1.32-3.24s.44-2.37,1.33-3.26c.9-.9,1.98-1.35,3.24-1.35Z"/>
            <path d="m144.83,506.59v21.86h-3.3v-21.86h3.3Z"/>
            <path d="m152.66,504.54v23.92h-3.19v-23.92h3.19Z"/>
            <path d="m177.93,522.35h2.32v3h-2.32v3.1h-3.3v-3.1h-10.73l14.03-20.39v17.39Zm-3.3,0v-7.32l-5.04,7.32h5.04Z"/>
            <path d="m188.04,529.2l-2.42-1.8,5.23-7.12c-.28.04-.52.07-.72.08-.2.02-.36.03-.48.03-1.77,0-3.29-.68-4.59-2.03-1.28-1.34-1.93-2.96-1.93-4.84,0-2.01.71-3.73,2.14-5.15,1.44-1.43,3.15-2.15,5.15-2.15s3.72.71,5.2,2.12c1.47,1.41,2.21,3.07,2.21,4.98,0,1.7-.72,3.54-2.15,5.51l-7.63,10.37Zm-1.7-15.92c0,1.18.4,2.17,1.2,2.97.81.81,1.79,1.22,2.93,1.22s2.11-.4,2.92-1.2c.81-.81,1.22-1.79,1.22-2.93s-.41-2.12-1.22-2.93c-.8-.8-1.78-1.2-2.93-1.2s-2.1.4-2.9,1.2c-.81.81-1.22,1.77-1.22,2.87Z"/>
            <path d="m203.41,524.36l2.83,1.1-4.04,8.09-2.15-.89,3.36-8.3Z"/>
            <path d="m214.11,509.68h-3.78l1.81-3.09h5.27v21.86h-3.3v-18.78Z"/>
            <path d="m225.24,511.45c0-1.37.52-2.56,1.57-3.57,1.07-1.01,2.3-1.52,3.7-1.52s2.67.51,3.71,1.53c1.04,1.01,1.56,2.22,1.56,3.62s-.52,2.63-1.56,3.64c-1.04,1.01-2.29,1.52-3.75,1.52s-2.67-.51-3.7-1.54c-1.02-1.03-1.53-2.26-1.53-3.68Zm2.46.04c0,.79.27,1.46.82,2.01s1.21.82,2,.82,1.42-.27,1.97-.82.82-1.21.82-1.98-.27-1.42-.82-1.97c-.55-.55-1.21-.82-1.98-.82s-1.44.27-1.98.82c-.55.55-.82,1.19-.82,1.94Zm15.22-5.28l1.54.88-12.52,21.72-1.56-.93,12.53-21.67Zm-3.85,17.22c0-1.36.52-2.54,1.57-3.55,1.07-1.01,2.3-1.51,3.7-1.51s2.69.51,3.72,1.53c1.04,1.01,1.56,2.22,1.56,3.62s-.52,2.64-1.57,3.64c-1.03,1-2.28,1.5-3.75,1.5s-2.67-.51-3.7-1.53c-1.02-1.02-1.53-2.25-1.53-3.7Zm2.48.06c0,.79.27,1.46.81,2.01.55.55,1.21.82,2,.82s1.43-.27,1.97-.82c.55-.55.82-1.21.82-1.98s-.27-1.44-.82-1.98c-.54-.55-1.2-.82-1.98-.82s-1.42.27-1.97.82c-.55.55-.82,1.2-.82,1.95Z"/>
            <path d="m272.41,515.26v4.23c-.73-.89-1.38-1.5-1.95-1.83-.57-.34-1.23-.51-2-.51-1.2,0-2.19.42-2.99,1.26-.79.84-1.19,1.89-1.19,3.16s.38,2.36,1.15,3.19c.77.83,1.76,1.25,2.96,1.25.76,0,1.44-.17,2.02-.5.57-.32,1.23-.94,2-1.87v4.21c-1.29.67-2.59,1.01-3.88,1.01-2.13,0-3.92-.69-5.35-2.07-1.44-1.39-2.15-3.11-2.15-5.17s.73-3.79,2.18-5.21,3.24-2.12,5.35-2.12c1.36,0,2.64.33,3.85.98Z"/>
            <path d="m275.02,508.93c0-.56.2-1.04.61-1.44.41-.41.89-.61,1.46-.61s1.07.2,1.47.61c.41.4.61.88.61,1.46s-.2,1.07-.61,1.47c-.4.41-.88.61-1.46.61s-1.07-.2-1.47-.61-.61-.9-.61-1.49Zm3.67,5.74v13.79h-3.19v-13.79h3.19Z"/>
            <path d="m299.68,517.01l-2.63,1.4c-.42-.85-.93-1.28-1.54-1.28-.29,0-.54.1-.75.29s-.31.44-.31.74c0,.53.61,1.05,1.84,1.57,1.69.73,2.83,1.4,3.41,2.01.59.61.88,1.44.88,2.48,0,1.33-.49,2.45-1.47,3.34-.95.85-2.1,1.27-3.46,1.27-2.31,0-3.95-1.13-4.91-3.38l2.72-1.26c.38.66.67,1.08.86,1.26.39.36.85.54,1.39.54,1.08,0,1.61-.49,1.61-1.47,0-.57-.42-1.1-1.25-1.59-.32-.16-.64-.32-.96-.47s-.65-.31-.98-.47c-.93-.45-1.58-.91-1.95-1.36-.48-.58-.72-1.32-.72-2.22,0-1.2.41-2.19,1.23-2.97.84-.78,1.86-1.17,3.06-1.17,1.77,0,3.08.91,3.94,2.73Z"/>
            <path d="m306.72,517.63v10.82h-3.19v-10.82h-1.36v-2.97h1.36v-5.06h3.19v5.06h2.48v2.97h-2.48Z"/>
            <path d="m321.79,514.66h3.2v13.79h-3.2v-1.44c-1.31,1.23-2.72,1.84-4.23,1.84-1.91,0-3.48-.69-4.73-2.07-1.24-1.41-1.85-3.16-1.85-5.27s.62-3.79,1.85-5.17c1.24-1.38,2.78-2.07,4.64-2.07,1.6,0,3.04.66,4.32,1.98v-1.6Zm-7.56,6.85c0,1.32.35,2.4,1.06,3.23.73.84,1.64,1.26,2.75,1.26,1.18,0,2.13-.41,2.86-1.22.73-.84,1.09-1.91,1.09-3.2s-.36-2.36-1.09-3.2c-.73-.82-1.67-1.23-2.83-1.23-1.1,0-2.01.42-2.75,1.25-.73.84-1.09,1.88-1.09,3.12Z"/>
            <path d="m202.98,570.76h-3.19v-21.3h3.19v1.5c1.26-1.26,2.68-1.88,4.28-1.88,1.9,0,3.46.7,4.69,2.1,1.25,1.39,1.87,3.14,1.87,5.25s-.62,3.79-1.85,5.17c-1.23,1.37-2.78,2.05-4.64,2.05-1.61,0-3.06-.65-4.33-1.94v9.05Zm7.58-14.32c0-1.32-.36-2.4-1.08-3.23-.73-.84-1.64-1.26-2.75-1.26-1.17,0-2.12.41-2.85,1.22s-1.09,1.88-1.09,3.2.36,2.36,1.09,3.2c.72.82,1.66,1.23,2.83,1.23,1.1,0,2.02-.42,2.73-1.25.74-.83,1.1-1.87,1.1-3.12Z"/>
            <path d="m229.75,557.11h-9.88c.08,1.13.45,2.03,1.1,2.7.65.66,1.49.99,2.51.99.79,0,1.45-.19,1.97-.57.51-.38,1.09-1.08,1.74-2.1l2.69,1.5c-.42.71-.85,1.32-1.32,1.82s-.96.92-1.49,1.25c-.53.33-1.1.56-1.71.71s-1.28.23-2,.23c-2.06,0-3.71-.66-4.96-1.98-1.25-1.33-1.87-3.1-1.87-5.3s.6-3.95,1.81-5.3c1.22-1.33,2.83-2,4.84-2s3.63.65,4.81,1.94c1.17,1.28,1.76,3.06,1.76,5.34v.75Zm-3.27-2.61c-.44-1.7-1.52-2.55-3.21-2.55-.39,0-.75.06-1.09.18s-.65.29-.93.51c-.28.22-.52.49-.71.8-.2.31-.35.67-.45,1.06h6.4Z"/>
            <path d="m233.23,549.46h3.2v1.27c1.11-1.1,2.37-1.66,3.77-1.66,1.6,0,2.86.5,3.75,1.51.77.86,1.16,2.26,1.16,4.21v8.45h-3.2v-7.7c0-1.36-.19-2.3-.57-2.82-.37-.53-1.04-.79-2.01-.79-1.06,0-1.81.35-2.25,1.05-.43.69-.65,1.89-.65,3.61v6.66h-3.2v-13.79Z"/>
            <path d="m257.15,551.81l-2.63,1.4c-.42-.85-.93-1.28-1.54-1.28-.29,0-.54.1-.75.29s-.31.44-.31.74c0,.53.61,1.05,1.84,1.57,1.69.73,2.83,1.4,3.41,2.01.59.61.88,1.44.88,2.48,0,1.33-.49,2.45-1.47,3.34-.95.85-2.1,1.27-3.46,1.27-2.31,0-3.95-1.13-4.91-3.38l2.72-1.26c.38.66.67,1.08.86,1.26.39.36.85.54,1.39.54,1.08,0,1.61-.49,1.61-1.47,0-.57-.42-1.1-1.25-1.59-.32-.16-.64-.32-.96-.47s-.65-.31-.98-.47c-.93-.45-1.58-.91-1.95-1.36-.48-.58-.72-1.32-.72-2.22,0-1.2.41-2.19,1.23-2.97.84-.78,1.86-1.17,3.06-1.17,1.77,0,3.08.91,3.94,2.73Z"/>
            <path d="m271.07,549.46h3.2v13.79h-3.2v-1.44c-1.31,1.23-2.72,1.84-4.23,1.84-1.91,0-3.48-.69-4.73-2.07-1.24-1.41-1.85-3.16-1.85-5.27s.62-3.79,1.85-5.17c1.24-1.38,2.78-2.07,4.64-2.07,1.6,0,3.04.66,4.32,1.98v-1.6Zm-7.56,6.85c0,1.32.35,2.4,1.06,3.23.73.84,1.64,1.26,2.75,1.26,1.18,0,2.13-.41,2.86-1.22.73-.84,1.09-1.91,1.09-3.2s-.36-2.36-1.09-3.2c-.73-.82-1.67-1.23-2.83-1.23-1.1,0-2.01.42-2.75,1.25-.73.84-1.09,1.88-1.09,3.12Z"/>
            <path d="m278.29,549.46h3.2v1.27c1.11-1.1,2.37-1.66,3.77-1.66,1.6,0,2.86.5,3.75,1.51.77.86,1.16,2.26,1.16,4.21v8.45h-3.2v-7.7c0-1.36-.19-2.3-.57-2.82-.37-.53-1.04-.79-2.01-.79-1.06,0-1.81.35-2.25,1.05-.43.69-.65,1.89-.65,3.61v6.66h-3.2v-13.79Z"/>
            <path d="m304.36,539.34h3.2v23.92h-3.2v-1.44c-1.26,1.23-2.68,1.84-4.26,1.84-1.89,0-3.46-.69-4.7-2.07-1.24-1.41-1.85-3.16-1.85-5.27s.62-3.78,1.85-5.15c1.23-1.39,2.77-2.08,4.63-2.08,1.61,0,3.06.66,4.33,1.98v-11.72Zm-7.56,16.98c0,1.32.35,2.4,1.06,3.23.73.84,1.64,1.26,2.75,1.26,1.18,0,2.13-.41,2.86-1.22.73-.84,1.09-1.91,1.09-3.2s-.36-2.36-1.09-3.2c-.73-.82-1.67-1.23-2.83-1.23-1.1,0-2.01.42-2.75,1.25-.73.84-1.09,1.88-1.09,3.12Z"/>
            <path d="m310.93,556.26c0-1.99.71-3.69,2.14-5.08,1.43-1.4,3.16-2.1,5.21-2.1s3.8.7,5.24,2.11c1.42,1.41,2.12,3.13,2.12,5.18s-.71,3.8-2.14,5.2c-1.44,1.39-3.2,2.08-5.28,2.08s-3.8-.71-5.2-2.12c-1.4-1.4-2.1-3.15-2.1-5.27Zm3.26.06c0,1.38.37,2.47,1.1,3.27.76.81,1.75,1.22,2.99,1.22s2.24-.4,2.99-1.2,1.12-1.87,1.12-3.21-.37-2.41-1.12-3.21c-.76-.81-1.75-1.22-2.99-1.22s-2.2.41-2.96,1.22-1.13,1.86-1.13,3.14Z"/>
            <path d="m57.73,582.31c1.21,0,2.25.45,3.12,1.36.88.9,1.32,1.97,1.32,3.23s-.44,2.37-1.32,3.26c-.88.9-1.94,1.34-3.19,1.34s-2.29-.45-3.19-1.34c-.88-.91-1.32-1.99-1.32-3.24s.44-2.37,1.33-3.26c.9-.9,1.98-1.35,3.24-1.35Z"/>
            <path d="m102.53,576.19v21.86h-3.3v-21.86h3.3Z"/>
            <path d="m110.36,574.14v23.92h-3.19v-23.92h3.19Z"/>
            <path d="m128.84,587.9v-2.82c1.4,0,2.34-.16,2.82-.47.86-.55,1.29-1.43,1.29-2.63,0-.93-.31-1.69-.93-2.28-.61-.59-1.41-.89-2.39-.89-.92,0-1.62.22-2.12.67-.48.45-.84,1.22-1.08,2.29h-3.29c.34-2.06,1.04-3.57,2.1-4.52s2.53-1.44,4.43-1.44,3.48.57,4.69,1.7c1.21,1.12,1.81,2.57,1.81,4.35,0,2-.79,3.56-2.38,4.67,1.81,1.07,2.72,2.8,2.72,5.2,0,1.96-.66,3.57-1.98,4.81s-3.02,1.87-5.08,1.87c-2.63,0-4.59-.97-5.86-2.9-.53-.81-.86-1.94-1.01-3.37h3.19c.17,1.06.58,1.87,1.24,2.43.66.56,1.51.84,2.57.84s1.95-.35,2.65-1.06c.7-.73,1.05-1.65,1.05-2.76,0-1.47-.52-2.52-1.57-3.14-.61-.36-1.56-.54-2.85-.54Z"/>
            <path d="m152.87,591.95h2.32v3h-2.32v3.1h-3.3v-3.1h-10.73l14.03-20.39v17.39Zm-3.3,0v-7.32l-5.04,7.32h5.04Z"/>
            <path d="m160.45,593.96l2.83,1.1-4.04,8.09-2.15-.89,3.36-8.3Z"/>
            <path d="m180.67,579.28h-6.74l-1.08,3.62c.16-.02.31-.03.46-.04.15,0,.28-.01.4-.01,2.12,0,3.87.72,5.23,2.15,1.37,1.43,2.05,3.25,2.05,5.48s-.77,4.2-2.32,5.69c-1.55,1.49-3.5,2.24-5.85,2.24-2.9,0-5.18-1.36-6.85-4.08l2.49-2.11c.69,1.17,1.38,2,2.08,2.48.7.47,1.55.71,2.56.71,1.32,0,2.43-.46,3.33-1.39.9-.95,1.35-2.11,1.35-3.47s-.44-2.54-1.33-3.43c-.89-.92-2-1.37-3.33-1.37-1.48,0-2.76.65-3.84,1.94h-1.09l3.44-11.5h9.03v3.09Z"/>
            <path d="m184.41,581.05c0-1.37.52-2.56,1.57-3.57,1.07-1.01,2.3-1.52,3.7-1.52s2.67.51,3.71,1.53c1.04,1.01,1.56,2.22,1.56,3.62s-.52,2.63-1.56,3.64c-1.04,1.01-2.29,1.52-3.75,1.52s-2.67-.51-3.7-1.54c-1.02-1.03-1.53-2.26-1.53-3.68Zm2.46.04c0,.79.27,1.46.82,2.01s1.21.82,2,.82,1.42-.27,1.97-.82.82-1.21.82-1.98-.27-1.42-.82-1.97c-.55-.55-1.21-.82-1.98-.82s-1.44.27-1.98.82c-.55.55-.82,1.19-.82,1.94Zm15.22-5.28l1.54.88-12.52,21.72-1.56-.93,12.53-21.67Zm-3.85,17.22c0-1.36.52-2.54,1.57-3.55,1.07-1.01,2.3-1.51,3.7-1.51s2.69.51,3.72,1.53c1.04,1.01,1.56,2.22,1.56,3.62s-.52,2.64-1.57,3.64c-1.03,1-2.28,1.5-3.75,1.5s-2.67-.51-3.7-1.53c-1.02-1.02-1.53-2.25-1.53-3.7Zm2.48.06c0,.79.27,1.46.81,2.01.55.55,1.21.82,2,.82s1.43-.27,1.97-.82c.55-.55.82-1.21.82-1.98s-.27-1.44-.82-1.98c-.54-.55-1.2-.82-1.98-.82s-1.42.27-1.97.82c-.55.55-.82,1.2-.82,1.95Z"/>
            <path d="m220.84,584.26h3.2v1.27c1.11-1.1,2.37-1.66,3.77-1.66,1.6,0,2.86.5,3.75,1.51.77.86,1.16,2.26,1.16,4.21v8.45h-3.2v-7.7c0-1.36-.19-2.3-.57-2.82-.37-.53-1.04-.79-2.01-.79-1.06,0-1.81.35-2.25,1.05-.43.69-.65,1.89-.65,3.61v6.66h-3.2v-13.79Z"/>
            <path d="m236.09,591.06c0-1.99.71-3.69,2.14-5.08,1.43-1.4,3.16-2.1,5.21-2.1s3.8.7,5.24,2.11c1.42,1.41,2.12,3.13,2.12,5.18s-.71,3.8-2.14,5.2c-1.44,1.39-3.2,2.08-5.28,2.08s-3.8-.71-5.2-2.12c-1.4-1.4-2.1-3.15-2.1-5.27Zm3.26.06c0,1.38.37,2.47,1.1,3.27.76.81,1.75,1.22,2.99,1.22s2.24-.4,2.99-1.2,1.12-1.87,1.12-3.21-.37-2.41-1.12-3.21c-.76-.81-1.75-1.22-2.99-1.22s-2.2.41-2.96,1.22-1.13,1.86-1.13,3.14Z"/>
            <path d="m254.17,584.26h3.2v1.27c1.11-1.1,2.37-1.66,3.77-1.66,1.6,0,2.86.5,3.75,1.51.77.86,1.16,2.26,1.16,4.21v8.45h-3.2v-7.7c0-1.36-.19-2.3-.57-2.82-.37-.53-1.04-.79-2.01-.79-1.06,0-1.81.35-2.25,1.05-.43.69-.65,1.89-.65,3.61v6.66h-3.2v-13.79Z"/>
            <path d="m282.21,574.14v23.92h-3.19v-23.92h3.19Z"/>
            <path d="m289.23,575.24l2.83,1.11-4.04,8.1-2.15-.89,3.36-8.31Z"/>
            <path d="m295.72,574.14h3.19v11.27c1.13-1.02,2.38-1.53,3.75-1.53,1.56,0,2.8.5,3.74,1.51.79.88,1.19,2.28,1.19,4.21v8.45h-3.19v-8.16c0-1.1-.2-1.9-.59-2.4-.39-.5-1.02-.74-1.89-.74-1.11,0-1.9.34-2.35,1.03-.44.7-.67,1.9-.67,3.6v6.67h-3.19v-23.92Z"/>
            <path d="m321.79,584.26h3.2v13.79h-3.2v-1.44c-1.31,1.23-2.72,1.84-4.23,1.84-1.91,0-3.48-.69-4.73-2.07-1.24-1.41-1.85-3.16-1.85-5.27s.62-3.79,1.85-5.17c1.24-1.38,2.78-2.07,4.64-2.07,1.6,0,3.04.66,4.32,1.98v-1.6Zm-7.56,6.85c0,1.32.35,2.4,1.06,3.23.73.84,1.64,1.26,2.75,1.26,1.18,0,2.13-.41,2.86-1.22.73-.84,1.09-1.91,1.09-3.2s-.36-2.36-1.09-3.2c-.73-.82-1.67-1.23-2.83-1.23-1.1,0-2.01.42-2.75,1.25-.73.84-1.09,1.88-1.09,3.12Z"/>
            <path d="m168.46,619.06h3.19v1.27c.61-.64,1.14-1.08,1.57-1.3.46-.24,1.04-.35,1.74-.35,1.56,0,2.79.68,3.7,2.04,1-1.36,2.36-2.04,4.06-2.04,3.11,0,4.66,1.88,4.66,5.65v8.52h-3.2v-7.66c0-1.32-.16-2.26-.48-2.8-.33-.56-.87-.83-1.63-.83-.88,0-1.52.33-1.92.99-.4.66-.6,1.72-.6,3.19v7.12h-3.2v-7.62c0-2.45-.71-3.68-2.12-3.68-.9,0-1.55.33-1.96,1-.41.67-.62,1.73-.62,3.17v7.12h-3.19v-13.79Z"/>
            <path d="m201.57,619.06h3.2v13.79h-3.2v-1.44c-1.31,1.23-2.72,1.84-4.23,1.84-1.91,0-3.48-.69-4.73-2.07-1.24-1.41-1.85-3.16-1.85-5.27s.62-3.79,1.85-5.17c1.24-1.38,2.78-2.07,4.64-2.07,1.6,0,3.04.66,4.32,1.98v-1.6Zm-7.56,6.85c0,1.32.35,2.4,1.06,3.23.73.84,1.64,1.26,2.75,1.26,1.18,0,2.13-.41,2.86-1.22.73-.84,1.09-1.91,1.09-3.2s-.36-2.36-1.09-3.2c-.73-.82-1.67-1.23-2.83-1.23-1.1,0-2.01.42-2.75,1.25-.73.84-1.09,1.88-1.09,3.12Z"/>
            <path d="m208.31,613.33c0-.56.2-1.04.61-1.44.41-.41.89-.61,1.46-.61s1.07.2,1.47.61c.41.4.61.88.61,1.46s-.2,1.07-.61,1.47c-.4.41-.88.61-1.46.61s-1.07-.2-1.47-.61-.61-.9-.61-1.49Zm3.67,5.74v13.79h-3.19v-13.79h3.19Z"/>
            <path d="m228.15,640.36h-3.19v-21.3h3.19v1.5c1.26-1.26,2.68-1.88,4.28-1.88,1.9,0,3.46.7,4.69,2.1,1.25,1.39,1.87,3.14,1.87,5.25s-.62,3.79-1.85,5.17c-1.23,1.37-2.78,2.05-4.64,2.05-1.61,0-3.06-.65-4.33-1.94v9.05Zm7.58-14.32c0-1.32-.36-2.4-1.08-3.23-.73-.84-1.64-1.26-2.75-1.26-1.17,0-2.12.41-2.85,1.22s-1.09,1.88-1.09,3.2.36,2.36,1.09,3.2c.72.82,1.66,1.23,2.83,1.23,1.1,0,2.02-.42,2.73-1.25.74-.83,1.1-1.87,1.1-3.12Z"/>
            <path d="m254.91,626.71h-9.88c.08,1.13.45,2.03,1.1,2.7.65.66,1.49.99,2.51.99.79,0,1.45-.19,1.97-.57.51-.38,1.09-1.08,1.74-2.1l2.69,1.5c-.42.71-.85,1.32-1.32,1.82s-.96.92-1.49,1.25c-.53.33-1.1.56-1.71.71s-1.28.23-2,.23c-2.06,0-3.71-.66-4.96-1.98-1.25-1.33-1.87-3.1-1.87-5.3s.6-3.95,1.81-5.3c1.22-1.33,2.83-2,4.84-2s3.63.65,4.81,1.94c1.17,1.28,1.76,3.06,1.76,5.34v.75Zm-3.27-2.61c-.44-1.7-1.52-2.55-3.21-2.55-.39,0-.75.06-1.09.18s-.65.29-.93.51c-.28.22-.52.49-.71.8-.2.31-.35.67-.45,1.06h6.4Z"/>
            <path d="m258.39,619.06h3.2v1.27c1.11-1.1,2.37-1.66,3.77-1.66,1.6,0,2.86.5,3.75,1.51.77.86,1.16,2.26,1.16,4.21v8.45h-3.2v-7.7c0-1.36-.19-2.3-.57-2.82-.37-.53-1.04-.79-2.01-.79-1.06,0-1.81.35-2.25,1.05-.43.69-.65,1.89-.65,3.61v6.66h-3.2v-13.79Z"/>
            <path d="m282.31,621.41l-2.63,1.4c-.42-.85-.93-1.28-1.54-1.28-.29,0-.54.1-.75.29s-.31.44-.31.74c0,.53.61,1.05,1.84,1.57,1.69.73,2.83,1.4,3.41,2.01.59.61.88,1.44.88,2.48,0,1.33-.49,2.45-1.47,3.34-.95.85-2.1,1.27-3.46,1.27-2.31,0-3.95-1.13-4.91-3.38l2.72-1.26c.38.66.67,1.08.86,1.26.39.36.85.54,1.39.54,1.08,0,1.61-.49,1.61-1.47,0-.57-.42-1.1-1.25-1.59-.32-.16-.64-.32-.96-.47s-.65-.31-.98-.47c-.93-.45-1.58-.91-1.95-1.36-.48-.58-.72-1.32-.72-2.22,0-1.2.41-2.19,1.23-2.97.84-.78,1.86-1.17,3.06-1.17,1.77,0,3.08.91,3.94,2.73Z"/>
            <path d="m296.23,619.06h3.2v13.79h-3.2v-1.44c-1.31,1.23-2.72,1.84-4.23,1.84-1.91,0-3.48-.69-4.73-2.07-1.24-1.41-1.85-3.16-1.85-5.27s.62-3.79,1.85-5.17c1.24-1.38,2.78-2.07,4.64-2.07,1.6,0,3.04.66,4.32,1.98v-1.6Zm-7.56,6.85c0,1.32.35,2.4,1.06,3.23.73.84,1.64,1.26,2.75,1.26,1.18,0,2.13-.41,2.86-1.22.73-.84,1.09-1.91,1.09-3.2s-.36-2.36-1.09-3.2c-.73-.82-1.67-1.23-2.83-1.23-1.1,0-2.01.42-2.75,1.25-.73.84-1.09,1.88-1.09,3.12Z"/>
            <path d="m306.74,622.04v10.82h-3.19v-10.82h-1.36v-2.97h1.36v-5.06h3.19v5.06h2.48v2.97h-2.48Z"/>
            <path d="m310.93,625.86c0-1.99.71-3.69,2.14-5.08,1.43-1.4,3.16-2.1,5.21-2.1s3.8.7,5.24,2.11c1.42,1.41,2.12,3.13,2.12,5.18s-.71,3.8-2.14,5.2c-1.44,1.39-3.2,2.08-5.28,2.08s-3.8-.71-5.2-2.12c-1.4-1.4-2.1-3.15-2.1-5.27Zm3.26.06c0,1.38.37,2.47,1.1,3.27.76.81,1.75,1.22,2.99,1.22s2.24-.4,2.99-1.2,1.12-1.87,1.12-3.21-.37-2.41-1.12-3.21c-.76-.81-1.75-1.22-2.99-1.22s-2.2.41-2.96,1.22-1.13,1.86-1.13,3.14Z"/>
          </g>
        </g>
      </g>
    </g>
  </g>
</svg>