<?xml version="1.0" encoding="UTF-8"?>
<svg id="Livello_2" data-name="Livello 2" xmlns="http://www.w3.org/2000/svg" viewBox="0 0 1006 680">
  <defs>
    <style>
      .cls-1 {
        letter-spacing: .01em;
      }

      .cls-2 {
        font-size: 49.27px;
      }

      .cls-2, .cls-3, .cls-4, .cls-5, .cls-6, .cls-7, .cls-8, .cls-9, .cls-10 {
        font-family: Futura-Medium, Futura;
        font-weight: 500;
      }

      .cls-3 {
        font-size: 26.87px;
      }

      .cls-11 {
        letter-spacing: -.03em;
      }

      .cls-12 {
        letter-spacing: -.03em;
      }

      .cls-13 {
        letter-spacing: 0em;
      }

      .cls-14 {
        letter-spacing: -.02em;
      }

      .cls-15 {
        letter-spacing: -.02em;
      }

      .cls-16 {
        letter-spacing: 0em;
      }

      .cls-17 {
        letter-spacing: .01em;
      }

      .cls-4 {
        font-size: 44.78px;
      }

      .cls-5 {
        font-size: 30.07px;
      }

      .cls-18 {
        letter-spacing: 0em;
      }

      .cls-19 {
        letter-spacing: 0em;
      }

      .cls-20 {
        letter-spacing: 0em;
      }

      .cls-21 {
        letter-spacing: 0em;
      }

      .cls-22 {
        letter-spacing: .04em;
      }

      .cls-23 {
        letter-spacing: .04em;
      }

      .cls-24 {
        letter-spacing: 0em;
      }

      .cls-6 {
        font-size: 39.66px;
      }

      .cls-25 {
        letter-spacing: 0em;
      }

      .cls-26 {
        letter-spacing: 0em;
      }

      .cls-27 {
        letter-spacing: 0em;
      }

      .cls-28 {
        letter-spacing: 0em;
      }

      .cls-29 {
        letter-spacing: 0em;
      }

      .cls-30 {
        letter-spacing: 0em;
      }

      .cls-31 {
        letter-spacing: 0em;
      }

      .cls-32 {
        letter-spacing: 0em;
      }

      .cls-33 {
        letter-spacing: 0em;
      }

      .cls-34 {
        letter-spacing: 0em;
      }

      .cls-7 {
        font-size: 23.03px;
      }

      .cls-35 {
        letter-spacing: 0em;
      }

      .cls-36 {
        letter-spacing: .02em;
      }

      .cls-37 {
        letter-spacing: .02em;
      }

      .cls-38 {
        letter-spacing: .02em;
      }

      .cls-39 {
        letter-spacing: -.02em;
      }

      .cls-40 {
        letter-spacing: 0em;
      }

      .cls-41 {
        letter-spacing: -.02em;
      }

      .cls-8 {
        font-size: 72px;
      }

      .cls-42 {
        letter-spacing: 0em;
      }

      .cls-9 {
        font-size: 31.99px;
      }

      .cls-43 {
        letter-spacing: 0em;
      }

      .cls-44 {
        letter-spacing: 0em;
      }

      .cls-10 {
        font-size: 35.83px;
      }

      .cls-45 {
        fill: #d0d2a3;
        opacity: .6;
        stroke: #000;
        stroke-miterlimit: 10;
        stroke-width: 2px;
      }
    </style>
  </defs>
  <g id="Livello_11" data-name="Livello 11">
    <g>
      <rect class="cls-45" x="1" y="1" width="1004" height="678" rx="100.46" ry="100.46"/>
      <g>
        <g>
          <text class="cls-2" transform="translate(294.4 415.02)"><tspan class="cls-12" x="0" y="0">T</tspan><tspan class="cls-18" x="22.08" y="0">r</tspan><tspan x="40.17" y="0">an</tspan><tspan class="cls-1" x="96.73" y="0">q</tspan><tspan x="126.83" y="0">uilla</tspan></text>
          <text class="cls-2" transform="translate(557.33 415.02)"><tspan x="0" y="0">Spen</tspan><tspan class="cls-27" x="112.54" y="0">t</tspan><tspan class="cls-44" x="126.44" y="0">a</tspan></text>
          <text class="cls-4" transform="translate(190.76 335.69)"><tspan x="0" y="0">Puli</tspan><tspan class="cls-28" x="70.89" y="0">t</tspan><tspan x="83.53" y="0">a</tspan></text>
          <text class="cls-4" transform="translate(752.45 521.85)"><tspan x="0" y="0">Divisa</tspan></text>
          <text class="cls-6" transform="translate(240.66 480.91)"><tspan x="0" y="0">Di</tspan><tspan class="cls-15" x="38.68" y="0">v</tspan><tspan x="57.93" y="0">e</tspan><tspan class="cls-23" x="79.87" y="0">r</tspan><tspan class="cls-29" x="96.14" y="0">t</tspan><tspan x="107.33" y="0">en</tspan><tspan class="cls-29" x="151.02" y="0">t</tspan><tspan x="162.22" y="0">e</tspan></text>
          <text class="cls-6" transform="translate(707.67 354.24)"><tspan class="cls-24" x="0" y="0">N</tspan><tspan x="33.76" y="0">oiosa</tspan></text>
          <text class="cls-10" transform="translate(112.71 406.7)"><tspan x="0" y="0">O</tspan><tspan class="cls-21" x="32.01" y="0">r</tspan><tspan x="45.17" y="0">dina</tspan><tspan class="cls-30" x="116.69" y="0">t</tspan><tspan x="126.81" y="0">a</tspan></text>
          <text class="cls-10" transform="translate(818.98 445.09)"><tspan x="0" y="0">Spo</tspan><tspan class="cls-16" x="63.9" y="0">r</tspan><tspan x="76.99" y="0">ca</tspan></text>
          <text class="cls-9" transform="translate(357.73 573.03)"><tspan x="0" y="0">Coesa</tspan></text>
          <text class="cls-9" transform="translate(584.2 292.83)"><tspan x="0" y="0">Diso</tspan><tspan class="cls-19" x="63.4" y="0">r</tspan><tspan class="cls-40" x="75.14" y="0">dina</tspan><tspan class="cls-31" x="139.01" y="0">t</tspan><tspan x="148.03" y="0">a</tspan></text>
          <text class="cls-5" transform="translate(370.53 336.33)"><tspan class="cls-43" x="0" y="0">V</tspan><tspan x="20.63" y="0">i</tspan><tspan class="cls-14" x="28.12" y="0">v</tspan><tspan x="42.71" y="0">a</tspan></text>
          <text class="cls-5" transform="translate(588.04 573.67)"><tspan class="cls-39" x="0" y="0">P</tspan><tspan x="15.49" y="0">e</tspan><tspan class="cls-38" x="32.12" y="0">r</tspan><tspan x="43.82" y="0">icolosa</tspan></text>
          <text class="cls-3" transform="translate(334.06 254.44)"><tspan x="0" y="0">Casa</tspan></text>
          <text class="cls-3" transform="translate(554.77 480.91)"><tspan x="0" y="0">Dese</tspan><tspan class="cls-22" x="60.14" y="0">r</tspan><tspan class="cls-32" x="71.16" y="0">t</tspan><tspan class="cls-42" x="78.74" y="0">a</tspan></text>
          <text class="cls-7" transform="translate(207.46 248.68)"><tspan x="0" y="0">Ca</tspan><tspan class="cls-37" x="29.95" y="0">r</tspan><tspan class="cls-25" x="38.91" y="0">ina</tspan></text>
          <text class="cls-7" transform="translate(89.75 471.95)"><tspan class="cls-34" x="0" y="0">A</tspan><tspan x="17.04" y="0">u</tspan><tspan class="cls-26" x="29.59" y="0">t</tspan><tspan x="36.09" y="0">entica</tspan></text>
          <text class="cls-7" transform="translate(84.63 344.65)"><tspan x="0" y="0">Sicu</tspan><tspan class="cls-20" x="42.69" y="0">r</tspan><tspan x="51.14" y="0">a</tspan></text>
          <text class="cls-7" transform="translate(201.7 555.76)"><tspan x="0" y="0">Ospi</tspan><tspan class="cls-33" x="49.47" y="0">t</tspan><tspan x="55.97" y="0">ale</tspan></text>
          <text class="cls-7" transform="translate(319.84 521.61)"><tspan x="0" y="0">Calma</tspan></text>
          <text class="cls-7" transform="translate(675.75 232.69)"><tspan x="0" y="0">Astiosa</tspan></text>
          <text class="cls-7" transform="translate(812.65 313.94)"><tspan x="0" y="0">I</tspan><tspan class="cls-41" x="6.79" y="0">n</tspan><tspan x="19.07" y="0">vidiosa</tspan></text>
          <text class="cls-7" transform="translate(595.14 354.24)"><tspan x="0" y="0">Chiusa</tspan></text>
          <text class="cls-7" transform="translate(698.78 471.95)"><tspan x="0" y="0">Apatica</tspan></text>
          <text class="cls-7" transform="translate(755.71 407.34)"><tspan class="cls-17" x="0" y="0">A</tspan><tspan class="cls-35" x="17.39" y="0">bbandona</tspan><tspan class="cls-33" x="125.53" y="0">t</tspan><tspan x="132.03" y="0">a</tspan></text>
        </g>
        <text class="cls-8" transform="translate(324.39 158.19)"><tspan class="cls-11" x="0" y="0">T</tspan><tspan class="cls-36" x="32.27" y="0">r</tspan><tspan x="60.29" y="0">ica</tspan><tspan class="cls-36" x="155.71" y="0">r</tspan><tspan x="183.73" y="0">ico </tspan><tspan class="cls-13" x="301.46" y="0">e</tspan><tspan x="341.37" y="0">’:</tspan></text>
      </g>
    </g>
  </g>
</svg>